<svg width="100" height="100" viewBox="0 0 4657 3629" preserveAspectRatio="none" xmlns="http://www.w3.org/2000/svg" stroke-linejoin="round"><path d="M994.8 270.9c-374.8 314.1-432.9 908.1-686.7 1346.4 -88.4 152.5-202.5 289-262.1 458.1 -136.8 387.2 51.5 826.4 303.4 1133.9 120.1 146.7 260.5 281.1 430.2 342.9 130.6 47.6 270.6 49.5 408 50.8l2407.7 24.8c268.8 2.7 567.5-7.1 760.8-214.7 133.2-142.9 187.3-351.6 233.3-550.8 56.4-244.8 107.6-510.6 19.8-743.8 -100.2-266.7-353.9-417.9-511.4-648.1 -255.7-372.9-249.8-936.9-575.3-1234.6 -152-138.9-352.6-193.4-548-220.7 -368.4-51.4-717.4 45.7-1079.2 32.1 -309.3-11.6-643.7 8.6-900.3 223.6Z" fill="#eef7f7"/></svg>
