<svg width="545" height="436" viewBox="0 0 545 436" fill="none" xmlns="http://www.w3.org/2000/svg">
<path opacity="0.1" d="M32.5742 186.524C51.7351 160.208 45.4118 122.644 34.3362 92.7174C30.6263 82.6994 26.4124 72.1033 28.3358 61.2034C30.6851 47.8787 41.7264 37.895 53.2033 32.4573C74.1262 22.547 98.842 24.1293 117.558 36.6164C133.709 47.3937 145.078 65.3037 161.542 75.5667C189.097 92.737 224.868 85.0655 255.536 71.9563C277.232 62.6829 300.998 50.7396 322.141 59.3027C337.02 65.3282 347.038 80.6664 352.309 97.0627C354.854 104.979 356.636 113.572 361.706 119.769C364.721 123.452 368.705 126.019 372.801 128.165C410.188 147.76 458.279 135.513 494.526 157.377C518.997 172.142 534.228 200.795 540.556 230.917C546.884 261.04 545.318 292.838 542.798 324.092C541.006 346.304 538.173 370.038 524.831 387.493C510.721 405.946 487.072 413.28 465.924 410.39C444.776 407.499 425.816 395.742 409.229 381.707C388.483 364.199 369.395 342.218 343.593 335.57C326.018 331.044 307.346 334.248 289.076 335.663C258.536 338.025 228.104 335.306 197.857 332.234C168.903 329.295 139.748 326.013 112.326 316.377C92.92 309.558 77.5374 296.669 59.2673 287.861C47.3596 282.12 34.2578 280.787 23.05 273.37C9.21893 264.234 -3.28094 248.048 0.776367 228.625C4.60858 210.161 22.3942 200.491 32.5742 186.524Z" fill="#48A9A6"/>
<path d="M427.67 419.356H109.677V13.7961C109.677 13.7961 447.291 -17.2451 427.67 13.7961C408.049 44.8373 427.67 419.356 427.67 419.356Z" fill="#F2F2F2"/>
<path d="M428.346 420.031H109V13.121H299.21V14.4706H110.353V418.681H426.993V97.0898H428.346V420.031Z" fill="#3F3D56"/>
<path d="M341.961 118.789C333.131 118.79 323.631 116.979 314.996 111.539C289.947 95.759 265.905 111.37 265.665 111.53L265.588 111.575C265.365 111.683 250.517 118.788 233.032 118.789C224.201 118.79 214.701 116.979 206.066 111.539C181.017 95.759 156.976 111.37 156.736 111.53L155.985 110.407C156.233 110.243 181.006 94.1577 206.789 110.398C231.511 125.973 263.714 110.972 264.958 110.379C266.139 109.621 290.443 94.4779 315.719 110.398C340.819 126.209 373.594 110.523 373.922 110.363L374.517 111.575C374.295 111.683 359.446 118.788 341.961 118.789Z" fill="#3F3D56"/>
<path d="M341.961 151.18C333.131 151.18 323.631 149.37 314.996 143.93C289.947 128.15 265.905 143.761 265.665 143.921L265.588 143.965C265.365 144.074 250.517 151.179 233.032 151.18C224.201 151.18 214.701 149.37 206.066 143.93C181.017 128.15 156.976 143.761 156.736 143.921L155.985 142.798C156.233 142.634 181.006 126.549 206.789 142.789C231.511 158.363 263.714 143.363 264.958 142.77C266.139 142.012 290.443 126.869 315.719 142.789C340.819 158.601 373.594 142.914 373.922 142.754L374.517 143.965C374.295 144.074 359.446 151.179 341.961 151.18Z" fill="#3F3D56"/>
<path d="M341.961 183.571C333.131 183.571 323.631 181.76 314.996 176.321C289.947 160.54 265.905 176.152 265.665 176.312L265.588 176.356C265.365 176.465 250.517 183.569 233.032 183.571C224.201 183.571 214.701 181.76 206.066 176.321C181.017 160.54 156.976 176.152 156.736 176.312L155.985 175.189C156.233 175.024 181.006 158.939 206.789 175.18C231.511 190.754 263.714 175.754 264.958 175.161C266.139 174.403 290.443 159.259 315.719 175.18C340.819 190.991 373.594 175.305 373.922 175.144L374.517 176.356C374.295 176.465 359.446 183.569 341.961 183.571Z" fill="#3F3D56"/>
<path d="M239.409 216.014C239.136 216.014 238.863 216.006 238.588 215.989C234.16 215.715 230.231 213.206 226.913 208.531C223.624 203.898 220.128 201.574 216.443 201.619C210.295 201.696 205.682 208.449 205.637 208.517L205.574 208.596C205.278 208.92 198.238 216.514 189.874 215.989C185.446 215.715 181.518 213.206 178.199 208.531C174.91 203.898 171.384 201.574 167.729 201.619C161.581 201.696 156.969 208.449 156.923 208.517L155.799 207.765C156.002 207.463 160.861 200.356 167.712 200.269C171.861 200.198 175.742 202.735 179.303 207.751C182.372 212.074 185.955 214.392 189.952 214.642C197.406 215.1 204.035 208.257 204.544 207.719C205.015 207.035 209.784 200.353 216.426 200.269C216.467 200.269 216.51 200.269 216.551 200.269C220.635 200.269 224.491 202.785 228.017 207.751C231.086 212.074 234.669 214.392 238.665 214.642C246.391 215.129 253.221 207.76 253.289 207.686L254.288 208.596C254.002 208.909 247.402 216.014 239.409 216.014Z" fill="#3F3D56"/>
<path d="M300.472 344.453H236.874V301.265H285.587V302.614H238.227V343.103H299.119V322.859H300.472V344.453Z" fill="#3F3D56"/>
<path d="M148.919 59.6831C147.313 59.6831 145.743 59.2082 144.408 58.3184C143.073 57.4286 142.032 56.1639 141.418 54.6843C140.803 53.2046 140.643 51.5764 140.956 50.0056C141.269 48.4348 142.042 46.9919 143.178 45.8594C144.313 44.727 145.76 43.9557 147.335 43.6433C148.91 43.3308 150.542 43.4912 152.026 44.1041C153.509 44.717 154.777 45.7549 155.669 47.0865C156.562 48.4182 157.038 49.9838 157.038 51.5854C157.035 53.7323 156.179 55.7905 154.657 57.3086C153.135 58.8267 151.071 59.6806 148.919 59.6831ZM148.919 44.8373C147.581 44.8373 146.273 45.2331 145.16 45.9746C144.047 46.716 143.18 47.77 142.668 49.003C142.156 50.2361 142.022 51.5929 142.283 52.9019C142.544 54.2109 143.188 55.4133 144.135 56.357C145.081 57.3008 146.286 57.9434 147.599 58.2038C148.911 58.4642 150.272 58.3306 151.508 57.8198C152.744 57.3091 153.801 56.4442 154.544 55.3344C155.288 54.2247 155.685 52.92 155.685 51.5854C155.683 49.7963 154.969 48.0811 153.701 46.816C152.432 45.5509 150.713 44.8393 148.919 44.8373Z" fill="#48A9A6"/>
<path d="M285.283 329.74L269.187 307.571L273.572 304.406L285.892 321.375L333.039 273.064L336.917 276.83L285.283 329.74Z" fill="#48A9A6"/>
<path d="M345.465 153.819C345.465 153.819 353.584 174.738 338.7 174.738C323.815 174.738 361.703 195.657 376.588 183.511C391.473 171.364 382.677 170.689 382.677 170.689C382.677 170.689 363.056 172.714 363.733 155.169L345.465 153.819Z" fill="#A0616A"/>
<path d="M354.612 160.381C369.178 160.381 380.986 148.604 380.986 134.076C380.986 119.548 369.178 107.771 354.612 107.771C340.046 107.771 328.238 119.548 328.238 134.076C328.238 148.604 340.046 160.381 354.612 160.381Z" fill="#2F2E41"/>
<path d="M341.405 240.869L315.695 307.001C315.695 307.001 302.84 327.245 307.576 347.489C312.312 367.733 323.137 404.173 323.137 404.173C323.137 404.173 335.316 399.449 334.639 390.677C333.963 381.904 340.052 350.863 329.903 339.391L365.762 288.781L367.115 342.091C367.115 342.091 364.409 366.384 365.086 377.181C365.762 387.978 367.115 406.198 367.115 406.198L375.234 404.848C375.234 404.848 389.442 354.912 388.089 338.717C388.089 338.717 413.799 259.764 388.089 240.869L341.405 240.869Z" fill="#2F2E41"/>
<path d="M325.168 400.799C325.168 400.799 319.078 400.799 319.755 406.198C320.432 411.596 314.342 437.914 327.197 435.889C340.052 433.865 341.406 421.043 341.406 412.271C341.406 403.498 342.082 402.824 343.435 400.799C344.789 398.775 348.848 381.23 343.435 381.905C338.023 382.579 331.933 385.953 331.933 385.953C331.933 385.953 333.963 400.799 325.168 400.799Z" fill="#2F2E41"/>
<path d="M371.175 400.799C371.175 400.799 361.703 399.45 362.38 402.824C363.056 406.198 361.027 420.369 362.38 421.718C363.733 423.068 366.439 425.767 366.439 427.791C366.439 429.816 367.116 436.564 378.618 434.54C390.12 432.515 387.413 422.393 386.737 421.043C386.06 419.694 377.941 412.946 378.618 408.897C379.294 404.848 375.235 398.1 371.175 400.799Z" fill="#2F2E41"/>
<path d="M354.937 163.266C365.026 163.266 373.205 155.109 373.205 145.047C373.205 134.984 365.026 126.827 354.937 126.827C344.848 126.827 336.669 134.984 336.669 145.047C336.669 155.109 344.848 163.266 354.937 163.266Z" fill="#A0616A"/>
<path d="M372.19 169.002C372.19 169.002 378.035 180.537 360.253 180.737C354.667 180.8 349.34 176.013 345.803 171.701C344.554 170.179 344.027 173.304 341.744 173.051C335.654 172.376 319.078 173.388 319.078 184.185C319.078 194.982 338.022 236.146 336.669 240.194C335.316 244.243 328.55 243.569 336.669 246.268C344.788 248.967 361.026 242.219 371.851 247.617C382.677 253.016 392.825 239.52 392.825 239.52L409.063 181.486C409.063 181.486 384.368 166.303 372.19 169.002Z" fill="#575A89"/>
<path d="M325.167 277.984C325.167 277.984 308.253 291.48 315.695 296.204C323.138 300.927 331.933 277.984 331.933 277.984H325.167Z" fill="#A0616A"/>
<path d="M390.119 229.398C390.119 229.398 367.792 238.17 375.234 242.894C382.677 247.618 390.119 234.796 390.119 234.796V229.398Z" fill="#A0616A"/>
<path d="M325.844 177.437C323.358 178.33 321.203 179.956 319.665 182.1C318.128 184.243 317.281 186.803 317.236 189.438L316.372 240.869C316.372 240.869 312.313 282.708 322.461 282.708C332.61 282.708 340.053 286.082 341.406 282.708C342.759 279.334 336.67 248.967 336.67 248.967L325.844 177.437Z" fill="#575A89"/>
<path d="M396.209 179.462L409.064 181.486C409.064 181.486 444.923 199.031 436.804 211.178C428.685 223.324 394.179 240.869 394.179 240.869C394.179 240.869 381.324 234.796 385.383 230.747C389.443 226.698 407.711 212.527 407.711 212.527L392.149 198.356L396.209 179.462Z" fill="#575A89"/>
<path d="M372.02 131.036L358.635 124.044L340.153 126.904L336.329 143.749L345.848 143.384L348.507 137.195V143.282L352.9 143.114L355.449 133.261L357.043 143.749L372.657 143.431L372.02 131.036Z" fill="#2F2E41"/>
<path d="M355.999 114.694C361.877 114.694 366.642 109.941 366.642 104.079C366.642 98.2172 361.877 93.4651 355.999 93.4651C350.122 93.4651 345.357 98.2172 345.357 104.079C345.357 109.941 350.122 114.694 355.999 114.694Z" fill="#2F2E41"/>
<path d="M342.581 100.849C342.581 98.3137 343.491 95.8622 345.146 93.9378C346.801 92.0134 349.092 90.7432 351.604 90.3569C350.088 90.1255 348.54 90.2237 347.065 90.6446C345.591 91.0656 344.225 91.7994 343.062 92.7959C341.898 93.7924 340.964 95.0279 340.324 96.4178C339.684 97.8078 339.352 99.3193 339.352 100.849C339.352 102.379 339.684 103.89 340.324 105.28C340.964 106.67 341.898 107.906 343.062 108.902C344.225 109.898 345.591 110.632 347.065 111.053C348.54 111.474 350.088 111.572 351.604 111.341C349.092 110.955 346.801 109.685 345.146 107.76C343.491 105.836 342.581 103.384 342.581 100.849Z" fill="#2F2E41"/>
<path d="M148.773 396.659C152.61 410.807 165.753 419.569 165.753 419.569C165.753 419.569 172.675 405.393 168.838 391.245C165.001 377.098 151.857 368.336 151.857 368.336C151.857 368.336 144.935 382.511 148.773 396.659Z" fill="#3F3D56"/>
<path d="M154.411 393.619C164.94 403.842 166.227 419.557 166.227 419.557C166.227 419.557 150.441 418.697 139.912 408.474C129.382 398.251 128.096 382.536 128.096 382.536C128.096 382.536 143.882 383.395 154.411 393.619Z" fill="#48A9A6"/>
</svg>
