<svg width="902" height="639" viewBox="0 0 902 639" fill="none" xmlns="http://www.w3.org/2000/svg">
<g clip-path="url(#clip0)">
<path opacity="0.1" d="M299.878 638.641C343.804 638.641 379.414 632.921 379.414 625.865C379.414 618.809 343.804 613.089 299.878 613.089C255.951 613.089 220.341 618.809 220.341 625.865C220.341 632.921 255.951 638.641 299.878 638.641Z" fill="#48A9A6"/>
<path opacity="0.1" d="M517.226 639C572.04 639 616.475 633.28 616.475 626.224C616.475 619.168 572.04 613.448 517.226 613.448C462.412 613.448 417.977 619.168 417.977 626.224C417.977 633.28 462.412 639 517.226 639Z" fill="#48A9A6"/>
<path opacity="0.1" d="M11.2969 276.094H94.1392V389.021H17.3618C17.1577 390.181 16.9618 391.348 16.7496 392.516H94.1392V483.589C94.0004 483.548 93.878 483.499 93.7474 483.45C91.5598 482.585 89.3885 481.671 87.2173 480.691L85.8296 480.062C83.6529 479.034 81.4763 477.945 79.2996 476.797C78.5404 476.397 77.7813 475.98 77.0304 475.556C64.9463 468.786 53.9686 460.208 44.4779 450.118C44.2004 449.849 43.9392 449.563 43.6617 449.302C42.3393 447.865 41.0415 446.412 39.7844 444.926L38.3968 443.293C36.9112 441.473 35.4746 439.603 34.0788 437.709C33.8747 437.432 33.6788 437.154 33.4666 436.893C27.7899 429.021 23.0764 420.497 19.4269 411.504C19.3126 411.235 19.2147 410.941 19.1086 410.688C17.9876 407.803 16.9944 404.892 16.1292 401.953C15.7537 400.72 15.3946 399.504 15.0844 398.222C14.9701 397.846 14.8722 397.479 14.7824 397.112C10.146 379.013 9.59912 360.212 9.59912 341.542C9.59912 339.362 9.59912 337.174 9.59912 335.011C9.59912 327.46 9.68891 319.859 9.81951 312.267C9.81951 310.3 9.90114 308.34 9.94195 306.365C10.0562 301.352 10.2195 296.34 10.4317 291.327C10.4807 289.931 10.546 288.544 10.6194 287.156C10.6194 286.356 10.6603 285.556 10.7419 284.756C10.9378 281.849 11.101 278.968 11.2969 276.094Z" fill="#48A9A6"/>
<path opacity="0.1" d="M94.1394 150.358H48.6982C56.085 138.795 64.1558 127.683 72.8677 117.083C79.6182 108.789 86.7441 100.707 94.1394 92.9185V150.358Z" fill="#48A9A6"/>
<path opacity="0.1" d="M94.1391 153.852V272.6H11.5581C11.5581 272.257 11.6152 271.906 11.6397 271.563C11.7132 270.624 11.7867 269.686 11.8683 268.755C11.9581 267.661 12.056 266.559 12.1621 265.489C12.2682 264.42 12.3825 263.114 12.505 261.93C12.6274 260.746 12.7417 259.546 12.8804 258.363C13.0192 257.179 13.1416 255.995 13.2886 254.82C13.4355 253.644 13.5661 252.452 13.7212 251.277C13.8436 250.297 13.9742 249.325 14.1048 248.346C14.2926 246.966 14.4885 245.578 14.7007 244.207C14.7007 244.003 14.7578 243.79 14.7905 243.595C16.2803 233.555 18.3103 223.602 20.8716 213.781C23.5527 203.478 26.9764 193.383 31.1157 183.576C35.5151 173.315 40.6661 163.394 46.5267 153.893L94.1391 153.852Z" fill="#48A9A6"/>
<path opacity="0.1" d="M113.917 276.086V389.021H290.858V276.086H113.917ZM113.917 392.507V489.491C114.93 489.703 115.934 489.908 116.929 490.079C118.284 490.34 119.631 490.577 121.011 490.781C121.272 490.822 121.541 490.863 121.827 490.887C122.366 490.977 122.921 491.051 123.46 491.124C124.823 491.312 126.178 491.467 127.541 491.589C128.186 491.655 128.839 491.712 129.492 491.761L131.067 491.883C131.924 491.948 132.773 491.998 133.614 492.022C134.136 492.022 134.659 492.071 135.197 492.087C135.606 492.087 136.014 492.087 136.438 492.087C136.863 492.087 137.467 492.087 137.981 492.087C138.683 492.087 139.385 492.087 140.079 492.087H141.017C141.719 492.087 142.421 492.087 143.115 492.022H143.164C143.646 492.022 144.135 492.022 144.625 491.957C144.761 491.965 144.897 491.965 145.033 491.957C145.441 491.957 145.85 491.957 146.241 491.9H146.527L149.262 491.687C150.159 491.606 151.065 491.5 151.98 491.402L153.841 491.181C161.412 490.12 168.9 488.527 176.247 486.414C192.752 481.809 208.897 475.368 225.394 470.65C246.723 464.568 270.288 461.58 290.899 469.017V392.507H113.917ZM290.858 150.358V0.00816268C271.486 -0.201744 252.167 2.06432 233.369 6.75132C188.564 18.009 148.364 42.4264 113.917 73.6115V150.35H122.798V153.835H113.917V272.6H290.858V153.844H159.261V150.358H290.858ZM518.129 99.5718C507.045 99.18 496.025 95.6696 486.059 90.2489C466.999 79.8811 451.776 63.8722 434.765 50.3614C399.421 22.2214 355.588 5.24105 310.62 1.02862V150.358H563.211L563.84 149.696L518.129 99.5718ZM541.14 95.49L565.538 122.267V88.4693C557.367 89.4816 550.208 91.8898 541.172 95.4573L541.14 95.49ZM565.538 513.574V392.507H513.55C513.411 391.993 513.273 391.471 513.109 390.948C513.264 391.471 513.395 391.993 513.542 392.507H310.652V480.062C312.579 481.491 314.481 482.993 316.366 484.52C318.399 486.152 320.407 487.875 322.423 489.565L324.455 491.246C325.427 492.063 326.406 492.879 327.394 493.647C329.353 495.236 331.331 496.803 333.328 498.349C334.316 499.165 335.328 499.9 336.332 500.667C352.271 512.855 369.085 523.854 386.638 533.575C390.572 535.752 394.542 537.877 398.547 539.951C401.217 541.314 403.902 542.669 406.596 543.983C410.644 545.959 414.726 547.864 418.84 549.698C456.768 566.726 496.875 578.411 538.014 584.418C547.15 585.768 556.322 586.829 565.53 587.602V513.566H566.346L565.538 513.574ZM310.652 153.844V272.6H565.57V153.844H310.652ZM310.652 276.086V389.021H565.57V276.086H310.652ZM585.357 88.3223V126.022L616.497 91.849C606.179 90.1836 595.799 88.9945 585.357 88.2815V88.3223ZM585.357 276.127V389.021H833.296V276.086L585.357 276.127ZM832.39 522.538L833.263 392.507H585.357V588.9C601.327 589.571 617.321 589.38 633.271 588.328H633.549C641.167 587.849 648.75 587.153 656.298 586.238H656.469C696.736 581.552 736.109 571.044 773.358 555.045L832.39 522.538ZM881.104 294.683C880.173 292.487 879.202 290.307 878.214 288.152C876.37 284.07 874.419 280.102 872.411 276.135H853.065V389.021H901.976C901.951 357.053 893.862 324.398 881.128 294.642L881.104 294.683ZM853.065 392.548V504.39C866.844 491.181 878.484 476.07 886.867 458.796C896.948 437.995 901.559 415.472 901.935 392.532L853.065 392.548ZM853.065 243.219V272.608H870.599C865.295 262.491 859.45 252.667 853.09 243.178L853.065 243.219ZM684.916 110.478C683.626 109.989 682.336 109.491 681.039 109.009C667.351 103.953 653.363 99.7493 639.156 96.4206L591.503 148.725L590.589 149.696L591.201 150.366H760.804C737.183 134.104 711.717 120.701 684.94 110.438L684.916 110.478ZM765.775 153.884H588.834L585.357 157.068V272.6H615.836H615.885H833.328V216.638C813.658 192.846 790.955 171.735 765.799 153.844L765.775 153.884Z" fill="#48A9A6"/>
<path opacity="0.1" d="M94.1391 213.748V272.6H11.5581C11.5581 272.257 11.6152 271.906 11.6397 271.563C11.7132 270.624 11.7867 269.686 11.8683 268.755C11.9581 267.661 12.056 266.559 12.1621 265.489C12.2682 264.42 12.3825 263.114 12.505 261.93C12.6274 260.746 12.7417 259.546 12.8804 258.363C13.0192 257.179 13.1416 255.995 13.2886 254.82C13.4355 253.644 13.5661 252.452 13.7212 251.277C13.8436 250.297 13.9742 249.325 14.1048 248.346C14.2926 246.966 14.4885 245.578 14.7007 244.207C14.7007 244.003 14.7578 243.791 14.7905 243.595C16.2803 233.555 18.3103 223.602 20.8716 213.781L94.1391 213.748Z" fill="#48A9A6"/>
<path opacity="0.1" d="M11.2969 276.094H94.1392V389.021H17.3618C17.1577 390.181 16.9618 391.348 16.7496 392.516H94.1392V483.589C94.0004 483.548 93.878 483.499 93.7474 483.45C91.5598 482.585 89.3885 481.671 87.2173 480.691L85.8296 480.062C83.6529 479.034 81.4763 477.945 79.2996 476.797C78.5404 476.397 77.7813 475.98 77.0304 475.556C64.9463 468.786 53.9686 460.208 44.4779 450.118C44.2004 449.849 43.9392 449.563 43.6617 449.302C42.3393 447.865 41.0415 446.412 39.7844 444.926L38.3968 443.293C36.9112 441.473 35.4746 439.603 34.0788 437.709C33.8747 437.432 33.6788 437.154 33.4666 436.893C27.7899 429.021 23.0764 420.497 19.4269 411.504C19.3126 411.235 19.2147 410.941 19.1086 410.688C17.9876 407.803 16.9944 404.892 16.1292 401.953C15.7537 400.72 15.3946 399.504 15.0844 398.222C14.9701 397.846 14.8722 397.479 14.7824 397.112C10.146 379.013 9.59912 360.212 9.59912 341.542C9.59912 339.362 9.59912 337.174 9.59912 335.011C9.59912 327.46 9.68891 319.859 9.81951 312.267C9.81951 310.3 9.90114 308.34 9.94195 306.365C10.0562 301.352 10.2195 296.34 10.4317 291.327C10.4807 289.931 10.546 288.544 10.6194 287.156C10.6194 286.356 10.6603 285.556 10.7419 284.756C10.9378 281.849 11.101 278.968 11.2969 276.094Z" fill="#48A9A6"/>
<path opacity="0.1" d="M176.206 170.848V272.6H113.917V170.848H122.798V136.398H159.253V170.848H176.206Z" fill="#48A9A6"/>
<path opacity="0.1" d="M176.206 276.086H113.925V389.013H176.206V276.086Z" fill="#48A9A6"/>
<path opacity="0.1" d="M113.917 392.516H176.206V486.397C168.859 488.509 161.371 490.099 153.8 491.157L151.939 491.385C151.025 491.491 150.119 491.581 149.221 491.671C148.323 491.761 147.392 491.826 146.486 491.883H146.201C145.809 491.883 145.384 491.932 145.001 491.94H144.584C144.095 491.94 143.605 491.989 143.115 492.006C142.421 492.046 141.727 492.055 141.017 492.063C140.715 492.063 140.43 492.063 140.128 492.063C139.426 492.063 138.732 492.063 138.03 492.063H136.487C136.071 492.063 135.671 492.063 135.238 492.063L133.663 492.006C132.847 492.006 131.965 491.916 131.116 491.859L129.549 491.744L127.598 491.565C126.227 491.442 124.864 491.287 123.517 491.1L121.884 490.871L121.068 490.757C119.705 490.544 118.358 490.316 116.987 490.055C115.983 489.883 114.987 489.671 113.975 489.467L113.917 392.516Z" fill="#48A9A6"/>
<path opacity="0.1" d="M565.57 158.832H514.211V272.592H565.57V158.832Z" fill="#48A9A6"/>
<path opacity="0.1" d="M565.579 276.086V389.021H310.652V340.309H446.437V369.045H514.211V276.086H565.579Z" fill="#48A9A6"/>
<path opacity="0.1" d="M566.387 513.599H565.57V587.684C556.374 586.905 547.204 585.847 538.062 584.508C496.904 578.481 456.78 566.772 418.839 549.714C407.885 544.784 397.154 539.401 386.646 533.567C369.094 523.841 352.277 512.843 336.332 500.659C332.327 497.59 328.373 494.449 324.472 491.238C321.77 489.01 319.084 486.724 316.366 484.503C314.481 482.977 312.579 481.475 310.652 480.038V392.516H513.534C513.395 391.993 513.256 391.471 513.109 390.956C513.264 391.471 513.411 391.993 513.55 392.516H565.57V513.55C565.848 513.558 566.117 513.582 566.387 513.599Z" fill="#48A9A6"/>
<path opacity="0.1" d="M699.518 150.358H666.052V139.957H681.055V108.976C682.355 109.45 683.65 109.937 684.94 110.438V139.957H699.518V150.358Z" fill="#48A9A6"/>
<path opacity="0.1" d="M780.149 272.6H615.852C615.852 272.6 615.852 272.6 615.909 272.641L615.836 272.6H585.356V158.84H593.992V242.925H633.459V193.127H666.06V153.852H699.527V193.16H732.128V242.958H780.149V272.6Z" fill="#48A9A6"/>
<path opacity="0.1" d="M585.356 276.086V389.021H780.149V276.086H585.356ZM833.026 521.958L833.295 432.566H780.149V392.565H585.356V588.9C601.327 589.571 617.321 589.38 633.271 588.328H633.548C641.167 587.849 648.75 587.153 656.298 586.238H656.469C696.736 581.552 736.109 571.044 773.357 555.045" fill="#48A9A6"/>
<path opacity="0.1" d="M856.526 392.516H901.967C901.567 415.447 896.963 437.971 886.891 458.771C878.508 476.054 866.86 491.165 853.098 504.365V432.525H856.526V392.516Z" fill="#48A9A6"/>
<path opacity="0.1" d="M901.992 389.021H856.526V294.642H881.128C893.862 324.398 901.951 357.053 901.992 389.021Z" fill="#48A9A6"/>
<path opacity="0.1" d="M565.579 190.457H538.062V226.124H565.579V190.457Z" fill="#48A9A6"/>
<path opacity="0.1" d="M565.579 264.387H538.062V272.6H565.579V264.387Z" fill="#48A9A6"/>
<path opacity="0.1" d="M565.579 276.086H538.062V300.046H565.579V276.086Z" fill="#48A9A6"/>
<path opacity="0.1" d="M565.579 338.317H538.062V373.984H565.579V338.317Z" fill="#48A9A6"/>
<path opacity="0.1" d="M565.579 412.247H538.062V447.914H565.579V412.247Z" fill="#48A9A6"/>
<path opacity="0.1" d="M565.57 513.549C565.848 513.549 566.117 513.549 566.387 513.598H565.57V521.885H538.062V486.177H565.57V513.549Z" fill="#48A9A6"/>
<path opacity="0.1" d="M565.57 560.09V587.643C556.374 586.864 547.205 585.806 538.062 584.467V560.09H565.57Z" fill="#48A9A6"/>
<path opacity="0.1" d="M428.577 386.401H310.652V389.021H428.577V386.401Z" fill="#48A9A6"/>
<path opacity="0.1" d="M428.577 392.507H310.652V402.549H428.577V392.507Z" fill="#48A9A6"/>
<path opacity="0.1" d="M428.577 435.464H310.652V451.612H428.577V435.464Z" fill="#48A9A6"/>
<path opacity="0.1" d="M428.569 484.528V500.675H336.332C332.327 497.617 328.371 494.477 324.463 491.255C321.762 489.026 319.084 486.74 316.358 484.528H428.569Z" fill="#48A9A6"/>
<path opacity="0.1" d="M428.569 533.583V549.714H418.831C407.888 544.778 397.159 539.393 386.646 533.559L428.569 533.583Z" fill="#48A9A6"/>
<path opacity="0.1" d="M656.493 287.033H633.279V310.251H656.493V287.033Z" fill="#48A9A6"/>
<path opacity="0.1" d="M153.857 178.857H130.643V202.074H153.857V178.857Z" fill="#48A9A6"/>
<path opacity="0.1" d="M153.857 232.786H130.643V256.003H153.857V232.786Z" fill="#48A9A6"/>
<path opacity="0.1" d="M153.857 286.715H130.643V309.932H153.857V286.715Z" fill="#48A9A6"/>
<path opacity="0.1" d="M153.857 340.636H130.643V363.853H153.857V340.636Z" fill="#48A9A6"/>
<path opacity="0.1" d="M153.857 394.565H130.643V417.782H153.857V394.565Z" fill="#48A9A6"/>
<path opacity="0.1" d="M153.857 448.494H130.643V471.711H153.857V448.494Z" fill="#48A9A6"/>
<path opacity="0.1" d="M745.115 287.033H721.9V310.251H745.115V287.033Z" fill="#48A9A6"/>
<path opacity="0.1" d="M656.493 344.301H633.279V367.518H656.493V344.301Z" fill="#48A9A6"/>
<path opacity="0.1" d="M745.115 344.301H721.9V367.518H745.115V344.301Z" fill="#48A9A6"/>
<path opacity="0.1" d="M656.493 401.561H633.279V424.778H656.493V401.561Z" fill="#48A9A6"/>
<path opacity="0.1" d="M745.115 401.561H721.9V424.778H745.115V401.561Z" fill="#48A9A6"/>
<path opacity="0.1" d="M656.493 458.829H633.279V482.046H656.493V458.829Z" fill="#48A9A6"/>
<path opacity="0.1" d="M745.115 458.829H721.9V482.046H745.115V458.829Z" fill="#48A9A6"/>
<path opacity="0.1" d="M656.493 516.097H633.279V539.314H656.493V516.097Z" fill="#48A9A6"/>
<path opacity="0.1" d="M745.115 516.097H721.9V539.314H745.115V516.097Z" fill="#48A9A6"/>
<path opacity="0.1" d="M633.279 588.328V573.356H656.485V586.198L633.279 588.328Z" fill="#48A9A6"/>
<path opacity="0.1" d="M14.6929 243.578V256.86H94.1395V243.578H14.6929ZM22.6106 256.028H16.1295V244.395H22.6596L22.6106 256.028ZM30.5202 256.028H23.9901V244.395H30.5202V256.028ZM38.4134 256.028H31.8833V244.395H38.4134V256.028ZM46.3229 256.028H39.801V244.395H46.3311L46.3229 256.028ZM54.2243 256.028H47.6943V244.395H54.2243V256.028ZM62.1339 256.028H55.6038V244.395H62.1339V256.028ZM70.0435 256.028H63.5134V244.395H70.0435V256.028ZM77.9449 256.028H71.4148V244.395H77.9449V256.028ZM85.8463 256.028H79.3162V244.395H85.8463V256.028ZM93.7477 256.028H87.2176V244.395H93.7477V256.028Z" fill="#48A9A6"/>
<path opacity="0.1" d="M14.6929 282.225V295.507H94.1395V282.225H14.6929ZM22.6106 294.666H16.1295V283.066H22.6596L22.6106 294.666ZM30.5202 294.666H23.9901V283.066H30.5202V294.666ZM38.4134 294.666H31.8833V283.066H38.4134V294.666ZM46.3229 294.666H39.801V283.066H46.3311L46.3229 294.666ZM54.2243 294.666H47.6943V283.066H54.2243V294.666ZM62.1339 294.666H55.6038V283.066H62.1339V294.666ZM70.0435 294.666H63.5134V283.066H70.0435V294.666ZM77.9449 294.666H71.4148V283.066H77.9449V294.666ZM85.8463 294.666H79.3162V283.066H85.8463V294.666ZM93.7477 294.666H87.2176V283.066H93.7477V294.666Z" fill="#48A9A6"/>
<path opacity="0.1" d="M14.6929 320.888V334.195H94.1395V320.888H14.6929ZM22.6106 333.329H16.1295V321.72H22.6596L22.6106 333.329ZM30.5202 333.329H23.9901V321.72H30.5202V333.329ZM38.4134 333.329H31.8833V321.72H38.4134V333.329ZM46.3229 333.329H39.801V321.72H46.3311L46.3229 333.329ZM54.2243 333.329H47.6943V321.72H54.2243V333.329ZM62.1339 333.329H55.6038V321.72H62.1339V333.329ZM70.0435 333.329H63.5134V321.72H70.0435V333.329ZM77.9449 333.329H71.4148V321.72H77.9449V333.329ZM85.8463 333.329H79.3162V321.72H85.8463V333.329ZM93.7477 333.329H87.2176V321.72H93.7477V333.329Z" fill="#48A9A6"/>
<path opacity="0.1" d="M14.6929 359.551V372.817H94.1395V359.551H14.6929ZM22.6106 371.992H16.1295V360.375H22.6596L22.6106 371.992ZM30.5202 371.992H23.9901V360.375H30.5202V371.992ZM38.4134 371.992H31.8833V360.375H38.4134V371.992ZM46.3229 371.992H39.801V360.375H46.3311L46.3229 371.992ZM54.2243 371.992H47.6943V360.375H54.2243V371.992ZM62.1339 371.992H55.6038V360.375H62.1339V371.992ZM70.0435 371.992H63.5134V360.375H70.0435V371.992ZM77.9449 371.992H71.4148V360.375H77.9449V371.992ZM85.8463 371.992H79.3162V360.375H85.8463V371.992ZM93.7477 371.992H87.2176V360.375H93.7477V371.992Z" fill="#48A9A6"/>
<path opacity="0.1" d="M15.0356 398.206C15.354 399.455 15.7131 400.704 16.0886 401.936V399.038H22.6187V410.647H19.1251C19.2312 410.916 19.3373 411.21 19.4434 411.463H94.1394V398.206H15.0356ZM30.5446 410.647H24.0145V399.038H30.5446V410.647ZM38.4378 410.647H31.9077V399.038H38.4378V410.647ZM46.3474 410.647H39.801V399.038H46.3311L46.3474 410.647ZM54.2488 410.647H47.7187V399.038H54.2488V410.647ZM62.1583 410.647H55.6283V399.038H62.1583V410.647ZM70.0679 410.647H63.5378V399.038H70.0679V410.647ZM77.9693 410.647H71.4392V399.038H77.9693V410.647ZM85.8707 410.647H79.3406V399.038H85.8707V410.647ZM93.7721 410.647H87.242V399.038H93.7721V410.647Z" fill="#48A9A6"/>
<path opacity="0.1" d="M33.4829 436.869C33.687 437.13 33.8829 437.424 34.0951 437.685H38.4131V443.261C38.8784 443.816 39.3355 444.371 39.8089 444.893V437.652H46.339V449.302H43.6943C43.9555 449.571 44.2086 449.857 44.5106 450.118H94.1637V436.869H33.4829ZM54.2241 449.302H47.694V437.701H54.2241V449.302ZM62.1336 449.302H55.6036V437.701H62.1336V449.302ZM70.0432 449.302H63.5131V437.701H70.0432V449.302ZM77.9446 449.302H71.4145V437.701H77.9446V449.302ZM85.846 449.302H79.3159V437.701H85.846V449.302ZM93.7474 449.302H87.2173V437.701H93.7474V449.302Z" fill="#48A9A6"/>
<path opacity="0.1" d="M77.063 475.523C77.8058 475.948 78.5649 476.34 79.3322 476.764V476.356H85.8623V480.03L87.2499 480.675V476.356H93.78V483.418C93.9052 483.48 94.0365 483.529 94.1718 483.564V475.523H77.063Z" fill="#48A9A6"/>
<path opacity="0.1" d="M615.852 272.6H615.901H615.852ZM565.57 513.541H566.387H565.57ZM513.109 390.948C513.264 391.471 513.395 391.993 513.542 392.507C513.411 391.993 513.273 391.471 513.109 390.948ZM615.852 272.575H615.901H615.852ZM122.831 150.333V153.819H159.293V150.333H122.831ZM565.57 513.541H566.387H565.57ZM513.109 390.948C513.264 391.471 513.395 391.993 513.542 392.507C513.411 391.993 513.273 391.471 513.109 390.948ZM615.852 272.575H615.901H615.852ZM565.57 513.517H566.387H565.57ZM513.109 390.948C513.264 391.471 513.395 391.993 513.542 392.507C513.411 391.993 513.273 391.471 513.109 390.948Z" fill="#48A9A6"/>
<path d="M376.786 309.949C376.786 309.949 373.57 309.5 373.57 304.814C373.57 300.128 371.268 291.376 371.268 291.376C371.268 291.335 369.276 276.135 366.525 273.718C363.774 271.302 360.24 257.113 360.24 257.113C360.24 257.113 359.636 249.415 358.403 247.758C357.171 246.101 355.506 242.043 353.049 236.255C350.592 230.467 340.348 226.459 340.348 226.459C340.348 226.459 321.827 215.716 316.578 212.214C316.101 211.926 315.655 211.589 315.248 211.209C314.334 210.009 310.35 209.985 310.35 209.985C309.934 207.356 309.534 204.336 309.403 201.601C309.403 201.307 309.403 201.013 309.363 200.719C315.215 197.259 319.623 191.804 321.778 185.355C321.876 185.045 321.957 184.718 322.047 184.408C322.398 184.293 322.721 184.105 322.995 183.858C323.269 183.61 323.488 183.309 323.639 182.971C324.112 181.918 324.121 180.686 324.708 179.706C325.394 178.547 326.7 177.926 327.728 177.053C330.324 174.849 330.993 171.134 330.871 167.754C330.789 165.02 330.349 162.26 330.52 159.542L330.569 158.856C330.618 158.448 330.675 158.04 330.749 157.648C331.149 155.623 332.022 153.713 332.512 151.705C333.001 149.696 333.05 147.435 331.908 145.704C330.234 143.166 326.749 142.659 323.688 142.398C320.219 142.104 317.117 142.488 314.897 139.606C313.858 138.1 312.689 136.688 311.403 135.386C310.946 134.961 306.506 132.251 306.506 132.071C302.172 130.064 297.259 129.687 292.67 131.01C290.368 131.679 288.197 132.773 285.862 133.32C280.826 134.512 275.031 133.222 270.753 136.104C268.37 137.737 266.942 140.333 265.603 142.864C264.515 144.948 263.41 147.03 262.289 149.109C260.485 152.529 258.648 156.007 257.889 159.795C257.73 160.619 257.631 161.454 257.595 162.293V162.334C257.595 162.636 257.595 162.938 257.595 163.24V163.624C257.595 163.909 257.595 164.187 257.644 164.44C257.693 164.693 257.685 164.775 257.71 164.946C257.734 165.118 257.775 165.501 257.824 165.762C257.873 166.024 257.971 166.481 258.069 166.84C258.11 166.995 258.167 167.142 258.216 167.289C258.297 167.567 258.395 167.836 258.501 168.105C258.559 168.244 258.616 168.391 258.681 168.53C258.803 168.816 258.95 169.093 259.097 169.346C259.163 169.461 259.212 169.567 259.277 169.673C259.505 170.053 259.755 170.418 260.028 170.767C261.775 172.946 264.346 174.334 266.248 176.375C266.248 176.457 266.248 176.538 266.248 176.612C266.248 176.841 266.248 177.061 266.248 177.29C266.349 181.841 267.56 186.299 269.776 190.276C271.993 194.253 275.147 197.627 278.965 200.107C278.965 200.417 279.006 200.735 279.022 201.046C279.181 203.469 279.151 205.901 278.932 208.319C278.6 207.928 278.184 207.616 277.715 207.407C277.246 207.198 276.736 207.097 276.222 207.111C275.872 207.094 275.52 207.124 275.178 207.201L275.104 207.144V207.217C273.308 207.658 271.096 209.528 268.982 214.842C268.982 214.842 262.55 222.092 257.653 221.789C252.755 221.487 240.356 229.333 240.356 229.333C240.356 229.333 228.259 237.186 225.663 245.186C224.212 249.723 222.473 254.162 220.456 258.477L205.502 289.295L202.743 313.745C202.743 313.745 204.269 324.619 203.967 326.276C203.665 327.933 210.244 342.881 210.244 342.881C210.244 342.881 231.981 381.078 240.862 383.038L241.499 382.589C241.879 382.787 242.282 382.938 242.699 383.038L244.527 381.748C244.637 383.185 244.59 384.631 244.388 386.058C243.164 389.83 244.845 414.443 246.984 419.268C249.123 424.092 248.363 487.352 248.363 487.352L248.061 492.936C248.061 492.936 248.061 493.116 248.135 493.426L248.061 494.749L248.282 494.863C248.511 496.634 248.436 498.431 248.061 500.177C247.294 502.627 246.984 509.549 246.984 509.549C246.984 509.549 240.87 548.637 243.768 556.49C246.666 564.344 249.131 572.948 249.131 572.948C249.131 572.948 252.192 582.744 249.278 584.418C246.364 586.091 238.079 588.9 239.785 592.982C241.335 596.753 247.221 606.86 248.094 608.337L248.021 609.113L246.821 622.118C247.015 623.835 247.481 625.51 248.2 627.081C249.514 629.914 252.069 632.853 256.926 632.534C257.742 632.477 258.689 632.379 259.603 632.257C268.492 631.065 279.438 627.097 279.438 627.097C278.87 626.736 278.349 626.306 277.888 625.816C277.451 625.392 277.104 624.885 276.87 624.323C276.636 623.762 276.518 623.159 276.524 622.55C276.655 620.183 272.223 608.901 271.121 606.125C270.949 605.725 270.86 605.496 270.86 605.496C270.86 605.496 280.965 594.933 279.283 585.569C279.283 585.569 268.101 579.038 271.782 575.454C275.463 571.87 282.042 561.576 282.042 561.576C282.042 561.576 282.344 523.085 282.042 517.337C281.727 513.348 281.917 509.336 282.606 505.394C282.728 504.798 282.875 504.218 283.03 503.647C288.121 504.407 293.261 504.797 298.408 504.814C300.286 504.814 302.196 504.814 304.122 504.7C304.122 505.244 304.147 505.832 304.196 506.463C304.62 515.999 305.412 532.718 306.057 538.93C306.971 547.837 312.024 571.838 312.024 571.838C312.024 571.838 302.384 578.026 313.705 593.275C313.705 593.275 313.705 598.802 312.954 599.602C312.152 602.218 311.506 604.878 311.02 607.57C310.546 610.444 310.35 613.35 311.118 614.86C312.954 618.468 323.974 618.175 323.974 618.175L324.243 618.126C326.323 617.91 328.426 618.111 330.428 618.715C332.43 619.319 334.293 620.314 335.907 621.644C340.095 625.008 355.987 623.53 364.591 622.46C367.962 622.036 370.215 621.644 370.215 621.644C370.324 621.262 370.363 620.864 370.329 620.469C370.239 618.354 368.582 613.717 357.35 609.578C357.35 609.578 346.788 602.476 346.935 596.288H346.715H345.49C346.38 596.239 346.951 596.288 346.951 596.288C346.951 596.288 342.813 581.185 344.503 579.961C346.192 578.736 341.131 562.001 341.131 562.001C341.131 562.001 338.234 533.918 338.079 531.95C338.085 530.262 338.341 528.584 338.838 526.97L338.079 511.574C338.079 511.574 337.932 506.455 338.079 504.79C338.054 503.344 337.937 501.902 337.728 500.471C337.654 499.9 337.581 499.304 337.499 498.716C341.458 497.712 344.029 496.781 344.029 496.781L343.572 443.187C346.935 436.656 347.555 422.329 347.539 412.165C347.539 405.634 347.245 400.802 347.245 400.802L351.841 393.299C351.841 393.299 352.902 384.319 351.22 382.352C350.478 381.462 350.812 380.539 351.424 379.78C351.742 379.528 352.078 379.299 352.428 379.094C352.428 379.094 352.379 379.021 352.322 378.915C352.643 378.647 352.984 378.404 353.343 378.188C353.343 378.188 351.71 375.658 353.171 374.588C354.543 375.519 355.767 376.221 356.697 376.792C356.632 377.388 356.567 377.731 356.567 377.731L356.959 376.915C357.857 377.421 358.403 377.731 358.403 377.731C358.403 377.731 365.603 363.388 365.448 361.273C365.293 359.159 370.345 350.252 370.345 350.252C370.345 350.252 370.958 345.575 373.716 343.615C376.475 341.656 375.855 327.46 375.855 327.46C375.855 327.46 376.622 320.063 378.459 317.043C380.296 314.022 376.786 309.949 376.786 309.949ZM239.034 303.654L239.172 307.075C238.356 305.761 237.768 304.814 237.768 304.814L239.034 303.654Z" fill="url(#paint0_linear)"/>
<path d="M358.795 371.535L357.032 379.046C357.032 379.046 342.911 371.837 340.364 362.677C337.818 353.518 344.625 350.04 344.625 350.04L357.783 355.616L358.795 371.535Z" fill="white"/>
<path opacity="0.1" d="M358.795 371.535L357.032 379.046C357.032 379.046 342.911 371.837 340.364 362.677C337.818 353.518 344.625 350.04 344.625 350.04L357.783 355.616L358.795 371.535Z" fill="black"/>
<path d="M279.545 627.146C279.545 627.146 266.484 631.947 257.506 632.551C252.739 632.869 250.233 629.947 248.943 627.13C248.238 625.564 247.784 623.898 247.596 622.191L248.763 609.252L249.384 602.362L268.46 597.406L271.162 605.668L271.415 606.297C272.5 609.056 276.851 620.281 276.72 622.624C276.715 623.224 276.831 623.819 277.061 624.373C277.291 624.927 277.63 625.429 278.059 625.848C278.497 626.343 278.996 626.779 279.545 627.146Z" fill="white"/>
<path d="M368.754 620.567C368.786 620.959 368.748 621.355 368.639 621.734C368.639 621.734 340.707 626.395 334.993 621.734C333.382 620.372 331.504 619.362 329.48 618.769C327.456 618.176 325.33 618.012 323.239 618.289C323.239 618.289 312.432 618.583 310.628 615.023C309.877 613.529 310.073 610.631 310.538 607.774C311.013 605.097 311.645 602.45 312.432 599.847L312.864 599.504L315.436 597.439L345.539 596.549H345.768C345.621 602.705 355.987 609.766 355.987 609.766C366.999 613.848 368.623 618.46 368.754 620.567Z" fill="white"/>
<path opacity="0.1" d="M368.754 620.567C368.782 620.96 368.741 621.355 368.631 621.734C368.631 621.734 340.707 626.395 334.993 621.734C333.383 620.373 331.507 619.364 329.484 618.771C327.461 618.177 325.337 618.013 323.247 618.289C323.247 618.289 312.432 618.583 310.636 615.023C309.885 613.521 310.073 610.631 310.538 607.774C314.701 608.19 321.272 609.227 323.851 611.701C327.753 615.464 334.365 619.22 338.422 619.513C341.597 619.718 360.591 620.322 368.754 620.567Z" fill="black"/>
<path opacity="0.1" d="M279.545 627.146C279.545 627.146 266.484 631.947 257.506 632.551C252.739 632.869 250.233 629.947 248.951 627.122C252.273 628.24 256.885 629.416 259.31 628.338C262.183 627.065 272.37 626.24 278.084 625.889C278.518 626.365 279.009 626.787 279.545 627.146Z" fill="black"/>
<path d="M298.922 240.313C288.148 236.125 274.288 222.287 277.749 215.822C278.517 214.19 278.974 212.429 279.095 210.63C279.318 208.187 279.351 205.73 279.193 203.283C278.951 199.273 278.468 195.282 277.749 191.331C277.749 191.331 311.387 192.09 309.428 197.046C308.856 198.499 308.766 201.021 308.922 203.846C309.077 206.67 309.485 209.862 309.909 212.565C310.497 216.271 311.085 219.096 311.085 219.096C311.085 219.096 309.028 221.977 307.82 222.132C306.612 222.287 314.382 246.28 298.922 240.313Z" fill="#CF6F80"/>
<path opacity="0.1" d="M271.39 606.296L271.137 606.574C261.081 594.41 248.918 609.57 248.918 609.57L248.739 609.252L249.359 602.362L268.435 597.406L271.137 605.668L271.39 606.296Z" fill="black"/>
<path opacity="0.1" d="M345.776 597.406C345.776 597.406 338.429 597.251 334.511 600.713C330.593 604.174 311.656 601.464 312.472 600.713C312.714 600.34 312.86 599.914 312.897 599.472L315.468 597.406L345.572 596.516C345.686 597.063 345.776 597.406 345.776 597.406Z" fill="black"/>
<path d="M283.903 501.884C283.356 503.237 282.941 504.639 282.663 506.072C281.982 509.995 281.793 513.988 282.099 517.958C282.401 523.672 282.099 561.968 282.099 561.968C282.099 561.968 275.643 572.181 272.043 575.781C268.443 579.381 279.389 585.847 279.389 585.847C281.022 595.153 271.129 605.668 271.129 605.668C261.073 593.504 248.91 608.672 248.91 608.672C248.91 608.672 242.299 597.243 240.65 593.161C239.001 589.079 247.106 586.255 249.955 584.598C252.804 582.94 249.816 573.168 249.816 573.168C249.816 573.168 247.408 564.605 244.552 556.792C241.695 548.98 247.702 510.088 247.702 510.088C247.702 510.088 248.012 503.182 248.755 500.773C249.13 499.036 249.205 497.246 248.976 495.483C248.927 494.887 248.87 494.389 248.829 494.055C248.788 493.72 248.755 493.565 248.755 493.565L248.87 493.369L252.951 485.76C252.951 485.76 285.862 497.092 283.903 501.884Z" fill="#48A9A6"/>
<path d="M345.776 596.508C345.776 596.508 338.429 596.353 334.511 599.774C330.593 603.194 311.656 600.525 312.472 599.774C313.289 599.023 313.223 593.463 313.223 593.463C302.114 578.295 311.591 572.14 311.591 572.14C311.591 572.14 306.628 548.261 305.73 539.404C305.101 533.216 304.326 516.586 303.91 507.092C303.73 503.01 303.624 500.202 303.624 500.202L312.701 498.373L313.868 498.137L335.76 493.745C335.76 493.745 336.364 497.826 336.772 501.165C336.976 502.591 337.09 504.028 337.115 505.467C336.968 507.1 337.115 512.211 337.115 512.211L337.858 527.534C337.373 529.141 337.122 530.81 337.115 532.489C337.262 534.44 340.111 562.376 340.111 562.376C340.111 562.376 345.066 579.046 343.376 580.246C341.686 581.446 345.776 596.508 345.776 596.508Z" fill="#48A9A6"/>
<path opacity="0.1" d="M309.428 197.046C308.857 198.499 308.767 201.021 308.922 203.846C304.416 206.559 299.237 207.947 293.978 207.849C288.719 207.75 283.595 206.171 279.194 203.291C278.951 199.279 278.469 195.285 277.749 191.331C277.749 191.331 311.387 192.074 309.428 197.046Z" fill="black"/>
<path d="M322.431 179.004C322.437 181.946 321.974 184.87 321.059 187.666C319.014 193.93 314.821 199.27 309.22 202.741C303.619 206.212 296.972 207.592 290.452 206.635C283.933 205.679 277.962 202.448 273.594 197.514C269.226 192.581 266.742 186.261 266.582 179.673C266.582 179.445 266.582 179.233 266.582 179.004C266.519 175.296 267.194 171.612 268.569 168.168C269.945 164.723 271.992 161.587 274.591 158.942C277.191 156.297 280.291 154.197 283.711 152.763C287.131 151.329 290.802 150.59 294.511 150.59C298.219 150.59 301.89 151.329 305.31 152.763C308.73 154.197 311.83 156.297 314.43 158.942C317.03 161.587 319.077 164.723 320.452 168.168C321.827 171.612 322.502 175.296 322.439 179.004H322.431Z" fill="#CF6F80"/>
<path opacity="0.1" d="M298.922 240.313C288.148 236.125 274.288 222.287 277.749 215.822C278.517 214.19 278.974 212.429 279.095 210.63L293.845 222.753L302.971 230.239L309.909 212.573C310.497 216.279 311.085 219.104 311.085 219.104C311.085 219.104 309.028 221.985 307.82 222.141C306.612 222.296 314.382 246.28 298.922 240.313Z" fill="black"/>
<path d="M337.066 293.891L324.749 500.839L308.685 501.892L267.088 381.895L273.912 239.431L275.349 209.332L293.845 224.524L302.979 232.01L310.122 213.83L323.402 225.406L337.066 293.891Z" fill="#48A9A6"/>
<path opacity="0.1" d="M283.903 501.884C283.356 503.237 282.941 504.639 282.662 506.072C270.974 504.267 259.621 500.72 248.984 495.549L248.763 495.434L248.837 494.12L248.877 493.434L252.959 485.826C252.959 485.826 285.862 497.092 283.903 501.884Z" fill="black"/>
<path opacity="0.1" d="M312.889 506.104C309.901 506.612 306.887 506.956 303.861 507.133C303.681 503.051 303.575 500.243 303.575 500.243L312.652 498.414L312.889 506.104Z" fill="black"/>
<path opacity="0.1" d="M336.724 501.206C330.92 502.716 321.957 504.414 313.934 503.353L313.819 498.177L335.711 493.785C335.711 493.785 336.315 497.826 336.724 501.206Z" fill="black"/>
<path opacity="0.1" d="M313.786 504.3C280.32 510.015 249.669 493.63 249.669 493.63L249.963 488.079C249.963 488.079 250.722 425.146 248.616 420.321C246.51 415.496 244.87 391.03 246.061 387.274C247.253 383.519 241.711 327.206 241.711 327.206L240.813 304.348L207.95 291.033L222.643 260.403C224.627 256.109 226.334 251.692 227.753 247.178C230.308 239.227 242.168 231.414 242.168 231.414C242.168 231.414 254.33 223.61 259.138 223.904C263.946 224.198 270.247 216.997 270.247 216.997C274.9 205.136 279.112 210.507 279.112 210.507C279.112 211.071 279.112 210.507 278.883 212.263C277.251 225.284 305.281 266.428 305.681 267.155L308.35 332.186L311.052 414.484L313.786 504.3Z" fill="black"/>
<path d="M312.889 504.3C279.422 510.015 248.763 493.63 248.763 493.63L249.065 488.079C249.065 488.079 249.824 425.146 247.71 420.321C245.596 415.496 243.964 391.03 245.164 387.274C246.363 383.519 240.813 327.206 240.813 327.206L239.907 304.348L207.028 290.984L221.721 260.355C223.701 256.058 225.407 251.641 226.83 247.129C229.377 239.178 241.245 231.365 241.245 231.365C241.245 231.365 253.408 223.561 258.207 223.855C263.007 224.149 269.317 216.948 269.317 216.948C273.977 205.087 279.112 210.458 279.112 210.458C279.112 211.022 278.622 211.275 278.883 212.214C282.475 224.843 304.383 266.379 304.783 267.106L307.485 332.137L310.187 414.435L312.889 504.3Z" fill="white"/>
<path opacity="0.1" d="M303.869 268.959C300.269 267.457 281.202 245.684 281.202 245.684V240.729C280.508 239.096 276.386 240.092 273.039 241.235L274.476 211.136L276.108 212.491C279.683 225.112 303.453 268.232 303.869 268.959Z" fill="black"/>
<path d="M304.775 267.155C301.167 265.653 282.1 243.88 282.1 243.88V238.925C281.406 237.292 277.284 238.288 273.937 239.431L275.382 209.332L277.014 210.687C280.598 223.308 304.375 266.436 304.775 267.155Z" fill="white"/>
<path opacity="0.1" d="M249.67 375.739C250.119 375.739 272.941 373.339 272.941 373.339C272.941 373.339 286.76 400.516 285.854 407.128C284.948 413.741 283.308 419.594 277.749 418.557C272.19 417.521 247.833 419.374 247.833 419.374L249.67 375.739Z" fill="black"/>
<path d="M248.763 373.935C249.212 373.935 272.035 371.535 272.035 371.535C272.035 371.535 285.846 398.72 284.948 405.324C284.05 411.929 282.393 417.79 276.843 416.753C271.292 415.717 246.927 417.57 246.927 417.57L248.763 373.935Z" fill="white"/>
<path d="M265.962 361.175C265.962 361.175 286.907 372.433 287.356 375.87C287.805 379.307 276.696 374.368 274.296 373.772C272.717 373.391 271.109 373.14 269.488 373.021L253.481 373.453L265.962 361.175Z" fill="#CF6F80"/>
<path opacity="0.1" d="M298.025 270.363C299.242 270.363 300.229 269.376 300.229 268.159C300.229 266.942 299.242 265.955 298.025 265.955C296.808 265.955 295.821 266.942 295.821 268.159C295.821 269.376 296.808 270.363 298.025 270.363Z" fill="black"/>
<path d="M298.025 269.465C299.242 269.465 300.229 268.478 300.229 267.261C300.229 266.044 299.242 265.057 298.025 265.057C296.808 265.057 295.821 266.044 295.821 267.261C295.821 268.478 296.808 269.465 298.025 269.465Z" fill="#3F3D56"/>
<path opacity="0.1" d="M302.081 365.78C303.298 365.78 304.285 364.793 304.285 363.575C304.285 362.358 303.298 361.371 302.081 361.371C300.864 361.371 299.877 362.358 299.877 363.575C299.877 364.793 300.864 365.78 302.081 365.78Z" fill="black"/>
<path d="M302.081 364.873C303.298 364.873 304.285 363.887 304.285 362.669C304.285 361.452 303.298 360.465 302.081 360.465C300.864 360.465 299.877 361.452 299.877 362.669C299.877 363.887 300.864 364.873 302.081 364.873Z" fill="#3F3D56"/>
<path opacity="0.1" d="M300.22 318.071C301.438 318.071 302.424 317.085 302.424 315.867C302.424 314.65 301.438 313.663 300.22 313.663C299.003 313.663 298.017 314.65 298.017 315.867C298.017 317.085 299.003 318.071 300.22 318.071Z" fill="black"/>
<path d="M300.22 317.173C301.438 317.173 302.424 316.187 302.424 314.969C302.424 313.752 301.438 312.765 300.22 312.765C299.003 312.765 298.017 313.752 298.017 314.969C298.017 316.187 299.003 317.173 300.22 317.173Z" fill="#3F3D56"/>
<path d="M351.025 372.564C351.025 372.564 352.526 374.817 351.025 375.87C349.523 376.923 351.171 379.47 351.171 379.47C351.171 379.47 347.425 381.666 349.074 383.642C350.723 385.617 349.678 394.54 349.678 394.54L345.172 402.002C345.172 402.002 345.441 406.81 345.458 413.308C345.458 423.447 344.862 437.701 341.564 444.199L342.021 497.516C342.021 497.516 326.243 503.28 313.036 501.524L311.077 415.97C311.077 415.97 313.934 367.453 314.987 358.147C315.603 353.315 315.854 348.444 315.738 343.575C315.738 343.575 315.289 329.011 313.779 322.251C313.779 322.251 312.146 292.968 311.983 284.862C311.909 280.984 312.113 269.669 312.342 258.91C312.595 247.146 312.881 236.051 312.881 236.051L309.901 212.475C309.901 212.475 312.881 212.173 313.779 213.373C314.181 213.749 314.618 214.085 315.085 214.377C320.227 217.855 338.397 228.549 338.397 228.549C338.397 228.549 348.453 232.549 350.861 238.28C353.269 244.011 354.943 248.076 356.11 249.709C357.277 251.342 357.914 259.016 357.914 259.016C357.914 259.016 361.375 273.139 364.077 275.531C366.778 277.923 368.754 293.14 368.754 293.14L344.878 311.916C344.878 311.916 342.78 343.15 342.331 344.358C341.882 345.566 351.025 372.564 351.025 372.564Z" fill="white"/>
<path d="M351.931 372.564C351.931 372.564 353.424 374.817 351.931 375.87C350.437 376.923 352.069 379.47 352.069 379.47C352.069 379.47 348.347 381.691 349.98 383.666C351.612 385.642 350.584 394.565 350.584 394.565L346.078 402.026C346.078 402.026 346.347 406.835 346.372 413.333C346.372 423.472 345.776 437.726 342.478 444.224L342.927 497.541C342.927 497.541 327.124 503.304 313.934 501.549L311.983 415.994C311.983 415.994 314.84 367.478 315.893 358.171C316.51 353.34 316.758 348.468 316.636 343.599C316.636 343.599 316.187 329.035 314.685 322.276C314.685 322.276 313.052 292.993 312.881 284.886C312.807 281.008 313.019 269.694 313.24 258.934C313.493 247.17 313.779 236.076 313.779 236.076L309.844 212.181C309.844 212.181 313.779 212.181 314.685 213.397C315.083 213.777 315.521 214.114 315.991 214.401C321.133 217.879 339.311 228.573 339.311 228.573C339.311 228.573 349.359 232.574 351.767 238.305C354.175 244.035 355.849 248.101 357.024 249.734C358.199 251.366 358.82 259.04 358.82 259.04C358.82 259.04 362.281 273.163 364.983 275.555C367.684 277.947 369.635 293.131 369.635 293.131L345.76 311.908C345.76 311.908 343.662 343.142 343.205 344.35C342.748 345.558 351.931 372.564 351.931 372.564Z" fill="white"/>
<path opacity="0.1" d="M323.337 243.007L325.492 249.293L314.146 260.722C314.399 248.966 314.684 237.864 314.684 237.864L310.75 213.969C310.75 213.969 314.684 213.969 315.59 215.185C315.988 215.564 316.426 215.898 316.896 216.181L326.545 244.019L323.337 243.007Z" fill="black"/>
<path d="M322.431 241.203L324.594 247.489L313.248 258.918C313.501 247.154 313.787 236.06 313.787 236.06L309.844 212.165C309.844 212.165 313.787 212.165 314.685 213.381C315.085 213.759 315.523 214.095 315.991 214.385L325.647 242.215L322.431 241.203Z" fill="white"/>
<path opacity="0.1" d="M322.431 179.004C322.437 181.946 321.974 184.87 321.059 187.666C320.905 187.69 320.748 187.683 320.596 187.645C320.445 187.607 320.303 187.539 320.178 187.445C319.966 180.098 316.35 173.2 311.901 167.33C310.652 165.558 309.138 163.988 307.412 162.677C305.666 161.366 303.496 160.752 301.322 160.954C298.873 161.289 296.71 162.954 294.237 163.166C290.972 163.436 288.05 161.175 284.809 161.06C283.492 161.073 282.192 161.366 280.997 161.921C279.802 162.475 278.739 163.279 277.879 164.277C276.177 166.291 274.912 168.637 274.165 171.167C272.882 175.002 272.183 179.009 272.092 183.053C272.051 185.339 271.831 188.204 269.708 189.037C269.868 187.356 269.677 185.66 269.148 184.057C268.618 182.453 267.761 180.977 266.631 179.722L266.582 179.673C266.582 179.445 266.582 179.233 266.582 179.004C266.519 175.296 267.194 171.612 268.569 168.168C269.945 164.723 271.992 161.587 274.591 158.942C277.191 156.297 280.291 154.197 283.711 152.763C287.131 151.329 290.802 150.59 294.511 150.59C298.219 150.59 301.89 151.329 305.31 152.763C308.73 154.197 311.83 156.297 314.43 158.942C317.03 161.587 319.077 164.723 320.452 168.168C321.827 171.612 322.502 175.296 322.439 179.004H322.431Z" fill="black"/>
<path d="M306.073 134.651C301.831 132.655 297.007 132.278 292.507 133.59C290.246 134.259 288.115 135.345 285.822 135.892C280.924 137.076 275.21 135.794 271.007 138.659C268.672 140.292 267.268 142.872 265.962 145.378L262.697 151.599C260.918 155.003 259.122 158.464 258.379 162.211C257.636 165.958 258.085 170.155 260.46 173.167C262.191 175.363 264.746 176.743 266.623 178.808C267.748 180.064 268.601 181.539 269.129 183.141C269.657 184.742 269.849 186.436 269.692 188.115C271.823 187.298 272.027 184.425 272.076 182.139C272.167 178.095 272.866 174.088 274.149 170.252C274.894 167.722 276.159 165.376 277.863 163.362C278.724 162.365 279.787 161.562 280.982 161.008C282.177 160.453 283.476 160.159 284.793 160.146C288.058 160.26 290.989 162.513 294.221 162.244C296.67 162.04 298.841 160.366 301.306 160.04C303.48 159.834 305.652 160.448 307.395 161.762C309.121 163.072 310.633 164.642 311.877 166.416C316.333 172.285 319.949 179.167 320.162 186.531C321.084 187.208 322.415 186.327 322.872 185.282C323.329 184.237 323.345 183.012 323.925 182.016C324.594 180.865 325.875 180.253 326.879 179.388C329.426 177.192 330.063 173.493 329.965 170.138C329.867 166.783 329.214 163.379 329.851 160.081C330.234 158.056 331.1 156.162 331.573 154.162C332.046 152.162 332.104 149.917 330.985 148.194C329.353 145.664 325.916 145.166 322.921 144.929C319.517 144.635 316.472 145.011 314.301 142.145C313.282 140.65 312.135 139.246 310.873 137.949C310.44 137.525 306.073 134.831 306.073 134.651Z" fill="#512E4E"/>
<path opacity="0.1" d="M217.354 306.806L208.824 291.033L206.122 315.369C206.122 315.369 207.624 326.178 207.322 327.835C207.02 329.492 213.477 344.35 213.477 344.35C213.477 344.35 234.805 382.344 243.515 384.303L272.941 363.273L265.138 353.363C265.138 353.363 262.436 352.31 261.758 353.363C261.758 353.363 247.27 328.431 245.768 326.627C244.266 324.823 244.56 321.223 244.56 321.223C244.56 321.223 242.307 318.822 243.058 316.569C243.809 314.316 238.707 306.503 238.707 306.503L243.36 302.152L217.354 306.806Z" fill="black"/>
<path d="M209.273 289.237L207.02 291.033L204.318 315.369C204.318 315.369 205.82 326.178 205.518 327.835C205.216 329.492 211.681 344.35 211.681 344.35C211.681 344.35 233.001 382.344 241.711 384.303L271.145 363.273L263.333 353.363C263.333 353.363 260.632 352.31 259.954 353.363C259.954 353.363 245.466 328.431 243.964 326.627C242.462 324.823 242.764 321.222 242.764 321.222C242.764 321.222 240.511 318.822 241.262 316.569C242.013 314.316 236.903 306.503 236.903 306.503L241.556 302.152L209.273 289.237Z" fill="white"/>
<path opacity="0.1" d="M349.074 384.572C350.706 386.556 349.678 395.463 349.678 395.463L345.172 402.924C345.172 402.924 345.441 407.741 345.458 414.231L337.883 416.598C337.198 416.812 336.473 416.859 335.766 416.735C335.06 416.612 334.393 416.321 333.822 415.887C333.251 415.453 332.792 414.889 332.483 414.242C332.174 413.594 332.024 412.882 332.047 412.165L333.353 370.033L351.025 376.792C349.523 377.837 351.172 380.401 351.172 380.401C351.172 380.401 347.425 382.589 349.074 384.572Z" fill="black"/>
<path d="M349.98 383.666C351.612 385.65 350.584 394.565 350.584 394.565L346.078 402.026C346.078 402.026 346.347 406.835 346.372 413.333L338.658 415.741C337.988 415.949 337.277 415.995 336.586 415.873C335.894 415.751 335.242 415.466 334.683 415.041C334.124 414.616 333.675 414.064 333.372 413.43C333.07 412.797 332.923 412.1 332.944 411.398L334.259 369.135L351.939 375.894C350.429 376.939 352.078 379.495 352.078 379.495C352.078 379.495 348.347 381.691 349.98 383.666Z" fill="white"/>
<path d="M355.832 363.584C355.832 363.584 354.633 371.249 351.629 371.698C348.625 372.147 347.278 384.099 344.282 383.674C341.287 383.25 343.27 372.564 343.376 370.49C343.482 368.416 340.111 359.828 342.634 357.877C345.156 355.926 353.139 357.877 353.139 357.877L355.832 363.584Z" fill="#CF6F80"/>
<path opacity="0.1" d="M362.224 304.552L367.888 293.123C367.888 293.123 370.141 301.834 370.141 306.487C370.141 311.14 373.292 311.598 373.292 311.598C373.292 311.598 376.745 315.679 374.925 318.651C373.104 321.623 372.37 329.019 372.37 329.019C372.37 329.019 372.966 343.134 370.264 345.085C367.562 347.036 366.999 351.697 366.999 351.697C366.999 351.697 362.036 360.555 362.191 362.661C362.346 364.767 355.285 379.029 355.285 379.029C355.285 379.029 358.738 361.306 338.617 353.648C338.617 353.648 338.462 347.632 339.964 345.983C341.466 344.334 343.809 343.583 342.34 335.248C340.87 326.913 341.915 316.953 341.915 314.953C341.915 312.953 346.421 300.479 346.421 300.479L362.224 304.552Z" fill="black"/>
<path d="M364.672 291.491L369.619 293.123C369.619 293.123 371.88 301.834 371.88 306.487C371.88 311.14 375.031 311.598 375.031 311.598C375.031 311.598 378.483 315.679 376.663 318.651C374.843 321.623 374.116 329.019 374.116 329.019C374.116 329.019 374.712 343.134 372.01 345.085C369.309 347.036 368.705 351.697 368.705 351.697C368.705 351.697 363.75 360.555 363.905 362.661C364.06 364.767 356.991 379.029 356.991 379.029C356.991 379.029 360.452 361.306 340.323 353.648C340.323 353.648 340.176 347.632 341.678 345.983C343.18 344.334 345.523 343.583 344.054 335.248C342.584 326.913 343.629 316.953 343.629 314.953C343.629 312.953 348.135 300.479 348.135 300.479L364.672 291.491Z" fill="white"/>
<path opacity="0.1" d="M255.416 587.724C255.416 587.724 263.301 582.769 268.476 586.369C273.651 589.969 255.416 587.724 255.416 587.724Z" fill="black"/>
<path opacity="0.1" d="M316.685 572.401C316.685 572.401 323.664 571.503 329.524 577.814C335.385 584.124 316.685 572.401 316.685 572.401Z" fill="black"/>
<g opacity="0.1">
<path opacity="0.1" d="M326.896 177.6C325.892 178.465 324.602 179.086 323.933 180.237C323.362 181.224 323.345 182.441 322.888 183.502C322.431 184.563 321.1 185.429 320.178 184.759C319.966 177.412 316.342 170.514 311.893 164.636C310.649 162.862 309.138 161.292 307.412 159.983C305.665 158.669 303.49 158.055 301.314 158.26C298.866 158.595 296.711 160.26 294.237 160.464C290.972 160.742 288.042 158.481 284.801 158.366C283.485 158.379 282.186 158.674 280.992 159.23C279.798 159.786 278.737 160.591 277.88 161.591C276.176 163.601 274.91 165.945 274.166 168.473C272.883 172.309 272.184 176.315 272.092 180.359C272.043 182.637 271.831 185.478 269.725 186.327C269.774 186.93 269.774 187.536 269.725 188.139C271.847 187.323 272.06 184.449 272.109 182.163C272.2 178.12 272.898 174.113 274.182 170.277C274.927 167.747 276.192 165.4 277.896 163.387C278.755 162.39 279.817 161.587 281.01 161.033C282.204 160.478 283.502 160.184 284.818 160.17C288.083 160.285 291.021 162.538 294.254 162.268C296.703 162.064 298.874 160.391 301.331 160.064C303.507 159.859 305.681 160.473 307.428 161.787C309.154 163.096 310.666 164.666 311.909 166.44C316.358 172.31 319.982 179.192 320.194 186.555C321.117 187.233 322.447 186.351 322.904 185.306C323.362 184.261 323.378 183.037 323.949 182.041C324.619 180.89 325.908 180.277 326.912 179.412C329.459 177.216 330.096 173.518 329.998 170.163C329.998 170.057 329.998 169.95 329.998 169.852C329.843 172.759 329.067 175.722 326.896 177.6Z" fill="black"/>
<path opacity="0.1" d="M266.639 177.02C264.762 174.955 262.199 173.575 260.477 171.387C259.026 169.45 258.198 167.119 258.101 164.701C257.844 167.723 258.688 170.735 260.477 173.183C262.199 175.379 264.762 176.759 266.639 178.824C268.442 180.845 269.524 183.405 269.717 186.106C269.842 184.463 269.634 182.811 269.105 181.249C268.576 179.688 267.737 178.25 266.639 177.02Z" fill="black"/>
<path opacity="0.1" d="M331.589 152.374C331.107 154.374 330.25 156.276 329.859 158.293C329.627 159.64 329.542 161.009 329.606 162.375C329.633 161.597 329.717 160.822 329.859 160.056C330.25 158.032 331.107 156.138 331.589 154.137C331.87 153.034 331.961 151.891 331.858 150.758C331.808 151.302 331.718 151.843 331.589 152.374Z" fill="black"/>
</g>
<path opacity="0.1" d="M108.342 620.918C152.269 620.918 187.878 615.198 187.878 608.141C187.878 601.085 152.269 595.365 108.342 595.365C64.4153 595.365 28.8057 601.085 28.8057 608.141C28.8057 615.198 64.4153 620.918 108.342 620.918Z" fill="#48A9A6"/>
<path d="M110.905 363.396H105.787V478.642H110.905V363.396Z" fill="#535461"/>
<path d="M143.066 478.291L142.748 483.483L142.291 490.83L142.103 493.883L141.654 501.231L141.458 504.284L141.001 511.631L135.842 594.957C135.618 598.542 134.036 601.907 131.419 604.367C128.801 606.827 125.345 608.197 121.754 608.199H94.9312C91.3403 608.197 87.885 606.827 85.269 604.367C82.653 601.907 81.0729 598.542 80.8507 594.957L75.7164 511.574L75.2593 504.227L75.0716 501.173L74.6145 493.826L74.4268 490.773L73.9697 483.426L73.6432 478.234C73.5864 477.234 73.7345 476.234 74.0782 475.294C74.4219 474.354 74.954 473.494 75.6419 472.767C76.3298 472.04 77.159 471.461 78.0786 471.066C78.9981 470.671 79.9887 470.468 80.9895 470.47H135.85C136.847 470.479 137.832 470.691 138.744 471.095C139.655 471.499 140.474 472.086 141.15 472.819C141.827 473.552 142.345 474.415 142.675 475.356C143.004 476.297 143.137 477.296 143.066 478.291Z" fill="#3F3D56"/>
<path d="M142.748 483.483L142.291 490.806H74.3941L73.937 483.483H142.748Z" fill="#9D9CB5"/>
<path d="M142.103 493.859L141.654 501.19H75.0386L74.5815 493.859H142.103Z" fill="#9D9CB5"/>
<path d="M141.458 504.251L141.009 511.574H75.6837L75.2266 504.251H141.458Z" fill="#9D9CB5"/>
<path d="M66.1254 406.59C95.9271 428.158 108.367 461.89 108.367 461.89C108.367 461.89 72.4515 460.657 42.6416 439.089C12.8318 417.521 0.416504 383.797 0.416504 383.797C0.416504 383.797 36.3156 385.021 66.1254 406.59Z" fill="#48A9A6"/>
<path d="M0.391602 383.797C0.391602 383.797 37.6784 404.492 49.6366 421.627C61.5948 438.762 108.366 461.89 108.366 461.89" stroke="#535461" stroke-width="2" stroke-miterlimit="10"/>
<path d="M85.3647 363.143C101.584 374.874 108.367 393.234 108.367 393.234C108.367 393.234 88.8175 392.564 72.5902 380.833C56.363 369.102 49.5962 350.734 49.5962 350.734C49.5962 350.734 69.1375 351.403 85.3647 363.143Z" fill="#48A9A6"/>
<path d="M49.5962 350.734C49.5962 350.734 69.8884 362 76.394 371.323C82.8996 380.646 108.367 393.234 108.367 393.234" stroke="#535461" stroke-width="2" stroke-miterlimit="10"/>
<path d="M131.916 392.303C113.28 412.786 109.338 439.554 109.338 439.554C109.338 439.554 135.613 433.105 154.232 412.614C172.851 392.124 176.81 365.363 176.81 365.363C176.81 365.363 150.551 371.821 131.916 392.303Z" fill="#48A9A6"/>
<path d="M176.826 365.371C176.826 365.371 152.551 386.368 146.38 400.834C140.209 415.3 109.338 439.554 109.338 439.554" stroke="#535461" stroke-width="2" stroke-miterlimit="10"/>
<path d="M607.991 385.095C607.991 385.095 594.514 318.039 599.673 309.695C599.673 309.695 599.861 301.94 599.55 292.054C599.55 291.678 599.55 291.303 599.55 290.919C600.458 291.524 601.404 292.07 602.383 292.552C607.136 294.994 612.593 295.699 617.81 294.544L613.729 289.997C612.749 288.911 611.729 287.735 611.517 286.299C611.305 284.862 611.892 283.58 612.398 282.298C616.276 272.502 616.48 260.183 609.011 252.705C602.701 246.419 601.167 238.305 594.318 232.566C589.314 228.361 586.564 222.198 583.968 216.238C581.772 211.201 579.56 206.124 578.303 200.784C577.324 196.613 576.932 192.294 575.585 188.221C574.238 184.147 571.716 180.188 567.773 178.367C566.369 177.722 564.81 177.355 563.529 176.498C561.847 175.363 560.835 173.518 559.619 171.902C553.44 163.738 532.748 168.546 522.953 171.861C520.29 172.695 517.824 174.062 515.704 175.877L515.794 175.73C515.867 175.608 515.957 175.485 516.039 175.363C514.967 176.23 514.041 177.264 513.296 178.424C511.868 180.686 511.272 183.322 510.08 185.772C508.644 188.67 500.652 196.76 504.089 200.017C504.33 200.236 504.606 200.412 504.905 200.54C506.195 201.077 507.615 201.219 508.986 200.948L508.839 201.299C507.666 204.173 507.064 207.248 507.068 210.352C507.068 223.765 518.128 234.639 531.784 234.639C534.352 234.642 536.904 234.248 539.351 233.472C539.408 233.782 539.457 234.092 539.514 234.402C539.514 234.525 539.555 234.647 539.572 234.77L539.139 235.374C539.117 235.337 539.093 235.301 539.065 235.268L526.25 253.179C524.291 254.558 513.01 262.722 512.374 268.845C511.704 275.547 511.035 283.392 511.035 283.392L510.945 285.074C510.385 285.542 509.73 285.883 509.026 286.073C508.321 286.264 507.584 286.299 506.864 286.176C502.864 285.523 502.864 300.871 502.864 300.871C502.864 300.871 500.203 303.32 498.375 301.197C496.547 299.075 491.714 306.267 491.714 306.267L461.431 307.573L460.737 307.614L459.105 302.56C458.929 302.027 458.55 301.585 458.05 301.33C457.551 301.075 456.97 301.027 456.435 301.197C456.309 301.239 456.186 301.291 456.068 301.352L455.954 301.418L455.742 301.564L455.636 301.662C455.577 301.716 455.522 301.773 455.472 301.834L455.374 301.948L455.325 301.997C455.137 302.258 455.012 302.559 454.961 302.877C454.91 303.194 454.934 303.519 455.032 303.826L456.435 308.161C450.591 309.336 444.616 312.651 449.489 321.778L424.789 317.214L432.78 323.925L474.034 332.439C473.487 333.419 473.846 334.839 475.552 336.84C482.899 345.468 496.285 347.811 501.673 348.416C503.095 351.599 504.872 354.611 506.97 357.396L506.505 365.992C506.505 365.992 492.865 431.513 490.367 434.836C491.628 433.407 492.782 431.887 493.82 430.289C489.861 443.75 484.327 462.176 482.874 464.935C480.54 469.343 478.377 487.181 481.038 488.324C481.854 488.675 484.188 488.503 487.519 488.25V489.728L487.372 545.722C487.372 545.722 488.041 580.067 486.205 583.34C484.368 586.614 483.878 593.48 483.878 593.48C483.878 593.48 476.532 607.023 470.712 612.468C470.672 612.51 470.629 612.549 470.581 612.582L470.402 611.309C470.402 611.309 463.406 620.142 447.93 619.644C447.93 619.644 438.617 625.701 452.428 626.028C466.239 626.354 483.878 625.538 483.878 625.538C483.878 625.538 496.196 606.762 506.513 609.211V623.44H509.672V608.982C511.137 608.018 512.391 606.766 513.358 605.302C514.324 603.838 514.984 602.194 515.296 600.468C515.566 598.688 515.368 596.869 514.721 595.19C514.074 593.511 513.001 592.029 511.607 590.892C510.98 590.325 510.478 589.636 510.131 588.866C509.784 588.096 509.6 587.262 509.59 586.418L509.476 586.516C509.476 586.23 509.403 585.936 509.37 585.634C508.464 578.287 507.329 563.127 511.337 551.91C516.831 536.53 518.496 515.109 514.496 502.357C513.206 498.281 512.145 494.136 511.321 489.94C511.223 489.41 511.133 488.903 511.051 488.43C513.785 488.8 516.493 489.345 519.157 490.063C528.421 492.618 548.689 493.091 565.994 492.953C566.035 493.426 566.084 493.924 566.141 494.422C566.449 497.884 567.095 501.307 568.067 504.643C570.238 511.174 571.234 539.967 571.234 539.967C571.234 539.967 574.034 563.642 572.508 573.275C571.691 578.63 570.875 584.01 570.41 589.414V589.52C570.41 589.52 565.823 602.582 562.468 609.676C562.386 609.856 562.296 610.035 562.215 610.207C561.32 610.288 560.44 610.483 559.594 610.786C559.594 610.786 555.097 619.766 550.616 621.252C546.134 622.738 547.62 627.628 557.766 625.832C567.912 624.036 583.233 622.567 583.233 622.567L583.895 613.407L587.013 609.505L586.196 618.64L589.519 617.987L589.078 606.876L594.179 600.492C594.179 600.492 600.342 595.006 591.184 584.214V584.451C591.086 584.295 590.996 584.132 590.89 583.977V583.928C589.372 581.577 588.164 577.193 590.376 569.413C594.375 555.355 596.702 542.596 596.702 542.596C596.702 542.596 605.632 508.415 594.898 492.242H595.371C594.271 489.967 593.494 487.549 593.061 485.058C593.007 484.764 592.958 484.462 592.914 484.152C600.856 483.695 608.652 482.258 615.01 479.156C614.986 479.123 611.158 398.01 607.991 385.095ZM507.158 328.521V328.684L505.525 328.766L507.158 328.521ZM501.558 329.296C501.29 329.356 501.039 329.476 500.824 329.647C500.122 330.641 499.681 331.794 499.542 333.003L496.995 332.431C496.995 332.431 495.208 332.047 492.637 331.615L491.42 330.39C494.767 330.113 498.244 329.705 501.558 329.296Z" fill="url(#paint1_linear)"/>
<path d="M585.821 606.99L584.85 618.558L588.107 617.905L587.617 605.358L585.821 606.99Z" fill="#1D2366"/>
<path d="M511.517 552.066C507.591 563.25 508.701 578.344 509.582 585.675C509.909 588.386 510.211 590.035 510.211 590.035C510.211 590.035 504.342 603.407 503.852 603.913C503.362 604.419 486.58 614.664 486.58 614.664L474.851 621.514C474.851 621.514 462.949 616.297 468.655 614.501C469.821 614.033 470.871 613.317 471.732 612.403C477.446 606.974 484.621 593.48 484.621 593.48C484.621 593.48 485.111 586.63 486.907 583.373C488.702 580.116 488.049 545.886 488.049 545.886L488.188 490.087V482.813L510.513 482.977C510.654 485.446 510.976 487.902 511.476 490.324C512.277 494.505 513.316 498.637 514.586 502.7C518.52 515.427 516.888 536.742 511.517 552.066Z" fill="#FFB0B1"/>
<path opacity="0.1" d="M510.211 590.035C510.211 590.035 504.342 603.407 503.852 603.913C503.363 604.419 486.58 614.664 486.58 614.664L474.851 621.514C474.851 621.514 462.949 616.297 468.655 614.501C469.821 614.033 470.871 613.317 471.732 612.403L472.238 615.97L476.148 615.807L509.615 585.692C509.909 588.386 510.211 590.035 510.211 590.035Z" fill="black"/>
<path d="M509.803 586.451L476.148 616.77L472.238 616.934L471.422 611.219C471.422 611.219 464.582 620.02 449.383 619.53C449.383 619.53 440.257 625.563 453.783 625.889C467.308 626.216 484.58 625.399 484.58 625.399C484.58 625.399 496.645 606.623 506.742 609.072V623.252H509.843V608.941C511.286 607.971 512.516 606.718 513.462 605.259C514.407 603.8 515.048 602.164 515.345 600.451C515.614 598.687 515.424 596.882 514.793 595.213C514.163 593.543 513.113 592.063 511.745 590.916C511.135 590.343 510.647 589.652 510.313 588.884C509.979 588.116 509.805 587.288 509.803 586.451Z" fill="#1D2366"/>
<path d="M588.923 569.503C586.752 577.258 587.935 581.626 589.421 583.969V584.018C591.326 586.911 592.651 590.146 593.323 593.545L593.453 594.28L578.14 616.607L569.831 619.873C569.831 619.873 556.469 615.309 558.909 614.003C559.521 613.685 560.476 611.987 561.57 609.644C564.835 602.582 569.341 589.553 569.341 589.553V589.447C569.814 584.067 570.565 578.703 571.398 573.364C572.892 563.756 570.149 540.171 570.149 540.171C570.149 540.171 569.17 511.492 567.047 504.97C566.089 501.653 565.452 498.252 565.145 494.814C564.705 490.732 564.607 487.369 564.607 487.369C564.607 487.369 573.406 475.123 589.535 488.348C590.825 489.403 591.96 490.634 592.906 492.006C604.048 507.859 595.078 542.783 595.078 542.783C595.078 542.783 592.833 555.486 588.923 569.503Z" fill="#FFB0B1"/>
<path opacity="0.1" d="M593.478 594.28L578.165 616.607L569.855 619.873C569.855 619.873 556.493 615.309 558.934 614.003C559.546 613.685 560.501 611.987 561.595 609.644C567.251 609.595 570.182 614.983 570.182 614.983L577.348 613.84C577.348 613.84 586.801 595.259 588.923 594.125C591.045 592.99 589.249 585.643 589.249 585.643V583.773C589.307 583.838 589.356 583.912 589.421 583.977V584.026C591.326 586.919 592.651 590.155 593.323 593.553L593.478 594.28Z" fill="black"/>
<path d="M570.671 615.464C570.671 615.464 566.59 607.97 558.77 610.737C558.77 610.737 554.371 619.717 549.971 621.171C545.571 622.624 547.04 627.522 556.983 625.734C566.925 623.946 581.911 622.469 581.911 622.469L582.564 613.333L592.67 600.459C592.67 600.459 598.694 594.998 589.731 584.247V586.116C589.731 586.116 591.527 593.463 589.404 594.598C587.282 595.733 577.863 614.321 577.863 614.321L570.671 615.464Z" fill="#1D2366"/>
<path opacity="0.1" d="M510.538 482.96C510.678 485.43 511 487.885 511.501 490.308C502.31 488.961 493.78 489.63 488.188 490.071V482.797L510.538 482.96Z" fill="black"/>
<path opacity="0.1" d="M593.812 494.038C593.812 494.038 580.752 494.675 565.178 494.806C564.737 490.724 564.639 487.361 564.639 487.361C564.639 487.361 573.438 475.115 589.568 488.34C590.858 489.395 591.992 490.626 592.939 491.997C593.192 492.694 593.483 493.375 593.812 494.038Z" fill="black"/>
<path d="M593.812 492.569C593.812 492.569 536.609 495.336 519.174 490.446C501.738 485.556 484.458 489.793 481.854 488.659C479.25 487.524 481.364 469.752 483.65 465.351C485.936 460.951 498.473 416.451 498.473 416.451L510.538 353.542L523.247 350.04L524.145 349.787L546.29 343.681L562.517 339.199C562.517 339.199 594.784 465.188 592.017 474.478C591.012 478.036 590.85 481.778 591.543 485.409C591.966 487.889 592.73 490.298 593.812 492.569Z" fill="#1D2366"/>
<path d="M468.484 310.52C468.484 310.52 457.056 322.765 465.709 329.59C474.361 336.415 480.05 330.243 480.05 330.243L468.484 310.52Z" fill="#C7DAF5"/>
<path opacity="0.1" d="M468.484 310.52C468.484 310.52 457.056 322.765 465.709 329.59C474.361 336.415 480.05 330.243 480.05 330.243L468.484 310.52Z" fill="black"/>
<path d="M560.811 230.01C560.811 230.01 559.472 231.284 557.456 233.161C554.583 235.847 550.33 239.774 546.559 243.064C541.335 247.611 537.025 250.95 538.568 248.101C540.11 245.252 539.817 240.288 539.049 235.643C538.992 235.333 538.943 235.023 538.886 234.721C538.251 231.309 537.408 227.94 536.364 224.63C536.364 224.63 544.804 213.724 549.473 209.422C551.212 207.789 552.428 207.119 552.501 208.254C552.583 209.781 553.726 213.152 555.146 216.728C555.187 216.842 555.228 216.948 555.277 217.063C556.223 219.512 557.293 222.026 558.231 224.198C559.668 227.529 560.811 230.01 560.811 230.01Z" fill="#FFB0B1"/>
<path opacity="0.1" d="M555.277 217.063C554.483 221.329 552.559 225.305 549.704 228.573C546.85 231.842 543.17 234.283 539.049 235.643C538.4 231.917 537.503 228.237 536.364 224.63C536.364 224.63 552.256 204.099 552.501 208.254C552.558 209.83 553.799 213.324 555.277 217.063Z" fill="black"/>
<path opacity="0.1" d="M537.466 241.129L539.523 238.231C539.523 238.231 540.886 246.542 545.898 242.876C550.91 239.211 551.155 270.461 551.155 270.461L545.776 350.897L506.905 348.571L508.007 309.704L512.407 290.111L523.288 261.628L529.761 252.215L537.466 241.129Z" fill="black"/>
<path d="M551.155 270.959L546.257 343.689L545.743 351.395L524.071 350.097L523.255 350.048L506.93 349.069L508.032 310.193L512.431 290.601L523.312 262.118L529.785 252.705L537.49 241.578L539.547 238.688C539.547 238.688 540.911 246.999 545.922 243.333L546.029 243.26C550.926 240.158 551.155 270.959 551.155 270.959Z" fill="#1D2366"/>
<path d="M512.978 283.792C512.978 283.792 511.027 287.874 507.109 287.213C503.191 286.552 503.199 301.907 503.199 301.907C503.199 301.907 500.595 304.356 498.799 302.234C497.004 300.111 492.269 307.287 492.269 307.287L462.606 308.593C462.606 308.593 475.805 314.626 473.218 332.88C473.218 332.88 518.031 330.105 519.5 325.868C520.969 321.631 512.978 283.792 512.978 283.792Z" fill="white"/>
<path opacity="0.03" d="M512.978 283.792C512.978 283.792 511.027 287.874 507.109 287.213C503.191 286.552 503.199 301.907 503.199 301.907C503.199 301.907 500.595 304.356 498.799 302.234C497.004 300.111 492.269 307.287 492.269 307.287L462.606 308.593C462.606 308.593 475.805 314.626 473.218 332.88C473.218 332.88 518.031 330.105 519.5 325.868C520.969 321.631 512.978 283.792 512.978 283.792Z" fill="black"/>
<path d="M426.772 318.186L434.592 324.864L498.963 338.391L490.98 330.243L426.772 318.186Z" fill="white"/>
<path d="M537.588 243.701C536.519 245.333 533.458 253.693 530.903 260.991C528.772 267.073 526.993 272.42 526.993 272.42C526.993 272.42 522.838 299.475 520.716 304.365C518.594 309.255 519.745 328.325 519.745 328.325L511.835 375.421C511.835 375.421 508.252 399.708 502.717 414.214C497.257 428.493 491.176 435.187 490.988 435.399C493.437 432.085 506.782 366.825 506.782 366.825L511.19 284.519C511.19 284.519 511.835 276.698 512.488 270.012C513.141 263.326 526.364 254.199 526.364 254.199L539.114 236.068C540.396 237.782 539.539 240.77 537.588 243.701Z" fill="white"/>
<path d="M504.342 349.477C504.342 349.477 485.568 348.66 476.475 337.738C467.382 326.815 497.493 333.378 497.493 333.378L505.321 335.174L504.342 349.477Z" fill="#FFB0B1"/>
<path opacity="0.1" d="M592.016 474.486C591.011 478.044 590.849 481.787 591.543 485.418C571.063 486.871 549.155 481.336 549.155 481.336C545.073 485.091 534.323 490.626 534.323 490.626L528.462 417.97C524.716 408.173 523.247 356.849 523.247 356.849C523.247 356.849 523.581 354.163 524.063 350.138C524.063 350.04 524.063 349.934 524.104 349.836C525.565 338.595 528.462 317.492 529.883 314.643C531.842 310.724 523.859 300.299 523.859 300.299L527.491 269.318L527.932 265.579C535.588 262.159 541.457 251.236 541.457 251.236L545.963 243.341C550.861 240.198 551.114 271 551.114 271L546.216 343.73L562.443 339.248C562.443 339.248 594.783 465.196 592.016 474.486Z" fill="black"/>
<path d="M613.035 479.507C590.71 490.593 550.134 480.324 550.134 480.324C546.053 484.079 535.303 489.614 535.303 489.614L529.434 416.957C525.695 407.161 524.226 355.836 524.226 355.836C524.226 355.836 528.944 317.541 530.903 313.63C531.474 312.487 531.197 310.789 530.519 308.961C527.189 300.257 525.964 290.889 526.944 281.621L528.511 268.306L528.944 264.575C536.609 261.146 542.478 250.223 542.478 250.223L546.559 243.072L554.069 229.896L557.627 223.659L558.232 224.206L562.843 228.386C562.843 228.386 564.802 230.018 567.741 232.468C574.132 237.856 585.176 247.342 590.874 253.146C595.886 258.256 597.469 278.135 597.926 293.099C598.228 302.952 598.049 310.675 598.049 310.675C592.996 318.994 606.211 385.781 606.211 385.781C609.289 398.687 613.035 479.507 613.035 479.507Z" fill="white"/>
<path opacity="0.03" d="M570.182 250.06C570.182 250.06 554.86 279.229 556.64 290.315C558.419 301.401 563.48 313.949 561.039 316.879C560.201 317.99 559.117 318.891 557.872 319.513C556.627 320.135 555.256 320.46 553.864 320.463C551.416 320.627 544.886 325.19 544.886 325.68C544.886 326.17 538.853 326.17 533.458 328.455C528.062 330.741 520.096 332.039 520.096 332.039C520.096 332.039 504.587 331.549 503.142 333.019C501.697 334.488 500.212 343.281 503.305 350.293C506.399 357.306 509.835 362.539 512.431 363.494C515.027 364.449 531.499 358.93 544.861 357.624C558.223 356.318 572.728 345.73 572.728 345.73C572.728 345.73 588.702 340.015 591.502 330.407C594.302 320.798 588.082 267.987 588.082 267.987C588.082 267.987 583.38 243.374 570.182 250.06Z" fill="black"/>
<path opacity="0.03" d="M568.222 247.611C568.222 247.611 552.901 276.788 554.697 287.866C556.493 298.944 561.537 311.5 559.088 314.439C558.253 315.55 557.171 316.452 555.927 317.074C554.683 317.696 553.312 318.021 551.922 318.022C549.473 318.186 542.943 322.749 542.943 323.239C542.943 323.729 536.911 323.729 531.515 326.006C526.12 328.284 518.153 329.59 518.153 329.59C518.153 329.59 502.644 329.1 501.207 330.57C499.771 332.039 498.269 340.84 501.371 347.844C504.472 354.849 507.901 360.09 510.496 361.045C513.092 362 529.564 356.481 542.926 355.183C556.289 353.885 570.794 343.281 570.794 343.281C570.794 343.281 586.76 337.566 589.527 327.966C592.294 318.365 586.107 265.538 586.107 265.538C586.107 265.538 581.421 240.933 568.222 247.611Z" fill="black"/>
<path d="M569.7 248.591C569.7 248.591 554.379 277.768 556.174 288.846C557.97 299.924 563.015 312.479 560.574 315.41C559.739 316.524 558.655 317.429 557.41 318.052C556.165 318.676 554.792 319.001 553.399 319.002C550.95 319.165 544.42 323.729 544.42 324.21C544.42 324.692 538.396 324.7 532.993 326.986C527.589 329.272 519.63 330.57 519.63 330.57C519.63 330.57 504.122 330.08 502.677 331.55C501.232 333.019 499.746 341.819 502.84 348.824C505.934 355.828 509.37 361.069 511.966 362.024C514.561 362.979 531.034 357.461 544.396 356.155C557.758 354.848 572.263 344.26 572.263 344.26C572.263 344.26 588.237 338.546 591.037 328.937C593.837 319.329 587.658 266.518 587.658 266.518C587.658 266.518 582.891 241.945 569.7 248.591Z" fill="white"/>
<path opacity="0.1" d="M569.365 326.847C569.365 326.847 557.121 324.398 561.382 328.48C565.643 332.562 565.618 336.137 570.834 335.974C576.05 335.811 569.365 326.847 569.365 326.847Z" fill="black"/>
<path opacity="0.1" d="M590.057 414.672C590.057 414.672 584.523 418.419 595.11 427.056C605.697 435.693 590.057 414.672 590.057 414.672Z" fill="black"/>
<path opacity="0.1" d="M579.495 445.473C579.495 445.963 577.536 463.433 584.866 467.801C592.196 472.168 579.495 445.473 579.495 445.473Z" fill="black"/>
<path d="M463.113 308.553C457.203 308.757 444.437 310.561 451.057 322.912C456.909 333.843 466.745 326.537 472.279 320.994C470.929 315.826 467.648 311.373 463.113 308.553Z" fill="#FFB0B1"/>
<path d="M472.353 320.896L472.597 320.643L472.353 320.896Z" fill="#FFB0B1"/>
<path opacity="0.1" d="M567.741 232.966C561.472 237.251 556.216 240.868 555.187 241.619C552.379 243.701 547.024 255.922 543.572 262.159C540.821 267.179 531.883 268.469 528.512 268.788L528.944 265.057C536.609 261.628 542.478 250.705 542.478 250.705L557.628 224.141L562.844 228.884C562.844 228.884 564.803 230.516 567.741 232.966Z" fill="black"/>
<path d="M567.741 232.476C561.472 236.762 556.216 240.378 555.187 241.137C552.379 243.211 547.024 255.432 543.572 261.669C540.821 266.689 531.883 267.979 528.512 268.298L528.944 264.567C536.609 261.138 542.478 250.215 542.478 250.215L557.628 223.651L562.844 228.378C562.844 228.378 564.803 229.994 567.741 232.476Z" fill="#DCE7FF"/>
<path d="M555.676 211.675C555.68 216.575 554.194 221.361 551.415 225.398C548.134 230.171 543.251 233.609 537.652 235.089C532.053 236.569 526.109 235.992 520.898 233.464C515.688 230.935 511.556 226.623 509.253 221.308C506.95 215.994 506.628 210.03 508.345 204.498C510.062 198.967 513.706 194.234 518.614 191.159C523.522 188.084 529.369 186.871 535.095 187.739C540.821 188.607 546.046 191.5 549.822 195.891C553.598 200.283 555.675 205.883 555.676 211.675Z" fill="#FFB0B1"/>
<path opacity="0.1" d="M597.926 293.107C594.611 291.068 591.911 288.167 590.114 284.715C588.751 282.021 587.845 278.91 585.519 277C583.421 275.286 580.621 274.869 578.009 274.102C569.422 271.563 562.223 263.726 561.953 254.779C561.823 250.566 563.137 246.362 562.541 242.19C562.202 239.829 561.264 237.595 559.815 235.7C559.095 234.794 558.307 233.945 557.456 233.161C556.313 232.084 555.113 231.039 554.068 229.896C553.41 229.188 552.835 228.408 552.354 227.569C551.966 226.883 551.651 226.158 551.415 225.406C549.783 220.41 551.268 214.483 549.473 209.43L549.375 209.152C548.697 207.356 547.318 205.56 545.4 205.421C543.481 205.283 541.841 206.875 540.012 207.585C536.184 209.071 532.054 206.54 528.862 203.96C525.671 201.38 522.071 198.433 518.014 199.005C515.329 199.389 513.206 201.217 510.733 202.164C510.175 202.38 509.598 202.547 509.011 202.662C511.104 197.442 514.949 193.113 519.887 190.42C524.824 187.727 530.545 186.838 536.067 187.905C541.589 188.973 546.566 191.93 550.145 196.269C553.723 200.608 555.679 206.058 555.676 211.683C555.679 213.381 555.501 215.075 555.146 216.736C555.187 216.851 555.227 216.957 555.276 217.071C556.223 219.52 557.292 222.034 558.231 224.206L562.843 228.386C562.843 228.386 564.802 230.018 567.741 232.468C574.132 237.856 585.176 247.342 590.873 253.146C595.885 258.273 597.452 278.143 597.926 293.107Z" fill="black"/>
<path d="M510.448 187.249C511.615 184.874 512.195 182.212 513.59 179.959C515.639 176.694 519.214 174.604 522.888 173.338C532.479 170.032 552.746 165.232 558.803 173.338C559.995 174.971 560.982 176.783 562.631 177.91C563.888 178.767 565.407 179.135 566.786 179.779C570.647 181.592 573.112 185.543 574.426 189.576C575.74 193.609 576.132 197.935 577.095 202.091C578.328 207.421 580.491 212.475 582.646 217.495C585.184 223.422 587.878 229.569 592.776 233.757C599.461 239.472 600.938 247.562 607.142 253.832C614.488 261.277 614.251 273.563 610.464 283.319C609.966 284.6 609.403 285.939 609.599 287.303C609.795 288.666 610.807 289.907 611.762 290.993L615.778 295.523C606.277 297.817 595.526 292.854 591.102 284.143C589.739 281.449 588.833 278.347 586.499 276.429C584.409 274.714 581.601 274.306 578.997 273.539C570.41 270.992 563.211 263.146 562.941 254.199C562.811 249.995 564.125 245.791 563.529 241.627C563.198 239.25 562.255 237 560.795 235.096C558.55 232.165 555.162 230.198 553.334 226.933C550.24 221.471 552.591 214.377 550.363 208.515C549.677 206.719 548.306 204.923 546.388 204.785C544.469 204.646 542.829 206.238 540.992 206.948C537.172 208.434 533.042 205.911 529.85 203.323C526.659 200.735 523.059 197.797 518.994 198.376C516.308 198.752 514.194 200.58 511.721 201.536C509.893 202.238 506.187 202.866 504.587 201.323C501.208 198.213 509.036 190.155 510.448 187.249Z" fill="#591D4B"/>
<path opacity="0.1" d="M593.372 281.449C592 278.755 591.103 275.653 588.768 273.743C586.678 272.028 583.87 271.612 581.258 270.845C572.68 268.306 565.48 260.461 565.203 251.513C565.072 247.309 566.386 243.097 565.798 238.933C565.457 236.572 564.515 234.337 563.064 232.443C560.811 229.512 557.424 227.545 555.603 224.279C552.51 218.826 554.861 211.732 552.624 205.862C551.947 204.074 550.567 202.278 548.657 202.131C546.747 201.985 545.09 203.593 543.262 204.303C539.441 205.789 535.303 203.258 532.12 200.678C528.936 198.099 525.32 195.152 521.263 195.723C518.578 196.107 516.456 197.935 513.991 198.882C512.162 199.584 508.448 200.221 506.848 198.678C503.485 195.413 511.313 187.372 512.717 184.482C513.884 182.098 514.464 179.445 515.868 177.192C515.941 177.069 516.023 176.947 516.105 176.824C515.054 177.694 514.148 178.725 513.419 179.877C512.023 182.131 511.444 184.776 510.277 187.168C508.864 190.057 501.036 198.123 504.408 201.364C506.04 202.915 509.713 202.278 511.542 201.576C513.991 200.621 516.129 198.793 518.815 198.417C522.896 197.837 526.487 200.784 529.671 203.364C532.854 205.944 537.017 208.475 540.821 206.989C542.649 206.279 544.249 204.679 546.208 204.825C548.167 204.972 549.473 206.76 550.183 208.556C552.412 214.418 550.061 221.512 553.155 226.973C554.983 230.182 558.371 232.19 560.615 235.137C562.076 237.041 563.018 239.291 563.35 241.668C563.946 245.831 562.631 250.036 562.762 254.24C563.031 263.22 570.231 271.033 578.818 273.58C581.405 274.347 584.23 274.755 586.319 276.47C588.662 278.388 589.584 281.49 590.923 284.184C595.347 292.895 606.097 297.858 615.599 295.564L613.705 293.425C605.469 293.548 597.135 288.862 593.372 281.449Z" fill="black"/>
<path opacity="0.1" d="M537.099 244.191C536.029 245.823 532.968 254.183 530.413 261.481C528.022 260.55 525.851 254.615 525.851 254.615L538.601 236.476C539.907 238.272 539.049 241.252 537.099 244.191Z" fill="black"/>
<path d="M537.588 243.701C536.519 245.333 533.458 253.693 530.903 260.991C528.511 260.069 526.34 254.126 526.34 254.126L539.09 235.994C540.396 237.782 539.539 240.77 537.588 243.701Z" fill="#DCE7FF"/>
<path d="M463.455 327.1L456.386 304.805C456.303 304.544 456.272 304.269 456.294 303.996C456.317 303.723 456.394 303.457 456.52 303.214C456.646 302.97 456.818 302.754 457.028 302.577C457.238 302.401 457.48 302.268 457.742 302.185C458.268 302.021 458.837 302.071 459.326 302.325C459.816 302.579 460.185 303.015 460.354 303.54L467.422 325.81L466.72 330.472L463.455 327.1Z" fill="#BE8B87"/>
<path opacity="0.1" d="M457.056 302.846C457.583 302.679 458.155 302.728 458.646 302.982C459.137 303.236 459.508 303.675 459.676 304.201L466.745 326.472L466.215 329.966L466.729 330.505L467.431 325.843L460.321 303.573C460.153 303.048 459.783 302.611 459.294 302.357C458.805 302.104 458.235 302.053 457.709 302.218C457.266 302.361 456.884 302.649 456.624 303.034C456.762 302.959 456.907 302.897 457.056 302.846Z" fill="white"/>
<path d="M463.456 327.1L467.423 325.843L466.843 329.664L466.721 330.505L465.562 329.296L463.456 327.1Z" fill="#EFC8C4"/>
<path d="M465.562 329.296C465.631 329.209 465.717 329.137 465.815 329.084C465.872 329.048 465.939 329.029 466.006 329.029C466.074 329.029 466.141 329.048 466.198 329.084C466.254 329.151 466.3 329.225 466.337 329.305C466.391 329.395 466.464 329.471 466.552 329.529C466.64 329.587 466.739 329.625 466.843 329.639L466.721 330.456L465.562 329.296Z" fill="#727A9C"/>
<path d="M456.346 312.724C456.346 312.724 470.524 312.643 467.186 318.675C463.847 324.708 458.631 325.435 458.631 325.435L456.346 312.724Z" fill="#FFB0B1"/>
</g>
<defs>
<linearGradient id="paint0_linear" x1="290.858" y1="632.575" x2="290.858" y2="130.234" gradientUnits="userSpaceOnUse">
<stop stop-color="#808080" stop-opacity="0.25"/>
<stop offset="0.54" stop-color="#808080" stop-opacity="0.12"/>
<stop offset="1" stop-color="#808080" stop-opacity="0.1"/>
</linearGradient>
<linearGradient id="paint1_linear" x1="181994" y1="379023" x2="181994" y2="121167" gradientUnits="userSpaceOnUse">
<stop stop-color="#808080" stop-opacity="0.25"/>
<stop offset="0.54" stop-color="#808080" stop-opacity="0.12"/>
<stop offset="1" stop-color="#808080" stop-opacity="0.1"/>
</linearGradient>
<clipPath id="clip0">
<rect width="902" height="639" fill="white"/>
</clipPath>
</defs>
</svg>
