<svg width="48" height="48" viewBox="0 0 48 48" fill="none" xmlns="http://www.w3.org/2000/svg">
<g clip-path="url(#clip0)">
<path d="M28.6455 38.5048H25.0081C24.4905 38.5048 24.0707 38.9245 24.0707 39.4422C24.0707 39.96 24.4905 40.3797 25.0081 40.3797H28.6455C29.2069 40.3797 29.6637 40.8363 29.6637 41.3977C29.6637 41.9591 29.207 42.4157 28.6455 42.4157H18.8539C17.3821 42.4157 15.9979 41.7668 15.0567 40.6352L12.7151 37.8207C11.4587 36.3103 9.63008 35.4258 7.67352 35.3698V29.8323H11.125C12.8271 29.8323 14.4388 30.4833 15.6633 31.6653L20.7171 36.5436C21.0744 36.8885 21.0911 37.466 20.7542 37.8309C20.4109 38.2027 19.8282 38.227 19.4552 37.8851L15.4874 34.2479C15.1059 33.8982 14.5128 33.9239 14.1631 34.3055C13.8132 34.6872 13.839 35.2801 14.2206 35.6299L18.1884 39.267C18.7235 39.7575 19.4007 39.9998 20.0761 39.9998C20.8303 39.9998 21.5822 39.6978 22.1319 39.1024C23.1543 37.9947 23.1038 36.2418 22.0192 35.1948L16.9653 30.3165C15.3895 28.7954 13.3154 27.9576 11.125 27.9576H7.49145C7.13877 27.1229 6.31161 26.5355 5.34993 26.5355H0.937404C0.419718 26.5355 0 26.9551 0 27.4729V34.3276C0 34.8453 0.419718 35.265 0.937404 35.265C1.45509 35.265 1.87481 34.8454 1.87481 34.3276V28.4102H5.35002C5.59752 28.4102 5.7988 28.6116 5.7988 28.859V36.3724C5.7988 36.6198 5.59752 36.8212 5.35002 36.8212H4.37643C3.85874 36.8212 3.43902 37.2408 3.43902 37.7586C3.43902 38.2763 3.85874 38.696 4.37643 38.696H5.34993C6.32455 38.696 7.16033 38.0926 7.50486 37.24C8.96623 37.2483 10.3386 37.8955 11.2739 39.0197L13.6155 41.8343C14.9141 43.3953 16.8234 44.2905 18.8539 44.2905H28.6455C30.2406 44.2905 31.5384 42.9928 31.5384 41.3977C31.5384 39.8025 30.2406 38.5048 28.6455 38.5048Z" fill="black"/>
<path d="M47.0625 12.3688C46.5449 12.3688 46.1251 12.7884 46.1251 13.3062V19.5898H42.6499C42.4024 19.5898 42.2011 19.3884 42.2011 19.141V11.6276C42.2011 11.3802 42.4024 11.1788 42.6499 11.1788H43.5547C44.0724 11.1788 44.4921 10.7592 44.4921 10.2414C44.4921 9.72374 44.0724 9.30402 43.5547 9.30402H42.6499C41.6753 9.30402 40.8395 9.9074 40.495 10.7601C39.0336 10.7517 37.6612 10.1046 36.726 8.9803L34.3844 6.16584C33.0858 4.60481 31.1764 3.7095 29.1458 3.7095H19.3544C17.7593 3.7095 16.4615 5.00719 16.4615 6.60225C16.4615 8.19731 17.7593 9.49499 19.3544 9.49499H23.3583C23.8759 9.49499 24.2957 9.07537 24.2957 8.55759C24.2957 8.03981 23.8759 7.62018 23.3583 7.62018H19.3544C18.793 7.62018 18.3363 7.16353 18.3363 6.60215C18.3363 6.04087 18.7929 5.58412 19.3544 5.58412H29.1459C30.6179 5.58412 32.002 6.23306 32.9432 7.36462L35.2848 10.1791C36.5412 11.6894 38.3699 12.5739 40.3264 12.63V18.1675H36.8749C35.1728 18.1675 33.5612 17.5165 32.3367 16.3345L27.2828 11.4562C26.9255 11.1113 26.9088 10.5339 27.2457 10.169C27.589 9.79705 28.1718 9.77286 28.5448 10.1148L32.5127 13.7519C32.8943 14.1017 33.4871 14.076 33.8371 13.6943C34.1868 13.3127 34.1611 12.7197 33.7794 12.3699L29.8115 8.7329C28.679 7.69481 26.9102 7.76877 25.868 8.89752C24.8456 10.0053 24.8961 11.7582 25.9807 12.8051L31.0346 17.6834C32.6104 19.2046 34.6846 20.0423 36.8749 20.0423H40.5085C40.8612 20.8771 41.6883 21.4644 42.65 21.4644H47.0626C47.5803 21.4644 48 21.0448 48 20.527V13.306C47.9999 12.7884 47.5802 12.3688 47.0625 12.3688Z" fill="black"/>
<path d="M30.266 35.5915C30.0528 35.1197 29.4987 34.9093 29.0274 35.1223C28.5526 35.3291 28.3355 35.8814 28.5422 36.356C28.6958 36.7088 29.0404 36.9193 29.4021 36.9193C29.527 36.9193 29.654 36.8942 29.7759 36.8412C29.7798 36.8395 29.7922 36.8339 29.796 36.8322C30.2679 36.6192 30.4791 36.0633 30.266 35.5915Z" fill="black"/>
<path d="M32.5962 34.0133C32.2897 33.597 31.7007 33.5104 31.2839 33.8155C30.8663 34.1213 30.7755 34.7079 31.0814 35.1255C31.265 35.3763 31.5496 35.5092 31.8384 35.5092C32.0306 35.5092 32.2245 35.4504 32.3914 35.3282C32.3929 35.3272 32.4017 35.3206 32.4031 35.3196C32.8183 35.0121 32.9025 34.4293 32.5962 34.0133Z" fill="black"/>
<path d="M27.6453 36.6438C27.5385 36.139 27.0429 35.8157 26.5376 35.9201C26.0328 36.0204 25.7028 36.5093 25.7996 37.0155C25.8854 37.4646 26.2783 37.777 26.7192 37.777C26.7776 37.777 26.8369 37.7715 26.8962 37.7602C26.9023 37.759 26.9177 37.7559 26.9239 37.7545C27.4301 37.6472 27.7525 37.1501 27.6453 36.6438Z" fill="black"/>
<path d="M34.5544 31.9744C34.1701 31.6277 33.5775 31.6582 33.2306 32.0427C33.226 32.0478 33.2152 32.06 33.2107 32.0651C32.8725 32.4571 32.9162 33.0491 33.3081 33.3872C33.4852 33.54 33.7031 33.6148 33.9199 33.6148C34.1803 33.6148 34.4391 33.507 34.6242 33.2967C34.9694 32.9122 34.9383 32.3206 34.5544 31.9744ZM34.0309 32.7648L33.9267 32.6705L34.0396 32.7723L34.0309 32.7648Z" fill="black"/>
<path d="M36.9403 26.8943C36.4449 26.744 35.9209 27.0267 35.7706 27.5221C35.6183 28.017 35.896 28.5415 36.3908 28.6937C36.4826 28.7221 36.5754 28.7355 36.6667 28.7355C37.0674 28.7355 37.4384 28.4765 37.5623 28.0735L37.5663 28.0607C37.7165 27.5652 37.4357 27.0445 36.9403 26.8943Z" fill="black"/>
<path d="M38.141 22.0562C38.139 22.0443 38.1367 22.0324 38.1342 22.0205C38.0284 21.5139 37.5319 21.1898 37.0254 21.2954C36.5208 21.4006 36.1963 21.8941 36.2979 22.3987C36.3839 22.846 36.7759 23.159 37.2172 23.159C37.2721 23.159 37.3278 23.1542 37.3835 23.1442C37.8932 23.053 38.2323 22.5659 38.141 22.0562Z" fill="black"/>
<path d="M37.2813 24.0902C36.7673 24.0448 36.3107 24.4259 36.2652 24.9415C36.2644 24.9506 36.2631 24.9691 36.2625 24.9782C36.2321 25.495 36.6264 25.9386 37.1432 25.969C37.1619 25.9701 37.1805 25.9707 37.1991 25.9707C37.6871 25.9707 38.0973 25.5933 38.1332 25.1017C38.1759 24.588 37.7955 24.1355 37.2813 24.0902Z" fill="black"/>
<path d="M36.0227 29.5617C35.5727 29.3066 35.0002 29.4646 34.7451 29.9151L34.732 29.9385C34.4852 30.3936 34.6518 30.9667 35.1067 31.2135C35.2499 31.2912 35.4039 31.328 35.5557 31.328C35.8866 31.328 36.2061 31.1525 36.3754 30.8405L35.5605 30.3772L36.376 30.8394C36.6313 30.3889 36.4731 29.8169 36.0227 29.5617Z" fill="black"/>
<path d="M19.0214 11.7094C18.7899 11.2462 18.2265 11.0585 17.7638 11.2901L17.7554 11.2942C17.2923 11.5258 17.1089 12.0867 17.3404 12.5497C17.5044 12.8778 17.8366 13.0666 18.1811 13.0666C18.323 13.0666 18.467 13.0345 18.6021 12.967C19.0652 12.7356 19.2528 12.1725 19.0214 11.7094Z" fill="black"/>
<path d="M21.7333 10.9277C21.6113 10.4248 21.1053 10.1156 20.6014 10.2377C20.5971 10.2387 20.5837 10.2421 20.5794 10.2432C20.0781 10.3724 19.7744 10.884 19.9035 11.3852C20.0125 11.8082 20.3919 12.0894 20.809 12.0894C20.8863 12.0894 20.9648 12.0797 21.0432 12.0596C21.5463 11.9376 21.8553 11.4309 21.7333 10.9277Z" fill="black"/>
<path d="M16.5427 13.0611C16.2185 12.6583 15.6283 12.595 15.225 12.9184L15.8061 13.6539L15.2222 12.9206C14.8172 13.2431 14.7503 13.8328 15.0727 14.2378C15.258 14.4703 15.5311 14.5913 15.8068 14.5913C16.0113 14.5913 16.2175 14.5246 16.3901 14.3872L16.4025 14.3773C16.8047 14.0524 16.8669 13.464 16.5427 13.0611Z" fill="black"/>
<path d="M11.5446 19.7307C11.0451 19.5946 10.5298 19.8888 10.3936 20.3883C10.3913 20.3969 10.3868 20.4146 10.3846 20.4232C10.2627 20.9262 10.5717 21.432 11.0746 21.5541C11.1488 21.5721 11.2231 21.5807 11.2962 21.5807C11.7168 21.5807 12.0989 21.2954 12.2054 20.87C12.3339 20.3743 12.0402 19.8659 11.5446 19.7307Z" fill="black"/>
<path d="M10.9474 22.4849C10.4293 22.4562 9.98733 22.8498 9.95733 23.3666C9.95658 23.3787 9.95611 23.3907 9.95573 23.4027C9.94055 23.9199 10.3475 24.3508 10.8648 24.3663C10.8744 24.3666 10.8838 24.3668 10.8932 24.3668C11.3957 24.3668 11.8109 23.9681 11.8295 23.4633C11.8529 22.9515 11.4603 22.5148 10.9474 22.4849Z" fill="black"/>
<path d="M12.7244 17.169C12.2658 16.9284 11.6993 17.1051 11.4588 17.5636L11.4436 17.5938C11.2151 18.0581 11.4067 18.6189 11.871 18.8476C12.0039 18.9131 12.1448 18.944 12.2838 18.944C12.6281 18.944 12.9595 18.7535 13.1237 18.4254C13.3572 17.9686 13.1798 17.4079 12.7244 17.169Z" fill="black"/>
<path d="M14.4173 14.9136C14.0189 14.583 13.4279 14.6378 13.0973 15.0361C13.0928 15.0416 13.0825 15.0544 13.078 15.0599C12.7566 15.4655 12.8253 16.0541 13.2308 16.3757C13.4029 16.5123 13.6082 16.5784 13.8122 16.5784C14.0872 16.5784 14.3598 16.4581 14.545 16.2273C14.8697 15.8291 14.8134 15.2426 14.4173 14.9136Z" fill="black"/>
<path d="M12.0068 26.0651C11.9156 25.5555 11.4282 25.2164 10.9188 25.3077C10.4092 25.399 10.0701 25.886 10.1613 26.3956L10.163 26.4048C10.2442 26.8579 10.6377 27.1726 11.0821 27.1726C11.1375 27.1726 11.1937 27.1678 11.2501 27.1576C11.7597 27.0664 12.0981 26.5747 12.0068 26.0651Z" fill="black"/>
<path d="M0.937419 38.6928C1.45332 38.6928 1.87154 38.2746 1.87154 37.7587C1.87154 37.2428 1.45332 36.8246 0.937419 36.8246C0.421517 36.8246 0.0032959 37.2428 0.0032959 37.7587C0.0032959 38.2746 0.421517 38.6928 0.937419 38.6928Z" fill="black"/>
<path d="M47.0624 11.1753C47.5783 11.1753 47.9965 10.7571 47.9965 10.2412C47.9965 9.72532 47.5783 9.3071 47.0624 9.3071C46.5465 9.3071 46.1283 9.72532 46.1283 10.2412C46.1283 10.7571 46.5465 11.1753 47.0624 11.1753Z" fill="black"/>
<path d="M19.6881 25.5593H22.4479V28.3124C22.4479 28.6919 22.7552 29 23.1346 29H25.8813C26.26 29 26.5673 28.692 26.5673 28.3124V25.56H29.3126C29.6927 25.56 30 25.2526 30 24.8724V22.1213C30 21.7404 29.6927 21.4324 29.3126 21.4324H26.5673V18.6876C26.5673 18.3074 26.26 18 25.8813 18H23.1346C22.7552 18 22.4479 18.3074 22.4479 18.6876V21.4324H19.6881C19.308 21.4324 19 21.7404 19 22.1213V24.8724C19 25.252 19.308 25.5593 19.6881 25.5593Z" fill="#48A9A6"/>
</g>
<defs>
<clipPath id="clip0">
<rect width="48" height="48" fill="white"/>
</clipPath>
</defs>
</svg>