<svg width="546" height="409" viewBox="0 0 546 409" fill="none" xmlns="http://www.w3.org/2000/svg">
<path opacity="0.1" d="M512.812 159.311C493.878 133.32 500.127 96.2202 511.071 66.6634C514.737 56.7692 518.901 46.3041 517 35.5391C514.679 22.3791 503.768 12.5188 492.427 7.14832C471.753 -2.63943 447.33 -1.07669 428.836 11.256C412.877 21.9001 401.642 39.5887 385.373 49.7248C358.146 66.6828 322.798 59.1061 292.494 46.159C271.055 37.0002 247.571 25.2046 226.679 33.6618C211.977 39.6129 202.077 54.7614 196.868 70.9549C194.353 78.7735 192.593 87.2598 187.583 93.3802C184.604 97.0185 180.667 99.5537 176.619 101.673C139.675 121.026 92.1549 108.93 56.3381 130.523C32.1571 145.106 17.1069 173.404 10.8537 203.155C4.60046 232.905 6.14804 264.31 8.63868 295.178C10.4087 317.114 13.2089 340.556 26.3924 357.794C40.3351 376.02 63.7036 383.263 84.6008 380.408C105.498 377.554 124.233 365.942 140.623 352.08C161.124 334.789 179.985 313.079 205.481 306.514C222.848 302.043 241.298 305.208 259.352 306.606C289.53 308.938 319.601 306.253 349.489 303.219C378.1 300.316 406.909 297.075 434.006 287.558C453.182 280.823 468.382 268.094 486.435 259.394C498.202 253.724 511.148 252.408 522.223 245.083C535.89 236.06 548.242 220.074 544.233 200.89C540.446 182.655 522.871 173.105 512.812 159.311Z" fill="#48A9A6"/>
<path d="M0 285.497C0 335.354 31.2898 375.704 69.961 375.704L0 285.497Z" fill="#3A3768"/>
<path d="M69.9609 375.704C69.9609 325.284 104.881 284.483 148.033 284.483L69.9609 375.704Z" fill="#48A9A6"/>
<path d="M25.3481 290.017C25.3481 337.376 45.3022 375.704 69.961 375.704L25.3481 290.017Z" fill="#48A9A6"/>
<path d="M69.9609 375.704C69.9609 311.277 110.32 259.144 160.201 259.144L69.9609 375.704Z" fill="#3A3768"/>
<path opacity="0.1" d="M66.9242 392.94C76.5306 392.94 84.3181 391.624 84.3181 390.001C84.3181 388.377 76.5306 387.061 66.9242 387.061C57.3178 387.061 49.5303 388.377 49.5303 390.001C49.5303 391.624 57.3178 392.94 66.9242 392.94Z" fill="#48A9A6"/>
<path d="M55.2437 376.338C55.2437 376.338 65.1649 376.034 68.156 373.905C71.1471 371.777 83.4156 369.238 84.1558 372.648C84.896 376.059 99.0707 389.626 87.8668 389.717C76.6629 389.808 61.8392 387.973 58.8532 386.169C55.8672 384.365 55.2437 376.338 55.2437 376.338Z" fill="#A8A8A8"/>
<path opacity="0.2" d="M88.0696 388.531C76.8657 388.617 62.042 386.783 59.056 384.983C56.7848 383.6 55.8774 378.633 55.5732 376.368H55.2437C55.2437 376.368 55.8723 384.37 58.8532 386.185C61.8342 387.999 76.6679 389.838 87.8668 389.732C91.1012 389.732 92.2165 388.556 92.1557 386.854C91.7045 387.867 90.4929 388.511 88.0696 388.531Z" fill="black"/>
<path opacity="0.1" d="M284.245 409C427.319 409 543.303 405.145 543.303 400.39C543.303 395.634 427.319 391.779 284.245 391.779C141.17 391.779 25.186 395.634 25.186 400.39C25.186 405.145 141.17 409 284.245 409Z" fill="#48A9A6"/>
<path d="M356.385 138.96H353.683C353.042 138.96 352.522 139.479 352.522 140.12V179.219C352.522 179.86 353.042 180.379 353.683 180.379H356.385C357.027 180.379 357.546 179.86 357.546 179.219V140.12C357.546 139.479 357.027 138.96 356.385 138.96Z" fill="#3A3768"/>
<path d="M187.1 106.51H186.603C185.962 106.51 185.442 107.03 185.442 107.671V118.987C185.442 119.628 185.962 120.148 186.603 120.148H187.1C187.741 120.148 188.261 119.628 188.261 118.987V107.671C188.261 107.03 187.741 106.51 187.1 106.51Z" fill="#3A3768"/>
<path d="M187.359 131.475H186.502C185.861 131.475 185.341 131.994 185.341 132.635V154.052C185.341 154.693 185.861 155.212 186.502 155.212H187.359C188 155.212 188.519 154.693 188.519 154.052V132.635C188.519 131.994 188 131.475 187.359 131.475Z" fill="#3A3768"/>
<path d="M187.257 163.519H186.553C185.911 163.519 185.392 164.038 185.392 164.679V186.299C185.392 186.939 185.911 187.459 186.553 187.459H187.257C187.898 187.459 188.418 186.939 188.418 186.299V164.679C188.418 164.038 187.898 163.519 187.257 163.519Z" fill="#3A3768"/>
<path d="M335.468 61.447H206.806C195.889 61.447 187.039 70.2937 187.039 81.2066V383.397C187.039 394.31 195.889 403.157 206.806 403.157H335.468C346.385 403.157 355.234 394.31 355.234 383.397V81.2066C355.234 70.2937 346.385 61.447 335.468 61.447Z" fill="#3A3768"/>
<path d="M276.437 71.6484H256.874C255.79 71.6484 254.912 72.5265 254.912 73.6097V74.456C254.912 75.5392 255.79 76.4173 256.874 76.4173H276.437C277.521 76.4173 278.399 75.5392 278.399 74.456V73.6097C278.399 72.5265 277.521 71.6484 276.437 71.6484Z" fill="#E6E8EC"/>
<path d="M284.655 76.7418C286.15 76.7418 287.362 75.5302 287.362 74.0356C287.362 72.541 286.15 71.3293 284.655 71.3293C283.16 71.3293 281.948 72.541 281.948 74.0356C281.948 75.5302 283.16 76.7418 284.655 76.7418Z" fill="#E6E8EC"/>
<path d="M331.488 70.3462H312.224V72.6622C312.224 75.5788 311.065 78.376 309.001 80.4384C306.938 82.5008 304.14 83.6594 301.222 83.6594H239.849C238.405 83.6601 236.974 83.3761 235.639 82.8237C234.304 82.2712 233.091 81.4612 232.069 80.4399C231.047 79.4186 230.237 78.206 229.684 76.8714C229.132 75.5369 228.848 74.1066 228.848 72.6622V70.3462H210.785C207.242 70.3462 203.845 71.7531 201.339 74.2574C198.834 76.7617 197.427 80.1583 197.427 83.7V380.899C197.427 384.441 198.834 387.837 201.339 390.341C203.845 392.846 207.242 394.253 210.785 394.253H331.488C333.242 394.253 334.979 393.907 336.6 393.236C338.22 392.565 339.692 391.581 340.932 390.341C342.172 389.101 343.156 387.629 343.827 386.009C344.497 384.389 344.842 382.652 344.842 380.899V83.7C344.842 81.9466 344.497 80.2102 343.827 78.5901C343.156 76.97 342.172 75.4978 340.932 74.2577C339.692 73.0176 338.22 72.0339 336.6 71.3628C334.979 70.6916 333.242 70.3462 331.488 70.3462Z" fill="#E6E8EC"/>
<path d="M321.364 109H220.636C219.18 109 218 109.869 218 110.94V134.06C218 135.131 219.18 136 220.636 136H321.364C322.82 136 324 135.131 324 134.06V110.94C324 109.869 322.82 109 321.364 109Z" fill="#48A9A6"/>
<path d="M234.742 121.955L233.078 125.465C232.836 125.933 232.532 126.167 232.168 126.167C231.813 126.167 231.514 125.92 231.271 125.426L229.581 121.955V127.48H227.774V118.224H229.555L232.168 123.567L234.768 118.224H236.549V127.48H234.742V121.955ZM247.788 127.48H244.512C243.472 127.48 242.74 127.302 242.315 126.947C241.899 126.583 241.691 125.946 241.691 125.036V118.224H247.788V119.836H243.498V122.007H246.501L246.371 123.619H243.498V124.906C243.498 125.27 243.581 125.521 243.745 125.66C243.91 125.799 244.209 125.868 244.642 125.868H247.788V127.48ZM259.793 122.813L259.806 123.814C259.772 124.447 259.694 124.98 259.572 125.413C259.451 125.846 259.213 126.241 258.857 126.596C258.268 127.185 257.41 127.48 256.283 127.48C254.957 127.48 254.047 127.307 253.553 126.96C253.059 126.605 252.812 125.968 252.812 125.049V118.224H256.413C257.453 118.224 258.268 118.519 258.857 119.108C259.334 119.585 259.616 120.165 259.702 120.85C259.763 121.335 259.793 121.99 259.793 122.813ZM257.596 125.296C257.761 125.097 257.865 124.824 257.908 124.477C257.96 124.122 257.986 123.571 257.986 122.826C257.986 122.081 257.96 121.543 257.908 121.214C257.865 120.876 257.761 120.607 257.596 120.408C257.284 120.027 256.834 119.836 256.244 119.836H254.619V124.958C254.619 125.305 254.736 125.543 254.97 125.673C255.204 125.803 255.62 125.868 256.218 125.868C256.825 125.868 257.284 125.677 257.596 125.296ZM266.439 127.48H264.632V118.224H266.439V127.48ZM278.083 124.75C278.083 125.625 277.762 126.314 277.121 126.817C276.479 127.311 275.66 127.558 274.664 127.558C273.875 127.558 273.112 127.341 272.376 126.908C272.012 126.683 271.713 126.366 271.479 125.959C271.245 125.543 271.128 125.071 271.128 124.542L272.766 124.464C272.766 124.932 272.965 125.296 273.364 125.556C273.762 125.816 274.204 125.946 274.69 125.946C275.773 125.946 276.315 125.565 276.315 124.802C276.315 124.178 275.946 123.81 275.21 123.697L273.702 123.541C272.948 123.428 272.35 123.16 271.908 122.735C271.466 122.31 271.245 121.699 271.245 120.902C271.245 120.105 271.561 119.446 272.194 118.926C272.826 118.406 273.624 118.146 274.586 118.146C275.556 118.146 276.336 118.393 276.926 118.887C277.515 119.372 277.81 120.001 277.81 120.772L276.198 120.85C276.05 120.096 275.543 119.719 274.677 119.719C274.148 119.719 273.732 119.832 273.429 120.057C273.134 120.282 272.987 120.551 272.987 120.863C272.987 121.166 273.095 121.409 273.312 121.591C273.528 121.764 273.797 121.873 274.118 121.916L275.6 122.072C277.255 122.297 278.083 123.19 278.083 124.75ZM293.147 118.224L290.664 127.48H289.156L287.453 121.864L285.75 127.48H284.242L281.772 118.224H283.657L285.087 124.061L286.504 119.238C286.66 118.519 286.99 118.159 287.492 118.159C287.744 118.159 287.934 118.254 288.064 118.445C288.194 118.627 288.311 118.891 288.415 119.238L289.819 124.061L291.262 118.224H293.147ZM304.571 127.48H302.686L302.166 125.881H299.059L298.552 127.48H296.667L299.631 119.004C299.761 118.709 299.904 118.506 300.06 118.393C300.224 118.28 300.424 118.224 300.658 118.224C300.892 118.224 301.078 118.276 301.217 118.38C301.364 118.484 301.494 118.692 301.607 119.004L304.571 127.48ZM301.75 124.36L300.658 120.694L299.514 124.36H301.75ZM314.928 119.03C315.465 119.559 315.734 120.339 315.734 121.37C315.734 122.401 315.465 123.186 314.928 123.723C314.399 124.252 313.649 124.516 312.679 124.516H310.898V127.48H309.091V118.224H312.679C313.649 118.224 314.399 118.493 314.928 119.03ZM313.927 121.37C313.927 120.347 313.48 119.836 312.588 119.836H310.898V122.891H312.588C313.021 122.891 313.35 122.774 313.576 122.54C313.81 122.306 313.927 121.916 313.927 121.37Z" fill="white"/>
<g opacity="0.3">
<path opacity="0.3" d="M320.3 294.137H222.841C221.755 294.137 220.874 295.018 220.874 296.104V301.293C220.874 302.379 221.755 303.259 222.841 303.259H320.3C321.386 303.259 322.267 302.379 322.267 301.293V296.104C322.267 295.018 321.386 294.137 320.3 294.137Z" fill="#48A9A6"/>
<path opacity="0.3" d="M320.3 308.327H222.841C221.755 308.327 220.874 309.208 220.874 310.293V315.483C220.874 316.569 221.755 317.449 222.841 317.449H320.3C321.386 317.449 322.267 316.569 322.267 315.483V310.293C322.267 309.208 321.386 308.327 320.3 308.327Z" fill="#48A9A6"/>
<path opacity="0.3" d="M320.3 322.517H222.841C221.755 322.517 220.874 323.397 220.874 324.483V329.673C220.874 330.759 221.755 331.639 222.841 331.639H320.3C321.386 331.639 322.267 330.759 322.267 329.673V324.483C322.267 323.397 321.386 322.517 320.3 322.517Z" fill="#48A9A6"/>
<path opacity="0.3" d="M320.3 336.707H222.841C221.755 336.707 220.874 337.587 220.874 338.673V343.863C220.874 344.949 221.755 345.829 222.841 345.829H320.3C321.386 345.829 322.267 344.949 322.267 343.863V338.673C322.267 337.587 321.386 336.707 320.3 336.707Z" fill="#48A9A6"/>
<path opacity="0.3" d="M257.436 350.897H222.841C221.755 350.897 220.874 351.778 220.874 352.864V358.053C220.874 359.139 221.755 360.019 222.841 360.019H257.436C258.523 360.019 259.403 359.139 259.403 358.053V352.864C259.403 351.778 258.523 350.897 257.436 350.897Z" fill="#48A9A6"/>
</g>
<path opacity="0.3" d="M337.623 162.88H205.518C203.92 162.88 202.624 164.175 202.624 165.774V264.384C202.624 265.982 203.92 267.278 205.518 267.278H337.623C339.222 267.278 340.518 265.982 340.518 264.384V165.774C340.518 164.175 339.222 162.88 337.623 162.88Z" fill="#48A9A6"/>
<path d="M414.899 275.047C415.051 277.074 415.619 279.476 417.535 280.175C418.459 280.436 419.439 280.42 420.354 280.13C422.759 279.608 424.944 278.357 426.61 276.547C428.202 274.692 429.003 272.072 428.328 269.725C427.69 267.485 425.88 265.813 424.607 263.862C423.122 261.587 422.645 259.012 421.611 256.569C413.429 257.355 414.443 268.955 414.899 275.047Z" fill="#FBBEBE"/>
<path d="M406.281 177.349C405.191 180.896 409.054 184.758 410.301 188.245C411.548 191.731 413.226 195.086 413.9 198.735C414.362 201.244 414.336 203.803 414.519 206.362C414.853 211.151 415.918 215.849 417.054 220.506C418.659 227.237 420.378 233.938 422.209 240.611C423.119 243.642 423.835 246.727 424.354 249.849C424.83 253.227 424.816 256.656 424.313 260.031C421.095 259.067 417.629 259.384 414.64 260.917C412.552 257.25 411.297 253.169 410.965 248.962C410.839 246.468 410.863 243.969 411.036 241.477C411.36 234.428 408.303 227.368 408.202 220.314C408.234 217.869 408.04 215.426 407.624 213.016C407.289 211.359 407.32 208.257 406.96 206.605C406.387 203.98 408.851 202.769 408.714 200.078L407.964 185.381C407.806 182.807 405.221 179.649 406.281 177.349Z" fill="#3F3D56"/>
<path opacity="0.1" d="M406.281 177.349C405.191 180.896 409.054 184.758 410.301 188.245C411.548 191.731 413.226 195.086 413.9 198.735C414.362 201.244 414.336 203.803 414.519 206.362C414.853 211.151 415.918 215.849 417.054 220.506C418.659 227.237 420.378 233.938 422.209 240.611C423.119 243.642 423.835 246.727 424.354 249.849C424.83 253.227 424.816 256.656 424.313 260.031C421.095 259.067 417.629 259.384 414.64 260.917C412.552 257.25 411.297 253.169 410.965 248.962C410.839 246.468 410.863 243.969 411.036 241.477C411.36 234.428 408.303 227.368 408.202 220.314C408.234 217.869 408.04 215.426 407.624 213.016C407.289 211.359 407.32 208.257 406.96 206.605C406.387 203.98 408.851 202.769 408.714 200.078L407.964 185.381C407.806 182.807 405.221 179.649 406.281 177.349Z" fill="black"/>
<path d="M369.262 165.961C369.46 166.822 369.857 167.624 370.423 168.303C375.559 175.464 381.409 182.087 387.883 188.067C388.543 187.387 389.095 186.609 389.52 185.761C392.455 180.391 393.925 174.344 393.784 168.227C390.849 167.284 387.528 165.966 386.585 163.037C385.845 160.726 386.843 157.969 385.53 155.912C383.675 153.013 375.776 152.638 373.237 154.746C371.579 156.124 372.172 157.412 371.645 159.277C371.062 161.309 368.938 163.787 369.262 165.961Z" fill="#FBBEBE"/>
<path opacity="0.1" d="M369.262 165.961C369.46 166.822 369.857 167.624 370.423 168.303C375.559 175.464 381.409 182.087 387.883 188.067C388.543 187.387 389.095 186.609 389.52 185.761C392.455 180.391 393.925 174.344 393.784 168.227C390.849 167.284 387.528 165.966 386.585 163.037C385.845 160.726 386.843 157.969 385.53 155.912C383.675 153.013 375.776 152.638 373.237 154.746C371.579 156.124 372.172 157.412 371.645 159.277C371.062 161.309 368.938 163.787 369.262 165.961Z" fill="black"/>
<path d="M371.899 400.222C372.726 400.815 373.675 401.213 374.677 401.388C384.32 403.766 394.281 404.585 404.182 403.816C405.5 403.714 407.265 403.005 406.94 401.723C406.616 400.44 404.912 400.597 403.746 400.238C402.646 399.903 401.82 399.016 401.004 398.211C397.962 395.195 394.276 392.869 390.651 390.568C389.768 389.935 388.782 389.458 387.736 389.159C386.479 388.876 385.171 389.114 383.909 389.357C380.715 389.96 374.621 389.864 372.097 392.225C370.074 394.1 369.775 398.368 371.899 400.222Z" fill="#3F3D56"/>
<path d="M408.942 397.694C408.942 398.479 409.029 399.361 409.632 399.868C410.111 400.198 410.689 400.354 411.269 400.309C413.333 400.295 415.354 399.722 417.118 398.651C418.882 397.58 420.323 396.051 421.287 394.227L435.482 392.57C438.169 392.256 440.907 391.931 443.37 390.816C446.285 389.504 448.612 387.183 450.873 384.917C451.269 384.582 451.569 384.148 451.745 383.661C451.984 382.764 451.299 381.826 450.443 381.471C449.558 381.179 448.611 381.128 447.7 381.324C440.77 382.277 433.814 385.379 427.036 383.651C425.373 383.23 423.731 382.515 422.022 382.637C421.1 382.756 420.198 382.998 419.34 383.357C417.135 384.167 410.544 385.313 409.084 387.183C407.624 389.053 408.942 395.464 408.942 397.694Z" fill="#3F3D56"/>
<path d="M373.059 239.247C371.031 242.41 366.763 243.094 363.777 245.359C359.214 248.841 358.408 255.328 358.15 261.07C357.967 265.048 357.861 269.077 358.743 272.959C359.356 275.665 360.441 278.234 361.278 280.89C363.052 286.647 363.544 292.718 363.812 298.744C364.512 313.947 363.893 329.242 365.84 344.354C366.398 348.672 367.168 352.97 367.589 357.303C368.988 371.655 366.621 386.453 370.464 400.349C372.518 398.121 375.005 396.333 377.772 395.094C380.539 393.855 383.528 393.191 386.56 393.143C387.832 393.143 389.155 393.219 390.321 392.707C391.487 392.195 392.405 390.837 391.923 389.666C391.63 389.158 391.29 388.678 390.91 388.232C389.237 385.698 392.086 382.11 390.864 379.318C390.398 378.248 389.373 377.453 389.079 376.317C388.76 375.091 389.379 373.834 389.551 372.577C389.891 370.043 388.436 367.687 387.68 365.254C386.54 361.58 386.996 357.653 387.391 353.806C388.7 341.238 389.276 328.604 389.115 315.97C389.003 307.42 388.578 298.688 391.041 290.499C395.652 294.842 399.601 299.838 402.762 305.327C404.729 308.682 406.428 312.26 407.082 316.091C407.589 318.899 407.467 321.772 407.371 324.625L405.911 368.361C405.612 377.174 405.358 386.25 408.42 394.526C416.187 390.386 424.136 386.418 431.908 382.257C431.776 379.389 427.928 378.345 426.503 375.851C425.995 374.81 425.72 373.67 425.697 372.511C424.709 360.663 427.132 348.824 429.368 337.148C430.22 332.698 431.046 328.218 431.046 323.688C431.046 316.502 428.937 309.498 426.767 302.656C424.466 295.399 422.057 288.177 419.67 280.956C418.123 276.319 416.577 271.677 414.646 267.186C412.815 262.945 410.646 258.84 409.069 254.491C406.57 247.508 405.718 240.063 404.876 232.7C394.311 234.803 383.594 237.149 373.059 239.247Z" fill="#3A3768"/>
<path d="M378.373 161.055C386.554 161.055 393.186 154.426 393.186 146.247C393.186 138.069 386.554 131.439 378.373 131.439C370.191 131.439 363.559 138.069 363.559 146.247C363.559 154.426 370.191 161.055 378.373 161.055Z" fill="#FBBEBE"/>
<path d="M383.908 182.047L382.834 174.019C382.777 173.124 382.535 172.251 382.124 171.455C381.628 170.748 380.997 170.145 380.268 169.681L369.946 162.145C369.44 161.76 368.74 161.355 368.157 161.638C367.79 161.882 367.532 162.258 367.437 162.687C365.81 167.507 366.813 172.752 367.386 177.805C367.863 182.016 368.025 186.258 368.187 190.474C368.421 194.302 368.421 198.141 368.187 201.968C367.625 208.597 365.653 215.271 366.976 221.789C367.843 226.101 369.384 230.11 369.744 234.499C369.987 237.539 369.911 240.631 370.874 243.514C374.423 241.994 378.438 242.156 382.301 242.364L391.66 242.871C392.96 242.99 394.27 242.96 395.563 242.78C397.006 242.479 398.387 241.938 399.65 241.178C402.977 239.303 405.885 236.768 408.197 233.728C406.615 226.091 408.146 218.206 407.097 210.477C406.488 206.023 404.983 201.735 404.273 197.301C403.396 191.827 403.766 186.152 402.169 180.835C401.284 178.144 400.159 175.537 398.808 173.046C397.433 170.213 395.168 167.908 392.359 166.483C391.842 166.2 391.261 166.051 390.671 166.052C389.176 166.133 388.253 167.715 387.842 169.154C387.335 170.882 387.188 172.701 386.798 174.43C386.2 176.974 385.378 179.913 383.908 182.047Z" fill="#48A9A6"/>
<path d="M353.546 277.58C355.523 279.663 359.123 279.151 361.414 277.433C366.408 273.704 366.869 266.553 367.143 260.329C367.239 258.095 367.391 255.768 368.441 253.812C370.048 250.772 373.363 249.201 376.121 247.183C382.661 242.394 386.504 234.514 387.65 226.512C388.795 218.51 387.482 210.295 385.272 202.505C381.449 189.04 375.011 176.487 368.476 164.111C368.281 163.65 367.966 163.249 367.564 162.951C366.235 162.125 364.796 163.752 363.888 165.024C360.811 169.336 355.741 171.642 351.097 174.191C346.454 176.74 341.703 180.136 340.299 185.239C339.356 188.665 340.091 192.299 340.806 195.77C341.521 199.242 344.02 201.999 345.911 204.923C348.103 208.15 350.081 211.517 351.833 215.003C352.495 216.303 353.005 217.675 353.353 219.092C353.663 220.763 353.797 222.462 353.754 224.16C353.866 234.661 353.972 245.197 352.7 255.627C351.985 261.52 350.829 267.44 351.356 273.364C351.498 274.971 352.426 276.39 353.546 277.58Z" fill="#3F3D56"/>
<path d="M366.068 258.004C368.182 258.951 370.312 259.924 372.598 260.299C374.884 260.674 377.374 260.37 379.188 258.961C381.003 257.552 381.951 254.867 380.917 252.799C382.543 252.85 384.17 252.773 385.784 252.571C386.707 252.449 387.812 252.094 387.974 251.177C388.141 250.098 386.839 249.454 385.789 249.15L380.137 247.589C378.48 247.058 376.763 246.741 375.026 246.646C373.95 246.669 372.877 246.776 371.817 246.966L363.239 248.299C363.011 248.318 362.789 248.387 362.59 248.501C362.331 248.721 362.153 249.02 362.083 249.353C361.668 250.67 359.746 254.339 360.405 255.642C360.948 256.742 364.887 257.421 366.068 258.004Z" fill="#FBBEBE"/>
<path d="M420.09 263.558C419.574 264.71 418.815 265.738 417.865 266.569C416.915 267.401 415.796 268.018 414.585 268.377C414.059 268.564 413.492 268.6 412.947 268.484C411.933 268.205 411.376 267.146 410.955 266.183C400.912 243.332 401.475 217.329 395.092 193.206C393.196 186.045 390.661 178.849 391.117 171.455C391.199 170.132 391.477 168.647 392.583 167.907C393.566 167.248 394.904 167.426 395.984 167.907C397.064 168.389 397.987 169.174 399.026 169.711C400.704 170.568 402.656 170.811 404.268 171.779C406.661 173.218 407.883 175.955 408.952 178.529C411.239 184.028 413.515 189.679 413.698 195.638C414.083 207.213 408.947 218.337 411.624 229.593C412.202 231.813 412.892 234.002 413.693 236.151C416.376 243.915 418.577 251.838 420.283 259.873C420.582 261.247 420.648 262.296 420.09 263.558Z" fill="#3F3D56"/>
<path d="M368.765 147.55C369.647 146.111 370.879 144.849 371.361 143.232C371.701 142.087 371.63 140.835 372.035 139.71C373.049 136.933 376.573 135.909 379.483 136.39C382.393 136.872 385.024 138.418 387.868 139.193C389.444 139.624 391.64 139.492 392.086 137.921C392.38 136.877 391.67 135.838 391.001 134.982L382.605 124.233C381.495 124.516 380.263 124.785 379.26 124.233C378.677 123.918 378.246 123.351 377.597 123.173C375.848 122.667 374.383 125.358 372.628 124.886C372.121 124.755 371.721 124.38 371.214 124.339C369.8 124.223 369.267 126.564 367.853 126.68C367.265 126.731 366.702 126.356 366.114 126.412C365.593 126.518 365.127 126.808 364.801 127.228C361.992 130.213 360.847 134.495 360.999 138.595C361.151 142.695 360.446 146.658 362.013 150.444C362.707 152.091 364.101 154.037 365.805 153.484C365.805 151.254 367.883 149.03 367.909 146.805" fill="#3A3768"/>
<g opacity="0.1">
<path opacity="0.1" d="M397.389 297.457C394.372 292.468 390.692 287.913 386.448 283.915C383.985 292.105 384.421 300.837 384.522 309.386C384.683 322.021 384.107 334.655 382.798 347.223C382.403 351.049 381.947 354.997 383.087 358.671C383.843 361.104 385.298 363.47 384.958 365.994C384.786 367.251 384.167 368.528 384.487 369.734C384.781 370.869 385.805 371.665 386.271 372.734C387.493 375.527 384.644 379.1 386.317 381.649C386.698 382.095 387.037 382.575 387.331 383.083C387.838 384.259 386.895 385.617 385.729 386.124C384.563 386.63 383.239 386.549 381.967 386.559C377.169 386.641 372.524 388.259 368.715 391.176C369.051 394.274 369.629 397.341 370.444 400.349C372.501 398.118 374.99 396.329 377.761 395.09C380.531 393.851 383.525 393.188 386.56 393.143C387.832 393.143 389.156 393.219 390.322 392.707C391.488 392.195 392.405 390.837 391.924 389.666C391.63 389.158 391.291 388.678 390.91 388.232C389.237 385.698 392.086 382.11 390.864 379.318C390.398 378.248 389.374 377.453 389.08 376.317C388.76 375.091 389.379 373.834 389.551 372.577C389.891 370.043 388.436 367.687 387.68 365.254C386.54 361.58 386.996 357.652 387.391 353.806C388.701 341.238 389.276 328.604 389.115 315.969C389.004 307.42 388.578 298.688 391.042 290.498C393.329 292.655 395.451 294.981 397.389 297.457Z" fill="black"/>
</g>
<g opacity="0.1">
<path opacity="0.1" d="M361.009 139.071C361.009 138.375 361.009 137.676 361.009 136.973C360.983 137.515 360.978 138.057 361.009 138.6C361.004 138.757 361.009 138.914 361.009 139.071Z" fill="black"/>
<path opacity="0.1" d="M387.868 137.166C385.024 136.385 382.398 134.839 379.483 134.363C376.568 133.887 373.039 134.905 372.035 137.682C371.63 138.808 371.701 140.059 371.361 141.205C370.879 142.821 369.647 144.083 368.765 145.522L367.929 144.783C367.929 147.007 365.85 149.232 365.825 151.462C364.122 152.014 362.727 150.068 362.033 148.421C361.323 146.603 360.966 144.666 360.983 142.715C360.938 145.365 360.983 147.95 362.033 150.448C362.727 152.101 364.122 154.047 365.825 153.489C365.825 151.259 367.904 149.034 367.929 146.81L368.765 147.55C369.647 146.11 370.879 144.848 371.361 143.232C371.701 142.086 371.63 140.835 372.035 139.71C373.049 136.932 376.573 135.909 379.483 136.39C382.393 136.872 385.024 138.417 387.868 139.193C389.444 139.623 391.64 139.492 392.086 137.921C392.214 137.387 392.142 136.824 391.883 136.34C391.178 137.485 389.282 137.551 387.868 137.166Z" fill="black"/>
</g>
<path d="M339.955 200.336C339.525 203.435 338.902 206.504 338.089 209.524L334.54 223.983C334.16 225.503 333.775 227.105 333.947 228.681C334.18 230.804 335.387 232.684 336.609 234.438C343.548 244.399 352.023 253.198 361.719 260.507C361.156 257.623 363.158 254.932 365.044 252.662C366.93 250.391 368.755 248.217 371.214 246.748C365.07 240.953 359.118 234.965 353.359 228.782C352.754 228.188 352.232 227.515 351.807 226.78C350.418 224.1 351.807 220.897 353.019 218.125C356.837 209.312 358.636 199.313 356.188 190.023C355.265 186.537 353.653 183.045 350.717 180.901C349.435 179.969 347.701 179.33 346.276 180.04C345.68 180.383 345.162 180.847 344.756 181.403C340.208 186.932 340.751 193.596 339.955 200.336Z" fill="#3F3D56"/>
</svg>
