<svg width="544" height="412" viewBox="0 0 544 412" fill="none" xmlns="http://www.w3.org/2000/svg">
<path opacity="0.1" d="M502.681 238.147C484.258 263.369 490.338 299.372 500.987 328.055C504.554 337.657 508.605 347.813 506.756 358.26C504.497 371.031 493.881 380.599 482.847 385.811C462.73 395.309 438.967 393.793 420.972 381.825C405.444 371.495 394.512 354.33 378.683 344.493C352.19 328.036 317.796 335.389 288.311 347.954C267.451 356.842 244.6 368.289 224.272 360.081C209.966 354.306 200.334 339.605 195.266 323.891C192.819 316.303 191.106 308.068 186.231 302.128C183.332 298.598 179.502 296.137 175.563 294.081C139.617 275.3 93.3793 287.038 58.5293 266.083C35.0011 251.932 20.3571 224.47 14.2727 195.599C8.18832 166.728 9.69412 136.251 12.1175 106.296C13.8398 85.0077 16.5644 62.2594 29.392 45.5304C42.9583 27.8435 65.696 20.8148 86.0291 23.5849C106.362 26.3551 124.592 37.6236 140.539 51.0754C160.486 67.8561 178.839 88.9235 203.647 95.2949C220.545 99.6333 238.497 96.5626 256.063 95.2057C285.426 92.9426 314.686 95.5484 343.767 98.4923C371.605 101.309 399.637 104.455 426.003 113.691C444.66 120.226 459.45 132.58 477.016 141.022C488.465 146.524 501.062 147.801 511.838 154.91C525.136 163.667 537.155 179.18 533.254 197.796C529.569 215.492 512.469 224.761 502.681 238.147Z" fill="#48A9A6"/>
<g opacity="0.5">
<path opacity="0.5" d="M417.664 343.231C417.664 343.231 419.276 295.517 445.112 268.556C455.957 257.243 463.079 242.874 464.965 227.324C465.847 219.944 466.049 212.499 465.571 205.082" stroke="#535461" stroke-width="2" stroke-miterlimit="10"/>
<path opacity="0.5" d="M481.755 188.005C479.987 193.335 465.205 205.575 465.205 205.575C465.205 205.575 460.676 186.926 462.445 181.601C462.865 180.334 463.532 179.163 464.405 178.153C465.279 177.144 466.343 176.316 467.537 175.717C468.731 175.118 470.031 174.761 471.364 174.664C472.696 174.567 474.034 174.734 475.302 175.154C476.57 175.574 477.743 176.24 478.753 177.113C479.764 177.985 480.592 179.049 481.192 180.242C481.791 181.434 482.149 182.734 482.246 184.065C482.343 185.396 482.176 186.733 481.755 188V188.005Z" fill="#48A9A6"/>
<path opacity="0.5" d="M487.915 222.804C483.519 226.318 464.467 228.573 464.467 228.573C464.467 228.573 470.818 210.461 475.214 206.952C476.248 206.052 477.454 205.371 478.758 204.949C480.062 204.527 481.438 204.373 482.804 204.496C484.169 204.619 485.495 205.016 486.703 205.664C487.911 206.312 488.975 207.197 489.832 208.266C490.688 209.335 491.32 210.567 491.688 211.886C492.057 213.205 492.154 214.585 491.975 215.943C491.796 217.301 491.344 218.609 490.647 219.788C489.949 220.967 489.02 221.993 487.915 222.804Z" fill="#48A9A6"/>
<path opacity="0.5" d="M470.486 272.997C464.926 273.817 447.326 266.164 447.326 266.164C447.326 266.164 461.951 253.728 467.511 252.908C468.832 252.713 470.179 252.78 471.475 253.105C472.77 253.43 473.989 254.007 475.062 254.802C476.135 255.598 477.04 256.597 477.726 257.742C478.412 258.887 478.866 260.156 479.061 261.477C479.257 262.797 479.19 264.143 478.864 265.437C478.539 266.732 477.962 267.95 477.166 269.021C476.369 270.093 475.369 270.997 474.223 271.683C473.077 272.368 471.807 272.822 470.486 273.017V272.997Z" fill="#48A9A6"/>
<path opacity="0.5" d="M448.732 308.012C443.393 309.759 424.747 305.171 424.747 305.171C424.747 305.171 437.062 290.446 442.401 288.699C444.965 287.857 447.758 288.068 450.166 289.284C452.574 290.5 454.4 292.622 455.242 295.183C456.084 297.744 455.873 300.534 454.656 302.94C453.439 305.346 451.315 307.17 448.752 308.012H448.732Z" fill="#48A9A6"/>
<path opacity="0.5" d="M443.847 222.887C446.441 227.866 463.002 237.612 463.002 237.612C463.002 237.612 464.506 218.485 461.912 213.502C461.296 212.318 460.452 211.267 459.429 210.409C458.406 209.551 457.224 208.903 455.95 208.501C454.676 208.1 453.336 207.953 452.005 208.069C450.675 208.185 449.38 208.561 448.195 209.177C447.01 209.793 445.958 210.636 445.1 211.658C444.241 212.681 443.592 213.862 443.19 215.134C442.788 216.407 442.641 217.746 442.757 219.076C442.873 220.405 443.25 221.699 443.867 222.882L443.847 222.887Z" fill="#48A9A6"/>
<path opacity="0.5" d="M418.929 264.154C422.896 268.131 441.596 272.485 441.596 272.485C441.596 272.485 437.302 253.782 433.34 249.804C431.436 247.895 428.851 246.82 426.153 246.814C423.456 246.809 420.867 247.875 418.956 249.777C417.045 251.68 415.968 254.262 415.963 256.957C415.958 259.653 417.025 262.239 418.929 264.149V264.154Z" fill="#48A9A6"/>
<path opacity="0.5" d="M400.22 307.587C403.454 312.175 421.152 319.628 421.152 319.628C421.152 319.628 420.087 300.471 416.848 295.878C416.099 294.74 415.128 293.763 413.994 293.007C412.859 292.251 411.584 291.731 410.244 291.477C408.903 291.223 407.526 291.241 406.193 291.53C404.86 291.819 403.599 292.373 402.485 293.159C401.371 293.945 400.426 294.947 399.707 296.105C398.988 297.263 398.51 298.553 398.3 299.9C398.091 301.246 398.155 302.621 398.488 303.943C398.821 305.264 399.417 306.505 400.239 307.592L400.22 307.587Z" fill="#48A9A6"/>
<path opacity="0.5" d="M423.34 323.483C423.34 323.483 408.685 302.184 411.254 282.144C412.387 273.745 410.762 265.206 406.623 257.809C404.631 254.312 402.322 251.006 399.726 247.93" stroke="#535461" stroke-width="2" stroke-miterlimit="10"/>
<path opacity="0.5" d="M401.274 235.289C402.217 238.178 399.726 248.262 399.726 248.262C399.726 248.262 391.749 241.595 390.806 238.71C390.352 237.323 390.469 235.813 391.13 234.512C391.791 233.211 392.942 232.225 394.33 231.772C395.719 231.319 397.23 231.436 398.532 232.096C399.835 232.757 400.821 233.907 401.274 235.294V235.289Z" fill="#48A9A6"/>
<path opacity="0.5" d="M415.163 248.462C414.386 251.391 406.804 258.512 406.804 258.512C406.804 258.512 403.737 248.584 404.513 245.646C404.887 244.235 405.806 243.03 407.069 242.297C408.332 241.563 409.835 241.361 411.247 241.734C412.659 242.108 413.865 243.026 414.6 244.288C415.334 245.55 415.536 247.051 415.163 248.462Z" fill="#48A9A6"/>
<path opacity="0.5" d="M423.731 275.921C421.577 278.064 411.44 280.382 411.44 280.382C411.44 280.382 413.805 270.264 415.964 268.122C416.477 267.612 417.086 267.208 417.755 266.934C418.424 266.659 419.141 266.519 419.865 266.522C420.588 266.524 421.304 266.668 421.972 266.947C422.64 267.226 423.246 267.633 423.756 268.146C424.266 268.659 424.67 269.267 424.944 269.936C425.219 270.604 425.359 271.321 425.357 272.043C425.355 272.766 425.21 273.482 424.931 274.149C424.652 274.816 424.244 275.421 423.731 275.931V275.921Z" fill="#48A9A6"/>
<path opacity="0.5" d="M425.534 298.162C423.77 300.637 414.152 304.624 414.152 304.624C414.152 304.624 414.772 294.253 416.536 291.778C416.955 291.189 417.486 290.689 418.098 290.305C418.711 289.921 419.393 289.661 420.106 289.54C420.819 289.42 421.549 289.441 422.254 289.602C422.959 289.763 423.625 290.062 424.215 290.48C424.805 290.899 425.306 291.429 425.69 292.041C426.075 292.653 426.334 293.335 426.455 294.047C426.576 294.76 426.555 295.489 426.393 296.194C426.232 296.898 425.933 297.564 425.514 298.153L425.534 298.162Z" fill="#48A9A6"/>
<path opacity="0.5" d="M395.999 262.65C398.729 263.988 409.071 262.914 409.071 262.914C409.071 262.914 403.566 254.099 400.835 252.767C399.523 252.126 398.01 252.032 396.629 252.506C395.248 252.98 394.112 253.982 393.471 255.293C392.829 256.603 392.735 258.115 393.209 259.495C393.684 260.874 394.687 262.01 395.999 262.65Z" fill="#48A9A6"/>
<path opacity="0.5" d="M398.436 288.64C401.445 289.099 410.991 284.985 410.991 284.985C410.991 284.985 403.097 278.22 400.092 277.781C398.648 277.561 397.176 277.924 396 278.789C394.824 279.654 394.04 280.95 393.82 282.393C393.6 283.836 393.963 285.306 394.829 286.481C395.695 287.657 396.992 288.44 398.436 288.66V288.64Z" fill="#48A9A6"/>
<path opacity="0.5" d="M404.269 313.566C407.156 314.542 417.263 312.102 417.263 312.102C417.263 312.102 410.629 304.102 407.742 303.141C406.356 302.681 404.843 302.789 403.537 303.443C402.231 304.097 401.239 305.243 400.779 306.628C400.318 308.013 400.427 309.524 401.081 310.829C401.736 312.134 402.883 313.125 404.269 313.585V313.566Z" fill="#48A9A6"/>
<path opacity="0.5" d="M401.274 235.289C402.217 238.178 399.726 248.262 399.726 248.262C399.726 248.262 391.749 241.595 390.806 238.71C390.352 237.323 390.469 235.813 391.13 234.512C391.791 233.211 392.942 232.225 394.33 231.772C395.719 231.319 397.23 231.436 398.532 232.096C399.835 232.757 400.821 233.907 401.274 235.294V235.289Z" fill="white"/>
<path opacity="0.5" d="M415.163 248.462C414.386 251.391 406.804 258.512 406.804 258.512C406.804 258.512 403.737 248.584 404.513 245.646C404.887 244.235 405.806 243.03 407.069 242.297C408.332 241.563 409.835 241.361 411.247 241.734C412.659 242.108 413.865 243.026 414.6 244.288C415.334 245.55 415.536 247.051 415.163 248.462Z" fill="white"/>
<path opacity="0.5" d="M423.731 275.921C421.577 278.064 411.44 280.382 411.44 280.382C411.44 280.382 413.805 270.264 415.964 268.122C416.477 267.612 417.086 267.208 417.755 266.934C418.424 266.659 419.141 266.519 419.865 266.522C420.588 266.524 421.304 266.668 421.972 266.947C422.64 267.226 423.246 267.633 423.756 268.146C424.266 268.659 424.67 269.267 424.944 269.936C425.219 270.604 425.359 271.321 425.357 272.043C425.355 272.766 425.21 273.482 424.931 274.149C424.652 274.816 424.244 275.421 423.731 275.931V275.921Z" fill="white"/>
<path opacity="0.5" d="M425.534 298.162C423.77 300.637 414.152 304.624 414.152 304.624C414.152 304.624 414.772 294.253 416.536 291.778C416.955 291.189 417.486 290.689 418.098 290.305C418.711 289.921 419.393 289.661 420.106 289.54C420.819 289.42 421.549 289.441 422.254 289.602C422.959 289.763 423.625 290.062 424.215 290.48C424.805 290.899 425.306 291.429 425.69 292.041C426.075 292.653 426.334 293.335 426.455 294.047C426.576 294.76 426.555 295.489 426.393 296.194C426.232 296.898 425.933 297.564 425.514 298.153L425.534 298.162Z" fill="white"/>
<path opacity="0.5" d="M395.999 262.65C398.729 263.988 409.071 262.914 409.071 262.914C409.071 262.914 403.566 254.099 400.835 252.767C399.523 252.126 398.01 252.032 396.629 252.506C395.248 252.98 394.112 253.982 393.471 255.293C392.829 256.603 392.735 258.115 393.209 259.495C393.684 260.874 394.687 262.01 395.999 262.65Z" fill="white"/>
<path opacity="0.5" d="M398.436 288.64C401.445 289.099 410.991 284.985 410.991 284.985C410.991 284.985 403.097 278.22 400.092 277.781C398.648 277.561 397.176 277.924 396 278.789C394.824 279.654 394.04 280.95 393.82 282.393C393.6 283.836 393.963 285.306 394.829 286.481C395.695 287.657 396.992 288.44 398.436 288.66V288.64Z" fill="white"/>
<path opacity="0.5" d="M404.269 313.566C407.156 314.542 417.263 312.102 417.263 312.102C417.263 312.102 410.629 304.102 407.742 303.141C406.356 302.681 404.843 302.789 403.537 303.443C402.231 304.097 401.239 305.243 400.779 306.628C400.318 308.013 400.427 309.524 401.081 310.829C401.736 312.134 402.883 313.125 404.269 313.585V313.566Z" fill="white"/>
<path opacity="0.5" d="M396.223 381.237H437.907L448.332 317.724H385.804L396.223 381.237Z" fill="#474059"/>
<path opacity="0.1" d="M393.781 317.724L403.517 377.074H438.591L437.907 381.237H396.223L385.804 317.724H393.781Z" fill="black"/>
</g>
<path d="M404.127 19.1763H98.3252V387.816H404.127V19.1763Z" fill="url(#paint0_linear)"/>
<path d="M400.22 23.891H102.234V383.111H400.22V23.891Z" fill="white"/>
<path d="M338.18 64.4009H218.009V70.2577H338.18V64.4009Z" fill="#C0BCCF"/>
<path d="M338.18 82.9476H218.009V88.8045H338.18V82.9476Z" fill="#C0BCCF"/>
<path d="M309.358 101.494H246.83V107.351H309.358V101.494Z" fill="#48A9A6"/>
<path opacity="0.5" d="M338.18 182.026H218.009V187.883H338.18V182.026Z" fill="#C0BCCF"/>
<path opacity="0.5" d="M338.18 200.573H218.009V206.429H338.18V200.573Z" fill="#C0BCCF"/>
<path opacity="0.5" d="M309.358 219.119H246.83V224.976H309.358V219.119Z" fill="#48A9A6"/>
<path opacity="0.5" d="M338.18 299.651H218.009V305.508H338.18V299.651Z" fill="#C0BCCF"/>
<path opacity="0.5" d="M338.18 318.198H218.009V324.055H338.18V318.198Z" fill="#C0BCCF"/>
<path opacity="0.5" d="M309.358 336.744H246.83V342.601H309.358V336.744Z" fill="#48A9A6"/>
<g opacity="0.5">
<path opacity="0.5" d="M175.699 214.693L173.179 213.56C173.217 213.178 173.234 212.793 173.228 212.408C173.245 212.083 173.245 211.757 173.228 211.432C172.978 208.865 171.342 206.63 170.184 204.282C169.124 202.139 168.451 199.826 168.196 197.449C167.888 194.521 168.196 191.485 167.121 188.732C166.247 186.511 164.518 184.657 162.666 183.017C160.588 181.068 158.16 179.53 155.51 178.483C152.803 177.506 149.692 177.258 146.985 178.253C144.543 179.151 142.662 180.942 140.845 182.685C139.525 183.846 138.36 185.172 137.377 186.628C136.268 188.444 135.794 190.533 135.423 192.593C134.839 195.89 134.438 199.217 134.221 202.559C134.03 205.346 133.732 208.509 131.348 210.217C130.186 211.052 128.549 211.52 128.017 212.784C127.866 213.164 127.806 213.573 127.841 213.98C127.826 214.318 127.851 214.657 127.914 214.99C127.948 215.185 127.988 215.376 128.036 215.571C127.352 217.27 126.778 219.011 126.317 220.784C125.96 222.101 125.633 223.395 125.34 224.649H126.131H126.551L131.104 224.757H131.168L136.053 224.869H136.077L140.63 224.976H140.742L142.056 225.069H142.486L160.693 225.489H160.79L162.002 225.518H162.427L166.071 225.601L171.445 225.723H171.484L175.528 225.821H175.958H176.789L176.574 221.584C177.463 215.098 175.699 214.693 175.699 214.693ZM155.246 214.175C155.246 217.767 151.397 222.165 151.397 222.165L147.523 216.894L147.664 216.689L151.397 221.765C151.397 221.765 155.246 217.372 155.246 213.775C155.336 213.592 155.438 213.416 155.554 213.248L155.642 213.521C155.494 213.729 155.361 213.948 155.246 214.175ZM161.167 228.271C161.167 228.09 161.167 227.905 161.132 227.724C161.098 227.543 161.103 227.382 161.079 227.207C161.054 227.031 161.035 226.86 161.01 226.684C160.986 226.509 160.952 226.338 160.917 226.162C160.883 225.986 160.849 225.816 160.81 225.64C160.81 225.581 160.785 225.528 160.771 225.464C160.717 225.235 160.658 225.005 160.595 224.776C160.531 224.547 160.492 224.405 160.434 224.225C160.434 224.142 160.385 224.059 160.356 223.98C160.326 223.902 160.273 223.717 160.229 223.585L160.141 223.331C160.102 223.219 160.063 223.102 160.019 222.99C159.945 222.785 159.867 222.585 159.789 222.38C159.711 222.175 159.628 221.975 159.545 221.774C159.379 221.364 159.198 220.959 159.017 220.549C158.309 218.968 157.513 217.411 156.78 215.869C156.387 215.062 156.038 214.234 155.734 213.389L155.642 213.511C155.494 213.721 155.361 213.941 155.246 214.17C155.246 217.762 151.397 222.16 151.397 222.16L147.523 216.889L144.132 221.77C143.644 222.014 143.155 222.843 142.774 224.024C142.667 224.342 142.564 224.693 142.467 225.059C142.398 225.308 142.335 225.547 142.276 225.825C142.242 225.957 142.213 226.089 142.183 226.226L142.095 226.64V226.704C142.037 226.987 141.978 227.28 141.924 227.578C141.871 227.875 141.807 228.217 141.753 228.554C141.714 228.765 141.68 228.975 141.651 229.183C141.583 229.588 141.524 229.998 141.465 230.408C141.431 230.648 141.397 230.896 141.368 231.116L141.25 232.024C141.499 232.771 141.778 233.488 142.066 234.24C142.249 234.634 142.357 235.06 142.384 235.494C148.393 237.095 154.717 237.095 160.727 235.494C160.725 235.479 160.725 235.465 160.727 235.45C160.637 235.042 160.597 234.624 160.61 234.206C160.708 233.033 160.871 231.866 161.098 230.711C161.17 230.141 161.201 229.567 161.191 228.993V228.788C161.176 228.603 161.171 228.437 161.167 228.276V228.271ZM161.167 228.271C161.167 228.09 161.167 227.905 161.132 227.724C161.098 227.543 161.103 227.382 161.079 227.207C161.054 227.031 161.035 226.86 161.01 226.684C160.986 226.509 160.952 226.338 160.917 226.162C160.883 225.986 160.849 225.816 160.81 225.64C160.81 225.581 160.785 225.528 160.771 225.464C160.717 225.235 160.658 225.005 160.595 224.776C160.531 224.547 160.492 224.405 160.434 224.225C160.434 224.142 160.385 224.059 160.356 223.98C160.326 223.902 160.273 223.717 160.229 223.585L160.141 223.331C160.102 223.219 160.063 223.102 160.019 222.99C159.945 222.785 159.867 222.585 159.789 222.38C159.711 222.175 159.628 221.975 159.545 221.774C159.379 221.364 159.198 220.959 159.017 220.549C158.309 218.968 157.513 217.411 156.78 215.869C156.387 215.062 156.038 214.234 155.734 213.389L155.642 213.511C155.494 213.721 155.361 213.941 155.246 214.17C155.246 217.762 151.397 222.16 151.397 222.16L147.523 216.889L144.132 221.77C143.644 222.014 143.155 222.843 142.774 224.024C142.667 224.342 142.564 224.693 142.467 225.059C142.398 225.308 142.335 225.547 142.276 225.825C142.242 225.957 142.213 226.089 142.183 226.226L142.095 226.64V226.704C142.037 226.987 141.978 227.28 141.924 227.578C141.871 227.875 141.807 228.217 141.753 228.554C141.714 228.765 141.68 228.975 141.651 229.183C141.583 229.588 141.524 229.998 141.465 230.408C141.431 230.648 141.397 230.896 141.368 231.116L141.25 232.024C141.499 232.771 141.778 233.488 142.066 234.24C142.249 234.634 142.357 235.06 142.384 235.494C148.393 237.095 154.717 237.095 160.727 235.494C160.725 235.479 160.725 235.465 160.727 235.45C160.637 235.042 160.597 234.624 160.61 234.206C160.708 233.033 160.871 231.866 161.098 230.711C161.17 230.141 161.201 229.567 161.191 228.993V228.788C161.176 228.603 161.171 228.437 161.167 228.276V228.271ZM161.167 228.271C161.167 228.09 161.167 227.905 161.132 227.724C161.098 227.543 161.103 227.382 161.079 227.207C161.054 227.031 161.035 226.86 161.01 226.684C160.986 226.509 160.952 226.338 160.917 226.162C160.883 225.986 160.849 225.816 160.81 225.64C160.81 225.581 160.785 225.528 160.771 225.464C160.717 225.235 160.658 225.005 160.595 224.776C160.531 224.547 160.492 224.405 160.434 224.225C160.434 224.142 160.385 224.059 160.356 223.98C160.326 223.902 160.273 223.717 160.229 223.585L160.141 223.331C160.102 223.219 160.063 223.102 160.019 222.99C159.945 222.785 159.867 222.585 159.789 222.38C159.711 222.175 159.628 221.975 159.545 221.774C159.379 221.364 159.198 220.959 159.017 220.549C158.309 218.968 157.513 217.411 156.78 215.869C156.387 215.062 156.038 214.234 155.734 213.389L155.642 213.511C155.494 213.721 155.361 213.941 155.246 214.17C155.246 217.762 151.397 222.16 151.397 222.16L147.523 216.889L144.132 221.77C143.644 222.014 143.155 222.843 142.774 224.024C142.667 224.342 142.564 224.693 142.467 225.059C142.398 225.308 142.335 225.547 142.276 225.825C142.242 225.957 142.213 226.089 142.183 226.226L142.095 226.64V226.704C142.037 226.987 141.978 227.28 141.924 227.578C141.871 227.875 141.807 228.217 141.753 228.554C141.714 228.765 141.68 228.975 141.651 229.183C141.583 229.588 141.524 229.998 141.465 230.408C141.431 230.648 141.397 230.896 141.368 231.116L141.25 232.024C141.499 232.771 141.778 233.488 142.066 234.24C142.249 234.634 142.357 235.06 142.384 235.494C148.393 237.095 154.717 237.095 160.727 235.494C160.725 235.479 160.725 235.465 160.727 235.45C160.637 235.042 160.597 234.624 160.61 234.206C160.708 233.033 160.871 231.866 161.098 230.711C161.17 230.141 161.201 229.567 161.191 228.993V228.788C161.176 228.603 161.171 228.437 161.167 228.276V228.271ZM161.167 228.271C161.167 228.09 161.167 227.905 161.132 227.724C161.098 227.543 161.103 227.382 161.079 227.207C161.054 227.031 161.035 226.86 161.01 226.684C160.986 226.509 160.952 226.338 160.917 226.162C160.883 225.986 160.849 225.816 160.81 225.64C160.81 225.581 160.785 225.528 160.771 225.464C160.717 225.235 160.658 225.005 160.595 224.776C160.531 224.547 160.492 224.405 160.434 224.225C160.434 224.142 160.385 224.059 160.356 223.98C160.326 223.902 160.273 223.717 160.229 223.585L160.141 223.331C160.102 223.219 160.063 223.102 160.019 222.99C159.945 222.785 159.867 222.585 159.789 222.38C159.711 222.175 159.628 221.975 159.545 221.774C159.379 221.364 159.198 220.959 159.017 220.549C158.309 218.968 157.513 217.411 156.78 215.869C156.387 215.062 156.038 214.234 155.734 213.389L155.642 213.511C155.494 213.721 155.361 213.941 155.246 214.17C155.246 217.762 151.397 222.16 151.397 222.16L147.523 216.889L144.132 221.77C143.644 222.014 143.155 222.843 142.774 224.024C142.667 224.342 142.564 224.693 142.467 225.059C142.398 225.308 142.335 225.547 142.276 225.825C142.242 225.957 142.213 226.089 142.183 226.226L142.095 226.64V226.704C142.037 226.987 141.978 227.28 141.924 227.578C141.871 227.875 141.807 228.217 141.753 228.554C141.714 228.765 141.68 228.975 141.651 229.183C141.583 229.588 141.524 229.998 141.465 230.408C141.431 230.648 141.397 230.896 141.368 231.116L141.25 232.024C141.499 232.771 141.778 233.488 142.066 234.24C142.249 234.634 142.357 235.06 142.384 235.494C148.393 237.095 154.717 237.095 160.727 235.494C160.725 235.479 160.725 235.465 160.727 235.45C160.637 235.042 160.597 234.624 160.61 234.206C160.708 233.033 160.871 231.866 161.098 230.711C161.17 230.141 161.201 229.567 161.191 228.993V228.788C161.176 228.603 161.171 228.437 161.167 228.276V228.271Z" fill="url(#paint1_linear)"/>
<path opacity="0.5" d="M161.343 194.228H138.872V209.358H161.343V194.228Z" fill="#493545"/>
<path opacity="0.5" d="M165.075 210.915L155.671 224.151L145.842 223.297C145.842 223.297 133.019 224.146 141.568 214.331C145.676 209.612 147.02 205.678 147.308 202.871C147.621 199.836 146.697 198.108 146.697 198.108L157.381 196.829C156.899 198.267 156.838 199.813 157.205 201.285C158.543 206.83 165.075 210.915 165.075 210.915Z" fill="#C77485"/>
<path opacity="0.1" d="M157.2 201.271C155.806 202.325 154.175 203.021 152.45 203.299C150.724 203.576 148.957 203.426 147.303 202.862C147.615 199.826 146.692 198.098 146.692 198.098L157.375 196.819C156.894 198.256 156.833 199.8 157.2 201.271Z" fill="black"/>
<path opacity="0.5" d="M150.756 203.008C156.657 203.008 161.44 198.229 161.44 192.334C161.44 186.439 156.657 181.66 150.756 181.66C144.856 181.66 140.073 186.439 140.073 192.334C140.073 198.229 144.856 203.008 150.756 203.008Z" fill="#C77485"/>
<path opacity="0.1" d="M164.684 211.461L164.435 210.485L164.22 209.626L163.902 208.357L163.844 208.123L163.795 207.928C163.795 207.928 164.049 207.162 162.373 207.41L162.061 207.464C161.797 207.518 161.489 207.591 161.137 207.689L160.82 207.786L160.4 207.918C159.07 208.351 157.857 209.082 156.853 210.056C156.403 210.486 156.004 210.968 155.666 211.491C155.632 211.54 155.608 211.583 155.578 211.623C155.463 211.804 155.36 211.993 155.271 212.189C155.271 216.035 151.421 220.73 151.421 220.73L147.665 215.307L147.591 215.2L146.697 213.902L146.38 213.482L146.272 213.336L144.318 210.715L143.83 210.061L143.669 209.841L143.429 209.524L142.867 208.777L140.669 210.061L137.738 211.769L136.028 222.873V223.18L136.082 224.098L136.439 230.13V230.213L135.813 232.712L135.906 232.761C137.382 233.556 138.917 234.235 140.498 234.791L140.913 234.938C141.402 235.099 141.861 235.245 142.34 235.387C142.358 235.459 142.371 235.532 142.379 235.606C142.379 235.538 142.379 235.465 142.379 235.396C148.373 237.108 154.728 237.108 160.722 235.396L160.835 235.362C161.113 235.284 161.396 235.201 161.67 235.108L162.114 234.967C163.32 234.564 164.501 234.092 165.651 233.552L166.062 224.815L166.355 218.514V218.153L164.684 211.461Z" fill="black"/>
<path opacity="0.5" d="M161.167 227.69C161.167 227.495 161.167 227.299 161.132 227.104C161.098 226.909 161.103 226.738 161.079 226.553C161.054 226.367 161.035 226.182 161.01 225.996C160.986 225.811 160.952 225.625 160.918 225.44C160.883 225.254 160.849 225.069 160.81 224.883C160.81 224.82 160.786 224.761 160.771 224.698C160.717 224.454 160.659 224.21 160.595 223.961C160.532 223.712 160.493 223.566 160.434 223.37C160.434 223.283 160.385 223.195 160.356 223.112C160.326 223.029 160.273 222.829 160.229 222.687L160.141 222.414C160.102 222.292 160.063 222.17 160.019 222.048C159.945 221.828 159.867 221.613 159.789 221.394C159.711 221.174 159.628 220.959 159.545 220.745C159.379 220.305 159.198 219.871 159.017 219.437C158.309 217.748 157.513 216.084 156.78 214.434C156.386 213.569 156.037 212.684 155.735 211.784L155.642 211.915C155.493 212.14 155.361 212.375 155.246 212.618C155.246 216.459 151.397 221.159 151.397 221.159L147.523 215.522L144.133 220.73C143.644 220.989 143.156 221.877 142.775 223.141C142.667 223.483 142.565 223.854 142.467 224.249C142.398 224.512 142.335 224.791 142.276 225.069C142.242 225.21 142.213 225.352 142.183 225.498L142.096 225.943V226.011C142.037 226.313 141.978 226.626 141.925 226.943C141.871 227.26 141.807 227.626 141.754 227.973C141.715 228.197 141.68 228.422 141.651 228.646C141.583 229.081 141.524 229.52 141.465 229.954C141.431 230.208 141.397 230.443 141.368 230.711L141.25 231.687C141.5 232.488 141.778 233.278 142.066 234.054C142.25 234.48 142.358 234.934 142.384 235.396C148.378 237.108 154.733 237.108 160.727 235.396C160.725 235.38 160.725 235.364 160.727 235.348C160.637 234.91 160.597 234.462 160.61 234.015C160.708 232.763 160.871 231.517 161.098 230.281C161.17 229.673 161.201 229.059 161.191 228.446V228.227C161.176 228.041 161.172 227.866 161.167 227.69ZM161.167 227.69C161.167 227.495 161.167 227.299 161.132 227.104C161.098 226.909 161.103 226.738 161.079 226.553C161.054 226.367 161.035 226.182 161.01 225.996C160.986 225.811 160.952 225.625 160.918 225.44C160.883 225.254 160.849 225.069 160.81 224.883C160.81 224.82 160.786 224.761 160.771 224.698C160.717 224.454 160.659 224.21 160.595 223.961C160.532 223.712 160.493 223.566 160.434 223.37C160.434 223.283 160.385 223.195 160.356 223.112C160.326 223.029 160.273 222.829 160.229 222.687L160.141 222.414C160.102 222.292 160.063 222.17 160.019 222.048C159.945 221.828 159.867 221.613 159.789 221.394C159.711 221.174 159.628 220.959 159.545 220.745C159.379 220.305 159.198 219.871 159.017 219.437C158.309 217.748 157.513 216.084 156.78 214.434C156.386 213.569 156.037 212.684 155.735 211.784L155.642 211.915C155.493 212.14 155.361 212.375 155.246 212.618C155.246 216.459 151.397 221.159 151.397 221.159L147.523 215.522L144.133 220.73C143.644 220.989 143.156 221.877 142.775 223.141C142.667 223.483 142.565 223.854 142.467 224.249C142.398 224.512 142.335 224.791 142.276 225.069C142.242 225.21 142.213 225.352 142.183 225.498L142.096 225.943V226.011C142.037 226.313 141.978 226.626 141.925 226.943C141.871 227.26 141.807 227.626 141.754 227.973C141.715 228.197 141.68 228.422 141.651 228.646C141.583 229.081 141.524 229.52 141.465 229.954C141.431 230.208 141.397 230.443 141.368 230.711L141.25 231.687C141.5 232.488 141.778 233.278 142.066 234.054C142.25 234.48 142.358 234.934 142.384 235.396C148.378 237.108 154.733 237.108 160.727 235.396C160.725 235.38 160.725 235.364 160.727 235.348C160.637 234.91 160.597 234.462 160.61 234.015C160.708 232.763 160.871 231.517 161.098 230.281C161.17 229.673 161.201 229.059 161.191 228.446V228.227C161.176 228.041 161.172 227.866 161.167 227.69ZM161.167 227.69C161.167 227.495 161.167 227.299 161.132 227.104C161.098 226.909 161.103 226.738 161.079 226.553C161.054 226.367 161.035 226.182 161.01 225.996C160.986 225.811 160.952 225.625 160.918 225.44C160.883 225.254 160.849 225.069 160.81 224.883C160.81 224.82 160.786 224.761 160.771 224.698C160.717 224.454 160.659 224.21 160.595 223.961C160.532 223.712 160.493 223.566 160.434 223.37C160.434 223.283 160.385 223.195 160.356 223.112C160.326 223.029 160.273 222.829 160.229 222.687L160.141 222.414C160.102 222.292 160.063 222.17 160.019 222.048C159.945 221.828 159.867 221.613 159.789 221.394C159.711 221.174 159.628 220.959 159.545 220.745C159.379 220.305 159.198 219.871 159.017 219.437C158.309 217.748 157.513 216.084 156.78 214.434C156.386 213.569 156.037 212.684 155.735 211.784L155.642 211.915C155.493 212.14 155.361 212.375 155.246 212.618C155.246 216.459 151.397 221.159 151.397 221.159L147.523 215.522L144.133 220.73C143.644 220.989 143.156 221.877 142.775 223.141C142.667 223.483 142.565 223.854 142.467 224.249C142.398 224.512 142.335 224.791 142.276 225.069C142.242 225.21 142.213 225.352 142.183 225.498L142.096 225.943V226.011C142.037 226.313 141.978 226.626 141.925 226.943C141.871 227.26 141.807 227.626 141.754 227.973C141.715 228.197 141.68 228.422 141.651 228.646C141.583 229.081 141.524 229.52 141.465 229.954C141.431 230.208 141.397 230.443 141.368 230.711L141.25 231.687C141.5 232.488 141.778 233.278 142.066 234.054C142.25 234.48 142.358 234.934 142.384 235.396C148.378 237.108 154.733 237.108 160.727 235.396C160.725 235.38 160.725 235.364 160.727 235.348C160.637 234.91 160.597 234.462 160.61 234.015C160.708 232.763 160.871 231.517 161.098 230.281C161.17 229.673 161.201 229.059 161.191 228.446V228.227C161.176 228.041 161.172 227.866 161.167 227.69ZM166.345 218.529L164.601 211.574L164.303 210.383L164.22 210.056L163.795 208.357C163.796 208.343 163.796 208.328 163.795 208.313C163.805 208.238 163.793 208.162 163.761 208.094C163.697 207.967 163.536 207.835 163.16 207.801C163.017 207.791 162.873 207.791 162.73 207.801C162.305 207.843 161.885 207.921 161.474 208.035C161.274 208.089 161.059 208.147 160.83 208.221L160.409 208.352H160.37C159.245 208.721 158.201 209.301 157.293 210.061C156.693 210.56 156.167 211.142 155.73 211.788L155.637 211.92C155.488 212.145 155.356 212.38 155.241 212.623C155.241 216.464 151.392 221.164 151.392 221.164L147.518 215.527L147.298 215.21L147.259 215.156L146.697 214.331L146.272 213.765L146.16 213.619L144.157 210.949L143.522 210.085V210.056L143.302 209.758L142.882 209.202L141.417 210.056L137.753 212.189L136.063 223.175V223.292L136.111 224.093L136.473 230.208V230.555L135.921 232.756C137.396 233.551 138.932 234.23 140.513 234.786L140.928 234.933C141.417 235.094 141.876 235.24 142.354 235.382C142.372 235.454 142.385 235.527 142.394 235.601C142.394 235.533 142.394 235.46 142.394 235.392C148.388 237.103 154.742 237.103 160.737 235.392L160.849 235.357C161.128 235.279 161.411 235.196 161.684 235.104L162.129 234.962C163.334 234.559 164.515 234.087 165.666 233.547L166.071 224.82L166.364 218.587L166.345 218.529ZM142.32 235.382C142.338 235.454 142.351 235.527 142.359 235.601C142.359 235.533 142.359 235.46 142.359 235.392L142.32 235.382ZM161.167 227.69C161.167 227.495 161.167 227.299 161.132 227.104C161.098 226.909 161.103 226.738 161.079 226.553C161.054 226.367 161.035 226.182 161.01 225.996C160.986 225.811 160.952 225.625 160.918 225.44C160.883 225.254 160.849 225.069 160.81 224.883C160.81 224.82 160.786 224.761 160.771 224.698C160.717 224.454 160.659 224.21 160.595 223.961C160.532 223.712 160.493 223.566 160.434 223.37C160.434 223.283 160.385 223.195 160.356 223.112C160.326 223.029 160.273 222.829 160.229 222.687L160.141 222.414C160.102 222.292 160.063 222.17 160.019 222.048C159.945 221.828 159.867 221.613 159.789 221.394C159.711 221.174 159.628 220.959 159.545 220.745C159.379 220.305 159.198 219.871 159.017 219.437C158.309 217.748 157.513 216.084 156.78 214.434C156.386 213.569 156.037 212.684 155.735 211.784L155.642 211.915C155.493 212.14 155.361 212.375 155.246 212.618C155.246 216.459 151.397 221.159 151.397 221.159L147.523 215.522L144.133 220.73C143.644 220.989 143.156 221.877 142.775 223.141C142.667 223.483 142.565 223.854 142.467 224.249C142.398 224.512 142.335 224.791 142.276 225.069C142.242 225.21 142.213 225.352 142.183 225.498L142.096 225.943V226.011C142.037 226.313 141.978 226.626 141.925 226.943C141.871 227.26 141.807 227.626 141.754 227.973C141.715 228.197 141.68 228.422 141.651 228.646C141.583 229.081 141.524 229.52 141.465 229.954C141.431 230.208 141.397 230.443 141.368 230.711L141.25 231.687C141.5 232.488 141.778 233.278 142.066 234.054C142.25 234.48 142.358 234.934 142.384 235.396C148.378 237.108 154.733 237.108 160.727 235.396C160.725 235.38 160.725 235.364 160.727 235.348C160.637 234.91 160.597 234.462 160.61 234.015C160.708 232.763 160.871 231.517 161.098 230.281C161.17 229.673 161.201 229.059 161.191 228.446V228.227C161.176 228.041 161.172 227.866 161.167 227.69ZM161.167 227.69C161.167 227.495 161.167 227.299 161.132 227.104C161.098 226.909 161.103 226.738 161.079 226.553C161.054 226.367 161.035 226.182 161.01 225.996C160.986 225.811 160.952 225.625 160.918 225.44C160.883 225.254 160.849 225.069 160.81 224.883C160.81 224.82 160.786 224.761 160.771 224.698C160.717 224.454 160.659 224.21 160.595 223.961C160.532 223.712 160.493 223.566 160.434 223.37C160.434 223.283 160.385 223.195 160.356 223.112C160.326 223.029 160.273 222.829 160.229 222.687L160.141 222.414C160.102 222.292 160.063 222.17 160.019 222.048C159.945 221.828 159.867 221.613 159.789 221.394C159.711 221.174 159.628 220.959 159.545 220.745C159.379 220.305 159.198 219.871 159.017 219.437C158.309 217.748 157.513 216.084 156.78 214.434C156.386 213.569 156.037 212.684 155.735 211.784L155.642 211.915C155.493 212.14 155.361 212.375 155.246 212.618C155.246 216.459 151.397 221.159 151.397 221.159L147.523 215.522L144.133 220.73C143.644 220.989 143.156 221.877 142.775 223.141C142.667 223.483 142.565 223.854 142.467 224.249C142.398 224.512 142.335 224.791 142.276 225.069C142.242 225.21 142.213 225.352 142.183 225.498L142.096 225.943V226.011C142.037 226.313 141.978 226.626 141.925 226.943C141.871 227.26 141.807 227.626 141.754 227.973C141.715 228.197 141.68 228.422 141.651 228.646C141.583 229.081 141.524 229.52 141.465 229.954C141.431 230.208 141.397 230.443 141.368 230.711L141.25 231.687C141.5 232.488 141.778 233.278 142.066 234.054C142.25 234.48 142.358 234.934 142.384 235.396C148.378 237.108 154.733 237.108 160.727 235.396C160.725 235.38 160.725 235.364 160.727 235.348C160.637 234.91 160.597 234.462 160.61 234.015C160.708 232.763 160.871 231.517 161.098 230.281C161.17 229.673 161.201 229.059 161.191 228.446V228.227C161.176 228.041 161.172 227.866 161.167 227.69ZM161.167 227.69C161.167 227.495 161.167 227.299 161.132 227.104C161.098 226.909 161.103 226.738 161.079 226.553C161.054 226.367 161.035 226.182 161.01 225.996C160.986 225.811 160.952 225.625 160.918 225.44C160.883 225.254 160.849 225.069 160.81 224.883C160.81 224.82 160.786 224.761 160.771 224.698C160.717 224.454 160.659 224.21 160.595 223.961C160.532 223.712 160.493 223.566 160.434 223.37C160.434 223.283 160.385 223.195 160.356 223.112C160.326 223.029 160.273 222.829 160.229 222.687L160.141 222.414C160.102 222.292 160.063 222.17 160.019 222.048C159.945 221.828 159.867 221.613 159.789 221.394C159.711 221.174 159.628 220.959 159.545 220.745C159.379 220.305 159.198 219.871 159.017 219.437C158.309 217.748 157.513 216.084 156.78 214.434C156.386 213.569 156.037 212.684 155.735 211.784L155.642 211.915C155.493 212.14 155.361 212.375 155.246 212.618C155.246 216.459 151.397 221.159 151.397 221.159L147.523 215.522L144.133 220.73C143.644 220.989 143.156 221.877 142.775 223.141C142.667 223.483 142.565 223.854 142.467 224.249C142.398 224.512 142.335 224.791 142.276 225.069C142.242 225.21 142.213 225.352 142.183 225.498L142.096 225.943V226.011C142.037 226.313 141.978 226.626 141.925 226.943C141.871 227.26 141.807 227.626 141.754 227.973C141.715 228.197 141.68 228.422 141.651 228.646C141.583 229.081 141.524 229.52 141.465 229.954C141.431 230.208 141.397 230.443 141.368 230.711L141.25 231.687C141.5 232.488 141.778 233.278 142.066 234.054C142.25 234.48 142.358 234.934 142.384 235.396C148.378 237.108 154.733 237.108 160.727 235.396C160.725 235.38 160.725 235.364 160.727 235.348C160.637 234.91 160.597 234.462 160.61 234.015C160.708 232.763 160.871 231.517 161.098 230.281C161.17 229.673 161.201 229.059 161.191 228.446V228.227C161.176 228.041 161.172 227.866 161.167 227.69ZM161.167 227.69C161.167 227.495 161.167 227.299 161.132 227.104C161.098 226.909 161.103 226.738 161.079 226.553C161.054 226.367 161.035 226.182 161.01 225.996C160.986 225.811 160.952 225.625 160.918 225.44C160.883 225.254 160.849 225.069 160.81 224.883C160.81 224.82 160.786 224.761 160.771 224.698C160.717 224.454 160.659 224.21 160.595 223.961C160.532 223.712 160.493 223.566 160.434 223.37C160.434 223.283 160.385 223.195 160.356 223.112C160.326 223.029 160.273 222.829 160.229 222.687L160.141 222.414C160.102 222.292 160.063 222.17 160.019 222.048C159.945 221.828 159.867 221.613 159.789 221.394C159.711 221.174 159.628 220.959 159.545 220.745C159.379 220.305 159.198 219.871 159.017 219.437C158.309 217.748 157.513 216.084 156.78 214.434C156.386 213.569 156.037 212.684 155.735 211.784L155.642 211.915C155.493 212.14 155.361 212.375 155.246 212.618C155.246 216.459 151.397 221.159 151.397 221.159L147.523 215.522L144.133 220.73C143.644 220.989 143.156 221.877 142.775 223.141C142.667 223.483 142.565 223.854 142.467 224.249C142.398 224.512 142.335 224.791 142.276 225.069C142.242 225.21 142.213 225.352 142.183 225.498L142.096 225.943V226.011C142.037 226.313 141.978 226.626 141.925 226.943C141.871 227.26 141.807 227.626 141.754 227.973C141.715 228.197 141.68 228.422 141.651 228.646C141.583 229.081 141.524 229.52 141.465 229.954C141.431 230.208 141.397 230.443 141.368 230.711L141.25 231.687C141.5 232.488 141.778 233.278 142.066 234.054C142.25 234.48 142.358 234.934 142.384 235.396C148.378 237.108 154.733 237.108 160.727 235.396C160.725 235.38 160.725 235.364 160.727 235.348C160.637 234.91 160.597 234.462 160.61 234.015C160.708 232.763 160.871 231.517 161.098 230.281C161.17 229.673 161.201 229.059 161.191 228.446V228.227C161.176 228.041 161.172 227.866 161.167 227.69ZM161.167 227.69C161.167 227.495 161.167 227.299 161.132 227.104C161.098 226.909 161.103 226.738 161.079 226.553C161.054 226.367 161.035 226.182 161.01 225.996C160.986 225.811 160.952 225.625 160.918 225.44C160.883 225.254 160.849 225.069 160.81 224.883C160.81 224.82 160.786 224.761 160.771 224.698C160.717 224.454 160.659 224.21 160.595 223.961C160.532 223.712 160.493 223.566 160.434 223.37C160.434 223.283 160.385 223.195 160.356 223.112C160.326 223.029 160.273 222.829 160.229 222.687L160.141 222.414C160.102 222.292 160.063 222.17 160.019 222.048C159.945 221.828 159.867 221.613 159.789 221.394C159.711 221.174 159.628 220.959 159.545 220.745C159.379 220.305 159.198 219.871 159.017 219.437C158.309 217.748 157.513 216.084 156.78 214.434C156.386 213.569 156.037 212.684 155.735 211.784L155.642 211.915C155.493 212.14 155.361 212.375 155.246 212.618C155.246 216.459 151.397 221.159 151.397 221.159L147.523 215.522L144.133 220.73C143.644 220.989 143.156 221.877 142.775 223.141C142.667 223.483 142.565 223.854 142.467 224.249C142.398 224.512 142.335 224.791 142.276 225.069C142.242 225.21 142.213 225.352 142.183 225.498L142.096 225.943V226.011C142.037 226.313 141.978 226.626 141.925 226.943C141.871 227.26 141.807 227.626 141.754 227.973C141.715 228.197 141.68 228.422 141.651 228.646C141.583 229.081 141.524 229.52 141.465 229.954C141.431 230.208 141.397 230.443 141.368 230.711L141.25 231.687C141.5 232.488 141.778 233.278 142.066 234.054C142.25 234.48 142.358 234.934 142.384 235.396C148.378 237.108 154.733 237.108 160.727 235.396C160.725 235.38 160.725 235.364 160.727 235.348C160.637 234.91 160.597 234.462 160.61 234.015C160.708 232.763 160.871 231.517 161.098 230.281C161.17 229.673 161.201 229.059 161.191 228.446V228.227C161.176 228.041 161.172 227.866 161.167 227.69ZM161.167 227.69C161.167 227.495 161.167 227.299 161.132 227.104C161.098 226.909 161.103 226.738 161.079 226.553C161.054 226.367 161.035 226.182 161.01 225.996C160.986 225.811 160.952 225.625 160.918 225.44C160.883 225.254 160.849 225.069 160.81 224.883C160.81 224.82 160.786 224.761 160.771 224.698C160.717 224.454 160.659 224.21 160.595 223.961C160.532 223.712 160.493 223.566 160.434 223.37C160.434 223.283 160.385 223.195 160.356 223.112C160.326 223.029 160.273 222.829 160.229 222.687L160.141 222.414C160.102 222.292 160.063 222.17 160.019 222.048C159.945 221.828 159.867 221.613 159.789 221.394C159.711 221.174 159.628 220.959 159.545 220.745C159.379 220.305 159.198 219.871 159.017 219.437C158.309 217.748 157.513 216.084 156.78 214.434C156.386 213.569 156.037 212.684 155.735 211.784L155.642 211.915C155.493 212.14 155.361 212.375 155.246 212.618C155.246 216.459 151.397 221.159 151.397 221.159L147.523 215.522L144.133 220.73C143.644 220.989 143.156 221.877 142.775 223.141C142.667 223.483 142.565 223.854 142.467 224.249C142.398 224.512 142.335 224.791 142.276 225.069C142.242 225.21 142.213 225.352 142.183 225.498L142.096 225.943V226.011C142.037 226.313 141.978 226.626 141.925 226.943C141.871 227.26 141.807 227.626 141.754 227.973C141.715 228.197 141.68 228.422 141.651 228.646C141.583 229.081 141.524 229.52 141.465 229.954C141.431 230.208 141.397 230.443 141.368 230.711L141.25 231.687C141.5 232.488 141.778 233.278 142.066 234.054C142.25 234.48 142.358 234.934 142.384 235.396C148.378 237.108 154.733 237.108 160.727 235.396C160.725 235.38 160.725 235.364 160.727 235.348C160.637 234.91 160.597 234.462 160.61 234.015C160.708 232.763 160.871 231.517 161.098 230.281C161.17 229.673 161.201 229.059 161.191 228.446V228.227C161.176 228.041 161.172 227.866 161.167 227.69ZM161.167 227.69C161.167 227.495 161.167 227.299 161.132 227.104C161.098 226.909 161.103 226.738 161.079 226.553C161.054 226.367 161.035 226.182 161.01 225.996C160.986 225.811 160.952 225.625 160.918 225.44C160.883 225.254 160.849 225.069 160.81 224.883C160.81 224.82 160.786 224.761 160.771 224.698C160.717 224.454 160.659 224.21 160.595 223.961C160.532 223.712 160.493 223.566 160.434 223.37C160.434 223.283 160.385 223.195 160.356 223.112C160.326 223.029 160.273 222.829 160.229 222.687L160.141 222.414C160.102 222.292 160.063 222.17 160.019 222.048C159.945 221.828 159.867 221.613 159.789 221.394C159.711 221.174 159.628 220.959 159.545 220.745C159.379 220.305 159.198 219.871 159.017 219.437C158.309 217.748 157.513 216.084 156.78 214.434C156.386 213.569 156.037 212.684 155.735 211.784L155.642 211.915C155.493 212.14 155.361 212.375 155.246 212.618C155.246 216.459 151.397 221.159 151.397 221.159L147.523 215.522L144.133 220.73C143.644 220.989 143.156 221.877 142.775 223.141C142.667 223.483 142.565 223.854 142.467 224.249C142.398 224.512 142.335 224.791 142.276 225.069C142.242 225.21 142.213 225.352 142.183 225.498L142.096 225.943V226.011C142.037 226.313 141.978 226.626 141.925 226.943C141.871 227.26 141.807 227.626 141.754 227.973C141.715 228.197 141.68 228.422 141.651 228.646C141.583 229.081 141.524 229.52 141.465 229.954C141.431 230.208 141.397 230.443 141.368 230.711L141.25 231.687C141.5 232.488 141.778 233.278 142.066 234.054C142.25 234.48 142.358 234.934 142.384 235.396C148.378 237.108 154.733 237.108 160.727 235.396C160.725 235.38 160.725 235.364 160.727 235.348C160.637 234.91 160.597 234.462 160.61 234.015C160.708 232.763 160.871 231.517 161.098 230.281C161.17 229.673 161.201 229.059 161.191 228.446V228.227C161.176 228.041 161.172 227.866 161.167 227.69ZM161.167 227.69C161.167 227.495 161.167 227.299 161.132 227.104C161.098 226.909 161.103 226.738 161.079 226.553C161.054 226.367 161.035 226.182 161.01 225.996C160.986 225.811 160.952 225.625 160.918 225.44C160.883 225.254 160.849 225.069 160.81 224.883C160.81 224.82 160.786 224.761 160.771 224.698C160.717 224.454 160.659 224.21 160.595 223.961C160.532 223.712 160.493 223.566 160.434 223.37C160.434 223.283 160.385 223.195 160.356 223.112C160.326 223.029 160.273 222.829 160.229 222.687L160.141 222.414C160.102 222.292 160.063 222.17 160.019 222.048C159.945 221.828 159.867 221.613 159.789 221.394C159.711 221.174 159.628 220.959 159.545 220.745C159.379 220.305 159.198 219.871 159.017 219.437C158.309 217.748 157.513 216.084 156.78 214.434C156.386 213.569 156.037 212.684 155.735 211.784L155.642 211.915C155.493 212.14 155.361 212.375 155.246 212.618C155.246 216.459 151.397 221.159 151.397 221.159L147.523 215.522L144.133 220.73C143.644 220.989 143.156 221.877 142.775 223.141C142.667 223.483 142.565 223.854 142.467 224.249C142.398 224.512 142.335 224.791 142.276 225.069C142.242 225.21 142.213 225.352 142.183 225.498L142.096 225.943V226.011C142.037 226.313 141.978 226.626 141.925 226.943C141.871 227.26 141.807 227.626 141.754 227.973C141.715 228.197 141.68 228.422 141.651 228.646C141.583 229.081 141.524 229.52 141.465 229.954C141.431 230.208 141.397 230.443 141.368 230.711L141.25 231.687C141.5 232.488 141.778 233.278 142.066 234.054C142.25 234.48 142.358 234.934 142.384 235.396C148.378 237.108 154.733 237.108 160.727 235.396C160.725 235.38 160.725 235.364 160.727 235.348C160.637 234.91 160.597 234.462 160.61 234.015C160.708 232.763 160.871 231.517 161.098 230.281C161.17 229.673 161.201 229.059 161.191 228.446V228.227C161.176 228.041 161.172 227.866 161.167 227.69Z" fill="white"/>
<path opacity="0.1" d="M147.591 215.195L147.264 215.151C146.77 215.084 146.28 214.987 145.798 214.858L145.618 214.81C144.426 214.473 143.121 213.868 142.828 212.804C142.741 212.461 142.751 212.101 142.858 211.764C143.022 211.183 143.244 210.621 143.522 210.085V210.056C143.559 209.98 143.599 209.907 143.644 209.836C144.047 209.049 144.657 208.386 145.408 207.918L144.821 208.011L139.858 208.816L132.164 210.056C132.164 210.056 130.796 209.783 128.935 214.907C128.935 214.971 128.891 215.029 128.872 215.098C128.422 216.352 127.949 217.919 127.46 219.876C127.123 221.233 126.815 222.565 126.532 223.858C126.449 224.249 126.366 224.635 126.288 225.015C127.168 226.053 128.116 227.031 129.126 227.944L129.287 228.095C131.264 229.884 133.448 231.429 135.794 232.697L135.887 232.746C137.362 233.541 138.897 234.22 140.479 234.777L140.894 234.923C140.982 234.02 141.079 233.02 141.197 231.995C141.197 231.892 141.197 231.79 141.236 231.687L141.353 230.711C141.382 230.462 141.417 230.223 141.451 229.955C141.509 229.52 141.568 229.081 141.636 228.646C141.666 228.422 141.7 228.197 141.739 227.973C141.793 227.626 141.851 227.28 141.91 226.943C141.969 226.606 142.022 226.313 142.081 226.011V225.943L142.169 225.498C142.198 225.352 142.227 225.21 142.262 225.069C142.32 224.791 142.384 224.513 142.452 224.249C142.55 223.854 142.652 223.483 142.76 223.141C143.151 221.877 143.605 220.989 144.118 220.73L147.508 215.522L147.65 215.303L147.713 215.205L147.591 215.195Z" fill="black"/>
<path opacity="0.1" d="M141.421 180.625C140.933 181.299 140.972 182.226 140.752 183.066C140.229 184.974 138.158 186.17 137.684 188.093C137.406 189.215 137.728 190.406 137.538 191.548C137.191 193.652 135.266 195.077 134.191 196.917C133.646 197.865 133.323 198.924 133.246 200.014C133.17 201.105 133.341 202.198 133.747 203.213C133.998 203.725 134.206 204.257 134.367 204.804C134.49 205.619 134.439 206.451 134.216 207.245C133.849 208.982 133.473 210.895 134.313 212.462C135.022 213.785 136.492 214.561 137.972 214.805C139.467 214.974 140.979 214.904 142.452 214.6C144.069 214.351 145.725 214.063 147.132 213.233L141.841 200.475C141.309 199.187 140.762 197.854 140.767 196.458C140.81 195.429 141.033 194.414 141.426 193.461C142.45 190.701 143.937 188.134 145.823 185.872C146.589 186.76 146.531 188.112 147.171 189.098C147.736 189.827 148.489 190.389 149.349 190.723C151.856 191.945 154.432 193.021 157.063 193.945C157.228 193.965 157.385 194.026 157.521 194.122C157.657 194.219 157.767 194.347 157.841 194.495C157.916 194.644 157.952 194.809 157.948 194.975C157.943 195.141 157.898 195.304 157.815 195.448L155.822 203.667C155.382 205.478 154.997 207.572 156.125 209.036C157.253 210.5 159.799 211.193 159.813 213.082C159.792 213.381 159.792 213.681 159.813 213.98C159.945 214.863 160.995 215.288 161.889 215.332C163.357 215.361 164.787 214.868 165.924 213.941C167.062 213.014 167.832 211.713 168.098 210.271C168.587 207.04 166.447 204.062 165.553 200.914C164.049 195.619 166.042 189.406 163.086 184.754C160.692 180.981 156.33 179.957 152.188 179.488C149.281 179.146 143.468 177.926 141.421 180.625Z" fill="black"/>
<path opacity="0.5" d="M141.421 180.137C140.933 180.811 140.972 181.738 140.752 182.577C140.229 184.486 138.158 185.682 137.684 187.605C137.406 188.727 137.728 189.918 137.538 191.06C137.191 193.164 135.266 194.589 134.191 196.429C133.646 197.377 133.323 198.436 133.246 199.526C133.17 200.616 133.341 201.71 133.747 202.725C133.998 203.237 134.206 203.769 134.367 204.316C134.49 205.131 134.439 205.963 134.216 206.756C133.849 208.494 133.473 210.407 134.313 211.974C135.022 213.297 136.492 214.073 137.972 214.317C139.467 214.486 140.979 214.416 142.452 214.112C144.069 213.863 145.725 213.575 147.132 212.745L141.841 199.987C141.309 198.698 140.762 197.366 140.767 195.97C140.81 194.94 141.033 193.926 141.426 192.973C142.45 190.213 143.937 187.646 145.823 185.384C146.589 186.272 146.531 187.624 147.171 188.61C147.736 189.339 148.489 189.901 149.349 190.235C151.856 191.457 154.432 192.533 157.063 193.457C157.228 193.477 157.385 193.538 157.521 193.634C157.657 193.73 157.767 193.858 157.841 194.007C157.916 194.156 157.952 194.321 157.948 194.487C157.943 194.653 157.898 194.815 157.815 194.96L155.822 203.179C155.382 204.99 154.997 207.083 156.125 208.548C157.253 210.012 159.799 210.705 159.813 212.594C159.792 212.893 159.792 213.193 159.813 213.492C159.945 214.375 160.995 214.8 161.889 214.844C163.357 214.873 164.787 214.38 165.924 213.453C167.062 212.526 167.832 211.225 168.098 209.783C168.587 206.551 166.447 203.574 165.553 200.426C164.049 195.131 166.042 188.917 163.086 184.266C160.692 180.493 156.33 179.468 152.188 179C149.281 178.658 143.468 177.438 141.421 180.137Z" fill="#493545"/>
</g>
<g opacity="0.5">
<path opacity="0.5" d="M138.417 310.867C138.461 312.502 137.347 313.898 136.463 315.26C135.579 316.621 134.924 318.481 135.833 319.843C136.131 320.292 136.58 320.638 136.849 321.107C137.792 322.742 136.224 324.621 135.652 326.417C134.993 328.491 135.76 330.81 137.147 332.493C138.534 334.177 140.449 335.315 142.384 336.315C146.451 338.481 150.817 340.033 155.339 340.922C157.703 341.357 160.224 341.552 162.442 340.605C163.981 339.9 165.238 338.698 166.011 337.194C166.784 335.689 167.029 333.968 166.706 332.308C166.145 329.741 164.264 327.676 163.287 325.25C163.059 324.774 162.948 324.25 162.964 323.723C163.047 322.8 163.756 322.078 164.308 321.331C165.692 319.298 166.257 316.818 165.891 314.386C165.505 311.954 164.573 309.642 163.165 307.621C162.661 306.784 161.997 306.054 161.211 305.474C160.146 304.756 158.827 304.551 157.557 304.371C152.252 303.629 146.756 302.819 141.407 302.545C139.717 302.458 138.476 302.789 137.641 304.371C136.366 306.728 138.354 308.5 138.417 310.867Z" fill="#444176"/>
<path opacity="0.5" d="M165.74 327.466L155.671 341.771L145.843 340.917C145.843 340.917 145.52 344.334 141.568 331.952C139.36 325.026 143.85 327.432 144.734 325.514C145.618 323.596 147.176 321.902 147.308 320.487C147.621 317.451 146.698 315.723 146.698 315.723L157.381 314.444C156.899 315.883 156.838 317.429 157.205 318.901C158.544 324.455 165.74 327.466 165.74 327.466Z" fill="#C77485"/>
<path opacity="0.5" d="M150.596 315.269C157.61 315.269 163.297 310.79 163.297 305.264C163.297 299.738 157.61 295.258 150.596 295.258C143.581 295.258 137.895 299.738 137.895 305.264C137.895 310.79 143.581 315.269 150.596 315.269Z" fill="#444176"/>
<path opacity="0.1" d="M157.2 318.896C155.807 319.95 154.176 320.646 152.45 320.924C150.724 321.201 148.957 321.051 147.303 320.487C147.616 317.451 146.692 315.723 146.692 315.723L157.376 314.444C156.895 315.881 156.834 317.425 157.2 318.896Z" fill="black"/>
<path opacity="0.5" d="M150.757 320.633C156.657 320.633 161.44 315.854 161.44 309.959C161.44 304.064 156.657 299.285 150.757 299.285C144.856 299.285 140.073 304.064 140.073 309.959C140.073 315.854 144.856 320.633 150.757 320.633Z" fill="#C77485"/>
<path opacity="0.1" d="M164.684 329.086L164.435 328.11L164.22 327.251L163.902 325.982L163.844 325.748L163.795 325.553C163.795 325.553 164.049 324.787 162.373 325.035L162.061 325.089C161.797 325.143 161.489 325.216 161.137 325.314L160.82 325.411L160.4 325.543C159.07 325.976 157.857 326.707 156.853 327.681C156.403 328.111 156.004 328.593 155.666 329.116C155.632 329.165 155.608 329.208 155.578 329.248C155.463 329.429 155.36 329.618 155.27 329.814C155.27 333.66 151.421 338.355 151.421 338.355L147.665 332.932L147.591 332.825L146.697 331.527L146.38 331.107L146.272 330.961L144.318 328.34L143.83 327.686L143.669 327.466L143.429 327.149L142.867 326.402L140.669 327.686L137.738 329.394L136.028 340.498V340.805L136.082 341.723L136.439 347.755V347.838L135.813 350.337L135.906 350.386C137.382 351.181 138.917 351.86 140.498 352.416L140.913 352.563C141.402 352.724 141.861 352.87 142.34 353.012C142.358 353.084 142.371 353.157 142.379 353.231C142.379 353.163 142.379 353.09 142.379 353.021C148.373 354.733 154.728 354.733 160.722 353.021L160.835 352.987C161.113 352.909 161.396 352.826 161.67 352.733L162.114 352.592C163.32 352.189 164.501 351.716 165.651 351.176L166.061 342.44L166.355 336.139V335.778L164.684 329.086Z" fill="black"/>
<path opacity="0.5" d="M161.167 345.315C161.167 345.12 161.167 344.925 161.133 344.729C161.099 344.534 161.104 344.363 161.079 344.178C161.055 343.992 161.035 343.807 161.011 343.621C160.986 343.436 160.952 343.25 160.918 343.065C160.884 342.879 160.85 342.694 160.811 342.509C160.811 342.445 160.786 342.387 160.771 342.323C160.718 342.079 160.659 341.835 160.596 341.586C160.532 341.337 160.493 341.191 160.434 340.996C160.434 340.908 160.386 340.82 160.356 340.737C160.327 340.654 160.273 340.454 160.229 340.312L160.141 340.039C160.102 339.917 160.063 339.795 160.019 339.673C159.946 339.453 159.868 339.238 159.79 339.019C159.711 338.799 159.628 338.584 159.545 338.37C159.379 337.93 159.198 337.496 159.018 337.062C158.309 335.373 157.513 333.709 156.78 332.059C156.387 331.194 156.038 330.31 155.735 329.409L155.642 329.54C155.494 329.765 155.361 330 155.247 330.243C155.247 334.084 151.397 338.785 151.397 338.785L147.523 333.147L144.133 338.355C143.645 338.614 143.156 339.502 142.775 340.766C142.668 341.108 142.565 341.479 142.467 341.874C142.399 342.138 142.335 342.416 142.277 342.694C142.243 342.836 142.213 342.977 142.184 343.124L142.096 343.568V343.636C142.037 343.939 141.979 344.251 141.925 344.568C141.871 344.885 141.808 345.252 141.754 345.598C141.715 345.823 141.681 346.047 141.652 346.272C141.583 346.706 141.525 347.145 141.466 347.58C141.432 347.833 141.397 348.068 141.368 348.336L141.251 349.312C141.5 350.113 141.779 350.903 142.067 351.679C142.251 352.105 142.358 352.559 142.384 353.022C148.379 354.733 154.733 354.733 160.727 353.022C160.725 353.005 160.725 352.989 160.727 352.973C160.637 352.535 160.598 352.088 160.61 351.64C160.709 350.388 160.872 349.142 161.099 347.907C161.171 347.298 161.202 346.685 161.192 346.071V345.852C161.177 345.666 161.172 345.491 161.167 345.315ZM161.167 345.315C161.167 345.12 161.167 344.925 161.133 344.729C161.099 344.534 161.104 344.363 161.079 344.178C161.055 343.992 161.035 343.807 161.011 343.621C160.986 343.436 160.952 343.25 160.918 343.065C160.884 342.879 160.85 342.694 160.811 342.509C160.811 342.445 160.786 342.387 160.771 342.323C160.718 342.079 160.659 341.835 160.596 341.586C160.532 341.337 160.493 341.191 160.434 340.996C160.434 340.908 160.386 340.82 160.356 340.737C160.327 340.654 160.273 340.454 160.229 340.312L160.141 340.039C160.102 339.917 160.063 339.795 160.019 339.673C159.946 339.453 159.868 339.238 159.79 339.019C159.711 338.799 159.628 338.584 159.545 338.37C159.379 337.93 159.198 337.496 159.018 337.062C158.309 335.373 157.513 333.709 156.78 332.059C156.387 331.194 156.038 330.31 155.735 329.409L155.642 329.54C155.494 329.765 155.361 330 155.247 330.243C155.247 334.084 151.397 338.785 151.397 338.785L147.523 333.147L144.133 338.355C143.645 338.614 143.156 339.502 142.775 340.766C142.668 341.108 142.565 341.479 142.467 341.874C142.399 342.138 142.335 342.416 142.277 342.694C142.243 342.836 142.213 342.977 142.184 343.124L142.096 343.568V343.636C142.037 343.939 141.979 344.251 141.925 344.568C141.871 344.885 141.808 345.252 141.754 345.598C141.715 345.823 141.681 346.047 141.652 346.272C141.583 346.706 141.525 347.145 141.466 347.58C141.432 347.833 141.397 348.068 141.368 348.336L141.251 349.312C141.5 350.113 141.779 350.903 142.067 351.679C142.251 352.105 142.358 352.559 142.384 353.022C148.379 354.733 154.733 354.733 160.727 353.022C160.725 353.005 160.725 352.989 160.727 352.973C160.637 352.535 160.598 352.088 160.61 351.64C160.709 350.388 160.872 349.142 161.099 347.907C161.171 347.298 161.202 346.685 161.192 346.071V345.852C161.177 345.666 161.172 345.491 161.167 345.315ZM161.167 345.315C161.167 345.12 161.167 344.925 161.133 344.729C161.099 344.534 161.104 344.363 161.079 344.178C161.055 343.992 161.035 343.807 161.011 343.621C160.986 343.436 160.952 343.25 160.918 343.065C160.884 342.879 160.85 342.694 160.811 342.509C160.811 342.445 160.786 342.387 160.771 342.323C160.718 342.079 160.659 341.835 160.596 341.586C160.532 341.337 160.493 341.191 160.434 340.996C160.434 340.908 160.386 340.82 160.356 340.737C160.327 340.654 160.273 340.454 160.229 340.312L160.141 340.039C160.102 339.917 160.063 339.795 160.019 339.673C159.946 339.453 159.868 339.238 159.79 339.019C159.711 338.799 159.628 338.584 159.545 338.37C159.379 337.93 159.198 337.496 159.018 337.062C158.309 335.373 157.513 333.709 156.78 332.059C156.387 331.194 156.038 330.31 155.735 329.409L155.642 329.54C155.494 329.765 155.361 330 155.247 330.243C155.247 334.084 151.397 338.785 151.397 338.785L147.523 333.147L144.133 338.355C143.645 338.614 143.156 339.502 142.775 340.766C142.668 341.108 142.565 341.479 142.467 341.874C142.399 342.138 142.335 342.416 142.277 342.694C142.243 342.836 142.213 342.977 142.184 343.124L142.096 343.568V343.636C142.037 343.939 141.979 344.251 141.925 344.568C141.871 344.885 141.808 345.252 141.754 345.598C141.715 345.823 141.681 346.047 141.652 346.272C141.583 346.706 141.525 347.145 141.466 347.58C141.432 347.833 141.397 348.068 141.368 348.336L141.251 349.312C141.5 350.113 141.779 350.903 142.067 351.679C142.251 352.105 142.358 352.559 142.384 353.022C148.379 354.733 154.733 354.733 160.727 353.022C160.725 353.005 160.725 352.989 160.727 352.973C160.637 352.535 160.598 352.088 160.61 351.64C160.709 350.388 160.872 349.142 161.099 347.907C161.171 347.298 161.202 346.685 161.192 346.071V345.852C161.177 345.666 161.172 345.491 161.167 345.315ZM166.345 336.154L164.601 329.199L164.303 328.008L164.22 327.681L163.795 325.982C163.796 325.968 163.796 325.953 163.795 325.939C163.805 325.864 163.794 325.787 163.761 325.719C163.698 325.592 163.536 325.46 163.16 325.426C163.017 325.416 162.873 325.416 162.73 325.426C162.306 325.468 161.886 325.546 161.475 325.66C161.275 325.714 161.06 325.773 160.83 325.846L160.41 325.978H160.371C159.246 326.347 158.201 326.926 157.293 327.686C156.694 328.185 156.167 328.767 155.73 329.414L155.637 329.545C155.489 329.77 155.357 330.005 155.242 330.248C155.242 334.089 151.392 338.789 151.392 338.789L147.518 333.152L147.299 332.835L147.26 332.781L146.698 331.956L146.273 331.39L146.16 331.244L144.158 328.574L143.522 327.71V327.681L143.303 327.383L142.883 326.827L141.417 327.681L137.753 329.814L136.063 340.8V340.917L136.112 341.718L136.473 347.833V348.18L135.921 350.381C137.397 351.176 138.932 351.855 140.513 352.412L140.929 352.558C141.417 352.719 141.876 352.865 142.355 353.007C142.373 353.079 142.386 353.153 142.394 353.227C142.394 353.158 142.394 353.085 142.394 353.017C148.388 354.728 154.743 354.728 160.737 353.017L160.85 352.983C161.128 352.904 161.411 352.822 161.685 352.729L162.129 352.587C163.335 352.184 164.516 351.712 165.666 351.172L166.072 342.445L166.365 336.212L166.345 336.154ZM142.321 353.007C142.339 353.079 142.352 353.153 142.36 353.227C142.36 353.158 142.36 353.085 142.36 353.017L142.321 353.007ZM161.167 345.315C161.167 345.12 161.167 344.925 161.133 344.729C161.099 344.534 161.104 344.363 161.079 344.178C161.055 343.992 161.035 343.807 161.011 343.621C160.986 343.436 160.952 343.25 160.918 343.065C160.884 342.879 160.85 342.694 160.811 342.509C160.811 342.445 160.786 342.387 160.771 342.323C160.718 342.079 160.659 341.835 160.596 341.586C160.532 341.337 160.493 341.191 160.434 340.996C160.434 340.908 160.386 340.82 160.356 340.737C160.327 340.654 160.273 340.454 160.229 340.312L160.141 340.039C160.102 339.917 160.063 339.795 160.019 339.673C159.946 339.453 159.868 339.238 159.79 339.019C159.711 338.799 159.628 338.584 159.545 338.37C159.379 337.93 159.198 337.496 159.018 337.062C158.309 335.373 157.513 333.709 156.78 332.059C156.387 331.194 156.038 330.31 155.735 329.409L155.642 329.54C155.494 329.765 155.361 330 155.247 330.243C155.247 334.084 151.397 338.785 151.397 338.785L147.523 333.147L144.133 338.355C143.645 338.614 143.156 339.502 142.775 340.766C142.668 341.108 142.565 341.479 142.467 341.874C142.399 342.138 142.335 342.416 142.277 342.694C142.243 342.836 142.213 342.977 142.184 343.124L142.096 343.568V343.636C142.037 343.939 141.979 344.251 141.925 344.568C141.871 344.885 141.808 345.252 141.754 345.598C141.715 345.823 141.681 346.047 141.652 346.272C141.583 346.706 141.525 347.145 141.466 347.58C141.432 347.833 141.397 348.068 141.368 348.336L141.251 349.312C141.5 350.113 141.779 350.903 142.067 351.679C142.251 352.105 142.358 352.559 142.384 353.022C148.379 354.733 154.733 354.733 160.727 353.022C160.725 353.005 160.725 352.989 160.727 352.973C160.637 352.535 160.598 352.088 160.61 351.64C160.709 350.388 160.872 349.142 161.099 347.907C161.171 347.298 161.202 346.685 161.192 346.071V345.852C161.177 345.666 161.172 345.491 161.167 345.315ZM161.167 345.315C161.167 345.12 161.167 344.925 161.133 344.729C161.099 344.534 161.104 344.363 161.079 344.178C161.055 343.992 161.035 343.807 161.011 343.621C160.986 343.436 160.952 343.25 160.918 343.065C160.884 342.879 160.85 342.694 160.811 342.509C160.811 342.445 160.786 342.387 160.771 342.323C160.718 342.079 160.659 341.835 160.596 341.586C160.532 341.337 160.493 341.191 160.434 340.996C160.434 340.908 160.386 340.82 160.356 340.737C160.327 340.654 160.273 340.454 160.229 340.312L160.141 340.039C160.102 339.917 160.063 339.795 160.019 339.673C159.946 339.453 159.868 339.238 159.79 339.019C159.711 338.799 159.628 338.584 159.545 338.37C159.379 337.93 159.198 337.496 159.018 337.062C158.309 335.373 157.513 333.709 156.78 332.059C156.387 331.194 156.038 330.31 155.735 329.409L155.642 329.54C155.494 329.765 155.361 330 155.247 330.243C155.247 334.084 151.397 338.785 151.397 338.785L147.523 333.147L144.133 338.355C143.645 338.614 143.156 339.502 142.775 340.766C142.668 341.108 142.565 341.479 142.467 341.874C142.399 342.138 142.335 342.416 142.277 342.694C142.243 342.836 142.213 342.977 142.184 343.124L142.096 343.568V343.636C142.037 343.939 141.979 344.251 141.925 344.568C141.871 344.885 141.808 345.252 141.754 345.598C141.715 345.823 141.681 346.047 141.652 346.272C141.583 346.706 141.525 347.145 141.466 347.58C141.432 347.833 141.397 348.068 141.368 348.336L141.251 349.312C141.5 350.113 141.779 350.903 142.067 351.679C142.251 352.105 142.358 352.559 142.384 353.022C148.379 354.733 154.733 354.733 160.727 353.022C160.725 353.005 160.725 352.989 160.727 352.973C160.637 352.535 160.598 352.088 160.61 351.64C160.709 350.388 160.872 349.142 161.099 347.907C161.171 347.298 161.202 346.685 161.192 346.071V345.852C161.177 345.666 161.172 345.491 161.167 345.315ZM161.167 345.315C161.167 345.12 161.167 344.925 161.133 344.729C161.099 344.534 161.104 344.363 161.079 344.178C161.055 343.992 161.035 343.807 161.011 343.621C160.986 343.436 160.952 343.25 160.918 343.065C160.884 342.879 160.85 342.694 160.811 342.509C160.811 342.445 160.786 342.387 160.771 342.323C160.718 342.079 160.659 341.835 160.596 341.586C160.532 341.337 160.493 341.191 160.434 340.996C160.434 340.908 160.386 340.82 160.356 340.737C160.327 340.654 160.273 340.454 160.229 340.312L160.141 340.039C160.102 339.917 160.063 339.795 160.019 339.673C159.946 339.453 159.868 339.238 159.79 339.019C159.711 338.799 159.628 338.584 159.545 338.37C159.379 337.93 159.198 337.496 159.018 337.062C158.309 335.373 157.513 333.709 156.78 332.059C156.387 331.194 156.038 330.31 155.735 329.409L155.642 329.54C155.494 329.765 155.361 330 155.247 330.243C155.247 334.084 151.397 338.785 151.397 338.785L147.523 333.147L144.133 338.355C143.645 338.614 143.156 339.502 142.775 340.766C142.668 341.108 142.565 341.479 142.467 341.874C142.399 342.138 142.335 342.416 142.277 342.694C142.243 342.836 142.213 342.977 142.184 343.124L142.096 343.568V343.636C142.037 343.939 141.979 344.251 141.925 344.568C141.871 344.885 141.808 345.252 141.754 345.598C141.715 345.823 141.681 346.047 141.652 346.272C141.583 346.706 141.525 347.145 141.466 347.58C141.432 347.833 141.397 348.068 141.368 348.336L141.251 349.312C141.5 350.113 141.779 350.903 142.067 351.679C142.251 352.105 142.358 352.559 142.384 353.022C148.379 354.733 154.733 354.733 160.727 353.022C160.725 353.005 160.725 352.989 160.727 352.973C160.637 352.535 160.598 352.088 160.61 351.64C160.709 350.388 160.872 349.142 161.099 347.907C161.171 347.298 161.202 346.685 161.192 346.071V345.852C161.177 345.666 161.172 345.491 161.167 345.315ZM161.167 345.315C161.167 345.12 161.167 344.925 161.133 344.729C161.099 344.534 161.104 344.363 161.079 344.178C161.055 343.992 161.035 343.807 161.011 343.621C160.986 343.436 160.952 343.25 160.918 343.065C160.884 342.879 160.85 342.694 160.811 342.509C160.811 342.445 160.786 342.387 160.771 342.323C160.718 342.079 160.659 341.835 160.596 341.586C160.532 341.337 160.493 341.191 160.434 340.996C160.434 340.908 160.386 340.82 160.356 340.737C160.327 340.654 160.273 340.454 160.229 340.312L160.141 340.039C160.102 339.917 160.063 339.795 160.019 339.673C159.946 339.453 159.868 339.238 159.79 339.019C159.711 338.799 159.628 338.584 159.545 338.37C159.379 337.93 159.198 337.496 159.018 337.062C158.309 335.373 157.513 333.709 156.78 332.059C156.387 331.194 156.038 330.31 155.735 329.409L155.642 329.54C155.494 329.765 155.361 330 155.247 330.243C155.247 334.084 151.397 338.785 151.397 338.785L147.523 333.147L144.133 338.355C143.645 338.614 143.156 339.502 142.775 340.766C142.668 341.108 142.565 341.479 142.467 341.874C142.399 342.138 142.335 342.416 142.277 342.694C142.243 342.836 142.213 342.977 142.184 343.124L142.096 343.568V343.636C142.037 343.939 141.979 344.251 141.925 344.568C141.871 344.885 141.808 345.252 141.754 345.598C141.715 345.823 141.681 346.047 141.652 346.272C141.583 346.706 141.525 347.145 141.466 347.58C141.432 347.833 141.397 348.068 141.368 348.336L141.251 349.312C141.5 350.113 141.779 350.903 142.067 351.679C142.251 352.105 142.358 352.559 142.384 353.022C148.379 354.733 154.733 354.733 160.727 353.022C160.725 353.005 160.725 352.989 160.727 352.973C160.637 352.535 160.598 352.088 160.61 351.64C160.709 350.388 160.872 349.142 161.099 347.907C161.171 347.298 161.202 346.685 161.192 346.071V345.852C161.177 345.666 161.172 345.491 161.167 345.315ZM161.167 345.315C161.167 345.12 161.167 344.925 161.133 344.729C161.099 344.534 161.104 344.363 161.079 344.178C161.055 343.992 161.035 343.807 161.011 343.621C160.986 343.436 160.952 343.25 160.918 343.065C160.884 342.879 160.85 342.694 160.811 342.509C160.811 342.445 160.786 342.387 160.771 342.323C160.718 342.079 160.659 341.835 160.596 341.586C160.532 341.337 160.493 341.191 160.434 340.996C160.434 340.908 160.386 340.82 160.356 340.737C160.327 340.654 160.273 340.454 160.229 340.312L160.141 340.039C160.102 339.917 160.063 339.795 160.019 339.673C159.946 339.453 159.868 339.238 159.79 339.019C159.711 338.799 159.628 338.584 159.545 338.37C159.379 337.93 159.198 337.496 159.018 337.062C158.309 335.373 157.513 333.709 156.78 332.059C156.387 331.194 156.038 330.31 155.735 329.409L155.642 329.54C155.494 329.765 155.361 330 155.247 330.243C155.247 334.084 151.397 338.785 151.397 338.785L147.523 333.147L144.133 338.355C143.645 338.614 143.156 339.502 142.775 340.766C142.668 341.108 142.565 341.479 142.467 341.874C142.399 342.138 142.335 342.416 142.277 342.694C142.243 342.836 142.213 342.977 142.184 343.124L142.096 343.568V343.636C142.037 343.939 141.979 344.251 141.925 344.568C141.871 344.885 141.808 345.252 141.754 345.598C141.715 345.823 141.681 346.047 141.652 346.272C141.583 346.706 141.525 347.145 141.466 347.58C141.432 347.833 141.397 348.068 141.368 348.336L141.251 349.312C141.5 350.113 141.779 350.903 142.067 351.679C142.251 352.105 142.358 352.559 142.384 353.022C148.379 354.733 154.733 354.733 160.727 353.022C160.725 353.005 160.725 352.989 160.727 352.973C160.637 352.535 160.598 352.088 160.61 351.64C160.709 350.388 160.872 349.142 161.099 347.907C161.171 347.298 161.202 346.685 161.192 346.071V345.852C161.177 345.666 161.172 345.491 161.167 345.315ZM161.167 345.315C161.167 345.12 161.167 344.925 161.133 344.729C161.099 344.534 161.104 344.363 161.079 344.178C161.055 343.992 161.035 343.807 161.011 343.621C160.986 343.436 160.952 343.25 160.918 343.065C160.884 342.879 160.85 342.694 160.811 342.509C160.811 342.445 160.786 342.387 160.771 342.323C160.718 342.079 160.659 341.835 160.596 341.586C160.532 341.337 160.493 341.191 160.434 340.996C160.434 340.908 160.386 340.82 160.356 340.737C160.327 340.654 160.273 340.454 160.229 340.312L160.141 340.039C160.102 339.917 160.063 339.795 160.019 339.673C159.946 339.453 159.868 339.238 159.79 339.019C159.711 338.799 159.628 338.584 159.545 338.37C159.379 337.93 159.198 337.496 159.018 337.062C158.309 335.373 157.513 333.709 156.78 332.059C156.387 331.194 156.038 330.31 155.735 329.409L155.642 329.54C155.494 329.765 155.361 330 155.247 330.243C155.247 334.084 151.397 338.785 151.397 338.785L147.523 333.147L144.133 338.355C143.645 338.614 143.156 339.502 142.775 340.766C142.668 341.108 142.565 341.479 142.467 341.874C142.399 342.138 142.335 342.416 142.277 342.694C142.243 342.836 142.213 342.977 142.184 343.124L142.096 343.568V343.636C142.037 343.939 141.979 344.251 141.925 344.568C141.871 344.885 141.808 345.252 141.754 345.598C141.715 345.823 141.681 346.047 141.652 346.272C141.583 346.706 141.525 347.145 141.466 347.58C141.432 347.833 141.397 348.068 141.368 348.336L141.251 349.312C141.5 350.113 141.779 350.903 142.067 351.679C142.251 352.105 142.358 352.559 142.384 353.022C148.379 354.733 154.733 354.733 160.727 353.022C160.725 353.005 160.725 352.989 160.727 352.973C160.637 352.535 160.598 352.088 160.61 351.64C160.709 350.388 160.872 349.142 161.099 347.907C161.171 347.298 161.202 346.685 161.192 346.071V345.852C161.177 345.666 161.172 345.491 161.167 345.315ZM161.167 345.315C161.167 345.12 161.167 344.925 161.133 344.729C161.099 344.534 161.104 344.363 161.079 344.178C161.055 343.992 161.035 343.807 161.011 343.621C160.986 343.436 160.952 343.25 160.918 343.065C160.884 342.879 160.85 342.694 160.811 342.509C160.811 342.445 160.786 342.387 160.771 342.323C160.718 342.079 160.659 341.835 160.596 341.586C160.532 341.337 160.493 341.191 160.434 340.996C160.434 340.908 160.386 340.82 160.356 340.737C160.327 340.654 160.273 340.454 160.229 340.312L160.141 340.039C160.102 339.917 160.063 339.795 160.019 339.673C159.946 339.453 159.868 339.238 159.79 339.019C159.711 338.799 159.628 338.584 159.545 338.37C159.379 337.93 159.198 337.496 159.018 337.062C158.309 335.373 157.513 333.709 156.78 332.059C156.387 331.194 156.038 330.31 155.735 329.409L155.642 329.54C155.494 329.765 155.361 330 155.247 330.243C155.247 334.084 151.397 338.785 151.397 338.785L147.523 333.147L144.133 338.355C143.645 338.614 143.156 339.502 142.775 340.766C142.668 341.108 142.565 341.479 142.467 341.874C142.399 342.138 142.335 342.416 142.277 342.694C142.243 342.836 142.213 342.977 142.184 343.124L142.096 343.568V343.636C142.037 343.939 141.979 344.251 141.925 344.568C141.871 344.885 141.808 345.252 141.754 345.598C141.715 345.823 141.681 346.047 141.652 346.272C141.583 346.706 141.525 347.145 141.466 347.58C141.432 347.833 141.397 348.068 141.368 348.336L141.251 349.312C141.5 350.113 141.779 350.903 142.067 351.679C142.251 352.105 142.358 352.559 142.384 353.022C148.379 354.733 154.733 354.733 160.727 353.022C160.725 353.005 160.725 352.989 160.727 352.973C160.637 352.535 160.598 352.088 160.61 351.64C160.709 350.388 160.872 349.142 161.099 347.907C161.171 347.298 161.202 346.685 161.192 346.071V345.852C161.177 345.666 161.172 345.491 161.167 345.315ZM161.167 345.315C161.167 345.12 161.167 344.925 161.133 344.729C161.099 344.534 161.104 344.363 161.079 344.178C161.055 343.992 161.035 343.807 161.011 343.621C160.986 343.436 160.952 343.25 160.918 343.065C160.884 342.879 160.85 342.694 160.811 342.509C160.811 342.445 160.786 342.387 160.771 342.323C160.718 342.079 160.659 341.835 160.596 341.586C160.532 341.337 160.493 341.191 160.434 340.996C160.434 340.908 160.386 340.82 160.356 340.737C160.327 340.654 160.273 340.454 160.229 340.312L160.141 340.039C160.102 339.917 160.063 339.795 160.019 339.673C159.946 339.453 159.868 339.238 159.79 339.019C159.711 338.799 159.628 338.584 159.545 338.37C159.379 337.93 159.198 337.496 159.018 337.062C158.309 335.373 157.513 333.709 156.78 332.059C156.387 331.194 156.038 330.31 155.735 329.409L155.642 329.54C155.494 329.765 155.361 330 155.247 330.243C155.247 334.084 151.397 338.785 151.397 338.785L147.523 333.147L144.133 338.355C143.645 338.614 143.156 339.502 142.775 340.766C142.668 341.108 142.565 341.479 142.467 341.874C142.399 342.138 142.335 342.416 142.277 342.694C142.243 342.836 142.213 342.977 142.184 343.124L142.096 343.568V343.636C142.037 343.939 141.979 344.251 141.925 344.568C141.871 344.885 141.808 345.252 141.754 345.598C141.715 345.823 141.681 346.047 141.652 346.272C141.583 346.706 141.525 347.145 141.466 347.58C141.432 347.833 141.397 348.068 141.368 348.336L141.251 349.312C141.5 350.113 141.779 350.903 142.067 351.679C142.251 352.105 142.358 352.559 142.384 353.022C148.379 354.733 154.733 354.733 160.727 353.022C160.725 353.005 160.725 352.989 160.727 352.973C160.637 352.535 160.598 352.088 160.61 351.64C160.709 350.388 160.872 349.142 161.099 347.907C161.171 347.298 161.202 346.685 161.192 346.071V345.852C161.177 345.666 161.172 345.491 161.167 345.315Z" fill="#444176"/>
<path opacity="0.1" d="M147.591 332.82L147.263 332.776C146.769 332.709 146.28 332.612 145.798 332.483L145.617 332.435C144.425 332.098 143.121 331.493 142.828 330.429C142.74 330.086 142.751 329.726 142.857 329.389C143.021 328.808 143.244 328.246 143.521 327.71V327.681C143.558 327.605 143.599 327.532 143.644 327.461C144.047 326.674 144.656 326.011 145.407 325.543L144.821 325.636L139.858 326.441L132.164 327.681C132.164 327.681 130.796 327.408 128.935 332.532C128.935 332.596 128.891 332.654 128.871 332.723C128.422 333.977 127.948 335.544 127.46 337.501C127.122 338.858 126.815 340.19 126.531 341.483C126.448 341.874 126.365 342.26 126.287 342.64C127.168 343.677 128.116 344.656 129.125 345.569L129.287 345.72C131.263 347.509 133.448 349.054 135.793 350.322L135.886 350.371C137.362 351.166 138.897 351.845 140.478 352.402L140.893 352.548C140.981 351.645 141.079 350.645 141.196 349.62C141.196 349.517 141.196 349.415 141.235 349.312L141.352 348.336C141.382 348.087 141.416 347.848 141.45 347.579C141.509 347.145 141.567 346.706 141.636 346.271C141.665 346.047 141.699 345.822 141.738 345.598C141.792 345.251 141.851 344.905 141.909 344.568C141.968 344.231 142.022 343.938 142.08 343.636V343.568L142.168 343.123C142.198 342.977 142.227 342.835 142.261 342.694C142.32 342.416 142.383 342.137 142.452 341.874C142.549 341.479 142.652 341.108 142.759 340.766C143.15 339.502 143.604 338.614 144.117 338.355L147.508 333.147L147.649 332.928L147.713 332.83L147.591 332.82Z" fill="black"/>
<path opacity="0.1" d="M148.407 306.835C149.931 306.577 151.465 306.02 152.98 306.347C154.25 306.611 155.31 307.455 156.472 308.041C157.595 308.605 158.823 308.929 160.077 308.993C160.535 309.053 161 308.962 161.401 308.734C162.007 308.314 162.095 307.455 161.992 306.723C161.699 304.644 160.4 302.858 159.061 301.237C158.527 300.545 157.91 299.921 157.225 299.378C155.471 298.084 153.151 297.865 150.977 297.962C148.495 298.075 145.974 298.553 143.82 299.797C142.355 300.637 138.994 303.282 140.161 305.196C141.387 307.197 146.487 307.163 148.407 306.835Z" fill="black"/>
<path opacity="0.5" d="M148.407 306.347C149.931 306.089 151.465 305.532 152.98 305.859C154.25 306.123 155.31 306.967 156.472 307.553C157.595 308.117 158.823 308.441 160.077 308.505C160.535 308.565 161 308.474 161.401 308.246C162.007 307.826 162.095 306.967 161.992 306.235C161.699 304.156 160.4 302.37 159.061 300.749C158.527 300.057 157.91 299.432 157.225 298.89C155.471 297.596 153.151 297.377 150.977 297.474C148.495 297.586 145.974 298.065 143.82 299.309C142.355 300.149 138.994 302.794 140.161 304.707C141.387 306.709 146.487 306.674 148.407 306.347Z" fill="#444176"/>
</g>
<path d="M282.554 282.446H282.628C282.735 285.717 283.199 288.674 284.093 289.494C286.223 291.446 295.055 287.542 294.449 285.18C294.327 284.692 294.122 283.891 293.863 282.881C296.247 282.583 298.284 281.905 299.095 280.509L300.629 285.233L300.736 285.57H300.766H300.854C301.865 295.146 304.156 315.03 305.988 317.695C308.43 321.224 311.239 336.515 311.239 336.515L316.49 367.883C316.49 367.883 318.513 385.942 319.724 387.894C320.077 388.267 320.545 388.509 321.053 388.582C320.345 390.701 319.329 393.175 318.122 394.556C315.68 397.299 312.465 402.79 309.637 402.4C306.808 402.009 306.002 407.89 311.254 408.671C314.16 409.106 318.796 408.579 322.357 408.022C322.357 409.594 323.452 411.4 326.202 411.81C331.453 412.595 342.362 410.243 342.362 410.243C342.362 410.243 351.643 406.338 352.058 403.576C352.351 401.575 350.93 393.541 350.138 389.329C351.604 386.981 350.041 366.722 350.041 366.722L347.212 327.905C347.212 327.905 348.829 306.342 347.212 302.418C346.201 299.978 345.825 288.752 345.683 280.724L347.637 280.85C347.748 280.716 347.85 280.575 347.94 280.426L348.429 280.46C348.429 280.46 350.871 277.717 348.834 273.403C347.334 270.196 347.618 255.72 347.857 248.511L348.145 245.094C348.252 244.991 348.334 244.864 348.385 244.724C352.174 244.212 355.856 243.098 359.293 241.424C360.33 240.993 361.295 240.408 362.156 239.687C364.178 237.734 362.962 225.962 358.922 208.318C354.882 190.675 351.247 192.241 351.247 192.241C351.247 192.241 341.551 191.455 337.105 185.574C332.66 179.693 329.675 179.771 329.675 179.771C329.563 179 329.485 178.273 329.431 177.594C329.431 177.34 329.392 177.106 329.377 176.852C330.888 175.448 332.041 173.703 332.738 171.762C333.647 171.274 334.765 171.113 335.635 170.498C335.857 170.337 336.058 170.15 336.236 169.941C337.107 169.138 337.66 168.048 337.794 166.871C337.933 165.586 337.872 164.287 337.613 163.02C337.306 161.146 336.851 159.228 335.757 157.754C334.663 156.28 333.026 155.392 331.448 154.567C327.176 152.325 322.891 150.106 318.596 147.91C317.757 147.397 316.82 147.065 315.846 146.934C314.126 146.836 312.582 148.012 311.195 149.13C310.642 149.565 310.112 150.029 309.607 150.521C309.179 150.901 308.788 151.321 308.44 151.775C306.818 153.947 306.129 158.037 306.843 160.751C307.067 161.61 307.551 161.859 308.147 161.849C307.262 163.606 306.802 165.545 306.803 167.511C306.813 169.663 307.364 171.779 308.407 173.663C309.449 175.547 310.949 177.139 312.768 178.292C312.768 178.566 312.768 178.834 312.793 179.093C312.813 180.094 312.78 181.096 312.695 182.094C312.695 182.094 301.948 187.897 300.741 190.64C299.535 193.383 295.084 195.345 295.084 195.345C295.084 195.345 286.599 199.66 286.599 214.951L282.154 236.514L281.348 277.683C281.348 277.683 281.905 277.195 282.813 276.502C282.784 276.775 282.759 277.058 282.735 277.346C282.614 278.919 282.573 280.498 282.613 282.076L282.554 282.446ZM336.827 388.997C336.661 389.627 336.416 390.461 336.109 391.438C335.972 390.627 335.835 389.827 335.698 389.066C336.05 389.031 336.426 389.012 336.827 388.997Z" fill="url(#paint2_linear)"/>
<path d="M322.152 383.941C322.152 383.941 320.594 390.94 318.244 393.658C315.895 396.377 312.817 401.824 310.101 401.433C307.385 401.043 306.598 406.875 311.659 407.651C316.72 408.427 327.198 406.099 327.198 406.099C327.198 406.099 336.148 402.195 336.534 399.491C336.92 396.787 334.199 382.774 334.199 382.774L322.152 383.941Z" fill="#53526B"/>
<path opacity="0.05" d="M322.152 383.941C322.152 383.941 320.594 390.94 318.244 393.658C315.895 396.377 312.817 401.824 310.101 401.433C307.385 401.043 306.598 406.875 311.659 407.651C316.72 408.427 327.198 406.099 327.198 406.099C327.198 406.099 336.148 402.195 336.534 399.491C336.92 396.787 334.199 382.774 334.199 382.774L322.152 383.941Z" fill="black"/>
<path d="M336.548 387.05C336.548 387.05 334.99 394.049 332.64 396.767C330.29 399.486 327.198 404.933 324.487 404.542C321.776 404.152 320.984 409.984 326.045 410.76C331.106 411.536 341.609 409.203 341.609 409.203C341.609 409.203 350.558 405.299 350.944 402.595C351.33 399.891 348.609 385.878 348.609 385.878L336.548 387.05Z" fill="#53526B"/>
<path d="M301.141 280.548C301.141 280.548 304.253 313.976 306.588 317.475C308.923 320.975 311.644 336.134 311.644 336.134L316.7 367.229C316.7 367.229 318.654 385.112 319.812 387.055C320.969 388.997 335.409 388.163 335.409 388.163L326.431 285.209L301.141 280.548Z" fill="#5F5D7E"/>
<path opacity="0.05" d="M301.141 280.548C301.141 280.548 304.253 313.976 306.588 317.475C308.923 320.975 311.644 336.134 311.644 336.134L316.7 367.229C316.7 367.229 318.654 385.112 319.812 387.055C320.969 388.997 335.409 388.163 335.409 388.163L326.431 285.209L301.141 280.548Z" fill="black"/>
<path d="M294.918 264.603L295.935 267.829L301.43 285.258L301.538 285.59H301.567C302.305 285.756 317.878 289.333 321.239 290.431C321.42 290.487 321.598 290.554 321.771 290.631C323.33 291.408 325.274 319.393 325.274 319.393C325.274 319.393 326.441 345.827 327.228 347.77C328.014 349.712 331.136 389.744 333.066 388.582C334.995 387.421 349.015 388.582 349.015 388.582C350.573 387.025 349.015 366.038 349.015 366.038L346.25 327.564C346.25 327.564 347.809 306.186 346.25 302.296C344.692 298.406 344.692 272.368 344.692 272.368L312.846 267.394L309.769 266.906L294.918 264.603Z" fill="#5F5D7E"/>
<path opacity="0.02" d="M295.934 267.834L301.43 285.263L301.562 285.604C302.299 285.77 317.873 289.348 321.234 290.446H321.571L312.87 267.399L312.621 266.736L309.793 266.916L295.934 267.834Z" fill="black"/>
<path opacity="0.1" d="M332.269 186.868C332.269 186.868 317.873 202.418 308.923 189.586L300.365 195.419L301.923 204.36L296.862 271.992C296.862 271.992 310.091 271.602 319.426 274.711C322.026 275.632 324.835 275.792 327.524 275.172C330.212 274.552 332.666 273.178 334.599 271.211L333.06 211.745L336.563 193.476L332.269 186.868Z" fill="black"/>
<path d="M332.269 185.701C332.269 185.701 317.873 201.251 308.923 188.42L300.365 194.252L301.923 203.194L296.862 270.826C296.862 270.826 310.091 270.435 319.426 273.544C322.026 274.466 324.835 274.626 327.524 274.006C330.212 273.386 332.666 272.012 334.599 270.045L333.06 210.578L336.563 192.31L332.269 185.701Z" fill="#53526B"/>
<path d="M303.53 254.948V257.399H302.749V255.768H299.891V257.399H299.104V254.953L303.53 254.948Z" fill="#E82127"/>
<path d="M302.832 254.158H299.813C299.615 254.111 299.434 254.01 299.289 253.867C299.145 253.724 299.042 253.545 298.992 253.348H303.648C303.597 253.544 303.494 253.724 303.35 253.867C303.205 254.009 303.024 254.11 302.827 254.158" fill="#E82127"/>
<path d="M330.129 253.377C330.078 253.572 329.975 253.749 329.831 253.891C329.688 254.033 329.509 254.133 329.313 254.182H328.043L327.98 254.207V257.408H327.198V254.207L327.125 254.182H325.855C325.66 254.132 325.482 254.031 325.339 253.889C325.195 253.748 325.092 253.571 325.039 253.377H330.129Z" fill="#E82127"/>
<path d="M302.309 266.165C302.309 266.165 302.309 276.272 299.974 280.548C297.639 284.823 284.024 282.5 284.024 282.5L286.745 268.117L302.309 266.165Z" fill="#D6DBE6"/>
<path d="M285.505 289.494C287.557 291.446 296.061 287.542 295.475 285.219C295.065 283.574 293.629 277.688 292.813 274.349L292.246 272.002C292.246 272.002 287.264 270.445 285.505 272.002C284.865 272.568 284.416 274.798 284.205 277.492C283.844 282.173 284.21 288.254 285.505 289.494Z" fill="#FDC2CC"/>
<path d="M304.239 192.695L317.853 203.189C317.853 203.189 338.082 202.022 333.026 192.305C330.825 188.031 329.496 183.362 329.118 178.57C328.954 176.802 328.954 175.023 329.118 173.255C329.118 173.255 310.443 156.173 312.778 175.588C312.962 177.079 313.069 178.577 313.1 180.079C313.379 194.652 304.239 192.695 304.239 192.695Z" fill="#FDC2CC"/>
<path opacity="0.1" d="M312.816 175.593C313 177.083 313.108 178.582 313.139 180.083C315.234 181.47 317.694 182.207 320.207 182.202C323.69 182.202 326.255 178.814 328.57 176.564C328.312 173.338 329.152 173.26 329.152 173.26C329.152 173.26 310.481 156.158 312.816 175.593Z" fill="black"/>
<path d="M320.208 181.426C327.298 181.426 333.046 175.683 333.046 168.599C333.046 161.515 327.298 155.773 320.208 155.773C313.118 155.773 307.37 161.515 307.37 168.599C307.37 175.683 313.118 181.426 320.208 181.426Z" fill="#FDC2CC"/>
<path opacity="0.1" d="M329.348 180.84C329.348 180.84 331.487 181.035 335.766 186.863C340.046 192.69 349.381 193.471 349.381 193.471C349.381 193.471 352.884 191.914 356.772 209.407C360.661 226.899 361.828 238.559 359.884 240.502C357.94 242.444 350.158 245.173 346.25 245.173C346.25 245.173 345.082 269.659 347.026 273.935C348.971 278.21 346.636 280.934 346.636 280.934L329.538 279.767C329.538 279.767 323.7 272.382 322.533 259.556C321.365 246.729 317.477 210.188 319.421 205.912C321.365 201.637 329.924 190.753 329.538 189.586C329.152 188.42 329.348 180.84 329.348 180.84Z" fill="black"/>
<path d="M329.392 180.723C329.392 180.723 332.269 180.645 336.548 186.477C340.827 192.31 350.158 193.086 350.158 193.086C350.158 193.086 353.66 191.529 357.549 209.021C361.437 226.514 362.605 238.174 360.661 240.116C358.716 242.059 350.935 244.782 347.046 244.782C347.046 244.782 345.879 269.269 347.823 273.544C349.767 277.82 347.432 280.543 347.432 280.543L330.334 279.377C330.334 279.377 324.497 271.992 323.329 259.165C322.162 246.339 318.264 209.802 320.208 205.546C322.152 201.29 330.711 190.387 330.325 189.22C329.939 188.054 329.392 180.723 329.392 180.723Z" fill="#D6DBE6"/>
<path opacity="0.1" d="M284.21 277.488C286.071 276.067 289.583 273.856 292.817 274.344L292.251 271.997C292.251 271.997 287.268 270.44 285.509 271.997C284.86 272.563 284.415 274.789 284.21 277.488Z" fill="black"/>
<path opacity="0.1" d="M313.032 183.173C313.032 183.173 303.11 189.586 301.943 192.31C300.775 195.033 296.496 196.975 296.496 196.975C296.496 196.975 288.328 201.251 288.328 216.41L284.049 237.788L303.501 264.998C303.501 264.998 305.836 237.788 307.003 231.179C308.171 224.571 309.724 212.145 309.724 212.145C309.724 212.145 315.562 204.76 314.78 202.818C313.999 200.875 313.032 183.173 313.032 183.173Z" fill="black"/>
<path d="M313.032 183.056C313.032 183.056 302.685 188.81 301.523 191.529C300.36 194.247 296.076 196.195 296.076 196.195C296.076 196.195 287.908 200.47 287.908 215.63L283.629 237.007L282.852 277.82C282.852 277.82 289.857 271.211 294.913 274.32C299.969 277.429 303.081 264.212 303.081 264.212C303.081 264.212 305.416 237.002 306.583 230.394C307.751 223.785 309.304 211.359 309.304 211.359C309.304 211.359 315.142 203.974 314.36 202.032C313.579 200.089 313.032 183.056 313.032 183.056Z" fill="#D6DBE6"/>
<path opacity="0.1" d="M308.938 152.996C309.597 152.158 310.358 151.407 311.205 150.76C312.543 149.647 314.024 148.486 315.684 148.583C316.624 148.708 317.526 149.031 318.332 149.53C322.468 151.707 326.593 153.907 330.706 156.129C332.225 156.949 333.793 157.818 334.853 159.292C335.913 160.766 336.343 162.659 336.641 164.514C336.891 165.77 336.95 167.057 336.817 168.331C336.696 169.58 336.089 170.731 335.127 171.537C334.018 172.343 332.499 172.348 331.571 173.402C331.033 174.012 330.799 174.866 330.418 175.608C330.037 176.35 329.377 177.072 328.625 176.94C327.873 176.808 327.418 176.013 327.311 175.208C327.263 174.391 327.31 173.572 327.452 172.767C327.599 171.303 327.413 169.751 326.563 168.663C325.977 167.921 325.137 167.472 324.57 166.71C323.212 164.875 323.833 161.83 322.343 160.107C321.91 159.656 321.366 159.329 320.765 159.157C320.164 158.986 319.529 158.977 318.923 159.131C317.717 159.384 316.613 160.038 315.504 160.595C314.006 161.35 312.436 161.955 310.819 162.401C309.461 162.772 307.888 163.66 307.424 161.854C306.716 159.204 307.375 155.148 308.938 152.996Z" fill="black"/>
<path d="M309.329 152.61C309.987 151.773 310.749 151.022 311.595 150.375C312.934 149.262 314.414 148.1 316.075 148.198C317.014 148.323 317.917 148.646 318.722 149.145C322.855 151.322 326.289 149.262 331.096 155.743C332.122 157.13 334.183 157.432 335.243 158.906C336.304 160.38 336.733 162.274 337.031 164.129C337.281 165.385 337.34 166.671 337.207 167.945C337.086 169.194 336.479 170.346 335.517 171.152C334.408 171.957 332.889 171.962 331.961 173.016C331.423 173.626 331.189 174.48 330.808 175.222C330.427 175.964 329.767 176.687 329.015 176.555C328.263 176.423 327.809 175.627 327.701 174.822C327.653 174.006 327.701 173.187 327.843 172.382C327.989 170.918 327.804 169.366 326.954 168.277C326.367 167.535 325.527 167.086 324.961 166.325C323.603 164.49 324.223 161.444 322.733 159.721C322.3 159.271 321.756 158.943 321.155 158.772C320.554 158.6 319.919 158.591 319.313 158.745C318.107 158.999 317.003 159.653 315.894 160.209C314.396 160.964 312.827 161.569 311.209 162.015C309.851 162.386 308.278 163.274 307.814 161.469C307.101 158.818 307.765 154.758 309.329 152.61Z" fill="#865A61"/>
<path opacity="0.1" d="M344.393 211.935C344.393 211.935 349.581 225.152 345.688 230.594L337.129 228.641C337.129 228.641 344.911 230.974 343.744 226.309C342.576 221.643 344.393 211.935 344.393 211.935Z" fill="black"/>
<path opacity="0.1" d="M347.227 244.592C347.227 244.592 335.942 245.368 332.831 243.035C336.928 246.16 341.767 248.17 346.875 248.867L347.227 244.592Z" fill="black"/>
<path opacity="0.1" d="M298.616 219.7C298.616 219.7 292.779 237.583 293.17 240.302C293.56 243.02 294.337 272.954 294.337 272.954L295.505 272.563L295.114 239.911L298.616 219.7Z" fill="black"/>
<path d="M348.599 241.556L215.238 134.18C214.462 133.405 213.541 132.791 212.526 132.372C211.512 131.953 210.425 131.738 209.328 131.74H203.661C214.985 117.241 220.347 98.9731 218.655 80.6603C216.963 62.3475 208.343 45.3691 194.553 33.1871C180.764 21.0051 162.843 14.5369 144.444 15.1012C126.046 15.6655 108.556 23.22 95.5404 36.2242C82.5248 49.2284 74.9637 66.703 74.3988 85.0851C73.834 103.467 80.308 121.372 92.5007 135.15C104.693 148.927 121.687 157.539 140.016 159.23C158.345 160.921 176.629 155.563 191.141 144.249V149.906C191.139 151.003 191.354 152.089 191.773 153.102C192.192 154.115 192.807 155.036 193.583 155.812L326.944 263.187C327.716 263.965 328.635 264.582 329.646 265.003C330.658 265.425 331.744 265.642 332.84 265.642C333.937 265.642 335.022 265.425 336.034 265.003C337.046 264.582 337.964 263.965 338.736 263.187L348.565 253.377C350.133 251.811 351.017 249.689 351.024 247.474C351.03 245.258 350.158 243.131 348.599 241.556ZM146.619 131.74C137.813 131.74 129.205 129.131 121.884 124.243C114.562 119.356 108.855 112.408 105.486 104.28C102.116 96.152 101.234 87.208 102.952 78.5792C104.67 69.9504 108.91 62.0243 115.137 55.8033C121.363 49.5822 129.296 45.3457 137.933 43.6293C146.569 41.9129 155.521 42.7938 163.656 46.1606C171.792 49.5274 178.745 55.2289 183.637 62.544C188.529 69.8592 191.141 78.4595 191.141 87.2573C191.145 93.1006 189.997 98.8875 187.761 104.287C185.525 109.686 182.246 114.593 178.111 118.725C173.976 122.857 169.066 126.134 163.663 128.369C158.259 130.604 152.467 131.753 146.619 131.75V131.74Z" fill="url(#paint3_linear)"/>
<path d="M349.576 240.58L216.215 133.204C215.439 132.429 214.518 131.815 213.503 131.396C212.489 130.977 211.402 130.762 210.305 130.764H204.638C215.962 116.265 221.324 97.9969 219.632 79.6841C217.94 61.3713 209.32 44.3929 195.53 32.2109C181.741 20.0289 163.82 13.5607 145.422 14.125C127.023 14.6893 109.533 22.2438 96.5175 35.248C83.5018 48.2522 75.9407 65.7268 75.3759 84.1089C74.811 102.491 81.285 120.396 93.4778 134.174C105.671 147.951 122.664 156.563 140.993 158.254C159.322 159.945 177.606 154.587 192.118 143.273V148.93C192.116 150.026 192.331 151.112 192.75 152.126C193.169 153.139 193.784 154.06 194.56 154.836L327.921 262.211C328.693 262.989 329.612 263.606 330.624 264.027C331.635 264.449 332.721 264.665 333.817 264.665C334.914 264.665 335.999 264.449 337.011 264.027C338.023 263.606 338.941 262.989 339.713 262.211L349.542 252.401C351.11 250.835 351.994 248.713 352.001 246.497C352.007 244.282 351.135 242.155 349.576 240.58ZM147.596 130.764C138.79 130.764 130.182 128.155 122.861 123.267C115.539 118.379 109.832 111.432 106.463 103.304C103.093 95.1758 102.211 86.2318 103.929 77.603C105.647 68.9742 109.887 61.0481 116.114 54.8271C122.34 48.606 130.273 44.3695 138.91 42.6531C147.546 40.9367 156.498 41.8176 164.634 45.1844C172.769 48.5512 179.722 54.2527 184.614 61.5678C189.507 68.883 192.118 77.4833 192.118 86.2811C192.122 92.1244 190.974 97.9113 188.738 103.311C186.502 108.71 183.223 113.616 179.088 117.749C174.953 121.881 170.043 125.158 164.64 127.393C159.236 129.628 153.444 130.777 147.596 130.774V130.764Z" fill="#48A9A6"/>
<path d="M339.66 230.789C339.66 230.789 320.193 208.484 322.929 223.79C324.883 234.674 332.264 240.507 335.767 241.673C339.269 242.84 339.66 230.789 339.66 230.789Z" fill="#FDC2CC"/>
<path d="M344.33 210.188C344.33 210.188 344.72 224.571 346.665 226.514C348.609 228.456 345.497 230.789 345.497 230.789L337.715 228.837C337.715 228.837 339.669 241.663 331.492 240.111C331.492 240.111 336.939 245.163 342.385 245.944C347.832 246.725 347.441 244.777 347.441 244.777L355.609 235.06L344.33 210.188Z" fill="#D6DBE6"/>
<path d="M346.484 244.987L354.379 243.254L353.323 239.618L348.438 237.666L342.088 240.594L346.484 244.987Z" fill="#D6DBE6"/>
<path d="M152.466 104.716L162.974 96.6184C162.974 96.6184 155.934 98.1266 156.134 86.8863C156.132 86.8489 156.132 86.8114 156.134 86.774C156.134 85.7588 156.232 84.646 156.379 83.421C158.181 68.4226 143.771 81.62 143.771 81.62C143.895 82.9479 143.895 84.2845 143.771 85.6124C143.771 85.6466 143.771 85.6856 143.771 85.7198C143.486 89.4159 142.466 93.0181 140.771 96.3158C136.858 103.813 152.466 104.716 152.466 104.716Z" fill="#FDC2CC"/>
<path opacity="0.1" d="M145.114 83.5284C146.897 85.261 147.987 88.4091 150.669 88.4091C152.609 88.4133 154.507 87.8445 156.125 86.774C156.125 85.7589 156.223 84.6461 156.369 83.421C158.172 68.4226 143.761 81.62 143.761 81.62C143.761 81.62 145.305 81.088 145.114 83.5284Z" fill="black"/>
<path d="M150.669 87.921C156.14 87.921 160.575 83.4895 160.575 78.023C160.575 72.5564 156.14 68.1249 150.669 68.1249C145.197 68.1249 140.762 72.5564 140.762 78.023C140.762 83.4895 145.197 87.921 150.669 87.921Z" fill="#FDC2CC"/>
<path opacity="0.1" d="M160.17 65.3478C159.602 64.6303 158.946 63.9875 158.216 63.4345C157.073 62.4828 155.803 61.4822 154.382 61.5701C153.577 61.677 152.805 61.9532 152.115 62.3803C148.573 64.2447 145.637 62.4828 141.519 68.0273C140.64 69.2133 138.876 69.4915 137.968 70.7361C137.059 71.9806 136.693 73.6157 136.434 75.2068C136.22 76.2831 136.169 77.3854 136.283 78.4769C136.391 79.5481 136.918 80.5336 137.748 81.2198C138.696 81.908 140 81.9129 140.796 82.8158C141.197 83.404 141.525 84.0381 141.773 84.7047C142.096 85.3392 142.662 85.9395 143.307 85.8467C143.952 85.754 144.338 85.0561 144.431 84.3825C144.471 83.6855 144.43 82.9861 144.309 82.2985C144.186 81.0637 144.343 79.7166 145.071 78.7844C145.559 78.145 146.292 77.7643 146.776 77.1152C147.938 75.5484 147.411 72.9177 148.686 71.4633C149.058 71.0808 149.526 70.8038 150.041 70.6606C150.556 70.5175 151.1 70.5132 151.617 70.6482C152.643 70.9411 153.628 71.3642 154.548 71.9074C155.83 72.5542 157.173 73.0725 158.558 73.4546C159.721 73.7719 161.069 74.5333 161.465 72.9666C162.085 70.6629 161.504 67.1878 160.17 65.3478Z" fill="black"/>
<path d="M160.17 64.8597C159.602 64.1423 158.946 63.4995 158.216 62.9465C157.073 61.9948 155.803 60.9942 154.382 61.0821C153.577 61.189 152.805 61.4651 152.115 61.8923C148.573 63.7567 145.637 61.9948 141.519 67.5392C140.64 68.7252 138.876 69.0034 137.968 70.248C137.059 71.4926 136.693 73.1276 136.434 74.7187C136.22 75.7951 136.169 76.8974 136.283 77.9888C136.391 79.0601 136.918 80.0455 137.748 80.7318C138.696 81.42 140 81.4248 140.796 82.3278C141.197 82.9159 141.525 83.5501 141.773 84.2166C142.096 84.8511 142.662 85.4514 143.307 85.3587C143.952 85.266 144.338 84.568 144.431 83.8945C144.471 83.1974 144.43 82.498 144.309 81.8104C144.186 80.5756 144.343 79.2285 145.071 78.2963C145.559 77.6569 146.292 77.2762 146.776 76.6271C147.938 75.0604 147.411 72.4297 148.686 70.9752C149.058 70.5927 149.526 70.3158 150.041 70.1726C150.556 70.0294 151.1 70.0251 151.617 70.1602C152.643 70.453 153.628 70.8762 154.548 71.4194C155.83 72.0662 157.173 72.5845 158.558 72.9666C159.721 73.2838 161.069 74.0452 161.465 72.4785C162.085 70.1748 161.504 66.6998 160.17 64.8597Z" fill="#865A61"/>
<path opacity="0.1" d="M140.762 109.923L140.567 117.415C143.405 118.186 146.335 118.575 149.277 118.572C149.765 118.572 150.278 118.572 150.776 118.538C153.385 118.425 155.971 118.003 158.48 117.278H158.529C158.993 117.142 159.452 117 159.906 116.844H159.955L160.37 116.698C161.952 116.141 163.487 115.462 164.962 114.667L165.055 114.618C165.216 114.531 165.378 114.443 165.544 114.35L164.787 104.252L165.993 97.3261L159.389 92.831C159.018 93.3659 158.603 93.8688 158.148 94.3343C157.496 95.0146 156.733 95.5791 155.891 96.0035C151.152 98.3364 145.759 94.6271 143.077 92.3332L142.467 91.7914C141.773 91.1618 141.377 90.7323 141.377 90.7323L138.075 95.8278L140.762 109.923Z" fill="black"/>
<path d="M140.762 110.411L140.567 117.903C143.405 118.674 146.335 119.063 149.277 119.06C149.765 119.06 150.278 119.06 150.776 119.026C153.385 118.914 155.971 118.491 158.48 117.767H158.529C158.993 117.63 159.452 117.488 159.906 117.332H159.955L160.37 117.186C161.952 116.629 163.487 115.951 164.962 115.155L165.055 115.107C165.216 115.019 165.378 114.931 165.544 114.838L164.787 104.74L165.993 97.8143L159.389 93.3192C159.018 93.8541 158.603 94.3569 158.148 94.8224C157.496 95.5028 156.733 96.0672 155.891 96.4916C151.152 98.8246 145.759 95.1153 143.077 92.8213L142.467 92.2796C141.773 91.65 141.377 91.2205 141.377 91.2205L138.075 96.3159L140.762 110.411Z" fill="#53526B"/>
<path d="M159.071 111.012C159.071 111.012 159.432 113.886 159.906 117.322H159.955L160.37 117.176C161.951 116.62 163.487 115.941 164.962 115.146L165.055 115.097C165.216 115.009 165.377 114.921 165.543 114.828C167.709 113.614 169.731 112.16 171.571 110.494L171.733 110.343C172.742 109.43 173.69 108.452 174.571 107.415L174.673 107.292C172.93 101.245 169.3 99.3418 169.3 99.3418C169.3 99.3418 165.998 97.8386 165.094 95.7399C164.19 93.6412 156.213 89.2046 156.213 89.2046V89.2388C156.213 89.6146 156.086 93.0555 155.895 96.5159C155.773 98.7659 155.622 101.026 155.446 102.461C155.408 102.927 155.323 103.388 155.192 103.837C154.572 105.316 159.071 111.012 159.071 111.012Z" fill="#555388"/>
<defs>
<linearGradient id="paint0_linear" x1="251.226" y1="387.821" x2="251.226" y2="19.1763" gradientUnits="userSpaceOnUse">
<stop stop-color="#808080" stop-opacity="0.25"/>
<stop offset="0.54" stop-color="#808080" stop-opacity="0.12"/>
<stop offset="1" stop-color="#808080" stop-opacity="0.1"/>
</linearGradient>
<linearGradient id="paint1_linear" x1="18271.6" y1="30236" x2="18271.6" y2="23087.7" gradientUnits="userSpaceOnUse">
<stop stop-color="#808080" stop-opacity="0.25"/>
<stop offset="0.54" stop-color="#808080" stop-opacity="0.12"/>
<stop offset="1" stop-color="#808080" stop-opacity="0.1"/>
</linearGradient>
<linearGradient id="paint2_linear" x1="-85418.9" y1="230204" x2="-85418.9" y2="86285.7" gradientUnits="userSpaceOnUse">
<stop stop-color="#808080" stop-opacity="0.25"/>
<stop offset="0.54" stop-color="#808080" stop-opacity="0.12"/>
<stop offset="1" stop-color="#808080" stop-opacity="0.1"/>
</linearGradient>
<linearGradient id="paint3_linear" x1="132458" y1="142379" x2="132458" y2="13688.9" gradientUnits="userSpaceOnUse">
<stop stop-color="#808080" stop-opacity="0.25"/>
<stop offset="0.54" stop-color="#808080" stop-opacity="0.12"/>
<stop offset="1" stop-color="#808080" stop-opacity="0.1"/>
</linearGradient>
</defs>
</svg>
