<?xml version="1.0" encoding="UTF-8" standalone="no"?><!DOCTYPE svg PUBLIC "-//W3C//DTD SVG 1.1//EN" "http://www.w3.org/Graphics/SVG/1.1/DTD/svg11.dtd"><svg width="100%" height="100%" viewBox="0 0 492 492" version="1.1" xmlns="http://www.w3.org/2000/svg" xmlns:xlink="http://www.w3.org/1999/xlink" xml:space="preserve" xmlns:serif="http://www.serif.com/" style="fill-rule:evenodd;clip-rule:evenodd;stroke-linejoin:round;stroke-miterlimit:2;"><circle cx="245.76" cy="245.76" r="245.76" style="fill:#8ac8c6;"/><rect x="104.96" y="212.485" width="281.6" height="174.075" style="fill:#d5d6db;"/><rect x="141.824" y="173.215" width="207.867" height="213.345" style="fill:#ebf0f3;"/><rect x="299.131" y="244.106" width="37.53" height="37.53" style="fill:#e1e6e9;"/><rect x="301.921" y="246.938" width="31.908" height="31.908" style="fill:#27a2db;"/><rect x="137.969" y="173.215" width="215.603" height="11.843" style="fill:#e1e6e9;"/><rect x="198.083" y="297.37" width="95.355" height="89.206" style="fill:#d5d6db;"/><rect x="202.936" y="301.676" width="85.647" height="84.884" style="fill:#64798a;"/><rect x="244.05" y="301.676" width="3.425" height="84.884" style="fill:#2f4859;"/><rect x="192.051" y="104.96" width="107.423" height="68.25" style="fill:#ebf0f3;"/><path d="M266.532,132.554l-14.239,0l0,-14.241l-13.067,0l0,14.241l-14.238,0l0,13.066l14.238,0l0,14.239l13.067,0l0,-14.239l14.239,0l0,-13.066Z" style="fill:#e56353;fill-rule:nonzero;"/><rect x="154.865" y="197.238" width="37.53" height="37.53" style="fill:#e1e6e9;"/><rect x="157.691" y="200.038" width="31.908" height="31.908" style="fill:#27a2db;"/><rect x="202.941" y="197.238" width="37.53" height="37.53" style="fill:#e1e6e9;"/><rect x="205.773" y="200.038" width="31.908" height="31.908" style="fill:#27a2db;"/><rect x="251.018" y="197.238" width="37.53" height="37.53" style="fill:#e1e6e9;"/><rect x="253.844" y="200.038" width="31.908" height="31.908" style="fill:#27a2db;"/><rect x="299.095" y="197.238" width="37.53" height="37.53" style="fill:#e1e6e9;"/><rect x="301.921" y="200.038" width="31.908" height="31.908" style="fill:#27a2db;"/><rect x="154.9" y="244.101" width="37.53" height="37.53" style="fill:#e1e6e9;"/><rect x="157.691" y="246.938" width="31.908" height="31.908" style="fill:#27a2db;"/><g><path d="M169.724,231.955l-7.575,0l9.459,-31.906l7.575,0l-9.459,31.906Z" style="fill:#6ecaea;fill-rule:nonzero;"/><path d="M175.681,231.955l-2.455,0l9.459,-31.906l2.456,0l-9.46,31.906Z" style="fill:#6ecaea;fill-rule:nonzero;"/><path d="M217.8,231.955l-7.575,0l9.459,-31.906l7.576,0l-9.46,31.906Z" style="fill:#6ecaea;fill-rule:nonzero;"/><path d="M223.758,231.955l-2.456,0l9.46,-31.906l2.455,0l-9.459,31.906Z" style="fill:#6ecaea;fill-rule:nonzero;"/><path d="M265.877,231.955l-7.576,0l9.46,-31.906l7.575,0l-9.459,31.906Z" style="fill:#6ecaea;fill-rule:nonzero;"/><path d="M271.834,231.955l-2.455,0l9.459,-31.906l2.456,0l-9.46,31.906Z" style="fill:#6ecaea;fill-rule:nonzero;"/><path d="M313.953,231.955l-7.575,0l9.459,-31.906l7.576,0l-9.46,31.906Z" style="fill:#6ecaea;fill-rule:nonzero;"/><path d="M319.911,231.955l-2.456,0l9.46,-31.906l2.455,0l-9.459,31.906Z" style="fill:#6ecaea;fill-rule:nonzero;"/><path d="M169.724,278.819l-7.575,0l9.459,-31.905l7.575,0l-9.459,31.905Z" style="fill:#6ecaea;fill-rule:nonzero;"/><path d="M175.681,278.819l-2.455,0l9.459,-31.905l2.456,0l-9.46,31.905Z" style="fill:#6ecaea;fill-rule:nonzero;"/><path d="M313.953,278.819l-7.575,0l9.459,-31.905l7.576,0l-9.46,31.905Z" style="fill:#6ecaea;fill-rule:nonzero;"/><path d="M319.911,278.819l-2.456,0l9.46,-31.905l2.455,0l-9.459,31.905Z" style="fill:#6ecaea;fill-rule:nonzero;"/></g><rect x="202.977" y="244.122" width="37.53" height="37.53" style="fill:#e1e6e9;"/><rect x="205.773" y="246.938" width="31.908" height="31.908" style="fill:#27a2db;"/><rect x="251.054" y="244.101" width="37.53" height="37.53" style="fill:#e1e6e9;"/><rect x="253.844" y="246.938" width="31.908" height="31.908" style="fill:#27a2db;"/><g><path d="M217.8,278.819l-7.575,0l9.459,-31.905l7.576,0l-9.46,31.905Z" style="fill:#6ecaea;fill-rule:nonzero;"/><path d="M223.758,278.819l-2.456,0l9.46,-31.905l2.455,0l-9.459,31.905Z" style="fill:#6ecaea;fill-rule:nonzero;"/><path d="M265.877,278.819l-7.576,0l9.46,-31.905l7.575,0l-9.459,31.905Z" style="fill:#6ecaea;fill-rule:nonzero;"/><path d="M271.834,278.819l-2.455,0l9.459,-31.905l2.456,0l-9.46,31.905Z" style="fill:#6ecaea;fill-rule:nonzero;"/></g></svg>