<?xml version="1.0" encoding="UTF-8" standalone="no"?><!DOCTYPE svg PUBLIC "-//W3C//DTD SVG 1.1//EN" "http://www.w3.org/Graphics/SVG/1.1/DTD/svg11.dtd"><svg width="100%" height="100%" viewBox="0 0 1010 790" version="1.1" xmlns="http://www.w3.org/2000/svg" xmlns:xlink="http://www.w3.org/1999/xlink" xml:space="preserve" xmlns:serif="http://www.serif.com/" style="fill-rule:evenodd;clip-rule:evenodd;stroke-linejoin:round;stroke-miterlimit:2;"><g><ellipse cx="354.13" cy="741.27" rx="176.1" ry="33.36" style="fill:#3b9a95;fill-opacity:0.1;"/><path d="M586.55,111.4c-64.72,-2.24 -126.36,-23.14 -185.22,-46c-58.86,-22.86 -117.16,-48.18 -180.33,-60.29c-40.63,-7.79 -87.1,-8.9 -119.83,12.86c-31.51,21 -41.69,57.15 -47.16,90.72c-4.12,25.26 -6.54,51.85 4.74,75.5c7.84,16.42 21.74,30.22 31.36,45.95c33.47,54.72 9.81,122.2 -26.45,175.63c-17,25.06 -36.75,49 -49.88,75.65c-13.13,26.65 -19.2,57.29 -7.71,84.55c11.38,27 38.51,47.24 67.9,61.49c59.69,28.95 130,37.23 198.61,41.93c151.83,10.38 304.46,5.89 456.69,1.38c56.34,-1.66 112.92,-3.35 168.34,-12.06c30.78,-4.84 62.55,-12.52 84.9,-31.06c28.36,-23.53 35.39,-63.37 16.38,-92.87c-31.88,-49.5 -120,-61.79 -142.31,-114.9c-12.26,-29.24 0.33,-61.8 18.16,-88.91c38.24,-58.17 102.33,-109.2 105.7,-175.68c2.32,-45.66 -28.49,-91.39 -76.13,-113c-49.93,-22.65 -119.18,-19.8 -156,17.69c-37.95,38.56 -104.61,53.41 -161.76,51.42Z" style="fill:#3b9a95;fill-opacity:0.1;fill-rule:nonzero;"/><path d="M535.12,361.74l-30.63,-20.65l15.45,-23l-80.9,-6.45l-29.07,22.48l-36.39,-20.4l-30.35,3.65l-0.36,-8c-0.376,-8.34 -1.214,-16.653 -2.51,-24.9c0.13,-2.5 0.22,-5.37 0.21,-8.49c0,-13.15 -1.78,-30.58 -9.6,-42.2l1.8,-16.18l-14.6,-17.25c2.345,-4.67 5.018,-9.168 8,-13.46c0.5,-0.72 1,-1.42 1.54,-2.1c18.95,-1.37 33.9,-16.95 33.9,-36c0,-0.88 0,-1.76 -0.1,-2.63c0,-0.35 -0.07,-0.71 -0.11,-1.06c1.85,1 3.72,2 5.59,3c0.35,0.5 0.75,1 1.19,1.59l0.09,0.11l0.56,0.69l0.18,0.21c0.2,0.24 0.41,0.47 0.62,0.71l0.14,0.16c0.53,0.59 1.09,1.19 1.69,1.78c0.071,0.058 0.138,0.122 0.2,0.19l0.75,0.7l0.21,0.19c0.64,0.57 1.32,1.12 2,1.64l0.22,0.16l0.86,0.59l0.28,0.18c0.33,0.2 0.67,0.41 1,0.6l0.12,0.07c0.39,0.21 0.79,0.41 1.19,0.6l0.2,0.08c0.34,0.147 0.673,0.287 1,0.42l0.31,0.11c0.35,0.12 0.69,0.23 1.05,0.33l0.22,0.06c0.44,0.11 0.88,0.2 1.33,0.27l0.05,0c0.424,0.069 0.851,0.112 1.28,0.13l0.29,0c0.383,0.02 0.767,0.02 1.15,0l0.25,0c0.48,-0.028 0.957,-0.084 1.43,-0.17c2.237,-0.294 4.386,-1.065 6.3,-2.26c0.487,-0.326 0.919,-0.728 1.28,-1.19c2,-2.62 -0.2,-5.49 -0.2,-5.49c-0.78,-1.86 -5.84,-3.17 -5.84,-3.17c0,0 -16,-6.68 -16,-12c0,-5.32 -4,-32.92 -45.29,-39.23c0,0 -26.86,-1.51 -34.41,12.87l-0.16,1.68c-2.22,1.39 -4.06,4.18 -6.25,5c-0.946,0.203 -1.859,0.54 -2.71,1l0,-0.19c-0.253,0.221 -0.46,0.489 -0.61,0.79c-0.47,0.936 -0.752,1.955 -0.83,3c-0.225,1.276 -0.668,2.504 -1.31,3.63c-0.179,0.32 -0.379,0.627 -0.6,0.92l-0.17,0.27c1.161,0.09 2.327,-0.098 3.4,-0.55c-0.169,1.369 -0.505,2.712 -1,4c1.296,0.042 2.503,-0.679 3.08,-1.84l0,-0.08l0.13,-0.18c0.251,-0.463 0.459,-0.948 0.62,-1.45l-0.11,0.12c0.2,-0.65 0.38,-1.31 0.6,-1.95c0.101,-0.36 0.267,-0.699 0.49,-1c0.541,-0.545 1.31,-0.802 2.07,-0.69l-0.41,8.67l0.18,0c-0.241,0.631 -0.535,1.24 -0.88,1.82c-1.42,2.3 -4,3.87 -4.95,6.39c-0.41,1.215 -0.566,2.502 -0.46,3.78c0,0.75 0.09,1.51 0.15,2.26l0,-0.06c0.14,2 0.18,3.9 -0.9,5.51c-0.74,1.1 -1.93,1.93 -2.34,3.18c-0.113,0.348 -0.164,0.714 -0.15,1.08c0.08,1.096 0.309,2.176 0.68,3.21c0.004,-0.02 0.004,-0.04 0,-0.06c0.249,0.761 0.308,1.571 0.17,2.36c-0.45,2 -2.88,3.67 -2.76,5.58c-0.007,0.251 0.03,0.502 0.11,0.74c0.467,0.933 1.277,1.65 2.26,2c1.542,0.877 3.313,1.267 5.08,1.12c0.662,-0.12 1.303,-0.339 1.9,-0.65c-0.7,1.61 -1.42,3.2 -2.15,4.71c-0.11,0.24 -0.23,0.48 -0.35,0.72c0,0 -6.18,-4.13 -9.69,4.29c-1.025,1.75 -1.758,3.655 -2.17,5.64c-0.176,0.794 -0.424,1.571 -0.74,2.32c-1.558,2.638 -3.891,4.733 -6.68,6c-7.16,3.28 -36.08,39.35 -36.59,48.69c-0.25,3.646 -0.867,7.257 -1.84,10.78c-2.277,8.295 -2.861,16.964 -1.72,25.49c0.357,2.755 0.949,5.475 1.77,8.13c3.07,9.33 5.12,26.74 5.12,26.74l3.32,30.22c-0.123,4.171 0.057,8.345 0.54,12.49c-3.39,3.87 -17,20 -11.8,24.39c4,3.46 11,2.89 14.93,2.18c-3.31,8.19 -8.52,22.43 -9.21,32.21c-1,14.47 1.71,33.64 6,41c4.29,7.36 18.59,26.24 18.59,26.24c0,0 -0.67,25.9 4.44,35.31c5.11,9.41 7.17,28.93 7.17,28.93c0,0 4.77,16.48 2.38,22.54c-2.39,6.06 4.43,11.1 -2.73,15.13c-7.16,4.03 -16.32,94.86 -16.32,94.86c0,0 -3.69,59.53 0,62.56c0.197,0.144 0.408,0.267 0.63,0.37l0,20c0,0 -2.56,4.2 7.85,5.05c7.13,0.57 27.34,1.86 39.33,2.61l9.29,0.58c0,0 22,4.38 31.72,0c9.72,-4.38 26.95,-4.28 24.39,-15.85c-0.339,-1.575 -0.794,-3.122 -1.36,-4.63c-2.81,-7.18 -7.58,-8 -16.37,-10c-0.51,-0.11 -1,-0.21 -1.45,-0.29c-9.26,-1.61 -12.3,2.7 -17.49,-2.91c-4.51,-4.85 -18.87,-10.28 -23.76,-12c0.12,-0.36 0.27,-0.71 0.39,-1.08c-1.385,-0.235 -2.673,-0.863 -3.71,-1.81l13.25,0.84l7.89,0.49c0,0 18.7,3.73 27,0c8.3,-3.73 22.9,-3.63 20.72,-13.46c-0.287,-1.34 -0.672,-2.656 -1.15,-3.94c-2.39,-6.1 -6.45,-6.77 -13.92,-8.46c-0.43,-0.09 -0.83,-0.18 -1.23,-0.25c-7.87,-1.37 -10.45,2.29 -14.86,-2.47c-3.78,-4.06 -15.71,-8.61 -20,-10.16c0,-2.22 -3,-5.38 -4.89,-8.55c-2.22,-3.7 1.88,-16.65 1.88,-16.65l2.34,-53.73c0.891,-0.397 1.834,-0.666 2.8,-0.8c0.966,-0.134 10.58,-10.1 8.19,-20.86c-0.487,-3.254 -0.741,-6.539 -0.76,-9.83c3.48,-3.23 8.27,-8 9.63,-10.94c2.22,-4.79 0,-28 0,-28l0,-88.75l17.7,1.79l16.06,1.65l4.89,0.5l16.06,1.62l36.91,3.73l33.26,-6.3l14.39,-2.72l29.59,-5.6l0,-72.4l30.63,-5.06Zm-243.61,-239.91l-2.06,-0.22c0.68,0.03 1.4,0.16 2.06,0.22Z" style="fill:url(#_Linear1);fill-rule:nonzero;"/><path d="M463.33,408.75c-10,14.31 -45.95,6.73 -45.95,6.73l-27.86,-26.07l-3.75,-3.53l6.29,-13.36c0,0 2,0.55 5.43,1.53c18.01,5.23 74.28,22.67 65.84,34.7Z" style="fill:#efb7b9;fill-rule:nonzero;"/><path d="M397.47,374.05c-1.23,4.28 -4.6,10.69 -7.95,15.36l-3.75,-3.53l6.29,-13.36c0,0 2.02,0.55 5.41,1.53Z" style="fill-opacity:0.1;fill-rule:nonzero;"/><path d="M301.92,223.39c0,0 -25.68,11.39 -24.42,39.36c0.907,18.02 2.87,35.97 5.88,53.76c3.01,17.79 -5.25,42.09 16.61,52.94c21.86,10.85 42.09,19.77 42.09,19.77c0,0 34.2,3.68 38.45,5.2c4.25,1.52 17.53,-21.72 15.08,-25.34c-2.45,-3.62 -33.84,-11.21 -37.84,-17.25c-4,-6.04 -13.25,-9.77 -13.25,-9.77c0,0 -9.55,-5.78 -10.2,-11c-0.65,-5.22 1.87,-9.11 2.51,-11.4c0.64,-2.29 2.26,-24.4 2.26,-24.4c0,0 10.78,-78.7 -37.17,-71.87Z" style="fill:#dce6f2;fill-rule:nonzero;"/><path d="M318.87,315.36c0,0 -35.23,5.9 -31.82,18.23c0,0 12.79,-13.31 31.82,-18.23Z" style="fill-opacity:0.1;fill-rule:nonzero;"/><path d="M319.14,320.35c0,0 -19.37,15.81 -15.58,16.62c3.79,0.81 15.58,-16.62 15.58,-16.62Z" style="fill-opacity:0.1;fill-rule:nonzero;"/><path d="M328.45,325.86c0,0 -5.19,10.63 -2,9.91c3.19,-0.72 2,-9.91 2,-9.91Z" style="fill-opacity:0.1;fill-rule:nonzero;"/><path d="M398.77,375.18l-2.14,-0.61c0.61,-2 0.78,-3.62 0.28,-4.37c-2.45,-3.62 -33.82,-11.2 -37.81,-17.25c-3.99,-6.05 -13.25,-9.77 -13.25,-9.77c0,0 -9.55,-5.78 -10.2,-11c-0.65,-5.22 1.87,-9.11 2.51,-11.4c0.64,-2.29 2.26,-24.41 2.26,-24.41c0,0 10.75,-78.69 -37.2,-71.86c0,0 -25.68,11.4 -24.43,39.37c0.907,18.02 2.874,35.971 5.89,53.76c3.016,17.789 -5.25,42.09 16.61,52.94c21.86,10.85 42.09,19.77 42.09,19.77c0,0 34.19,3.67 38.45,5.2c1.61,0.58 4.52,-2.41 7.37,-6.52l1.62,1.51l27.86,26.06c0,0 35.95,7.59 45.95,-6.72c8.45,-12.04 -47.81,-29.48 -65.86,-34.7Z" style="fill-opacity:0.1;fill-rule:nonzero;"/><path d="M287.14,118.41c-0.979,0.191 -1.917,0.554 -2.77,1.07c-1,0.83 -1,2.25 -1.25,3.49c-0.294,1.725 -0.978,3.36 -2,4.78c1.138,0.083 2.279,-0.105 3.33,-0.55c-0.171,1.369 -0.507,2.712 -1,4c1.27,0.032 2.447,-0.686 3,-1.83c0.529,-1.127 0.948,-2.302 1.25,-3.51c0.094,-0.361 0.257,-0.701 0.48,-1c0.92,-1.09 2.63,-0.6 4.05,-0.46c2.403,0.203 4.736,-0.917 6.08,-2.92c1.51,-2.29 1.6,-8.15 -2,-8.77c-3.76,-0.62 -6.1,4.56 -9.17,5.7Z" style="fill:#965d7b;fill-rule:nonzero;"/><g opacity="0.1"><path d="M284.27,120.71c0.09,-0.49 0.15,-1 0.26,-1.49c-0.95,0.83 -1,2.24 -1.25,3.49c-0.126,0.721 -0.324,1.428 -0.59,2.11c0.787,-1.255 1.324,-2.651 1.58,-4.11Z" style="fill-rule:nonzero;"/><path d="M284.59,128.97c0.498,-1.287 0.834,-2.63 1,-4c-1.001,0.421 -2.085,0.61 -3.17,0.55c-0.316,0.703 -0.701,1.373 -1.15,2c1.134,0.088 2.272,-0.097 3.32,-0.54c-0.166,1.37 -0.502,2.713 -1,4c1.27,0.03 2.445,-0.687 3,-1.83c0.249,-0.455 0.45,-0.934 0.6,-1.43c-0.596,0.833 -1.578,1.305 -2.6,1.25Z" style="fill-rule:nonzero;"/><path d="M293.37,122.17c-1.42,-0.14 -3.14,-0.63 -4.06,0.46c-0.219,0.302 -0.382,0.64 -0.48,1c-0.09,0.26 -0.17,0.53 -0.24,0.8c0.95,-0.75 2.49,-0.35 3.78,-0.22c2.402,0.196 4.731,-0.922 6.08,-2.92c0.303,-0.486 0.529,-1.015 0.67,-1.57c-1.389,1.72 -3.547,2.639 -5.75,2.45Z" style="fill-rule:nonzero;"/></g><path d="M317.24,201l15.25,18.34l-1.99,18.51l-18.43,-28.85l5.17,-8Z" style="fill:#dce6f2;fill-rule:nonzero;"/><path d="M332.48,219.34l-1.87,17.41l-0.12,1.1l-16.63,-26.04l-1.79,-2.81l0.52,-0.81l4.64,-7.19l1.03,1.24l14.22,17.1Z" style="fill-opacity:0.1;fill-rule:nonzero;"/><path d="M340.4,176.17c-5.16,1.48 -10.09,6.56 -14.38,12.73c-2.9,4.257 -5.493,8.715 -7.76,13.34c-1.41,2.82 -2.65,5.53 -3.68,7.89l-0.72,1.68c-1.74,4.11 -2.71,6.86 -2.71,6.86c0,0 -39.5,-29.7 -33.25,-31.7c2.1,-0.67 4.86,-5.17 7.59,-10.84l0.34,-0.72c1.73,-3.64 3.43,-7.7 4.94,-11.52c3.09,-7.85 5.38,-14.67 5.38,-14.67c0,0 60,22.45 44.25,26.95Z" style="fill:#efb7b9;fill-rule:nonzero;"/><path d="M364.03,147.55c0,0 9.12,16.5 21.37,14.25c12.25,-2.25 7.21,-8.86 7.21,-8.86l-28.58,-5.39Z" style="fill:#444053;fill-rule:nonzero;"/><path d="M346.36,718.7c-8.08,3.69 -26.35,0 -26.35,0l-7.7,-0.48c-10,-0.64 -26.74,-1.72 -32.66,-2.2c-8.64,-0.71 -6.52,-4.25 -6.52,-4.25l0,-21.39l41.92,-10.62c0,0 16.57,5.67 21.11,10.62c4.31,4.72 6.83,1.09 14.52,2.45c0.38,0.07 0.78,0.15 1.2,0.25c7.3,1.67 11.26,2.33 13.6,8.38c0.47,1.271 0.848,2.574 1.13,3.9c2.16,9.74 -12.18,9.67 -20.25,13.34Z" style="fill:#a36468;fill-rule:nonzero;"/><path d="M365.48,701.46c-1.502,0.939 -3.081,1.748 -4.72,2.42c-5.5,2.51 -10.73,5.57 -16.29,7.94c-5.56,2.37 -11.55,4.06 -17.57,3.61c-3.15,-0.23 -6.37,-1 -9.38,-0.1c-1.861,0.719 -3.615,1.691 -5.21,2.89c-10,-0.64 -26.74,-1.72 -32.66,-2.2c-8.64,-0.71 -6.52,-4.25 -6.52,-4.25l0,-2.5c0.31,0 0.66,-0.09 1.06,-0.12c2.069,-0.033 4.13,0.274 6.1,0.91c4.34,1.18 8.66,2.34 13,3.5c0.721,-2.721 2.53,-5.029 5,-6.38c2.477,-1.315 5.258,-1.953 8.06,-1.85c6.73,0.09 13.1,3.28 19.82,3.6c1.879,0.173 3.77,-0.144 5.49,-0.92c0.92,-0.46 1.73,-1.13 2.63,-1.64c1.44,-0.697 2.962,-1.211 4.53,-1.53c4.407,-1.097 8.734,-2.494 12.95,-4.18c1.2,-0.47 2.6,-1.32 2.44,-2.6c-0.21,-1.7 -2.88,-1.9 -3.58,-3.46c-0.25,-0.57 -0.221,-1.225 0.08,-1.77c0.38,0.07 0.78,0.15 1.2,0.25c7.27,1.67 11.23,2.33 13.57,8.38Z" style="fill-opacity:0.1;fill-rule:nonzero;"/><path d="M337.82,765.5c-9.5,4.34 -31,0 -31,0l-9.05,-0.53c-11.72,-0.75 -31.46,-2 -38.43,-2.59c-10.17,-0.84 -7.67,-5 -7.67,-5l0,-25.21l49.33,-12.5c0,0 19.5,6.67 24.84,12.5c5.07,5.55 8,1.28 17.09,2.88c0.45,0.08 0.92,0.18 1.41,0.29c8.59,2 13.25,2.75 16,9.87c0.557,1.495 1.001,3.029 1.33,4.59c2.48,11.46 -14.35,11.37 -23.85,15.7Z" style="fill:#a36468;fill-rule:nonzero;"/><path d="M360.32,745.21c-1.767,1.104 -3.624,2.057 -5.55,2.85c-6.47,2.95 -12.63,6.55 -19.17,9.34c-6.54,2.79 -13.59,4.77 -20.68,4.25c-3.7,-0.27 -7.49,-1.2 -11,-0.12c-2.199,0.857 -4.269,2.014 -6.15,3.44c-11.72,-0.75 -31.46,-2 -38.43,-2.59c-10.17,-0.84 -7.67,-5 -7.67,-5l0,-2.94c0.414,-0.068 0.831,-0.114 1.25,-0.14c2.436,-0.044 4.863,0.317 7.18,1.07l15.29,4.12c0.86,-3.21 3.007,-5.929 5.93,-7.51c2.914,-1.554 6.19,-2.306 9.49,-2.18c7.92,0.11 15.41,3.86 23.32,4.24c2.203,0.201 4.421,-0.168 6.44,-1.07c1.09,-0.55 2,-1.34 3.1,-1.93c1.691,-0.828 3.483,-1.433 5.33,-1.8c5.157,-1.301 10.222,-2.945 15.16,-4.92c1.41,-0.56 3.06,-1.56 2.87,-3.06c-0.25,-2 -3.39,-2.24 -4.22,-4.08c-0.283,-0.672 -0.246,-1.438 0.1,-2.08c0.45,0.08 0.92,0.18 1.41,0.29c8.59,1.92 13.25,2.7 16,9.82Z" style="fill-opacity:0.1;fill-rule:nonzero;"/><path d="M316.32,592.51l-2.67,62.83c0,0 -4,12.83 -1.83,16.5c2.17,3.67 5.83,7.33 4.5,9.5c-1.33,2.17 -17.33,25.63 -22.5,16.63c-5.17,-9 -10.27,-48 -10.27,-48l4.77,-48.17l28,-9.29Z" style="fill:#444053;fill-rule:nonzero;"/><path d="M327.9,435.97l7.42,9.92l0,86.28c0,0 2.17,23 0,27.75c-2.17,4.75 -13.17,14.25 -13.17,14.25l-9.25,-47.5l2,-50.25l13,-40.45Z" style="fill:#444053;fill-rule:nonzero;"/><path d="M316.32,592.51l-2.67,62.83c0,0 -4,12.83 -1.83,16.5c2.17,3.67 5.83,7.33 4.5,9.5c-1.33,2.17 -17.33,25.63 -22.5,16.63c-5.17,-9 -10.27,-48 -10.27,-48l4.77,-48.17l28,-9.29Z" style="fill-opacity:0.1;fill-rule:nonzero;"/><path d="M327.9,435.97l7.42,9.92l0,86.28c0,0 2.17,23 0,27.75c-2.17,4.75 -13.17,14.25 -13.17,14.25l-9.25,-47.5l2,-50.25l13,-40.45Z" style="fill-opacity:0.1;fill-rule:nonzero;"/><path d="M335.32,399.17l0,46.67l-8.33,36.33c0,0 -2.67,87.67 -0.34,98.33c2.33,10.66 -8,20.67 -8,20.67c0,0 -6,0.67 -6,5.33c0,4.66 -10,18 -10,18l0.33,26c0,0 4.34,48.67 -2.33,58c-6.67,9.33 2.33,10.67 2.33,10.67c-8.33,27.33 -48.33,21 -51.94,18c-3.61,-3 0,-62 0,-62c0,0 8.94,-90 15.94,-94c7,-4 0.34,-9 2.67,-15c2.33,-6 -2.33,-22.33 -2.33,-22.33c0,0 -2,-19.34 -7,-28.67c-5,-9.33 -4.34,-35 -4.34,-35c0,0 -14,-18.67 -18.16,-26c-4.16,-7.33 -6.84,-26.33 -5.84,-40.67c0.68,-9.69 5.77,-23.8 9,-31.92c1.55,-3.89 2.67,-6.41 2.67,-6.41l0.95,0.25l54.62,14.3l36.1,9.45Z" style="fill:#444053;fill-rule:nonzero;"/><path d="M340.4,176.17c-5.16,1.48 -10.09,6.56 -14.38,12.73l-1.12,0c-12.783,0.009 -24.633,-6.845 -31,-17.93c-1.309,-2.259 -2.362,-4.658 -3.14,-7.15c3.09,-7.85 5.38,-14.67 5.38,-14.67c0,0 60.01,22.52 44.26,27.02Z" style="fill-opacity:0.1;fill-rule:nonzero;"/><path d="M360.65,151.17c0,0.019 0,0.039 0,0.058c0,19.612 -16.138,35.75 -35.75,35.75c-19.612,0 -35.75,-16.138 -35.75,-35.75c0,-6.159 1.592,-12.215 4.62,-17.578c1.084,-1.936 2.349,-3.764 3.78,-5.46c2.358,-2.809 5.13,-5.244 8.22,-7.22c5.731,-3.642 12.383,-5.577 19.174,-5.577c18.635,0 34.304,14.571 35.656,33.157c0.02,0.88 0.05,1.75 0.05,2.62Z" style="fill:#efb7b9;fill-rule:nonzero;"/><path d="M330.61,236.75l-0.12,1.1l-16.63,-26c-1.74,4.11 -2.71,6.86 -2.71,6.86c0,0 -39.5,-29.74 -33.25,-31.74c2.1,-0.67 4.86,-5.17 7.59,-10.84l0.34,-0.72c2.9,8.64 19.75,25.91 26.76,32.83c0.81,0.8 1.48,1.46 2,1.94l1.07,1l0.56,0.56c2.55,2.63 13.31,14.23 14.39,25.01Z" style="fill-opacity:0.1;fill-rule:nonzero;"/><path d="M343.04,324.97l-1.82,58.57l-0.32,10.43c0,0 -21.56,-2 -41.68,-4.2c-16.2,-1.77 -31.47,-3.68 -33.82,-4.8c-3,-1.41 -9.43,-2.5 -14.5,-3.19c-3.92,-0.53 -7,-0.81 -7,-0.81c0,0 -1.15,0.34 -2.92,0.66c-3.86,0.7 -10.64,1.27 -14.59,-2.16c-5.05,-4.39 8.22,-20.34 11.53,-24.17l0.73,-0.83l-1.25,-11.55l-3.25,-29.95c0,0 -2,-17.25 -5,-26.5c-0.802,-2.63 -1.381,-5.323 -1.73,-8.05c-1.115,-8.448 -0.544,-17.034 1.68,-25.26c0.95,-3.495 1.553,-7.076 1.8,-10.69c0.5,-9.25 28.75,-45 35.75,-48.25c3.148,-1.468 5.683,-3.996 7.16,-7.14c0.488,-0.989 0.854,-2.033 1.09,-3.11c3,-13 10.59,-7.84 10.59,-7.84c1.83,10.17 30.16,37.09 30.16,37.09l0.56,0.56c2.81,2.88 15.33,16.4 14.44,27.94c-0.178,4.295 0.464,8.585 1.89,12.64c5.762,18.145 9.075,36.978 9.85,56l0.65,14.61Z" style="fill:#dce6f2;fill-rule:nonzero;"/><path d="M302.9,255.42c0,0 -7,17 -12.25,19.75c-5.25,2.75 14.75,5.8 12.25,-19.75Z" style="fill-opacity:0.1;fill-rule:nonzero;"/><path d="M308.15,287.17c0,0 -16,2 -16,5c0,3 16,-5 16,-5Z" style="fill-opacity:0.1;fill-rule:nonzero;"/><path d="M324.9,306.67c0,0 -23.25,49.5 -29.75,51c-6.5,1.5 29.75,-51 29.75,-51Z" style="fill-opacity:0.1;fill-rule:nonzero;"/><path d="M315.21,215.73l-19.23,8.36l-23.21,-35.06c0.488,-0.989 0.854,-2.033 1.09,-3.11c3,-13 10.59,-7.84 10.59,-7.84c1.83,10.17 30.16,37.09 30.16,37.09l0.6,0.56Z" style="fill-opacity:0.1;fill-rule:nonzero;"/><path d="M316.21,213.73l-19.23,8.36l-23.21,-35.06c0.488,-0.989 0.854,-2.033 1.09,-3.11c3,-13 10.59,-7.84 10.59,-7.84c1.83,10.17 30.16,37.09 30.16,37.09l0.6,0.56Z" style="fill:#dce6f2;fill-rule:nonzero;"/><path d="M340.9,393.97c0,0 -21.56,-2 -41.68,-4.2l36.1,9.45l0,11c-1.58,1.43 -2.95,2.17 -3.84,1.79c-4.16,-1.75 -38.11,-7.25 -38.11,-7.25c0,0 -19.72,-10 -41,-22c-0.517,-0.286 -1.017,-0.6 -1.5,-0.94c-2.481,-1.685 -4.619,-3.826 -6.3,-6.31c-3.93,-5.69 -5.85,-13 -6.68,-20.17c-0.467,-4.109 -0.64,-8.246 -0.52,-12.38c0.103,-4.687 0.531,-9.362 1.28,-13.99c-2.058,-17.926 -3.06,-35.957 -3,-54c0.25,-28 26.5,-38 26.5,-38c48.25,-4.25 33.29,73.75 33.29,73.75c0,0 -2.79,22 -3.55,24.25c-0.76,2.25 -3.49,6 -3.12,11.25c0.37,5.25 9.59,11.53 9.59,11.53c0,0 9,4.22 12.71,10.47c2.7,4.61 20.24,10.86 30.15,15.32l-0.32,10.43Z" style="fill-opacity:0.1;fill-rule:nonzero;"/><path d="M357.06,128.97c0.018,1.647 -0.323,3.278 -1,4.78c-0.513,1.225 -1.107,2.415 -1.78,3.56c-1.052,2.107 -2.546,3.962 -4.38,5.44c-2.31,1.65 -5.23,2.11 -8,2.78c-2.77,0.67 -5.65,1.74 -7.23,4.1c-0.856,1.517 -1.429,3.178 -1.69,4.9c-0.265,1.721 -0.952,3.35 -2,4.74c-1.119,1.392 -3.052,1.855 -4.68,1.12c-0.836,-0.564 -1.471,-1.38 -1.81,-2.33c-1.14,-2.57 -1.43,-5.42 -1.89,-8.19c-0.46,-2.77 -1.11,-5.62 -2.81,-7.85c-1.7,-2.23 -4.71,-3.7 -7.38,-2.83c-1.805,0.695 -3.25,2.097 -4,3.88c-0.739,1.767 -1.246,3.623 -1.51,5.52c-1.24,6.787 -2.703,13.533 -4.39,20.24c-0.051,0.275 -0.164,0.535 -0.33,0.76c-0.266,0.265 -0.625,0.416 -1,0.42c-2.24,0.3 -4.39,-1.27 -6.65,-1.1c-0.233,0.016 -0.464,0.052 -0.69,0.11c-7.467,-12.978 -6.02,-29.335 3.61,-40.8l0.18,-0.05c1.503,-0.534 2.87,-1.394 4,-2.52c1.444,-1.445 2.78,-2.992 4,-4.63l0.8,-1c2.299,-2.769 4.917,-5.256 7.8,-7.41c0.787,-0.645 1.69,-1.134 2.66,-1.44c0.83,-0.162 1.681,-0.189 2.52,-0.08c3.453,0.415 6.935,0.545 10.41,0.39c2.421,-0.381 4.862,-0.628 7.31,-0.74c6.33,0.18 11.73,4.65 15.73,9.55c2.15,2.51 4.07,5.4 4.2,8.68Z" style="fill-opacity:0.1;fill-rule:nonzero;"/><path d="M289.1,134.6c-1.39,2.28 -3.9,3.83 -4.84,6.33c-1.38,3.63 0.95,8.15 -1.19,11.39c-0.71,1.09 -1.88,1.9 -2.28,3.15c-0.68,2.11 1.18,4.36 0.7,6.53c-0.48,2.17 -3.34,4 -2.58,6.12c0.449,0.924 1.237,1.641 2.2,2c1.515,0.869 3.26,1.256 5,1.11c2.73,-0.45 4.76,-3.13 7.53,-3.33c2.25,-0.16 4.4,1.4 6.64,1.11c0.375,-0.013 0.732,-0.167 1,-0.43c0.17,-0.223 0.283,-0.484 0.33,-0.76c1.68,-6.7 3.147,-13.447 4.4,-20.24c0.255,-1.898 0.76,-3.754 1.5,-5.52c0.755,-1.779 2.199,-3.179 4,-3.88c2.67,-0.86 5.67,0.6 7.38,2.83c1.71,2.23 2.36,5.08 2.82,7.85c0.46,2.77 0.75,5.62 1.88,8.19c0.343,0.953 0.981,1.773 1.82,2.34c1.5,0.87 3.52,0.18 4.67,-1.12c1.053,-1.391 1.741,-3.024 2,-4.75c0.261,-1.719 0.834,-3.377 1.69,-4.89c1.58,-2.36 4.47,-3.43 7.23,-4.1c2.76,-0.67 5.67,-1.14 8,-2.79c1.831,-1.476 3.325,-3.328 4.38,-5.43c1.48,-2.58 2.86,-5.38 2.74,-8.35c-0.13,-3.24 -2.05,-6.13 -4.1,-8.65c-4,-4.9 -9.41,-9.37 -15.74,-9.54c-2.449,0.102 -4.89,0.35 -7.31,0.74c-3.475,0.156 -6.957,0.022 -10.41,-0.4c-0.84,-0.1 -1.69,-0.07 -2.52,0.09c-0.971,0.297 -1.873,0.786 -2.65,1.44c-2.886,2.15 -5.508,4.634 -7.81,7.4c-1.485,1.968 -3.095,3.839 -4.82,5.6c-1.131,1.127 -2.497,1.991 -4,2.53c-1,0.28 -2,0.08 -2.95,0.39c-2.95,0.93 -3.34,4.78 -4.71,7.04Z" style="fill:#965d7b;fill-rule:nonzero;"/><path d="M385.4,161.79c-8,1.47 -14.63,-5 -18.3,-9.72c-1.127,-1.433 -2.153,-2.944 -3.07,-4.52l27.46,5.18l1.11,0.21c0,0 5.05,6.61 -7.2,8.85Z" style="fill-opacity:0.1;fill-rule:nonzero;"/><g opacity="0.1"><path d="M281.49,159.14c0.112,-1.308 -0.087,-2.624 -0.58,-3.84c0,0.1 -0.09,0.2 -0.12,0.3c-0.43,1.34 0.15,2.73 0.52,4.12c0.079,-0.187 0.14,-0.381 0.18,-0.58Z" style="fill-rule:nonzero;"/><path d="M283.87,142.77c-0.103,1.383 -0.076,2.772 0.08,4.15c0.103,-1.383 0.076,-2.772 -0.08,-4.15Z" style="fill-rule:nonzero;"/><path d="M353.32,133.42c-1.052,2.107 -2.546,3.962 -4.38,5.44c-2.31,1.65 -5.22,2.11 -8,2.78c-2.78,0.67 -5.65,1.74 -7.23,4.1c-0.855,1.518 -1.427,3.178 -1.69,4.9c-0.26,1.725 -0.948,3.358 -2,4.75c-1.15,1.3 -3.17,2 -4.67,1.12c-0.839,-0.567 -1.477,-1.387 -1.82,-2.34c-1.13,-2.57 -1.43,-5.41 -1.88,-8.19c-0.45,-2.78 -1.12,-5.62 -2.82,-7.85c-1.7,-2.23 -4.71,-3.7 -7.38,-2.83c-1.803,0.698 -3.248,2.099 -4,3.88c-0.74,1.766 -1.245,3.622 -1.5,5.52c-1.247,6.793 -2.713,13.54 -4.4,20.24c-0.047,0.276 -0.16,0.537 -0.33,0.76c-0.268,0.263 -0.625,0.417 -1,0.43c-2.24,0.29 -4.39,-1.27 -6.64,-1.11c-2.77,0.2 -4.8,2.88 -7.53,3.32c-1.741,0.156 -3.489,-0.232 -5,-1.11c-0.695,-0.299 -1.319,-0.742 -1.83,-1.3c-0.474,0.678 -0.61,1.538 -0.37,2.33c0.44,0.931 1.232,1.65 2.2,2c1.511,0.878 3.259,1.266 5,1.11c2.73,-0.44 4.76,-3.12 7.53,-3.32c2.25,-0.16 4.4,1.4 6.64,1.11c0.375,-0.013 0.732,-0.167 1,-0.43c0.17,-0.223 0.283,-0.484 0.33,-0.76c1.68,-6.667 3.147,-13.413 4.4,-20.24c0.255,-1.898 0.76,-3.754 1.5,-5.52c0.752,-1.781 2.197,-3.182 4,-3.88c2.67,-0.87 5.67,0.6 7.38,2.83c1.71,2.23 2.36,5.08 2.82,7.85c0.46,2.77 0.75,5.62 1.88,8.19c0.343,0.953 0.981,1.773 1.82,2.34c1.5,0.87 3.52,0.18 4.67,-1.12c1.052,-1.392 1.74,-3.025 2,-4.75c0.263,-1.722 0.835,-3.382 1.69,-4.9c1.58,-2.36 4.47,-3.42 7.23,-4.1c2.76,-0.68 5.67,-1.13 8,-2.78c1.834,-1.478 3.328,-3.333 4.38,-5.44c1.48,-2.57 2.86,-5.37 2.74,-8.34c-0.02,-0.382 -0.06,-0.762 -0.12,-1.14c-0.482,2.289 -1.37,4.473 -2.62,6.45Z" style="fill-rule:nonzero;"/></g><path d="M356.1,133.72c2.564,4.559 4.084,9.632 4.45,14.85c-8.91,-5 -17.29,-10.49 -21.52,-12.4c-7.37,-3.33 -34.93,-2.83 -45.29,-2.52c1.084,-1.936 2.349,-3.764 3.78,-5.46c2.367,-2.812 5.149,-5.246 8.25,-7.22c5.731,-3.637 12.38,-5.569 19.167,-5.569c12.933,0 24.896,7.014 31.213,18.299l-0.05,0.02Z" style="fill-opacity:0.1;fill-rule:nonzero;"/><path d="M387.9,157.55c-4.81,1.48 -12.66,-1.38 -20.8,-5.48c-1.127,-1.433 -2.153,-2.944 -3.07,-4.52l27.46,5.18c1.82,1.24 2.28,3.01 -3.59,4.82Z" style="fill-opacity:0.1;fill-rule:nonzero;"/><path d="M327.03,99.05c0,0 -26.25,-1.5 -33.63,12.75l-1.19,12.63l-2,-0.22l-0.4,8.59c0,0 40.12,-1.75 49.25,2.37c9.13,4.12 37.5,24.88 48.87,21.38c11.37,-3.5 -1,-6.75 -1,-6.75c0,0 -15.65,-6.63 -15.65,-11.83c0,-5.2 -3.88,-32.67 -44.25,-38.92Z" style="fill:#444053;fill-rule:nonzero;"/><path d="M276.4,567.25c0,0 16.75,16.25 24,15c0,0 -20.5,-1.75 -24,-15Z" style="fill-opacity:0.1;fill-rule:nonzero;"/><path d="M272.9,574.78c0,0 1.5,8.36 5.5,7.54c4,-0.82 -5.5,-7.54 -5.5,-7.54Z" style="fill-opacity:0.1;fill-rule:nonzero;"/><path d="M299.15,714.5c0,0 -23.78,18.5 -19.77,19c4.01,0.5 19.77,-19 19.77,-19Z" style="fill-opacity:0.1;fill-rule:nonzero;"/><path d="M330.96,347.33l77,-12.53l0,72.9l-73.16,-3.83l-3.84,-56.54Z" style="fill:#3b9a95;fill-rule:nonzero;"/><path d="M330.96,347.33l77,-12.53l0,72.9l-73.16,-3.83l-3.84,-56.54Z" style="fill-opacity:0.05;fill-rule:nonzero;"/><path d="M407.96,334.8l92.34,6.91l-5.11,63.44l-87.23,2.55l0,-72.9Z" style="fill:#3b9a95;fill-rule:nonzero;"/><path d="M407.96,334.8l92.34,6.91l-5.11,63.44l-87.23,2.55l0,-72.9Z" style="fill-opacity:0.1;fill-rule:nonzero;"/><path d="M436.35,312.55l-28.39,22.25l92.34,6.91l15.09,-22.77l-79.04,-6.39Z" style="fill:#3b9a95;fill-rule:nonzero;"/><path d="M303.08,323.03l69.32,-8.44l35.56,20.21l-77,12.53l-27.88,-24.3Z" style="fill:#3b9a95;fill-rule:nonzero;"/><path d="M424.84,353.73l0,99.67l-36.07,-3.7l-15.69,-1.6l-4.78,-0.5l-15.68,-1.61l-21.66,-2.22l0,-96.44l76.99,5.24l16.89,1.16Z" style="fill:#3b9a95;fill-rule:nonzero;"/><path d="M500.3,341.71l0,97.2l-28.91,5.55l-14.06,2.7l-32.49,6.24l0,-99.67l75.46,-12.02Z" style="fill:#3b9a95;fill-rule:nonzero;"/><path d="M500.3,341.71l0,97.2l-28.91,5.55l-14.06,2.7l-32.49,6.24l0,-99.67l75.46,-12.02Z" style="fill-opacity:0.05;fill-rule:nonzero;"/><path d="M303.08,368.31l27.88,-20.98l93.88,6.4l-13.82,23.28l-107.94,-8.7Z" style="fill:#3b9a95;fill-rule:nonzero;"/><path d="M303.08,368.31l27.88,-20.98l93.88,6.4l-13.82,23.28l-107.94,-8.7Z" style="fill:#fff;fill-opacity:0.1;fill-rule:nonzero;"/><path d="M500.3,341.71l-75.46,12.02l24.56,22l80.83,-13.56l-29.93,-20.46Z" style="fill:#3b9a95;fill-rule:nonzero;"/><path d="M500.3,341.71l-75.46,12.02l24.56,22l80.83,-13.56l-29.93,-20.46Z" style="fill:#fff;fill-opacity:0.1;fill-rule:nonzero;"/><path d="M471.39,444.46l-14.06,2.7l0,-20.77l13.17,-3.32l0.89,21.39Z" style="fill:#fff;fill-opacity:0.1;fill-rule:nonzero;"/><path d="M388.77,435.96l0,13.74l-15.69,-1.6l0,-12.14l15.69,0Z" style="fill:#fff;fill-opacity:0.1;fill-rule:nonzero;"/><path d="M368.3,440.29l0,7.31l-15.68,-1.61l0,-5.7l15.68,0Z" style="fill:#fff;fill-opacity:0.1;fill-rule:nonzero;"/><path d="M415.4,428.67c-10.75,13.75 -46.25,4.25 -46.25,4.25l-26.38,-27.52l-3.58,-3.73l7,-13c0,0 2,0.66 5.34,1.82c17.68,6.18 72.92,26.61 63.87,38.18Z" style="fill-opacity:0.1;fill-rule:nonzero;"/><path d="M414.4,426.67c-10.75,13.75 -46.25,4.25 -46.25,4.25l-26.38,-27.52l-3.58,-3.73l7,-13c0,0 2,0.66 5.34,1.82c17.68,6.18 72.92,26.61 63.87,38.18Z" style="fill:#efb7b9;fill-rule:nonzero;"/><path d="M350.49,388.49c-1.46,4.2 -5.17,10.42 -8.76,14.91l-3.58,-3.73l7,-13c0,0 2.01,0.66 5.34,1.82Z" style="fill-opacity:0.1;fill-rule:nonzero;"/><path d="M263.15,232.97c0,0 -26.25,10 -26.5,38c-0.06,18.043 0.942,36.074 3,54c2.058,17.926 -7.5,41.75 13.75,53.75c21.25,12 41,22 41,22c0,0 33.95,5.5 38.12,7.25c4.17,1.75 18.66,-20.75 16.41,-24.5c-2.25,-3.75 -33.16,-13 -36.83,-19.25c-3.67,-6.25 -12.71,-10.46 -12.71,-10.46c0,0 -9.22,-6.29 -9.59,-11.54c-0.37,-5.25 2.35,-9 3.12,-11.25c0.77,-2.25 3.56,-24.25 3.56,-24.25c0,0 14.92,-78.05 -33.33,-73.75Z" style="fill:#dce6f2;fill-rule:nonzero;"/><path d="M275.15,325.67c0,0 -35.5,4 -32.75,16.5c0,0 13.49,-12.61 32.75,-16.5Z" style="fill-opacity:0.1;fill-rule:nonzero;"/><path d="M275.15,330.67c0,0 -20.15,14.75 -16.45,15.75c3.7,1 16.45,-15.75 16.45,-15.75Z" style="fill-opacity:0.1;fill-rule:nonzero;"/><path d="M284.15,336.67c0,0 -5.75,10.34 -2.5,9.8c3.25,-0.54 2.5,-9.8 2.5,-9.8Z" style="fill-opacity:0.1;fill-rule:nonzero;"/><path d="M653.77,112.39c0,0 -38,-2.29 -33.56,24.37c0,0 -0.89,4.71 3.38,6.85c0,0 0.07,-2 3.9,-1.31c1.364,0.23 2.75,0.297 4.13,0.2c1.869,-0.125 3.647,-0.859 5.06,-2.09c1.413,-1.231 10.69,-4.41 14.85,-21.89c0,0 3.08,-3.82 3,-4.8l-6.42,2.75c0,0 2.19,4.63 0.46,8.48c0,0 -0.2,-8.31 -1.44,-8.12c-0.25,0 -3.33,1.61 -3.33,1.61c0,0 3.77,8.06 0.92,13.93c0,0 1.08,-9.94 -2.1,-13.35l-4.52,2.64c0,0 4.41,8.33 1.42,15.13c0,0 0.77,-10.43 -2.37,-14.49l-4.1,3.19c0,0 4.15,8.22 1.62,13.86c0,0 -0.33,-12.14 -2.51,-13.06c0,0 -3.58,3.16 -4.12,4.46c0,0 2.83,6 1.07,9.11c0,0 -1.08,-8.09 -2,-8.13c0,0 -3.57,5.36 -3.94,9c0.173,-3.393 1.231,-6.683 3.07,-9.54c-2.057,0.389 -3.956,1.373 -5.46,2.83c-1.504,1.457 0.55,-3.79 6.34,-4.12c0,0 3,-4.07 3.74,-4.32c0,0 -5.76,-0.48 -9.25,1.07c0,0 3.07,-3.57 10.31,-2l4,-3.3c0,0 -7.58,-1 -10.8,0.11c0,0 3.7,-3.16 11.89,-0.86l4.4,-2.63c0,0 -6.46,-1.4 -10.31,-0.89c0,0 4.06,-2.19 11.6,0.18l3.15,-1.41c0,0 -4.74,-0.93 -6.12,-1.08c-1.38,-0.15 -1.46,-0.53 -1.46,-0.53c2.998,-0.499 6.077,-0.153 8.89,1c2.813,1.153 6.75,-2.43 6.61,-2.85Z" style="fill:#3b9a95;fill-rule:nonzero;"/><path d="M769.23,245.73c0,0 -38,-2.29 -33.56,24.37c0,0 -0.89,4.71 3.38,6.85c0,0 0.07,-2 3.91,-1.31c1.364,0.23 2.75,0.297 4.13,0.2c1.848,-0.134 3.603,-0.864 5,-2.08c1.397,-1.216 10.7,-4.42 14.86,-21.9c0,0 3.07,-3.81 2.95,-4.79l-6.42,2.74c0,0 2.19,4.63 0.47,8.48c0,0 -0.21,-8.31 -1.44,-8.12c-0.25,0 -3.34,1.61 -3.34,1.61c0,0 3.78,8.07 0.93,13.93c0,0 1.08,-9.94 -2.11,-13.35l-4.47,2.61c0,0 4.41,8.33 1.42,15.13c0,0 0.77,-10.43 -2.37,-14.49l-4.09,3.2c0,0 4.14,8.21 1.62,13.85c0,0 -0.33,-12.14 -2.51,-13.06c0,0 -3.58,3.16 -4.13,4.46c0,0 2.84,6 1.08,9.11c0,0 -1.08,-8.09 -2,-8.13c0,0 -3.57,5.36 -3.94,9c0.179,-3.394 1.24,-6.683 3.08,-9.54c-2.06,0.39 -3.962,1.374 -5.47,2.83c-1.508,1.456 0.56,-3.79 6.35,-4.12c0,0 2.95,-4.07 3.74,-4.32c0,0 -5.76,-0.48 -9.25,1.07c0,0 3.07,-3.57 10.3,-1.95l4,-3.3c0,0 -7.59,-1 -10.8,0.11c0,0 3.7,-3.16 11.89,-0.86l4.4,-2.63c0,0 -6.47,-1.39 -10.32,-0.89c0,0 4.07,-2.19 11.61,0.18l3.15,-1.41c0,0 -4.74,-0.93 -6.13,-1.08c-1.39,-0.15 -1.46,-0.53 -1.46,-0.53c3.002,-0.499 6.084,-0.153 8.9,1c2.816,1.153 6.76,-2.45 6.64,-2.87Z" style="fill:#3b9a95;fill-opacity:0.1;fill-rule:nonzero;"/><path d="M538.38,222.06c0,0 8.75,-37.09 -18.29,-37.22c0,0 -4.49,-1.68 -7.32,2.16c0,0 1.93,0.41 0.62,4.07c-0.453,1.294 -0.755,2.636 -0.9,4c-0.194,1.858 0.224,3.73 1.19,5.33c0.966,1.6 2.53,11.3 19,18.38c0,0 3.24,3.68 4.22,3.72l-1.6,-6.79c0,0 -4.94,1.37 -8.44,-1c0,0 8.23,1.21 8.24,0c0,-0.25 -1,-3.56 -1,-3.56c0,0 -8.59,2.34 -13.89,-1.47c0,0 9.61,2.76 13.52,0.21l-1.8,-4.92c0,0 -9,2.93 -15.16,-1.18c0,0 10.15,2.54 14.69,0.14l-2.45,-4.58c0,0 -8.8,2.68 -13.93,-0.77c0,0 12,1.74 13.3,-0.24c0,0 -2.5,-4.07 -3.69,-4.83c0,0 -6.36,1.78 -9.16,-0.49c0,0 8.15,0.31 8.34,-0.55c0,0 -4.67,-4.43 -8.23,-5.43c3.317,0.755 6.382,2.362 8.89,4.66c-0.037,-2.096 -0.683,-4.136 -1.86,-5.87c-1.177,-1.734 3.64,1.2 3,7c0,0 3.5,3.6 3.61,4.42c0,0 1.45,-5.59 0.52,-9.3c0,0 3,3.64 0.17,10.49l2.56,4.55c0,0 2.32,-7.3 1.73,-10.66c0,0 2.49,4.18 -1.18,11.86l1.85,4.79c0,0 2.47,-6.14 2.63,-10c0,0 1.47,4.38 -2.16,11.41l0.86,3.34c0,0 1.72,-4.51 2.1,-5.85c0.38,-1.34 0.77,-1.35 0.77,-1.35c-0.015,3.042 -0.878,6.02 -2.49,8.6c-1.612,2.58 1.31,6.98 1.74,6.93Z" style="fill:#3b9a95;fill-opacity:0.1;fill-rule:nonzero;"/><path d="M455.16,234.7c0,0 -30.52,-22.83 -41.43,1.9c0,0 -3.33,3.45 -0.94,7.58c0,0 1.14,-1.61 4,1.06c1.013,0.942 2.134,1.761 3.34,2.44c1.633,0.909 3.519,1.261 5.37,1c1.851,-0.261 11.36,2.19 24.44,-10.12c0,0 4.67,-1.5 5.11,-2.38l-6.89,-1.21c0,0 -0.72,5.07 -4.27,7.34c0,0 4.39,-7.06 3.25,-7.57c-0.23,-0.11 -3.67,-0.5 -3.67,-0.5c0,0 -1.28,8.82 -6.88,12.15c0,0 6.37,-7.71 5.58,-12.31l-5.23,-0.28c0,0 -0.89,9.39 -7.13,13.43c0,0 6.37,-8.29 6,-13.41l-5.18,0.42c0,0 -1.05,9.13 -6.26,12.45c0,0 6.39,-10.32 5.08,-12.28c0,0 -4.73,0.67 -5.9,1.45c0,0 -0.91,6.54 -4.11,8.2c0,0 3.55,-7.35 2.83,-7.86c0,0 -5.93,2.51 -8.26,5.37c2.015,-2.738 4.711,-4.903 7.82,-6.28c-1.934,-0.804 -4.061,-1.026 -6.12,-0.64c-2.059,0.386 2.54,-2.86 7.56,0.05c0,0 4.7,-1.77 5.5,-1.55c0,0 -4.55,-3.57 -8.32,-4.19c0,0 4.54,-1.3 9.69,4l5.19,-0.53c0,0 -5.77,-5 -9.08,-5.84c0,0 4.83,-0.61 10.4,5.81l5.12,0.23c0,0 -4.63,-4.72 -8.12,-6.42c0,0 4.59,0.4 9.59,6.53l3.41,0.55c0,0 -3.45,-3.38 -4.53,-4.26c-1.08,-0.88 -0.93,-1.25 -0.93,-1.25c2.782,1.232 5.167,3.212 6.89,5.72c1.723,2.508 6.95,1.61 7.08,1.2Z" style="fill:#3b9a95;fill-opacity:0.1;fill-rule:nonzero;"/><path d="M556.77,22.59c0,0 -30.52,-22.84 -41.43,1.9c0,0 -3.33,3.45 -0.94,7.58c0,0 1.14,-1.61 4,1.06c1.018,0.938 2.143,1.753 3.35,2.43c1.633,0.91 3.519,1.261 5.37,1c1.851,-0.261 11.36,2.19 24.44,-10.13c0,0 4.67,-1.49 5.1,-2.38l-6.89,-1.19c0,0 -0.71,5.07 -4.27,7.34c0,0 4.4,-7.06 3.26,-7.57c-0.23,-0.11 -3.67,-0.5 -3.67,-0.5c0,0 -1.32,8.84 -6.92,12.15c0,0 6.36,-7.71 5.58,-12.31l-5.23,-0.28c0,0 -0.9,9.39 -7.13,13.42c0,0 6.37,-8.29 6,-13.41l-5.17,0.42c0,0 -1.06,9.14 -6.27,12.46c0,0 6.4,-10.32 5.09,-12.28c0,0 -4.73,0.67 -5.9,1.45c0,0 -0.91,6.54 -4.11,8.2c0,0 3.55,-7.35 2.83,-7.87c0,0 -5.93,2.52 -8.26,5.38c2.012,-2.741 4.709,-4.907 7.82,-6.28c-1.936,-0.81 -4.068,-1.032 -6.13,-0.64c-2.062,0.392 2.55,-2.86 7.57,0.05c0,0 4.7,-1.78 5.5,-1.55c0,0 -4.55,-3.57 -8.32,-4.2c0,0 4.53,-1.29 9.68,4l5.19,-0.53c0,0 -5.76,-5 -9.08,-5.85c0,0 4.83,-0.6 10.41,5.82l5.12,0.22c0,0 -4.63,-4.72 -8.13,-6.41c0,0 4.6,0.4 9.6,6.53l3.4,0.55c0,0 -3.46,-3.34 -4.54,-4.2c-1.08,-0.86 -0.93,-1.24 -0.93,-1.24c2.783,1.23 5.169,3.211 6.89,5.72c1.721,2.509 6.95,1.52 7.12,1.14Z" style="fill:#3b9a95;fill-opacity:0.1;fill-rule:nonzero;"/><path d="M673.39,51.52c0,0 -12.2,-36.11 -35.21,-21.92c0,0 -4.7,1 -5.07,5.71c0,0 1.85,-0.68 2.67,3.12c0.305,1.352 0.764,2.664 1.37,3.91c0.826,1.677 2.174,3.042 3.84,3.89c1.666,0.848 8.12,8.25 25.88,5.52c0,0 4.69,1.42 5.55,0.93l-5,-4.91c0,0 -3.46,3.77 -7.68,3.62c0,0 7.63,-3.32 7,-4.39c-0.13,-0.21 -2.74,-2.48 -2.74,-2.48c0,0 -6.06,6.53 -12.56,6.1c0,0 9.61,-2.74 11.57,-7l-4.14,-3.19c0,0 -6.06,7.22 -13.49,7c0,0 10,-3.21 12.53,-7.65l-4.5,-2.59c0,0 -6,6.93 -12.22,6.71c0,0 11.12,-4.87 11.15,-7.23c0,0 -4.27,-2.13 -5.68,-2.15c0,0 -4.46,4.87 -8,4.43c0,0 7.08,-4.05 6.78,-4.88c0,0 -6.3,-1.29 -9.85,-0.25c3.211,-1.118 6.659,-1.376 10,-0.75c-1.141,-1.761 -2.771,-3.151 -4.69,-4c-1.919,-0.849 3.72,-0.91 6.21,4.33c0,0 4.88,1.21 5.4,1.84c0,0 -1.72,-5.51 -4.47,-8.17c0,0 4.47,1.51 5.69,8.82l4.58,2.5c0,0 -1.89,-7.41 -4.17,-10c0,0 4.33,2.24 5.27,10.69l4.1,3.09c0,0 -1.14,-6.52 -3.06,-9.9c0,0 3.56,2.94 4.2,10.83l2.49,2.38c0,0 -0.92,-4.74 -1.3,-6.08c-0.38,-1.34 -0.07,-1.43 -0.07,-1.43c1.59,2.594 2.431,5.578 2.43,8.62c-0.001,3.042 4.84,5.19 5.19,4.93Z" style="fill:#3b9a95;fill-opacity:0.1;fill-rule:nonzero;"/><path d="M593.77,53.3c0,0 -37.9,-4.22 -34.77,22.67c0,0 -1.13,4.66 3,7c0,0 0.17,-2 4,-1.1c1.354,0.291 2.736,0.429 4.12,0.41c1.87,-0.034 3.678,-0.676 5.15,-1.83c1.472,-1.154 10.91,-3.87 16,-21.12c0,0 3.26,-3.65 3.19,-4.64l-6.55,2.42c0,0 2,4.73 0,8.49c0,0 0.21,-8.31 -1,-8.18c-0.25,0 -3.41,1.44 -3.41,1.44c0,0 3.36,8.25 0.22,14c0,0 1.58,-9.88 -1.43,-13.44l-4.65,2.4c0,0 4,8.55 0.65,15.19c0,0 1.3,-10.38 -1.63,-14.59l-4.25,3c0,0 3.72,8.41 0.91,13.92c0,0 0.29,-12.14 -1.84,-13.17c0,0 -3.74,3 -4.35,4.24c0,0 2.53,6.1 0.62,9.15c0,0 -0.67,-8.13 -1.55,-8.21c0,0 -3.84,5.17 -4.4,8.82c0.347,-3.384 1.574,-6.618 3.56,-9.38c-2.075,0.287 -4.022,1.173 -5.6,2.55c-1.578,1.377 0.74,-3.75 6.54,-3.79c0,0 3.15,-3.91 4,-4.12c0,0 -5.73,-0.77 -9.3,0.6c0,0 3.25,-3.42 10.39,-1.43l4.21,-3.09c0,0 -7.61,-1.54 -10.83,-0.54c0,0 3.86,-3 11.92,-0.25l4.53,-2.41c0,0 -6.39,-1.72 -10.26,-1.41c0,0 4.17,-2 11.58,0.77l3.22,-1.25c0,0 -4.69,-1.17 -6.07,-1.39c-1.38,-0.22 -1.43,-0.6 -1.43,-0.6c3.023,-0.347 6.083,0.152 8.84,1.44c2.757,1.288 6.74,-2.15 6.67,-2.57Z" style="fill:#3b9a95;fill-opacity:0.1;fill-rule:nonzero;"/><path d="M925.37,347.47c0,0 -37.88,-4.22 -34.75,22.64c0,0 -1.13,4.66 3,7c0,0 0.17,-2 4,-1.11c1.352,0.301 2.735,0.439 4.12,0.41c1.871,-0.029 3.681,-0.672 5.15,-1.83c1.469,-1.158 10.91,-3.87 15.95,-21.11c0,0 3.26,-3.66 3.19,-4.64l-6.55,2.41c0,0 2,4.74 0,8.5c0,0 0.21,-8.32 -1,-8.18c-0.25,0 -3.41,1.43 -3.41,1.43c0,0 3.36,8.25 0.22,14c0,0 1.58,-9.87 -1.43,-13.44l-4.65,2.41c0,0 4,8.55 0.66,15.19c0,0 1.29,-10.38 -1.64,-14.6l-4.25,3c0,0 3.72,8.41 0.91,13.91c0,0 0.29,-12.14 -1.84,-13.16c0,0 -3.73,3 -4.35,4.24c0,0 2.54,6.1 0.62,9.15c0,0 -0.67,-8.13 -1.55,-8.21c0,0 -3.84,5.17 -4.4,8.82c0.347,-3.384 1.574,-6.618 3.56,-9.38c-2.076,0.282 -4.024,1.169 -5.6,2.55c-1.576,1.381 0.74,-3.76 6.54,-3.8c0,0 3.16,-3.91 4,-4.11c0,0 -5.73,-0.78 -9.3,0.59c0,0 3.25,-3.41 10.4,-1.42l4.2,-3.09c0,0 -7.52,-1.42 -10.79,-0.44c0,0 3.86,-3 11.92,-0.26l4.53,-2.4c0,0 -6.39,-1.72 -10.26,-1.41c0,0 4.17,-2 11.58,0.77l3.22,-1.26c0,0 -4.69,-1.17 -6.07,-1.38c-1.38,-0.21 -1.43,-0.6 -1.43,-0.6c3.022,-0.353 6.083,0.142 8.84,1.43c2.757,1.288 6.76,-2.19 6.66,-2.62Z" style="fill:#3b9a95;fill-opacity:0.1;fill-rule:nonzero;"/><path d="M983.28,382.85c0,0 -37.88,-4.21 -34.75,22.64c0,0 -1.12,4.66 3,7c0,0 0.17,-2 4,-1.1c1.35,0.294 2.729,0.428 4.11,0.4c1.861,-0.038 3.661,-0.677 5.13,-1.82c1.469,-1.143 10.9,-3.87 15.94,-21.12c0,0 3.27,-3.65 3.19,-4.64l-6.55,2.41c0,0 2,4.74 0,8.5c0,0 0.21,-8.31 -1,-8.18c-0.25,0 -3.41,1.43 -3.41,1.43c0,0 3.36,8.25 0.22,14c0,0 1.58,-9.87 -1.43,-13.43l-4.65,2.4c0,0 4,8.55 0.66,15.19c0,0 1.29,-10.38 -1.64,-14.59l-4.25,3c0,0 3.72,8.41 0.92,13.92c0,0 0.28,-12.15 -1.85,-13.17c0,0 -3.73,3 -4.35,4.24c0,0 2.54,6.1 0.62,9.15c0,0 -0.67,-8.13 -1.55,-8.21c0,0 -3.84,5.17 -4.39,8.82c0.346,-3.382 1.57,-6.616 3.55,-9.38c-2.075,0.287 -4.022,1.173 -5.6,2.55c-1.578,1.377 0.75,-3.76 6.55,-3.79c0,0 3.15,-3.91 4,-4.12c0,0 -5.73,-0.77 -9.3,0.6c0,0 3.25,-3.42 10.4,-1.43l4.2,-3.09c0,0 -7.52,-1.42 -10.79,-0.44c0,0 3.86,-3 11.92,-0.25l4.53,-2.41c0,0 -6.39,-1.72 -10.26,-1.41c0,0 4.17,-2 11.58,0.77l3.22,-1.25c0,0 -4.69,-1.17 -6.06,-1.39c-1.37,-0.22 -1.44,-0.6 -1.44,-0.6c3.023,-0.347 6.083,0.152 8.84,1.44c2.757,1.288 6.79,-2.21 6.69,-2.64Z" style="fill:#3b9a95;fill-opacity:0.1;fill-rule:nonzero;"/><path d="M854.71,84.84c0,0 -30.52,-22.83 -41.43,1.9c0,0 -3.33,3.45 -0.94,7.58c0,0 1.14,-1.61 4,1.06c1.013,0.942 2.134,1.761 3.34,2.44c1.633,0.909 3.519,1.26 5.37,1c1.851,-0.26 11.36,2.19 24.45,-10.12c0,0 4.66,-1.5 5.1,-2.38l-6.87,-1.24c0,0 -0.72,5.07 -4.27,7.34c0,0 4.39,-7.06 3.25,-7.57c-0.23,-0.11 -3.66,-0.5 -3.66,-0.5c0,0 -1.29,8.82 -6.89,12.15c0,0 6.37,-7.71 5.58,-12.31l-5.23,-0.28c0,0 -0.89,9.39 -7.13,13.43c0,0 6.38,-8.29 6,-13.41l-5.18,0.42c0,0 -1,9.13 -6.26,12.45c0,0 6.4,-10.32 5.08,-12.28c0,0 -4.73,0.67 -5.9,1.45c0,0 -0.9,6.54 -4.1,8.2c0,0 3.54,-7.35 2.82,-7.86c0,0 -5.93,2.51 -8.26,5.37c2.015,-2.738 4.711,-4.903 7.82,-6.28c-1.934,-0.804 -4.061,-1.026 -6.12,-0.64c-2.059,0.386 2.55,-2.86 7.57,0.05c0,0 4.69,-1.77 5.49,-1.55c0,0 -4.55,-3.57 -8.32,-4.19c0,0 4.54,-1.3 9.69,4l5.19,-0.53c0,0 -5.76,-5 -9.08,-5.84c0,0 4.83,-0.61 10.4,5.81l5.13,0.23c0,0 -4.64,-4.72 -8.13,-6.42c0,0 4.6,0.4 9.59,6.53l3.41,0.55c0,0 -3.45,-3.38 -4.53,-4.26c-1.08,-0.88 -0.92,-1.17 -0.92,-1.17c2.778,1.234 5.16,3.214 6.88,5.72c1.72,2.506 6.93,1.56 7.06,1.15Z" style="fill:#3b9a95;fill-opacity:0.1;fill-rule:nonzero;"/><path d="M878.29,249.66c0,0 -10.52,-36.63 -34.18,-23.48c0,0 -4.74,0.73 -5.33,5.47c0,0 1.88,-0.59 2.53,3.24c0.241,1.376 0.644,2.719 1.2,4c0.742,1.723 2.027,3.156 3.66,4.08c1.633,0.924 7.74,8.6 25.6,6.68c0,0 4.62,1.62 5.5,1.18l-4.73,-5.14c0,0 -3.63,3.62 -7.83,3.28c0,0 7.76,-3 7.16,-4.07c-0.12,-0.22 -2.62,-2.61 -2.62,-2.61c0,0 -6.34,6.26 -12.82,5.53c0,0 9.73,-2.3 11.87,-6.44l-4,-3.38c0,0 -6.38,6.94 -13.79,6.4c0,0 10.08,-2.77 12.86,-7.08l-4.38,-2.79c0,0 -6.35,6.65 -12.51,6.15c0,0 11.33,-4.37 11.47,-6.72c0,0 -4.18,-2.32 -5.59,-2.4c0,0 -4.67,4.66 -8.22,4.06c0,0 7.26,-3.73 7,-4.57c0,0 -6.24,-1.57 -9.83,-0.7c3.251,-0.964 6.698,-1.064 10,-0.29c-1.058,-1.809 -2.622,-3.27 -4.5,-4.2c-1.878,-0.93 3.76,-0.75 6,4.6c0,0 4.81,1.42 5.31,2.08c0,0 -1.47,-5.59 -4.1,-8.36c0,0 4.4,1.7 5.29,9.06l4.46,2.71c0,0 -1.56,-7.5 -3.72,-10.14c0,0 4.22,2.43 4.79,10.91l4,3.27c0,0 -0.85,-6.56 -2.61,-10c0,0 3.43,3.1 3.71,11l2.38,2.5c0,0 -0.7,-4.78 -1,-6.14c-0.3,-1.36 0,-1.55 0,-1.55c1.48,2.66 2.19,5.68 2.05,8.72c-0.14,3.04 4.56,5.38 4.92,5.14Z" style="fill:#3b9a95;fill-opacity:0.1;fill-rule:nonzero;"/><path d="M643.87,332.2c0,0 -20.43,-32.18 -39.4,-12.92c0,0 -4.34,2 -3.58,6.75c0,0 1.65,-1.1 3.35,2.4c0.611,1.24 1.37,2.402 2.26,3.46c1.192,1.444 2.827,2.456 4.65,2.88c1.823,0.424 9.85,6.08 26.45,-0.8c0,0 4.89,0.26 5.61,-0.41l-6,-3.6c0,0 -2.47,4.5 -6.6,5.35c0,0 6.62,-5 5.73,-5.92c-0.17,-0.18 -3.25,-1.76 -3.25,-1.76c0,0 -4.33,7.78 -10.75,8.91c0,0 8.69,-4.95 9.59,-9.53l-4.79,-2.11c0,0 -4.17,8.45 -11.43,10c0,0 8.9,-5.49 10.35,-10.41l-5,-1.44c0,0 -4.22,8.17 -10.27,9.42c0,0 9.64,-7.38 9.11,-9.68c0,0 -4.66,-1.05 -6,-0.73c0,0 -3.17,5.79 -6.75,6.21c0,0 5.92,-5.62 5.43,-6.36c0,0 -6.43,0.25 -9.63,2.1c2.854,-1.849 6.144,-2.918 9.54,-3.1c-1.52,-1.439 -3.429,-2.402 -5.49,-2.77c-2.061,-0.368 3.39,-1.77 7,2.73c0,0 5,0 5.69,0.5c0,0 -3,-5 -6.29,-6.87c0,0 4.7,0.4 7.62,7.21l5.05,1.34c0,0 -3.61,-6.75 -6.42,-8.68c0,0 4.73,1.14 7.66,9.13l4.72,2c0,0 -2.66,-6.05 -5.33,-8.88c0,0 4.16,2 6.65,9.51l3,1.73c0,0 -2,-4.39 -2.71,-5.6c-0.71,-1.21 -0.43,-1.49 -0.43,-1.49c2.164,2.137 3.691,4.835 4.41,7.79c0.719,2.955 5.98,3.98 6.25,3.64Z" style="fill:#3b9a95;fill-opacity:0.1;fill-rule:nonzero;"/><path d="M778.14,167.78c0,0 -19.43,-32.79 -39,-14.13c0,0 -4.4,1.9 -3.78,6.64c0,0 1.67,-1.06 3.27,2.49c0.572,1.262 1.294,2.45 2.15,3.54c1.148,1.474 2.752,2.529 4.56,3c1.808,0.471 9.65,6.38 26.46,0c0,0 4.88,0.41 5.62,-0.24l-5.87,-3.78c0,0 -2.6,4.41 -6.76,5.14c0,0 6.77,-4.83 5.92,-5.74c-0.18,-0.19 -3.2,-1.87 -3.2,-1.87c0,0 -4.57,7.65 -11,8.58c0,0 8.84,-4.68 9.87,-9.22l-4.72,-2.22c0,0 -4.43,8.33 -11.74,9.66c0,0 9.07,-5.21 10.67,-10.08l-4.94,-1.6c0,0 -4.48,8 -10.56,9.1c0,0 9.86,-7.08 9.4,-9.39c0,0 -4.62,-1.2 -6,-0.92c0,0 -3.35,5.69 -6.94,6c0,0 6.09,-5.42 5.63,-6.18c0,0 -6.44,0.05 -9.69,1.8c2.911,-1.756 6.231,-2.721 9.63,-2.8c-1.478,-1.486 -3.359,-2.509 -5.41,-2.94c-2.051,-0.431 3.45,-1.67 7,2.94c0,0 5,0.17 5.67,0.68c0,0 -2.83,-5 -6.07,-7.06c0,0 4.68,0.54 7.39,7.44l5,1.5c0,0 -3.39,-6.86 -6.15,-8.88c0,0 4.7,1.29 7.38,9.36l4.65,2.17c0,0 -2.47,-6.13 -5,-9c0,0 4.09,2.13 6.36,9.71l2.93,1.82c0,0 -1.88,-4.45 -2.54,-5.68c-0.66,-1.23 -0.38,-1.5 -0.38,-1.5c2.096,2.203 3.54,4.945 4.17,7.92c0.63,2.975 5.73,4.07 6.02,3.74Z" style="fill:#3b9a95;fill-rule:nonzero;"/><path d="M655.21,236.73c0,0 1,-38.1 -25.47,-32.73c0,0 -4.74,-0.73 -6.74,3.61c0,0 2,0 1.44,3.85c-0.183,1.373 -0.203,2.762 -0.06,4.14c0.181,1.868 0.972,3.626 2.25,5c1.278,1.374 4.77,10.54 22.38,14.12c0,0 3.91,2.95 4.89,2.79l-3,-6.32c0,0 -4.55,2.34 -8.46,0.75c0,0 8.3,-0.49 8.07,-1.71c0,-0.25 -1.72,-3.29 -1.72,-3.29c0,0 -7.94,4.05 -13.89,1.39c0,0 10,0.75 13.27,-2.54l-2.79,-4.43c0,0 -8.18,4.68 -15.08,1.92c0,0 10.45,0.42 14.41,-2.85l-3.33,-4c0,0 -8.07,4.42 -13.79,2.08c0,0 12.12,-0.73 13,-2.94c0,0 -3.28,-3.47 -4.6,-4c0,0 -5.86,3 -9.06,1.38c0,0 8,-1.34 8.05,-2.23c0,0 -5.47,-3.39 -9.16,-3.64c3.402,0.061 6.73,1.013 9.65,2.76c-0.456,-2.044 -1.498,-3.911 -3,-5.37c-1.502,-1.459 3.81,0.43 4.33,6.2c0,0 4.17,2.82 4.44,3.6c0,0 0.29,-5.77 -1.38,-9.21c0,0 3.68,2.95 2.3,10.23l3.43,3.94c0,0 0.78,-7.62 -0.47,-10.79c0,0 3.28,3.59 1.26,11.85l2.77,4.31c0,0 1.18,-6.51 0.55,-10.34c0,0 2.32,4 0.2,11.61l1.52,3.1c0,0 0.77,-4.77 0.87,-6.16c0.1,-1.39 0.48,-1.48 0.48,-1.48c0.602,2.983 0.363,6.075 -0.69,8.93c-1.053,2.855 2.69,6.6 3.13,6.47Z" style="fill:#3b9a95;fill-rule:nonzero;"/><ellipse cx="698.97" cy="716.3" rx="26.93" ry="4.55" style="fill:#3b9a95;fill-opacity:0.1;"/><ellipse cx="600.8" cy="785.38" rx="26.93" ry="4.55" style="fill:#3b9a95;fill-opacity:0.1;"/><ellipse cx="93.14" cy="749.99" rx="26.93" ry="4.55" style="fill:#3b9a95;fill-opacity:0.1;"/><ellipse cx="805.06" cy="780.83" rx="26.93" ry="4.55" style="fill:#3b9a95;fill-opacity:0.1;"/><ellipse cx="833.1" cy="723.1" rx="40.21" ry="6.8" style="fill:#3b9a95;"/><path d="M849.77,711.97c1.835,-1.491 3.172,-3.508 3.83,-5.78c0.5,-2.3 -0.48,-5.05 -2.67,-5.89c-2.46,-0.94 -5.09,0.76 -7.09,2.48c-2,1.72 -4.27,3.69 -6.88,3.33c2.722,-2.473 3.954,-6.202 3.24,-9.81c-0.113,-0.736 -0.424,-1.427 -0.9,-2c-1.37,-1.46 -3.84,-0.83 -5.48,0.32c-5.2,3.66 -6.65,10.72 -6.68,17.08c-0.52,-2.29 -0.08,-4.68 -0.09,-7c-0.01,-2.32 -0.66,-5 -2.65,-6.22c-1.221,-0.681 -2.602,-1.026 -4,-1c-2.34,-0.08 -4.95,0.15 -6.54,1.86c-2,2.12 -1.47,5.69 0.25,8c1.72,2.31 4.35,3.8 6.77,5.42c1.937,1.157 3.591,2.732 4.84,4.61c0.142,0.262 0.26,0.536 0.35,0.82l14.66,0c3.282,-1.653 6.323,-3.746 9.04,-6.22Z" style="fill:#3b9a95;fill-rule:nonzero;"/><path d="M75.06,728.84c0,0 15.35,-0.47 20,-3.77c4.65,-3.3 23.63,-7.23 24.78,-1.94c1.15,5.29 23.08,26.29 5.74,26.43c-17.34,0.14 -40.29,-2.7 -44.91,-5.52c-4.62,-2.82 -5.61,-15.2 -5.61,-15.2Z" style="fill:#a8a8a8;fill-rule:nonzero;"/><path d="M125.87,747.72c-17.34,0.14 -40.29,-2.7 -44.91,-5.52c-3.52,-2.14 -4.92,-9.83 -5.39,-13.38l-0.51,0c0,0 1,12.39 5.59,15.2c4.59,2.81 27.57,5.66 44.91,5.52c5,0 6.73,-1.82 6.64,-4.46c-0.7,1.61 -2.61,2.61 -6.33,2.64Z" style="fill-opacity:0.2;fill-rule:nonzero;"/></g><defs><linearGradient id="_Linear1" x1="0" y1="0" x2="1" y2="0" gradientUnits="userSpaceOnUse" gradientTransform="matrix(312.13,0,0,312.13,222.99,433.42)"><stop offset="0" style="stop-color:#808080;stop-opacity:0.25"/><stop offset="0.54" style="stop-color:#808080;stop-opacity:0.12"/><stop offset="1" style="stop-color:#808080;stop-opacity:0.1"/></linearGradient></defs></svg>