<?xml version="1.0" encoding="UTF-8" standalone="no"?><!DOCTYPE svg PUBLIC "-//W3C//DTD SVG 1.1//EN" "http://www.w3.org/Graphics/SVG/1.1/DTD/svg11.dtd"><svg width="100%" height="100%" viewBox="0 0 4675 4675" version="1.1" xmlns="http://www.w3.org/2000/svg" xmlns:xlink="http://www.w3.org/1999/xlink" xml:space="preserve" xmlns:serif="http://www.serif.com/" style="fill-rule:evenodd;clip-rule:evenodd;stroke-linejoin:round;stroke-miterlimit:2;"><g><path d="M2225.74,1774.47c0,11.508 -9.329,20.833 -20.834,20.833l-249.125,0c-11.504,0 -20.833,-9.325 -20.833,-20.833l0,-327.688c0,-11.504 9.329,-20.833 20.833,-20.833l249.125,0c11.505,0 20.834,9.329 20.834,20.833l0,327.688Zm0,494.895c0,11.509 -9.329,20.834 -20.834,20.834l-249.125,0c-11.504,0 -20.833,-9.325 -20.833,-20.834l0,-327.679c0,-11.508 9.329,-20.833 20.833,-20.833l249.125,0c11.505,0 20.834,9.325 20.834,20.833l0,327.679Zm204.062,-327.679c0,-11.508 9.329,-20.833 20.834,-20.833l249.12,0c11.509,0 20.834,9.325 20.834,20.833l0,327.679c0,11.509 -9.325,20.834 -20.834,20.834l-249.12,0c-11.505,0 -20.834,-9.325 -20.834,-20.834l0,-327.679Zm523.713,0c0,-11.508 9.329,-20.833 20.833,-20.833l249.125,0c11.504,0 20.833,9.325 20.833,20.833l0,327.679c0,11.509 -9.329,20.834 -20.833,20.834l-249.125,0c-11.504,0 -20.833,-9.325 -20.833,-20.834l0,-327.679Zm523.716,0c0,-11.508 9.325,-20.833 20.834,-20.833l249.125,0c11.504,0 20.833,9.325 20.833,20.833l0,327.679c0,11.509 -9.329,20.834 -20.833,20.834l-249.125,0c-11.509,0 -20.834,-9.325 -20.834,-20.834l0,-327.679Zm-1775.21,-167.216c0,11.508 -9.325,20.833 -20.833,20.833l-249.121,0c-11.509,0 -20.834,-9.325 -20.834,-20.833l0,-327.688c0,-11.504 9.325,-20.833 20.834,-20.833l249.121,0c11.508,0 20.833,9.329 20.833,20.833l0,327.688Zm0,494.895c0,11.509 -9.325,20.834 -20.833,20.834l-249.121,0c-11.509,0 -20.834,-9.325 -20.834,-20.834l0,-327.679c0,-11.508 9.325,-20.833 20.834,-20.833l249.121,0c11.508,0 20.833,9.325 20.833,20.833l0,327.679Zm-523.712,-494.895c0,11.508 -9.33,20.833 -20.834,20.833l-249.125,0c-11.504,0 -20.833,-9.325 -20.833,-20.833l0,-327.688c0,-11.504 9.329,-20.833 20.833,-20.833l249.125,0c11.504,0 20.834,9.329 20.834,20.833l0,327.688Zm0,494.895c0,11.509 -9.33,20.834 -20.834,20.834l-249.125,0c-11.504,0 -20.833,-9.325 -20.833,-20.834l0,-327.679c0,-11.508 9.329,-20.833 20.833,-20.833l249.125,0c11.504,0 20.834,9.325 20.834,20.833l0,327.679Zm680.62,-1154.26c-38.321,130.779 -159.296,226.596 -302.304,226.596c-143.004,0 -263.979,-95.817 -302.3,-226.596l-478.883,0l0,2348.2l0.566,0l0,-360.159l107.892,0l0,-634.383c0,-11.508 9.325,-20.833 20.833,-20.833l252.742,0c11.504,0 20.834,9.325 20.834,20.833l0,634.383l158.624,0l0,-663.55l864.075,0l0,663.55l228.792,0l0,-634.383c0,-11.508 9.329,-20.833 20.834,-20.833l1296.55,0c11.504,0 20.833,9.325 20.833,20.833l0,634.383l130.379,0l0,-1332.82l-1518.35,0c-16.108,0 -29.166,-13.059 -29.166,-29.167l0,-118.533c0,-4.292 0.949,-8.351 2.612,-12.021l0,-495.492l-494.567,0Z" style="fill:#fff;fill-rule:nonzero;"/><path d="M2421.47,1056.77l0,-60.196l-551.288,0c0.946,9.912 1.475,19.942 1.475,30.096c0,10.158 -0.529,20.187 -1.475,30.1l551.288,0Z" style="fill:#808080;fill-rule:nonzero;"/><path d="M1243.08,996.571l-551.287,0l0,60.196l551.287,0c-0.946,-9.913 -1.475,-19.942 -1.475,-30.1c0,-10.154 0.529,-20.184 1.475,-30.096Z" style="fill:#808080;fill-rule:nonzero;"/><rect x="2409.22" y="1651.78" width="1615.9" height="60.2" style="fill:#808080;fill-rule:nonzero;"/><path d="M1337.05,964.167l153.462,0l0,-153.463l125,0l0,153.463l153.463,0l0,125l-153.463,0l0,153.462l-125,0l0,-153.462l-153.462,0l0,-125Zm219.579,327.529c146.138,0 265.029,-118.892 265.029,-265.029c0,-146.134 -118.891,-265.025 -265.029,-265.025c-146.133,0 -265.025,118.891 -265.025,265.025c0,146.137 118.892,265.029 265.025,265.029Z" style="fill:#fff;fill-rule:nonzero;"/><path d="M1615.51,964.167l0,-153.463l-125,0l0,153.463l-153.462,0l0,125l153.462,0l0,153.462l125,0l0,-153.462l153.463,0l0,-125l-153.463,0Z" style="fill:#48a9a6;fill-rule:nonzero;"/><rect x="929.188" y="1467.61" width="207.458" height="286.021" style="fill:#b5dfdd;fill-rule:nonzero;"/><rect x="1452.9" y="1467.61" width="207.454" height="286.021" style="fill:#b5dfdd;fill-rule:nonzero;"/><rect x="1976.62" y="1467.61" width="207.454" height="286.021" style="fill:#b5dfdd;fill-rule:nonzero;"/><rect x="929.188" y="1962.52" width="207.458" height="286.012" style="fill:#b5dfdd;fill-rule:nonzero;"/><rect x="1452.9" y="1962.52" width="207.454" height="286.012" style="fill:#b5dfdd;fill-rule:nonzero;"/><rect x="1976.62" y="1962.52" width="207.454" height="286.012" style="fill:#b5dfdd;fill-rule:nonzero;"/><rect x="2471.47" y="1962.52" width="207.454" height="286.012" style="fill:#b5dfdd;fill-rule:nonzero;"/><rect x="2995.18" y="1962.52" width="207.458" height="286.012" style="fill:#b5dfdd;fill-rule:nonzero;"/><rect x="3518.9" y="1962.52" width="207.458" height="286.012" style="fill:#b5dfdd;fill-rule:nonzero;"/><path d="M1178.31,3148.98c0,11.504 -9.33,20.834 -20.834,20.834l-252.742,0c-11.508,0 -20.833,-9.33 -20.833,-20.834l0,-45.842l-107.892,0l0,362.646l560.925,0l0,-362.646l-158.624,0l0,45.842Z" style="fill:#e6e6e6;fill-rule:nonzero;"/><path d="M3768.03,3148.98c0,11.504 -9.329,20.834 -20.833,20.834l-1296.55,0c-11.505,0 -20.834,-9.33 -20.834,-20.834l0,-45.842l-228.792,0l0,362.646l1699.2,0l0,-362.646l-132.192,0l0,45.842Z" style="fill:#e6e6e6;fill-rule:nonzero;"/><path d="M1411.24,2558.27c0,-11.505 9.325,-20.834 20.834,-20.834l297.087,0c11.505,0 20.834,9.329 20.834,20.834l0,849.512c0,11.508 -9.329,20.834 -20.834,20.834l-297.087,0c-11.509,0 -20.834,-9.326 -20.834,-20.834l0,-849.512Zm375.167,0c0,-11.505 9.329,-20.834 20.833,-20.834l297.092,0c11.504,0 20.834,9.329 20.834,20.834l0,849.512c0,11.508 -9.33,20.834 -20.834,20.834l-297.092,0c-11.504,0 -20.833,-9.326 -20.833,-20.834l0,-849.512Zm-391.133,905.029l747.404,0l0,-965.375l-747.404,0l0,965.375Z" style="fill:#48a9a6;fill-rule:nonzero;"/><rect x="1452.9" y="2579.1" width="255.421" height="807.846" style="fill:#fff;fill-rule:nonzero;"/><rect x="1828.07" y="2579.1" width="255.425" height="807.846" style="fill:#fff;fill-rule:nonzero;"/><rect x="2471.47" y="2489.59" width="1254.89" height="638.558" style="fill:#48a9a6;fill-rule:nonzero;"/><rect x="925.571" y="2489.59" width="211.075" height="638.558" style="fill:#48a9a6;fill-rule:nonzero;"/><path d="M2323.88,3669.05c0,-16.388 -11.637,-29.8 -25.866,-29.8l-1534.71,0c-14.225,0 -25.867,13.412 -25.867,29.8c0,16.392 11.642,29.804 25.867,29.804l1534.71,0c14.229,0 25.866,-13.412 25.866,-29.804Z" style="fill:#424243;fill-rule:nonzero;"/><path d="M2442.86,3698.85c14.23,0 25.867,-13.412 25.867,-29.804c0,-16.388 -11.637,-29.8 -25.867,-29.8l-37.937,0c-14.225,0 -25.863,13.412 -25.863,29.8c0,16.392 11.638,29.804 25.863,29.804l37.937,0Z" style="fill:#424243;fill-rule:nonzero;"/><path d="M3730.99,3794.22l-1493.33,0c-15.176,0 -27.592,14.304 -27.592,31.787c0,17.483 12.416,31.788 27.592,31.788l1493.33,0c15.174,0 27.591,-14.305 27.591,-31.788c0,-17.483 -12.417,-31.787 -27.591,-31.787Z" style="fill:#424243;fill-rule:nonzero;"/><path d="M3899.98,3794.22l-68.975,0c-15.175,0 -27.587,14.304 -27.587,31.787c0,17.483 12.412,31.788 27.587,31.788l68.975,0c15.175,0 27.592,-14.305 27.592,-31.788c0,-17.483 -12.417,-31.787 -27.592,-31.787Z" style="fill:#424243;fill-rule:nonzero;"/><path d="M1981.65,3961.1l-68.975,0c-15.175,0 -27.592,14.304 -27.592,31.788c0,17.483 12.417,31.787 27.592,31.787l68.975,0c15.175,0 27.588,-14.304 27.588,-31.787c0,-17.484 -12.413,-31.788 -27.588,-31.788Z" style="fill:#424243;fill-rule:nonzero;"/><path d="M2353.5,1610.59c4.583,-10.104 14.738,-17.146 26.554,-17.146l31.779,0l0,-478.346l-58.333,0l0,495.492Z" style="fill:#424243;fill-rule:nonzero;"/><path d="M3898.4,3103.14l1.813,0l0,362.646l-1699.2,0l0,55.846l1726.56,0c16.108,0 29.167,-13.058 29.167,-29.166l0,-1722.15l-58.334,0.001l0,1332.82Z" style="fill:#424243;fill-rule:nonzero;"/><path d="M776.012,3465.78l0,-2.487l-0.566,0l0,-2348.2l-58.334,0l0,2377.36c0,16.108 13.059,29.166 29.167,29.166l590.658,0l0,-55.846l-560.925,0Z" style="fill:#424243;fill-rule:nonzero;"/><path d="M1254.33,1115.1c-5.508,-18.788 -9.342,-38.279 -11.25,-58.333l-551.287,0l0,-60.196l551.287,0c1.908,-20.054 5.742,-39.546 11.25,-58.333l-591.704,0c-16.108,0 -29.167,13.054 -29.167,29.166l0,118.529c0,16.109 13.059,29.167 29.167,29.167l591.704,0Z" style="fill:#424243;fill-rule:nonzero;"/><path d="M2421.47,996.571l0,60.196l-551.288,0c-1.908,20.054 -5.741,39.545 -11.25,58.333l591.705,0c16.108,0 29.166,-13.058 29.166,-29.167l0,-118.529c0,-16.112 -13.058,-29.166 -29.166,-29.166l-591.705,0c5.509,18.787 9.342,38.279 11.25,58.333l551.288,0Z" style="fill:#424243;fill-rule:nonzero;"/><path d="M4025.12,1711.98l-1615.9,0l0,-60.2l1615.9,0l0,60.2Zm29.167,-118.533l-1674.24,0c-11.816,0 -21.971,7.042 -26.554,17.146c-1.663,3.67 -2.612,7.729 -2.612,12.021l0,118.533c0,16.108 13.058,29.167 29.166,29.167l1674.24,0c16.108,0 29.166,-13.059 29.166,-29.167l0,-118.533c0,-16.113 -13.058,-29.167 -29.166,-29.167Z" style="fill:#424243;fill-rule:nonzero;"/><path d="M1556.63,761.642c146.138,0 265.029,118.891 265.029,265.025c0,146.137 -118.891,265.029 -265.029,265.029c-146.133,0 -265.025,-118.892 -265.025,-265.029c0,-146.134 118.892,-265.025 265.025,-265.025Zm-315.025,265.025c0,10.158 0.529,20.187 1.475,30.1c1.908,20.054 5.742,39.545 11.25,58.333c38.321,130.779 159.296,226.596 302.3,226.596c143.008,0 263.983,-95.817 302.304,-226.596c5.509,-18.788 9.342,-38.279 11.25,-58.333c0.946,-9.913 1.475,-19.942 1.475,-30.1c0,-10.154 -0.529,-20.184 -1.475,-30.096c-1.908,-20.054 -5.741,-39.546 -11.25,-58.333c-38.321,-130.784 -159.296,-226.596 -302.304,-226.596c-143.004,0 -263.979,95.812 -302.3,226.596c-5.508,18.787 -9.342,38.279 -11.25,58.333c-0.946,9.912 -1.475,19.942 -1.475,30.096Z" style="fill:#424243;fill-rule:nonzero;"/><path d="M1136.65,1753.63l-207.458,0l0,-286.021l207.458,0l0,286.021Zm20.833,-327.687l-249.125,0c-11.504,0 -20.833,9.329 -20.833,20.833l0,327.688c0,11.508 9.329,20.833 20.833,20.833l249.125,0c11.504,0 20.834,-9.325 20.834,-20.833l0,-327.688c0,-11.504 -9.33,-20.833 -20.834,-20.833Z" style="fill:#424243;fill-rule:nonzero;"/><path d="M1660.36,1753.63l-207.454,0l0,-286.021l207.454,0l0,286.021Zm20.834,-327.687l-249.121,0c-11.509,0 -20.834,9.329 -20.834,20.833l0,327.688c0,11.508 9.325,20.833 20.834,20.833l249.121,0c11.508,0 20.833,-9.325 20.833,-20.833l0,-327.688c0,-11.504 -9.325,-20.833 -20.833,-20.833Z" style="fill:#424243;fill-rule:nonzero;"/><path d="M2184.07,1753.63l-207.454,0l0,-286.021l207.454,0l0,286.021Zm20.837,-327.687l-249.125,0c-11.504,0 -20.833,9.329 -20.833,20.833l0,327.688c0,11.508 9.329,20.833 20.833,20.833l249.125,0c11.505,0 20.834,-9.325 20.834,-20.833l0,-327.688c0,-11.504 -9.329,-20.833 -20.834,-20.833Z" style="fill:#424243;fill-rule:nonzero;"/><path d="M1136.65,2248.53l-207.458,0l0,-286.012l207.458,0l0,286.012Zm20.833,-327.679l-249.125,0c-11.504,0 -20.833,9.325 -20.833,20.833l0,327.679c0,11.509 9.329,20.834 20.833,20.834l249.125,0c11.504,0 20.834,-9.325 20.834,-20.834l0,-327.679c0,-11.508 -9.33,-20.833 -20.834,-20.833Z" style="fill:#424243;fill-rule:nonzero;"/><path d="M1660.36,2248.53l-207.454,0l0,-286.012l207.454,0l0,286.012Zm20.834,-327.679l-249.121,0c-11.509,0 -20.834,9.325 -20.834,20.833l0,327.679c0,11.509 9.325,20.834 20.834,20.834l249.121,0c11.508,0 20.833,-9.325 20.833,-20.834l0,-327.679c0,-11.508 -9.325,-20.833 -20.833,-20.833Z" style="fill:#424243;fill-rule:nonzero;"/><path d="M2184.07,2248.53l-207.454,0l0,-286.012l207.454,0l0,286.012Zm20.837,-327.679l-249.125,0c-11.504,0 -20.833,9.325 -20.833,20.833l0,327.679c0,11.509 9.329,20.834 20.833,20.834l249.125,0c11.505,0 20.834,-9.325 20.834,-20.834l0,-327.679c0,-11.508 -9.329,-20.833 -20.834,-20.833Z" style="fill:#424243;fill-rule:nonzero;"/><path d="M2471.47,1962.52l207.454,0l0,286.012l-207.454,0l0,-286.012Zm-20.833,327.679l249.12,0c11.509,0 20.834,-9.325 20.834,-20.834l0,-327.679c0,-11.508 -9.325,-20.833 -20.834,-20.833l-249.12,0c-11.505,0 -20.834,9.325 -20.834,20.833l0,327.679c0,11.509 9.329,20.834 20.834,20.834Z" style="fill:#424243;fill-rule:nonzero;"/><path d="M2995.18,1962.52l207.459,0l0,286.012l-207.459,0l0,-286.012Zm-20.833,327.679l249.125,0c11.504,0 20.833,-9.325 20.833,-20.834l0,-327.679c0,-11.508 -9.329,-20.833 -20.833,-20.833l-249.125,0c-11.504,0 -20.833,9.325 -20.833,20.833l0,327.679c0,11.509 9.329,20.834 20.833,20.834Z" style="fill:#424243;fill-rule:nonzero;"/><path d="M3518.9,1962.52l207.458,0l0,286.012l-207.458,0l0,-286.012Zm-20.833,327.679l249.125,0c11.504,0 20.833,-9.325 20.833,-20.834l0,-327.679c0,-11.508 -9.329,-20.833 -20.833,-20.833l-249.125,0c-11.509,0 -20.834,9.325 -20.834,20.833l0,327.679c0,11.509 9.325,20.834 20.834,20.834Z" style="fill:#424243;fill-rule:nonzero;"/><path d="M2142.68,3463.3l-747.404,0l0,-965.375l747.404,0l0,965.375Zm58.337,58.333l0,-1082.04l-864.075,0l0,1082.04l864.075,0Z" style="fill:#424243;fill-rule:nonzero;"/><path d="M1452.9,2579.1l255.421,0l0,807.846l-255.421,0l0,-807.846Zm-20.833,849.513l297.087,0c11.505,0 20.834,-9.326 20.834,-20.834l0,-849.512c0,-11.505 -9.329,-20.834 -20.834,-20.834l-297.087,0c-11.509,0 -20.834,9.329 -20.834,20.834l0,849.512c0,11.508 9.325,20.834 20.834,20.834Z" style="fill:#424243;fill-rule:nonzero;"/><path d="M1828.07,2579.1l255.425,0l0,807.846l-255.425,0l0,-807.846Zm-20.834,849.513l297.092,0c11.504,0 20.834,-9.326 20.834,-20.834l0,-849.512c0,-11.505 -9.33,-20.834 -20.834,-20.834l-297.092,0c-11.504,0 -20.833,9.329 -20.833,20.834l0,849.512c0,11.508 9.329,20.834 20.833,20.834Z" style="fill:#424243;fill-rule:nonzero;"/><path d="M2471.47,2489.59l1254.89,0l0,638.559l-1254.89,0l0,-638.559Zm-20.833,680.226l1296.55,0c11.504,0 20.833,-9.33 20.833,-20.834l0,-680.225c0,-11.508 -9.329,-20.833 -20.833,-20.833l-1296.55,0c-11.505,0 -20.834,9.325 -20.834,20.833l0,680.225c0,11.504 9.329,20.834 20.834,20.834Z" style="fill:#424243;fill-rule:nonzero;"/><path d="M925.571,2489.59l211.075,0l0,638.559l-211.075,0l0,-638.559Zm-20.834,680.226l252.742,0c11.504,0 20.834,-9.33 20.834,-20.834l0,-680.225c0,-11.508 -9.33,-20.833 -20.834,-20.833l-252.742,0c-11.508,0 -20.833,9.325 -20.833,20.833l0,680.225c0,11.504 9.325,20.834 20.833,20.834Z" style="fill:#424243;fill-rule:nonzero;"/></g></svg>