<?xml version="1.0" encoding="UTF-8" standalone="no"?><!DOCTYPE svg PUBLIC "-//W3C//DTD SVG 1.1//EN" "http://www.w3.org/Graphics/SVG/1.1/DTD/svg11.dtd"><svg width="100%" height="100%" viewBox="0 0 512 512" version="1.1" xmlns="http://www.w3.org/2000/svg" xmlns:xlink="http://www.w3.org/1999/xlink" xml:space="preserve" xmlns:serif="http://www.serif.com/" style="fill-rule:evenodd;clip-rule:evenodd;stroke-linejoin:round;stroke-miterlimit:2;"><g><g><g><path d="M418.256,245.35l-13.006,-105.653l-24.371,3l0.01,-0.017l-47.25,-26.59c-5.04,-2.836 -10.824,-4.07 -16.583,-3.538l-74.606,6.9c-9.171,0.848 -17.366,6.081 -21.993,14.044l-52.584,90.508c-3.883,6.683 -0.835,15.254 6.396,17.985l2.151,0.812c4.138,1.563 8.391,2.468 12.642,2.822l-6.663,5.803l-13.33,11.614l-37.913,32.34c-6.748,5.879 -7.449,16.109 -1.571,22.858l3.846,4.405c7.55,8.658 20.691,9.557 29.365,2.005l14.49,16.62c4.711,5.41 11.613,7.803 18.244,6.987c3.985,-0.49 7.873,-2.142 11.12,-4.982l14.474,16.621c4.728,5.424 11.629,7.801 18.26,6.985c3.985,-0.491 7.874,-2.127 11.122,-4.966l7.866,6.798c7.552,8.673 20.708,9.57 29.382,2.018l10.693,-9.329l89.895,-70.012l0.097,-0.089l35.468,-0.035l-5.651,-45.914Z" style="fill:#f29f5c;fill-opacity:0;fill-rule:nonzero;"/><path d="M379.73,264.08l-0.097,0.089l-89.896,70.012l-10.693,9.329c-8.673,7.552 -21.83,6.655 -29.382,-2.018l-7.866,-6.798c-3.248,2.839 -7.138,4.476 -11.122,4.966c-6.631,0.816 -13.531,-1.561 -18.26,-6.985l-14.474,-16.621c-3.248,2.839 -7.136,4.491 -11.12,4.982c-6.631,0.816 -13.533,-1.576 -18.244,-6.987l-14.49,-16.62c-7.426,6.466 -18.118,6.718 -25.781,1.227c-3.929,5.926 -3.615,13.958 1.283,19.582l3.846,4.405c7.55,8.658 20.691,9.557 29.365,2.005l14.49,16.62c4.711,5.41 11.613,7.803 18.244,6.987c3.985,-0.49 7.872,-2.142 11.12,-4.982l14.474,16.622c4.728,5.424 11.629,7.801 18.26,6.985c3.985,-0.491 7.874,-2.127 11.122,-4.966l7.866,6.798c7.552,8.673 20.708,9.57 29.382,2.018l10.693,-9.329l89.895,-70.012l0.097,-0.089l35.468,-0.035l-3.924,-31.876l-40.256,4.691Z" style="fill:#d37d42;fill-opacity:0;fill-rule:nonzero;"/></g><g><path d="M396.099,309.78l-48.164,-41.53l-13.394,-11.54l-9.584,-8.254l-41.207,-35.52l4.759,-40.51c1.61,-13.701 -7.015,-26.528 -20.311,-30.207l-89.825,-24.854c-9.504,-2.63 -19.549,1.78 -24.045,10.557l-11.296,22.049l-48.487,-3.291l-12.42,105.724l-5.398,45.945l47.198,3.139l0.098,0.089l98.601,84.992l10.745,9.27c8.715,7.504 21.866,6.534 29.37,-2.181l14.38,-16.685c3.263,2.821 7.162,4.436 11.15,4.905c6.635,0.78 13.523,-1.636 18.221,-7.086l14.382,-16.701c3.263,2.821 7.16,4.452 11.148,4.92c6.635,0.78 13.524,-1.651 18.205,-7.088l14.397,-16.7c8.715,7.504 21.85,6.532 29.352,-2.168l3.822,-4.427c5.842,-6.781 5.084,-17.007 -1.697,-22.848Z" style="fill:#f9c295;fill-opacity:0;fill-rule:nonzero;"/><path d="M396.099,309.78l-14.67,-12.65c4.767,6.323 4.669,15.318 -0.711,21.564l-4.057,4.699c-7.964,9.235 -21.908,10.267 -31.16,2.301l-15.284,17.728c-4.969,5.771 -12.282,8.351 -19.326,7.524c-4.233,-0.497 -8.37,-2.228 -11.834,-5.223l-15.268,17.73c-4.987,5.785 -12.298,8.349 -19.342,7.522c-4.233,-0.497 -8.372,-2.212 -11.836,-5.207l-15.266,17.714c-2.876,3.34 -6.539,5.591 -10.474,6.751l6.499,5.607c8.715,7.504 21.866,6.534 29.37,-2.181l14.38,-16.685c3.263,2.821 7.162,4.436 11.15,4.905c6.635,0.779 13.523,-1.636 18.221,-7.086l14.382,-16.701c3.263,2.821 7.16,4.452 11.148,4.92c6.635,0.78 13.524,-1.651 18.205,-7.088l14.397,-16.7c8.715,7.504 21.85,6.532 29.352,-2.168l3.822,-4.427c5.841,-6.782 5.083,-17.008 -1.698,-22.849Z" style="fill:#e59f6a;fill-opacity:0;fill-rule:nonzero;"/></g><g><g><path d="M126.385,301.382l-5.713,7.544c-6.221,8.215 -4.605,19.918 3.61,26.14c8.214,6.221 19.917,4.605 26.139,-3.61l5.713,-7.544c6.221,-8.215 4.605,-19.918 -3.61,-26.14c-8.215,-6.221 -19.919,-4.605 -26.139,3.61Z" style="fill:#f29f5c;fill-opacity:0;fill-rule:nonzero;"/><path d="M161.18,317.248l-10.759,14.207c-6.221,8.215 -4.605,19.918 3.61,26.14c8.215,6.221 19.918,4.605 26.14,-3.61l10.759,-14.207c6.221,-8.215 4.605,-19.918 -3.61,-26.14c-8.216,-6.221 -19.919,-4.605 -26.14,3.61Z" style="fill:#f29f5c;fill-opacity:0;fill-rule:nonzero;"/><path d="M194.833,334.623l-14.663,19.362c-6.221,8.215 -4.605,19.918 3.61,26.14c8.215,6.22 19.918,4.604 26.14,-3.61l14.663,-19.362c6.221,-8.215 4.605,-19.918 -3.61,-26.14c-8.215,-6.221 -19.918,-4.605 -26.14,3.61Z" style="fill:#f29f5c;fill-opacity:0;fill-rule:nonzero;"/><path d="M225.434,356.03l-15.514,20.485c-6.221,8.214 -4.605,19.917 3.61,26.139c8.215,6.221 19.918,4.605 26.14,-3.61l15.514,-20.484c6.221,-8.215 4.605,-19.918 -3.61,-26.14c-8.216,-6.221 -19.919,-4.605 -26.14,3.61Z" style="fill:#f29f5c;fill-opacity:0;fill-rule:nonzero;"/></g></g><path d="M380.889,142.68l-47.25,-26.59c-5.04,-2.836 -10.824,-4.07 -16.583,-3.538l-74.606,6.9c-9.171,0.848 -17.366,6.081 -21.993,14.044l-52.584,90.508c-3.883,6.684 -0.835,15.254 6.396,17.985l2.151,0.812c19.275,7.28 41.043,1.085 53.596,-15.252l20.147,-26.22c0,0 48.429,56.073 101.749,-9.41" style="fill:#f29f5c;fill-opacity:0;fill-rule:nonzero;"/><path d="M479.786,105.557l24.713,200.75l-57.788,7.114c-10.922,1.344 -20.865,-6.419 -22.21,-17.341l-19.844,-161.201c-1.344,-10.921 6.419,-20.864 17.341,-22.209l57.788,-7.113Z" style="fill:#48a9a6;fill-rule:nonzero;"/><path d="M445.745,290.766c-11.239,1.384 -21.532,-6.031 -23.972,-16.849l2.728,22.163c1.344,10.922 11.288,18.685 22.21,17.341l57.788,-7.114l-2.762,-22.434l-55.992,6.893Z" style="fill:#3a8884;fill-rule:nonzero;"/><path d="M32.214,105.557l-24.713,200.751l57.788,7.114c10.922,1.344 20.865,-6.419 22.21,-17.341l19.844,-161.201c1.344,-10.921 -6.419,-20.864 -17.341,-22.209l-57.788,-7.114Z" style="fill:#48a9a6;fill-rule:nonzero;"/><path d="M66.649,290.267l-56.32,-6.933l-2.828,22.974l57.788,7.114c10.922,1.344 20.865,-6.419 22.21,-17.341l2.096,-17.028c-4.613,7.7 -13.463,12.382 -22.946,11.214Z" style="fill:#3a8884;fill-rule:nonzero;"/><g><circle cx="464.001" cy="273.246" r="14.498" style="fill:#ebeef2;"/><circle cx="47.191" cy="273.246" r="14.498" style="fill:#ebeef2;"/></g></g><g><path d="M256.101,346.441c-6.105,-4.624 -13.603,-6.152 -20.597,-4.848c-1.099,-6.627 -4.627,-12.487 -10.003,-16.559c-5.571,-4.219 -12.449,-6.015 -19.372,-5.06c-1.715,0.237 -3.381,0.637 -4.983,1.188c-1.518,-5.205 -4.655,-9.985 -9.3,-13.503c-7.651,-5.795 -17.487,-6.722 -25.779,-3.312c-1.651,-4.969 -4.752,-9.325 -9.016,-12.555c-5.57,-4.219 -12.452,-6.014 -19.372,-5.06c-5.613,0.775 -10.706,3.285 -14.682,7.176l-27.452,-1.825l16.826,-136.683l30.149,2.049c0.171,0.011 0.341,0.017 0.51,0.017c2.798,0 5.383,-1.564 6.672,-4.08l11.299,-22.047c2.863,-5.58 9.326,-8.417 15.369,-6.744l16.78,4.639c3.989,1.101 8.123,-1.237 9.228,-5.229c1.104,-3.992 -1.238,-8.124 -5.23,-9.228l-16.777,-4.639c-12.86,-3.56 -26.62,2.476 -32.715,14.357l-9.047,17.652l-24.401,-1.658l0.578,-4.696c1.848,-15.008 -8.859,-28.721 -23.868,-30.569l-57.788,-7.11c-4.118,-0.504 -7.854,2.417 -8.36,6.527c-0.506,4.111 2.417,7.854 6.527,8.36l57.788,7.114c3.294,0.405 6.233,2.069 8.275,4.685c2.042,2.616 2.944,5.87 2.538,9.164l-19.844,161.2c-0.837,6.799 -7.051,11.646 -13.85,10.814l-57.788,-7.114c-4.116,-0.502 -7.854,2.416 -8.36,6.527c-0.506,4.111 2.417,7.854 6.527,8.36l57.788,7.114c1.132,0.139 2.257,0.207 3.37,0.207c10.13,0 19.269,-5.628 24.004,-14.207l20.537,1.365c-2.455,4.752 -3.396,10.131 -2.65,15.538c0.956,6.921 4.55,13.057 10.12,17.275c4.593,3.479 10.074,5.31 15.738,5.31c1.205,0 2.418,-0.083 3.633,-0.25c0.078,-0.011 0.154,-0.026 0.231,-0.038c0.01,0.078 0.016,0.155 0.026,0.233c0.956,6.921 4.55,13.057 10.12,17.275c4.715,3.57 10.259,5.295 15.762,5.295c1.29,0 2.577,-0.105 3.851,-0.293c0.864,6.728 4.315,13.119 10.137,17.527c4.715,3.571 10.259,5.295 15.762,5.295c1.286,0 2.569,-0.104 3.839,-0.291c0.011,0.083 0.017,0.167 0.028,0.25c0.956,6.921 4.55,13.057 10.121,17.275c4.593,3.478 10.075,5.31 15.738,5.31c1.206,0 2.419,-0.083 3.633,-0.25c6.922,-0.956 13.057,-4.55 17.275,-10.12l15.514,-20.484c8.71,-11.498 6.44,-27.938 -5.059,-36.646Zm-119.029,-15.196c-2.951,0.408 -5.887,-0.359 -8.263,-2.159c-2.375,-1.799 -3.908,-4.417 -4.316,-7.369c-0.408,-2.953 0.359,-5.887 2.159,-8.264l5.712,-7.544c1.799,-2.376 4.417,-3.909 7.369,-4.317c2.953,-0.405 5.887,0.359 8.264,2.159c2.376,1.799 3.909,4.417 4.317,7.369c0.408,2.952 -0.359,5.886 -2.158,8.263l-5.714,7.544c-1.8,2.376 -4.417,3.91 -7.37,4.318Zm21.486,20.371c-2.376,-1.799 -3.909,-4.417 -4.317,-7.369c-0.408,-2.953 0.359,-5.887 2.159,-8.264l5.713,-7.543c0,0 0.001,-0.001 0.001,-0.002l5.045,-6.662c2.192,-2.894 5.531,-4.417 8.909,-4.417c2.347,0 4.712,0.736 6.723,2.259c4.905,3.715 5.874,10.727 2.159,15.633l-10.759,14.207c-3.715,4.905 -10.728,5.873 -15.633,2.158Zm29.75,22.53c-2.376,-1.799 -3.909,-4.417 -4.317,-7.37c-0.408,-2.951 0.358,-5.885 2.156,-8.26c0.001,-0.001 0.001,-0.002 0.002,-0.003l10.759,-14.208l3.904,-5.155c1.799,-2.376 4.417,-3.909 7.37,-4.317c2.954,-0.406 5.887,0.359 8.264,2.159c4.903,3.713 5.872,10.722 2.162,15.627l-14.667,19.367c-0.001,0.001 -0.002,0.002 -0.002,0.003c-3.716,4.903 -10.725,5.872 -15.631,2.157Zm60.896,-0.114l-15.514,20.484c-1.799,2.376 -4.417,3.909 -7.369,4.317c-2.955,0.407 -5.888,-0.359 -8.264,-2.158c-2.376,-1.799 -3.909,-4.417 -4.317,-7.369c-0.408,-2.953 0.359,-5.886 2.159,-8.263l14.664,-19.362c0.003,-0.003 0.005,-0.007 0.008,-0.01l0.843,-1.113c1.799,-2.376 4.417,-3.909 7.37,-4.317c2.953,-0.405 5.887,0.359 8.264,2.159c4.902,3.713 5.871,10.727 2.156,15.632Z" style="fill:#3f3a34;fill-rule:nonzero;"/><path d="M511.943,305.391c-0.506,-4.11 -4.245,-7.029 -8.36,-6.527l-57.787,7.114c-6.809,0.837 -13.013,-4.015 -13.85,-10.814l-0.592,-4.811l-0.137,-1.114l-19.114,-155.275c-0.406,-3.294 0.496,-6.547 2.538,-9.164c2.042,-2.616 4.981,-4.28 8.275,-4.685l57.788,-7.114c4.111,-0.506 7.033,-4.249 6.527,-8.36c-0.506,-4.11 -4.245,-7.029 -8.36,-6.527l-57.788,7.114c-14.123,1.739 -24.433,13.984 -24.062,27.928l-14.572,1.794l-45.126,-25.394c-6.39,-3.6 -13.634,-5.146 -20.949,-4.474c-0.015,0.001 -0.03,0.005 -0.045,0.006l-13.583,1.256c-4.125,0.381 -7.159,4.034 -6.777,8.159c0.381,4.124 4.028,7.153 8.159,6.777l13.621,-1.26c4.262,-0.394 8.486,0.508 12.214,2.606l46.787,26.329c1.464,0.966 3.246,1.408 5.048,1.187l16.925,-2.083l12.415,100.843l4.293,34.874l-26.997,0.022c-1.8,0.001 -3.538,0.65 -4.896,1.825l-2.089,1.626l-67.778,-58.416c15.489,-4.453 30.254,-15.224 44.059,-32.177c2.615,-3.212 2.132,-7.936 -1.08,-10.552c-3.212,-2.615 -7.937,-2.132 -10.552,1.08c-15.43,18.95 -31.654,28.704 -48.222,28.99c-24.137,0.454 -41.872,-19.56 -42.035,-19.747c-1.475,-1.706 -3.637,-2.65 -5.891,-2.595c-2.254,0.064 -4.359,1.14 -5.733,2.927l-20.147,26.22c-10.615,13.816 -28.698,18.964 -44.999,12.806l-2.151,-0.813c-1.889,-0.714 -2.659,-2.19 -2.949,-3.007c-0.29,-0.817 -0.626,-2.448 0.388,-4.194l52.584,-90.507c3.401,-5.854 9.457,-9.72 16.199,-10.344l31.133,-2.879c4.125,-0.382 7.159,-4.035 6.777,-8.159c-0.382,-4.124 -4.035,-7.157 -8.159,-6.777l-31.133,2.879c-11.565,1.07 -21.953,7.704 -27.788,17.745l-52.584,90.507c-2.96,5.096 -3.526,11.203 -1.551,16.756c1.975,5.553 6.27,9.931 11.782,12.013l2.151,0.813c6.344,2.396 12.881,3.553 19.331,3.553c16.453,-0.001 32.323,-7.535 42.863,-21.252l15.031,-19.562c8.055,6.942 23.082,17.224 42.264,18.487l97.944,84.416c1.761,1.517 2.826,3.629 2.998,5.947c0.172,2.318 -0.568,4.565 -2.083,6.324l-3.817,4.427c-4.794,5.554 -13.223,6.171 -18.787,1.378c-0.311,-0.268 -0.642,-0.498 -0.981,-0.706l-25.426,-21.924c-3.135,-2.704 -7.872,-2.354 -10.578,0.783c-2.705,3.137 -2.354,7.873 0.783,10.578l20.662,17.816l-9.425,10.938c-2.896,3.359 -7.254,5.056 -11.653,4.539c-2.633,-0.31 -5.098,-1.399 -7.128,-3.15c-0.036,-0.031 -0.075,-0.057 -0.111,-0.087l-23.625,-20.37c-3.137,-2.704 -7.872,-2.354 -10.578,0.783c-2.705,3.137 -2.354,7.873 0.783,10.578l18.054,15.567l-9.481,11.011c-2.897,3.36 -7.265,5.057 -11.665,4.539c-4.115,-0.486 -7.841,2.46 -8.324,6.573c-0.483,4.113 2.459,7.84 6.573,8.323c1.111,0.13 2.219,0.195 3.323,0.195c8.19,0 16.029,-3.547 21.457,-9.839l10.136,-11.771c2.769,1.32 5.746,2.183 8.834,2.546c9.36,1.1 18.613,-2.505 24.767,-9.643l10.153,-11.783c11.228,5.326 25.095,2.771 33.595,-7.076l3.822,-4.433c4.132,-4.797 6.149,-10.916 5.68,-17.229c-0.469,-6.314 -3.37,-12.067 -8.164,-16.196l-6.156,-5.305l22.501,-0.019c2.459,12.96 13.864,22.299 26.915,22.299c1.112,0 2.239,-0.068 3.37,-0.207l57.788,-7.114c4.111,-0.507 7.034,-4.249 6.528,-8.361Z" style="fill:#3f3a34;fill-rule:nonzero;"/><path d="M464.001,251.248c-12.13,0 -21.999,9.868 -21.999,21.998c0,12.13 9.869,21.999 21.999,21.999c12.13,0 21.998,-9.869 21.998,-21.999c0,-12.13 -9.868,-21.998 -21.998,-21.998Zm0,28.997c-3.859,0 -6.999,-3.14 -6.999,-6.999c0,-3.859 3.14,-6.998 6.999,-6.998c3.859,0 6.998,3.139 6.998,6.998c0,3.859 -3.139,6.999 -6.998,6.999Z" style="fill:#3f3a34;fill-rule:nonzero;"/><path d="M69.189,273.246c0,-12.13 -9.868,-21.998 -21.998,-21.998c-12.13,0 -21.998,9.868 -21.998,21.998c0,12.13 9.868,21.999 21.998,21.999c12.13,0 21.998,-9.869 21.998,-21.999Zm-28.996,0c0,-3.859 3.139,-6.998 6.998,-6.998c3.859,0 6.998,3.139 6.998,6.998c0,3.859 -3.139,6.999 -6.998,6.999c-3.859,0 -6.998,-3.14 -6.998,-6.999Z" style="fill:#3f3a34;fill-rule:nonzero;"/></g></g></svg>