<?xml version="1.0" encoding="UTF-8" standalone="no"?><!DOCTYPE svg PUBLIC "-//W3C//DTD SVG 1.1//EN" "http://www.w3.org/Graphics/SVG/1.1/DTD/svg11.dtd"><svg width="100%" height="100%" viewBox="0 0 512 512" version="1.1" xmlns="http://www.w3.org/2000/svg" xmlns:xlink="http://www.w3.org/1999/xlink" xml:space="preserve" xmlns:serif="http://www.serif.com/" style="fill-rule:evenodd;clip-rule:evenodd;stroke-linejoin:round;stroke-miterlimit:2;"><g><g><g><path d="M264,424l-16,0c-8.824,0 -16,-7.176 -16,-16l0,-16l-16,0c-8.824,0 -16,-7.176 -16,-16l0,-16c0,-8.824 7.176,-16 16,-16l16,0l0,-16c0,-8.824 7.176,-16 16,-16l16,0c8.824,0 16,7.176 16,16l0,16l16,0c8.824,0 16,7.176 16,16l0,16c0,8.824 -7.176,16 -16,16l-16,0l0,16c0,8.824 -7.176,16 -16,16Zm32,-64l8,0l-8,0Z" style="fill:#48a9a6;fill-rule:nonzero;"/></g></g><g><path d="M159.016,8l-49.352,0c-21.208,0 -40.6,11.984 -50.08,30.952l-0.736,1.464c-15.2,2.464 -26.848,15.696 -26.848,31.584c0,11.432 3.472,25.048 6.392,34.464l1.744,5.632l1.304,0c3.28,-9.352 12.088,-16.096 22.56,-16.096l9.56,0l-0.008,0.256c3.312,-11.768 11.864,-21.624 23.584,-26.312l10.28,-4.112l0.048,0.016c-2.216,-5.52 -3.464,-11.536 -3.464,-17.848l1.312,7.888c3.864,23.152 23.888,40.112 47.352,40.112l39.336,0c10.472,0 19.288,6.752 22.56,16.104l1.664,0l5.832,-23.352c1.288,-5.144 1.944,-10.448 1.944,-15.768c0,-35.832 -29.152,-64.984 -64.984,-64.984Z" style="fill:#48a9a6;fill-rule:nonzero;"/></g><g><g><path d="M476.712,121.088c2.16,-5.832 3.288,-12.048 3.288,-18.264c0,-11.28 -3.728,-22.464 -10.496,-31.48l-10.44,-13.92l-3.368,0c0.088,0.72 0.304,1.416 0.304,2.152c0,2.912 -0.68,5.776 -1.976,8.376l-14.024,28.048l0,48c0,22.496 -13.296,41.848 -32.44,50.752l10.592,0c6.728,3.432 14.232,5.248 21.848,5.248c26.472,0 48,-21.528 48,-48c0,-11.32 -4.056,-22.312 -11.288,-30.912Z" style="fill:#48a9a6;fill-rule:nonzero;"/></g><g><path d="M328,144l0,-48l-14.024,-28.048c-1.296,-2.6 -1.976,-5.464 -1.976,-8.376c0,-0.744 0.216,-1.432 0.304,-2.152l-3.368,0l-10.44,13.912c-6.768,9.024 -10.496,20.2 -10.496,31.488c0,6.216 1.128,12.44 3.288,18.264c-7.232,8.6 -11.288,19.592 -11.288,30.912c0,26.472 21.528,48 48,48c7.616,0 15.12,-1.816 21.848,-5.248l10.592,0c-19.144,-8.904 -32.44,-28.256 -32.44,-50.752Z" style="fill:#48a9a6;fill-rule:nonzero;"/></g></g><g><path d="M452.552,215.16l-30.016,-6.008l-2.992,-11.96c17.144,-11.504 28.456,-31.048 28.456,-53.192l0,-46.112l13.176,-26.36c1.848,-3.696 2.824,-7.824 2.824,-11.952c0,-10.192 -5.664,-19.36 -14.776,-23.912l-46.496,-23.24c-11.576,-5.784 -25.88,-5.784 -37.464,0l-46.488,23.24c-9.112,4.552 -14.776,13.72 -14.776,23.912c0,4.128 0.976,8.256 2.824,11.952l13.176,26.36l0,46.112c0,22.144 11.312,41.688 28.456,53.184l-2.992,11.96l-30.016,6.008c-23.912,4.776 -42.72,22.68 -49.056,45.992c-3.624,2.32 -7.12,4.872 -10.4,7.76c-3.272,-2.896 -6.768,-5.448 -10.4,-7.76c-6.336,-23.312 -25.136,-41.224 -49.048,-45.992l-29.568,-5.912l-3.352,-20.112c12.816,-8.624 22.288,-21.784 26.264,-37.128l2.112,0c17.648,0 32,-14.352 32,-32c0,-17.648 -14.352,-32 -32,-32l-40,0c-22.056,0 -40,-17.944 -40,-40l-16,0c0,4.528 0.6,8.912 1.624,13.136l-3.448,1.384c-12.072,4.824 -21.24,14.096 -26.152,25.48l-4.024,0c-17.648,0 -32,14.352 -32,32c0,17.648 14.352,32 32,32l2.104,0c3.976,15.352 13.448,28.504 26.264,37.128l-3.352,20.112l-29.568,5.912c-29.808,5.968 -51.448,32.352 -51.448,62.752l0,98.096c0,26.472 21.528,48 48,48l0,80l419.096,0l-3.504,-10.528c-0.144,-0.432 -13.072,-39.576 -15.248,-69.488c26.304,-0.184 47.656,-21.632 47.656,-47.984l0,-98.096c0,-30.4 -21.64,-56.784 -51.448,-62.744Zm35.448,62.744l0,50.096l-32,0l0,-40l-16,0l0,72l-51.952,0c2.56,-8.456 3.952,-17.192 3.952,-26.152c0,-1.96 -0.128,-3.904 -0.256,-5.848l0.256,0l0,-80l27.552,20.664l16.224,-40.552l13.64,2.728c22.36,4.472 38.584,24.272 38.584,47.064Zm-119.16,-44.536l-13.296,9.968l-7.368,-18.416l2.688,-0.536l17.976,8.984Zm48.28,-8.984l2.688,0.536l-7.368,18.416l-13.296,-9.968l17.976,-8.984Zm-41.12,23.616l0,34.512c-1.552,-2.256 -3.2,-4.448 -4.968,-6.568c-4.28,-5.128 -9.192,-9.544 -14.496,-13.352l19.464,-14.592Zm-50.064,-198.024l46.488,-23.24c7.168,-3.576 16,-3.576 23.16,0l46.496,23.24c3.648,1.832 5.92,5.512 5.92,9.6c0,1.656 -0.392,3.312 -1.136,4.8l-11.808,23.624l-43.056,0l0,-16l16,0l0,-16l-16,0l0,-16l-16,0l0,16l-16,0l0,16l16,0l0,16l-43.056,0l-11.816,-23.624c-0.736,-1.488 -1.128,-3.144 -1.128,-4.8c0,-4.088 2.272,-7.768 5.936,-9.6Zm10.064,94.024l0,-40l96,0l0,40c0,26.472 -21.528,48 -48,48c-26.472,0 -48,-21.528 -48,-48Zm48,64c7.312,0 14.312,-1.296 20.864,-3.56l1.816,7.272l-22.68,11.344l-22.68,-11.344l1.816,-7.272c6.552,2.264 13.552,3.56 20.864,3.56Zm-65.416,22.84l13.64,-2.728l10.648,26.616c-9.792,-4.344 -20.48,-6.728 -31.504,-6.728c-7.952,0 -15.72,1.128 -23.16,3.256c6.928,-10.352 17.672,-17.872 30.376,-20.416Zm-62.584,60.472l7.48,-7.48c12.792,-12.784 29.8,-19.832 47.888,-19.832c18.352,0 35.624,8.088 47.376,22.192c11.128,13.344 17.256,30.28 17.256,47.656c0,9.024 -1.688,17.776 -4.848,26.152l-43.152,0c-17.648,0 -32,14.352 -32,32c0,14.256 9.432,26.224 22.336,30.344l-62.336,62.344l-62.336,-62.336c12.904,-4.128 22.336,-16.096 22.336,-30.352c0,-17.648 -14.352,-32 -32,-32l-43.152,0c-3.16,-8.368 -4.848,-17.128 -4.848,-26.152c0,-17.384 6.128,-34.312 17.256,-47.656c11.752,-14.104 29.024,-22.192 47.376,-22.192c18.088,0 35.096,7.048 47.888,19.832l7.48,7.48Zm83.312,132.688l36.688,0l0,64l-100.688,0l64,-64Zm-155.312,-48c8.824,0 16,7.176 16,16c0,8.824 -7.176,16 -16,16l-16,0l0,-32l16,0Zm-59.72,-120l-4.688,-7.032l8.408,-6.72l8.408,6.72l-4.688,7.032l-7.44,0Zm21.784,14.472l-1.384,-5.064l4.272,-6.4l5.424,4.336c-2.92,2.168 -5.696,4.536 -8.312,7.128Zm-39.008,-11.472l4.264,6.4l-3.2,11.688l-7.424,-13l6.36,-5.088Zm19.048,13l3.792,0l3.856,14.072c-3.864,6.208 -6.952,12.84 -9.208,19.76l-5.208,-9.112l6.768,-24.72Zm97.688,-20.744c-7.432,-2.128 -15.208,-3.256 -23.16,-3.256c-6.536,0 -12.928,0.896 -19.12,2.464l11.288,-19.744l0.616,0.12c12.704,2.544 23.448,10.064 30.376,20.416Zm-47.528,-23.848l-12.92,22.616l-20.576,-16.464l18.368,-9.184l15.128,3.032Zm-16.264,-123.408c8.824,0 16,7.176 16,16c0,8.824 -7.176,16 -16,16c-8.824,0 -16,-7.176 -16,-16c0,-8.824 7.176,-16 16,-16Zm48,16c0,8.824 -7.176,16 -16,16l0,-32c8.824,0 16,7.176 16,16Zm-107.88,-42.624l3.456,-1.384c6.8,11.712 17.696,20.744 30.744,25.104c-2.384,3.232 -4.144,6.912 -5.184,10.904l-2.272,0c-3.576,-13.768 -16,-24 -30.864,-24c-3.912,0 -7.616,0.808 -11.08,2.096c3.512,-5.608 8.72,-10.136 15.2,-12.72Zm-4.12,26.624c8.824,0 16,7.176 16,16c0,8.824 -7.176,16 -16,16c-8.824,0 -16,-7.176 -16,-16c0,-8.824 7.176,-16 16,-16Zm-48,16c0,-8.824 7.176,-16 16,-16l0.232,0c-0.064,1.032 -0.232,2.032 -0.232,3.08l0,28.92c-8.824,0 -16,-7.176 -16,-16Zm33.704,28.472c4.32,2.184 9.136,3.528 14.296,3.528c14.864,0 27.288,-10.232 30.864,-24l2.272,0c3.576,13.768 16,24 30.864,24c5.16,0 9.976,-1.344 14.296,-3.528c-5.512,20.432 -24.152,35.528 -46.296,35.528c-22.144,0 -40.784,-15.096 -46.296,-35.528Zm46.296,51.528c7.232,0 14.16,-1.264 20.648,-3.48l2.496,14.968l-23.144,11.568l-23.136,-11.568l2.496,-14.968c6.48,2.216 13.408,3.48 20.64,3.48Zm-33.128,24.384l18.36,9.184l-20.584,16.464l-12.92,-22.616l15.144,-3.032Zm-70.872,151.616l0,-98.096c0,-22.8 16.224,-42.592 38.584,-47.064l0.616,-0.12l56.952,99.672c-0.048,1.152 -0.152,2.304 -0.152,3.456c0,8.96 1.392,17.696 3.952,26.152l-51.952,0l0,-72l-16,0l0,76.688l-13.656,13.656l11.312,11.312l13.656,-13.656l84.688,0l0,32l-96,0c-17.648,0 -32,-14.352 -32,-32Zm48,48l100.688,0l64,64l-164.688,0l0,-64Zm320,64l0,-64l48.32,0c1.48,22.656 8.544,49.48 12.832,64l-61.152,0Zm64,-80l-128,0c-8.824,0 -16,-7.176 -16,-16c0,-8.824 7.176,-16 16,-16l116.688,0l13.656,13.656l11.312,-11.312l-13.656,-13.656l0,-20.688l32,0l0,32c0,17.648 -14.352,32 -32,32Z" style="fill:#3f3a34;fill-rule:nonzero;"/><path d="M367.16,148.424l-14.312,7.16l0.84,1.688c5.776,11.552 17.392,18.728 30.312,18.728c12.92,0 24.536,-7.176 30.312,-18.736l0.84,-1.688l-14.312,-7.16l-0.84,1.696c-3.048,6.096 -9.176,9.888 -16,9.888c-6.824,0 -12.952,-3.792 -16,-9.888l-0.84,-1.688Z" style="fill:#3f3a34;fill-rule:nonzero;"/><circle cx="360" cy="128" r="8" style="fill:#3f3a34;"/><circle cx="408" cy="128" r="8" style="fill:#3f3a34;"/></g></g></svg>