<?xml version="1.0" encoding="UTF-8" standalone="no"?><!DOCTYPE svg PUBLIC "-//W3C//DTD SVG 1.1//EN" "http://www.w3.org/Graphics/SVG/1.1/DTD/svg11.dtd"><svg width="100%" height="100%" viewBox="0 0 512 512" version="1.1" xmlns="http://www.w3.org/2000/svg" xmlns:xlink="http://www.w3.org/1999/xlink" xml:space="preserve" xmlns:serif="http://www.serif.com/" style="fill-rule:evenodd;clip-rule:evenodd;stroke-linejoin:round;stroke-miterlimit:2;"><g><path d="M328,440l0,-16c4.72,0 9.384,-0.68 13.856,-2.024l4.608,15.32c-5.968,1.792 -12.184,2.704 -18.464,2.704Z" style="fill:#3f3a34;fill-rule:nonzero;"/><path d="M363.296,429.392l-8.832,-13.336c13.488,-8.936 21.536,-23.904 21.536,-40.056c0,-26.472 -21.528,-48 -48,-48l0,-16c35.288,0 64,28.712 64,64c0,21.528 -10.728,41.488 -28.704,53.392Z" style="fill:#3f3a34;fill-rule:nonzero;"/><path d="M224,120c-22.056,0 -40,-17.944 -40,-40c0,-22.056 17.944,-40 40,-40c22.056,0 40,17.944 40,40c0,22.056 -17.944,40 -40,40Zm0,-64c-13.232,0 -24,10.768 -24,24c0,13.232 10.768,24 24,24c13.232,0 24,-10.768 24,-24c0,-13.232 -10.768,-24 -24,-24Z" style="fill:#3f3a34;fill-rule:nonzero;"/><rect x="304" y="48" width="48" height="128" style="fill:#48a9a6;fill-rule:nonzero;"/><rect x="304" y="40" width="48" height="16" style="fill:#3f3a34;fill-rule:nonzero;"/><rect x="304" y="72" width="48" height="16" style="fill:#3f3a34;fill-rule:nonzero;"/><rect x="304" y="104" width="48" height="16" style="fill:#3f3a34;fill-rule:nonzero;"/><rect x="304" y="136" width="48" height="16" style="fill:#3f3a34;fill-rule:nonzero;"/><path d="M224,104c-35.288,0 -64,28.712 -64,64l0,16l128,0l0,-16c0,-35.288 -28.712,-64 -64,-64Zm-48,64c0,-26.472 21.528,-48 48,-48c26.472,0 48,21.528 48,48l-96,0Z" style="fill:#3f3a34;fill-rule:nonzero;"/><path d="M160,320l66.496,0l0,-16l-50.496,0l0,-88l160,0l0,41.072l16,0l0,-57.072l-192,0l0,120Z" style="fill:#3f3a34;fill-rule:nonzero;"/><path d="M384,57.912l0,-49.912l-256,0l0,49.912l-121.496,25.824l53.624,252.264l-12.128,0c-22.056,0 -40,17.944 -40,40c0,22.056 17.944,40 40,40l120,0l0,-16l41.184,0l0,-16l-41.184,0l0,-16l41.184,0l0,-16l-41.184,0l0,-16l-24,0l0,-312l224,0l0,242l16,0l0,-191.728l102.504,21.792l-50.288,236.616l-1.536,6.832l15.608,3.512l55.2,-259.28l-121.488,-25.832Zm-290.576,136.224c6.984,-10.752 17.736,-18.144 30.28,-20.808c1.392,-0.296 2.848,-0.456 4.296,-0.616l0,48.776l-41.264,8.776c-2.672,-12.544 -0.288,-25.376 6.688,-36.128Zm8.888,-39.8c-5.376,-3.496 -9.072,-8.864 -10.4,-15.144c-1.336,-6.272 -0.152,-12.68 3.344,-18.056c3.496,-5.376 8.864,-9.072 15.136,-10.408c6.08,-1.288 12.312,0.016 17.608,3.376l0,40.184c-2.416,1.568 -4.928,2.824 -7.624,3.392c-6.28,1.328 -12.688,0.144 -18.064,-3.344Zm-76.816,-58.28l102.504,-21.784l0,22.088c-6.68,-2.272 -13.864,-2.792 -20.936,-1.28c-10.448,2.224 -19.408,8.376 -25.224,17.336c-5.816,8.96 -7.8,19.656 -5.576,30.096c2.216,10.456 8.384,19.416 17.344,25.232c0.656,0.424 1.352,0.736 2.024,1.12c-6.064,4.496 -11.384,10.032 -15.616,16.552c-9.312,14.336 -12.488,31.44 -8.928,48.16l3.312,15.664l53.6,-11.4l0,16.36l-50.272,10.688l15.112,71.112l-16.352,0l-50.992,-239.944Zm126.504,303.944l-104,0c-13.232,0 -24,-10.768 -24,-24c0,-13.232 10.768,-24 24,-24l104,0l0,48Zm-42.792,-64l-12.496,-58.792l31.288,-6.648l0,65.44l-18.792,0Z" style="fill:#3f3a34;fill-rule:nonzero;"/><rect x="304" y="168" width="48" height="16" style="fill:#3f3a34;fill-rule:nonzero;"/><path d="M392.322,231.499l26.624,-125.184l46.944,9.984l-26.624,125.184l-46.944,-9.984Z" style="fill:#48a9a6;fill-rule:nonzero;"/><path d="M417.276,114.122l3.328,-15.648l46.944,9.984l-3.328,15.648l-46.944,-9.984Z" style="fill:#3f3a34;fill-rule:nonzero;"/><path d="M410.619,145.431l3.328,-15.648l46.944,9.984l-3.328,15.648l-46.944,-9.984Z" style="fill:#3f3a34;fill-rule:nonzero;"/><path d="M403.954,176.723l3.328,-15.648l46.936,9.983l-3.328,15.648l-46.936,-9.983Z" style="fill:#3f3a34;fill-rule:nonzero;"/><path d="M397.307,208.031l3.328,-15.648l46.944,9.984l-3.328,15.648l-46.944,-9.984Z" style="fill:#3f3a34;fill-rule:nonzero;"/><path d="M390.65,239.331l3.328,-15.648l46.944,9.984l-3.328,15.648l-46.944,-9.984Z" style="fill:#3f3a34;fill-rule:nonzero;"/><path d="M328,504c-70.576,0 -128,-57.424 -128,-128c0,-70.576 57.424,-128 128,-128c70.576,0 128,57.424 128,128c0,70.576 -57.424,128 -128,128Zm0,-216c-48.52,0 -88,39.48 -88,88c0,48.52 39.48,88 88,88c48.52,0 88,-39.48 88,-88c0,-48.52 -39.48,-88 -88,-88Z" style="fill:#48a9a6;fill-rule:nonzero;"/><path d="M328,472c-52.936,0 -96,-43.064 -96,-96c0,-52.936 43.064,-96 96,-96c52.936,0 96,43.064 96,96c0,52.936 -43.064,96 -96,96Zm0,-176c-44.112,0 -80,35.888 -80,80c0,44.112 35.888,80 80,80c44.112,0 80,-35.888 80,-80c0,-44.112 -35.888,-80 -80,-80Z" style="fill:#3f3a34;fill-rule:nonzero;"/></g></svg>