<?xml version="1.0" encoding="UTF-8" standalone="no"?><!DOCTYPE svg PUBLIC "-//W3C//DTD SVG 1.1//EN" "http://www.w3.org/Graphics/SVG/1.1/DTD/svg11.dtd"><svg width="100%" height="100%" viewBox="0 0 506 506" version="1.1" xmlns="http://www.w3.org/2000/svg" xmlns:xlink="http://www.w3.org/1999/xlink" xml:space="preserve" xmlns:serif="http://www.serif.com/" style="fill-rule:evenodd;clip-rule:evenodd;stroke-linejoin:round;stroke-miterlimit:2;"><path d="M424.242,432.871c19.457,0.004 35.758,14.738 37.719,34.098c-45.16,42.734 -115.848,42.703 -160.969,-0.071l0.067,-0.078c2.043,-19.3 18.324,-33.949 37.73,-33.949l10.391,0l6,13.59c4.406,10.613 14.672,17.617 26.16,17.851c11.488,0.239 22.031,-6.339 26.871,-16.761l6.82,-14.68l9.211,0Z" style="fill:#48a9a6;fill-rule:nonzero;"/><path d="M384.762,344.93c-16.492,-10.84 -31.071,-13.578 -33.75,-14.008c9.824,-13.113 27.172,-18.082 42.449,-12.16l0,0.008c14.027,5.457 23.269,18.968 23.269,34.019l0,25.41c-8.07,-13.312 -18.988,-24.676 -31.968,-33.269Z" style="fill:#4b5d63;fill-rule:nonzero;"/><path d="M398.961,305.48c0.008,4.891 -1.938,9.579 -5.402,13.032l-0.098,0.25c-8.359,-3.235 -17.609,-3.297 -26.012,-0.172l-0.097,-0.25c-5.801,-5.949 -6.903,-15.043 -2.688,-22.203c4.215,-7.16 12.703,-10.614 20.719,-8.43c8.015,2.184 13.578,9.465 13.578,17.773Z" style="fill:#d4e1f4;fill-rule:nonzero;"/><path d="M351.012,330.922c2.679,0.43 17.258,3.168 33.75,14.008c-3.903,17.242 -31.141,25.371 -40.93,22.23l-0.051,0c0.028,-8.23 0.071,-17.371 0.141,-18.019c0.652,-6.61 3.101,-12.911 7.09,-18.219Z" style="fill:#4b5d63;fill-rule:nonzero;"/><path d="M170.109,156.809c11.301,0 22.071,4.785 29.645,13.168c7.574,8.382 11.246,19.582 10.105,30.824l0,3.988c-22.093,23.211 -52.742,36.352 -84.789,36.352c-32.047,0 -62.695,-13.141 -84.789,-36.352l0,-3.988c-1.14,-11.242 2.531,-22.442 10.11,-30.824c7.578,-8.387 18.347,-13.168 29.648,-13.168l10.961,0l14.129,44.23l0.012,-0.008l14.75,-18.48l9.168,0l15.953,18.488l15.386,-44.23l9.711,0Z" style="fill:#48a9a6;fill-rule:nonzero;"/><path d="M162.191,65.559l0,1.582c-18.101,7.847 -34.562,3.031 -47.3,-4.801c-10.071,-6.414 -18.879,-14.621 -25.993,-24.211c1.129,-0.668 2.418,-1.024 3.731,-1.02l41.113,0c15.711,0.004 28.446,12.739 28.449,28.45Z" style="fill:#4b5d63;fill-rule:nonzero;"/><path d="M114.891,62.34l-0.129,0.219c0,0 -9.012,19.703 -29.5,22.64l0,-40.719c-0.008,-2.613 1.379,-5.035 3.636,-6.351c7.114,9.59 15.922,17.797 25.993,24.211Z" style="fill:#4b5d63;fill-rule:nonzero;"/><g><path d="M125.07,0c-49.629,0 -94.48,29.57 -114.035,75.184c-19.551,45.613 -10.043,98.488 24.176,134.433c34.984,36.746 88.816,48.488 135.926,29.653c47.109,-18.84 78.004,-64.461 78.004,-115.2c-0.079,-68.488 -55.582,-123.992 -124.071,-124.07Zm0,234.141c-29.195,0.117 -57.218,-11.485 -77.789,-32.2l0,-1.14c0,-0.238 -0.011,-0.473 -0.035,-0.707c-0.941,-9.274 2.09,-18.512 8.34,-25.426c6.25,-6.918 15.137,-10.859 24.457,-10.859l5.848,0l12.574,39.363c0.754,2.351 2.695,4.133 5.109,4.687c2.41,0.551 4.934,-0.211 6.637,-2.004c0.141,-0.144 0.273,-0.296 0.398,-0.46l12.649,-15.844l2.597,0l13.856,16.058c1.633,1.899 4.152,2.774 6.609,2.305c2.461,-0.469 4.481,-2.211 5.301,-4.574l13.758,-39.531l4.73,0c9.321,0 18.203,3.945 24.453,10.859c6.247,6.914 9.278,16.152 8.336,25.422c-0.023,0.234 -0.039,0.472 -0.039,0.707l0,1.144c-20.57,20.719 -48.593,32.317 -77.789,32.2Zm-3.343,-69.153l5.507,0l-2.754,8.793l-2.753,-8.793Zm94.144,21.321c-4.863,-21.36 -23.855,-36.508 -45.762,-36.5l-9.711,0c-2.976,0 -5.628,1.886 -6.609,4.699l-11.398,32.769l-5.477,-6.343l6.527,-20.856c0.668,-2.125 0.282,-4.441 -1.039,-6.234c-1.316,-1.797 -3.414,-2.856 -5.64,-2.856l-24.559,0c-2.226,0 -4.324,1.059 -5.641,2.856c-1.32,1.793 -1.707,4.109 -1.042,6.234l6.578,21.012l-4.278,5.359l-10.148,-31.769c-0.93,-2.903 -3.625,-4.871 -6.668,-4.871l-10.965,0c-21.906,-0.012 -40.906,15.14 -45.769,36.5c-31.407,-45.836 -23.727,-107.891 17.906,-144.688c41.629,-36.793 104.156,-36.793 145.789,0c41.629,36.797 49.308,98.852 17.906,144.688Z" style="fill:#3f3a34;fill-rule:nonzero;"/><path d="M133.742,30.109l-41.113,0c-7.93,0.008 -14.359,6.438 -14.367,14.371l0,57.02c0,25.109 20.355,45.465 45.465,45.465c25.109,0 45.464,-20.356 45.464,-45.465l0,-35.941c-0.023,-19.567 -15.882,-35.426 -35.449,-35.45Zm21.184,32.254c-11.774,3.621 -23.985,1.625 -36.375,-5.992c-5.559,-3.473 -10.688,-7.59 -15.285,-12.262l30.476,0c10.598,0.02 19.598,7.774 21.184,18.254Zm-62.664,-9.515c4.07,4.23 8.492,8.105 13.218,11.593c-3.382,4.852 -7.925,8.774 -13.218,11.411l0,-23.004Zm31.468,80.113c-17.378,0.004 -31.468,-14.082 -31.472,-31.461l0,-10.699c12.742,-3.793 20.89,-12.867 25.176,-19.074c8.07,4.105 16.98,6.289 26.031,6.382c3.945,-0.004 7.879,-0.453 11.726,-1.336l0,24.727c-0.023,17.367 -14.093,31.437 -31.461,31.461Z" style="fill:#3f3a34;fill-rule:nonzero;"/><path d="M381.512,257.859c-68.492,0.079 -123.992,55.582 -124.071,124.071c0,68.523 55.547,124.07 124.071,124.07c68.523,0 124.07,-55.547 124.07,-124.07c-0.078,-68.489 -55.582,-123.992 -124.07,-124.071Zm-72.977,206.454c3.024,-14.286 15.652,-24.489 30.254,-24.442l5.828,0l4.129,9.348c5.496,13.152 18.238,21.816 32.488,22.094c14.254,0.277 27.321,-7.887 33.325,-20.813l4.937,-10.629l4.746,0c14.606,-0.058 27.238,10.16 30.231,24.457c-41.649,36.902 -104.293,36.895 -145.938,-0.015Zm157,-11.27c-7.055,-16.531 -23.32,-27.234 -41.293,-27.172l-9.211,0c-2.726,0 -5.203,1.578 -6.351,4.051l-6.821,14.68c-3.671,7.902 -11.664,12.89 -20.379,12.711c-8.71,-0.18 -16.496,-5.493 -19.835,-13.543c-0.02,-0.047 -0.04,-0.094 -0.063,-0.141l-6,-13.59c-1.117,-2.535 -3.629,-4.172 -6.398,-4.172l-10.395,0c-17.969,-0.047 -34.23,10.649 -41.305,27.168c-16.914,-19.82 -26.152,-45.055 -26.043,-71.109c-0.121,-39.403 20.832,-75.864 54.938,-95.602c34.105,-19.734 76.156,-19.734 110.262,0c34.105,19.738 55.058,56.199 54.937,95.602c0.109,26.058 -9.129,51.293 -26.043,71.117Z" style="fill:#3f3a34;fill-rule:nonzero;"/><path d="M403.633,316.129c4.902,-10.637 1.902,-23.246 -7.266,-30.535c-9.168,-7.289 -22.129,-7.375 -31.387,-0.203c-9.261,7.171 -12.425,19.738 -7.664,30.437c-11.476,7.098 -19,19.129 -20.355,32.559c-0.066,0.629 -0.117,1.082 -0.18,18.746c-0.031,6.949 -0.039,13.246 -0.039,13.254c-0.238,15.699 7.996,30.304 21.555,38.222c13.555,7.918 30.324,7.918 43.879,0c13.554,-7.918 21.793,-22.523 21.554,-38.222l0,-27.598c0.036,-11.547 -4.554,-22.629 -12.746,-30.769c-2.23,-2.223 -4.695,-4.196 -7.351,-5.891Zm6.101,41.074c-6.246,-6.91 -13.343,-13 -21.125,-18.121c-7.32,-4.82 -15.203,-8.723 -23.476,-11.617c1.519,-0.914 3.117,-1.692 4.773,-2.32c6.688,-2.469 14.039,-2.461 20.723,0.027c0.098,0.043 0.199,0.082 0.297,0.125c11.34,4.41 18.808,15.332 18.808,27.5l0,4.406Zm-58.832,-7.5c0.403,-3.828 1.551,-7.543 3.387,-10.93c7.609,2.012 14.918,5.039 21.723,8.997c-2.305,3.195 -5.301,5.832 -8.766,7.714c-5.059,2.86 -10.656,4.653 -16.437,5.262c0.019,-4.726 0.05,-9.957 0.089,-11.047l0.004,0.004Zm29.641,-55.641c3.957,0 7.637,2.047 9.715,5.415c2.082,3.367 2.269,7.57 0.5,11.109c-6.723,-1.676 -13.746,-1.723 -20.492,-0.137c-1.715,-3.539 -1.489,-7.711 0.597,-11.039c2.09,-3.332 5.746,-5.351 9.676,-5.351l0.004,0.003Zm-0.309,115.833c-16.285,-0.004 -29.484,-13.207 -29.492,-29.493c0,0 0,-2.297 0.016,-5.636c8.246,-0.586 16.254,-3.024 23.433,-7.125c5.352,-2.903 9.954,-7.016 13.438,-12.012c8.691,6.906 16.164,15.223 22.105,24.601l0,0.165c-0.019,16.285 -13.218,29.48 -29.504,29.496l0.004,0.004Z" style="fill:#3f3a34;fill-rule:nonzero;"/><path d="M225.691,436.711l-136.816,0c-3.715,-0.035 -7.254,-1.582 -9.801,-4.285c-2.551,-2.703 -3.886,-6.324 -3.707,-10.035l0,-0.137l0.215,-105.238l23.445,23.445c2.735,2.73 7.168,2.73 9.903,0c2.734,-2.734 2.734,-7.168 0,-9.902l-35.348,-35.344l-0.016,-0.016c-0.019,-0.023 -0.046,-0.043 -0.07,-0.066c-0.141,-0.133 -0.281,-0.266 -0.43,-0.391c-0.05,-0.039 -0.101,-0.074 -0.156,-0.113c-0.129,-0.102 -0.258,-0.199 -0.398,-0.293c-0.051,-0.031 -0.102,-0.059 -0.153,-0.094c-0.144,-0.09 -0.285,-0.18 -0.437,-0.262c-0.039,-0.019 -0.082,-0.039 -0.125,-0.058c-0.16,-0.082 -0.324,-0.164 -0.492,-0.235c-0.035,-0.015 -0.075,-0.027 -0.106,-0.039c-0.179,-0.07 -0.355,-0.136 -0.539,-0.195l-0.113,-0.027c-0.18,-0.055 -0.363,-0.102 -0.547,-0.141c-0.07,-0.012 -0.141,-0.019 -0.211,-0.031c-0.156,-0.024 -0.312,-0.055 -0.469,-0.07c-0.16,-0.016 -0.293,-0.016 -0.437,-0.024c-0.086,0 -0.168,-0.012 -0.254,-0.012l-0.008,0c-0.234,0 -0.469,0.012 -0.699,0.036c-0.168,0.015 -0.332,0.046 -0.496,0.074c-0.059,0.012 -0.125,0.015 -0.184,0.027c-0.199,0.039 -0.394,0.094 -0.586,0.149c-0.023,0.007 -0.051,0.011 -0.078,0.019c-0.199,0.059 -0.391,0.133 -0.578,0.207l-0.063,0.024c-0.179,0.074 -0.355,0.16 -0.523,0.246c-0.031,0.015 -0.066,0.031 -0.098,0.047c-0.16,0.085 -0.312,0.183 -0.464,0.281c-0.04,0.023 -0.082,0.047 -0.122,0.07c-0.152,0.102 -0.3,0.215 -0.441,0.328c-0.035,0.028 -0.074,0.055 -0.109,0.082c-0.176,0.145 -0.344,0.301 -0.504,0.457l-35.352,35.364c-2.734,2.73 -2.734,7.164 0,9.898c2.735,2.734 7.168,2.734 9.899,0l23.367,-23.367l-0.219,105.07c-0.238,7.422 2.516,14.625 7.645,19.996c5.125,5.367 12.195,8.449 19.617,8.551l137.058,0c3.864,0 7,-3.133 7,-7c0,-3.863 -3.136,-7 -7,-7l0,0.004Z" style="fill:#3f3a34;fill-rule:nonzero;"/><path d="M283.27,69.289l136.816,0c3.715,0.016 7.262,1.555 9.812,4.262c2.497,2.738 3.821,6.347 3.684,10.051l0,0.14l-0.215,105.238l-23.437,-23.441c-2.731,-2.734 -7.164,-2.734 -9.899,0c-2.734,2.734 -2.734,7.168 0,9.898l35.352,35.364c0.043,0.043 0.09,0.078 0.133,0.121c0.121,0.113 0.238,0.226 0.367,0.332c0.058,0.051 0.121,0.09 0.183,0.137c0.121,0.093 0.239,0.187 0.368,0.273c0.054,0.035 0.113,0.066 0.171,0.106c0.137,0.085 0.274,0.171 0.415,0.246c0.05,0.027 0.101,0.046 0.148,0.074c0.156,0.078 0.312,0.152 0.473,0.222c0.043,0.016 0.086,0.032 0.129,0.047c0.167,0.067 0.339,0.129 0.515,0.184c0.047,0.016 0.098,0.023 0.145,0.039c0.172,0.047 0.343,0.094 0.519,0.129c0.078,0.016 0.16,0.023 0.242,0.039c0.145,0.023 0.289,0.051 0.438,0.063c0.144,0.015 0.312,0.019 0.469,0.027c0.074,0 0.148,0.012 0.222,0.012l0.016,0c0.234,0 0.465,-0.012 0.699,-0.036c0.18,-0.019 0.352,-0.046 0.524,-0.078c0.05,-0.008 0.101,-0.011 0.156,-0.023c0.203,-0.039 0.406,-0.094 0.605,-0.152c0.02,0 0.035,-0.008 0.055,-0.016c0.199,-0.059 0.398,-0.133 0.59,-0.211l0.055,-0.02c0.183,-0.074 0.359,-0.16 0.531,-0.25c0.027,-0.015 0.058,-0.027 0.086,-0.043c0.16,-0.085 0.312,-0.179 0.461,-0.277c0.043,-0.027 0.089,-0.051 0.129,-0.078c0.14,-0.094 0.273,-0.199 0.406,-0.301c0.047,-0.035 0.097,-0.066 0.144,-0.105c0.176,-0.145 0.344,-0.297 0.5,-0.457l0.008,0l35.36,-35.36c2.734,-2.734 2.734,-7.168 0,-9.898c-2.735,-2.734 -7.168,-2.734 -9.899,0l-23.379,23.375l0.215,-105.074c0.207,-7.332 -2.461,-14.45 -7.437,-19.836c-5.145,-5.481 -12.301,-8.625 -19.817,-8.715l-137.058,0c-3.868,0 -7,3.133 -7,7c0,3.863 3.132,7 7,7l0,-0.008Z" style="fill:#3f3a34;fill-rule:nonzero;"/></g></svg>